<?xml version="1.0" encoding="UTF-8" standalone="no"?>
<!-- Generator: Adobe Illustrator 19.1.0, SVG Export Plug-In . SVG Version: 6.00 Build 0)  -->

<svg
   xmlns:dc="http://purl.org/dc/elements/1.1/"
   xmlns:cc="http://creativecommons.org/ns#"
   xmlns:rdf="http://www.w3.org/1999/02/22-rdf-syntax-ns#"
   xmlns="http://www.w3.org/2000/svg"
   xmlns:sodipodi="http://sodipodi.sourceforge.net/DTD/sodipodi-0.dtd"
   xmlns:inkscape="http://www.inkscape.org/namespaces/inkscape"
   version="1.1"
   x="0px"
   y="0px"
   width="24px"
   height="24px"
   viewBox="0 0 24 24"
   enable-background="new 0 0 24 24"
   xml:space="preserve"
   id="svg9"
   sodipodi:docname="ic_action_cold.svg"
   inkscape:version="0.92.3 (2405546, 2018-03-11)"><metadata
   id="metadata15"><rdf:RDF><cc:Work
       rdf:about=""><dc:format>image/svg+xml</dc:format><dc:type
         rdf:resource="http://purl.org/dc/dcmitype/StillImage" /></cc:Work></rdf:RDF></metadata><defs
   id="defs13" /><sodipodi:namedview
   pagecolor="#ffffff"
   bordercolor="#666666"
   borderopacity="1"
   objecttolerance="10"
   gridtolerance="10"
   guidetolerance="10"
   inkscape:pageopacity="0"
   inkscape:pageshadow="2"
   inkscape:window-width="780"
   inkscape:window-height="480"
   id="namedview11"
   showgrid="false"
   inkscape:zoom="9.8333333"
   inkscape:cx="-5.7966102"
   inkscape:cy="12"
   inkscape:window-x="0"
   inkscape:window-y="27"
   inkscape:window-maximized="0"
   inkscape:current-layer="svg9" />

<g
   id="Outline"
   style="fill:#ffffff;fill-opacity:1">
	<g
   id="ui_x5F_spec_x5F_header"
   display="none"
   style="fill:#ffffff;fill-opacity:1">
	</g>
	<path
   d="M22,11h-4.17l3.24-3.24l-1.41-1.42L15,11h-2V9l4.66-4.66l-1.42-1.41L13,6.17V2h-2v4.17L7.76,2.93L6.34,4.34L11,9v2H9   L4.34,6.34L2.93,7.76L6.17,11H2v2h4.17l-3.24,3.24l1.41,1.42L9,13h2v2l-4.66,4.66l1.42,1.41L11,17.83V22h2v-4.17l3.24,3.24   l1.42-1.41L13,15v-2h2l4.66,4.66l1.41-1.42L17.83,13H22V11z"
   id="path6"
   style="fill:#ffffff;fill-opacity:1" />
</g>
</svg>