<?xml version="1.0" encoding="UTF-8" standalone="no"?>
<svg xmlns:dc="http://purl.org/dc/elements/1.1/" xmlns:cc="http://creativecommons.org/ns#" xmlns:rdf="http://www.w3.org/1999/02/22-rdf-syntax-ns#"
    xmlns="http://www.w3.org/2000/svg" xmlns:sodipodi="http://sodipodi.sourceforge.net/DTD/sodipodi-0.dtd"
    xmlns:inkscape="http://www.inkscape.org/namespaces/inkscape" width="24" height="24" viewBox="0 0 24 24"
    id="svg2" version="1.1" inkscape:version="0.92.3 (2405546, 2018-03-11)" sodipodi:docname="ic_action_view_as_list.svg">
  <metadata
     id="metadata12">
    <rdf:RDF>
      <cc:Work
         rdf:about="">
        <dc:format>image/svg+xml</dc:format>
        <dc:type
           rdf:resource="http://purl.org/dc/dcmitype/StillImage" />
        <dc:title></dc:title>
      </cc:Work>
    </rdf:RDF>
  </metadata>
  <defs
     id="defs10" />
  <sodipodi:namedview
     pagecolor="#000000"
     bordercolor="#666666"
     borderopacity="1"
     objecttolerance="10"
     gridtolerance="10"
     guidetolerance="10"
     inkscape:pageopacity="0"
     inkscape:pageshadow="2"
     inkscape:window-width="1280"
     inkscape:window-height="926"
     id="namedview8"
     showgrid="true"
     inkscape:zoom="21.755963"
     inkscape:cx="13.888635"
     inkscape:cy="10.693784"
     inkscape:window-x="1366"
     inkscape:window-y="27"
     inkscape:window-maximized="1"
     inkscape:current-layer="layer1"
     inkscape:pagecheckerboard="true" />
  <path
     d="M0 0h24v24H0z"
     fill="none"
     id="path4" />
  <g
     inkscape:groupmode="layer"
     id="layer1"
     inkscape:label="Layer 1"
     style="display:inline">
    <g
       id="g875"
       style="fill:#ffffff;fill-opacity:1">
      <g
         style="fill:#ffffff;fill-opacity:1"
         id="g856">
        <path
           inkscape:connector-curvature="0"
           style="fill:#ffffff;fill-opacity:1"
           d="M 15,6 H 3 v 2 h 12 z"
           id="path841" />
        <path
           inkscape:connector-curvature="0"
           style="fill:#ffffff;fill-opacity:1"
           d="M 15,10 H 3 v 2 h 12 z"
           id="path839" />
        <path
           inkscape:connector-curvature="0"
           style="fill:#ffffff;fill-opacity:1"
           d="m 3,16 h 8 V 14 H 3 Z"
           id="path837" />
      </g>
      <g
         style="fill:#ffffff;fill-opacity:1;stroke:none;stroke-opacity:1"
         transform="matrix(0.78092491,0,0,0.78092491,7.9433515,3.6572252)"
         id="Outline">
	<g
   style="fill:#ffffff;fill-opacity:1;stroke:none;stroke-opacity:1"
   id="ui_x5F_spec_x5F_header">
	</g>

	<path
   style="fill:#ffffff;fill-opacity:1;stroke:none;stroke-opacity:1"
   inkscape:connector-curvature="0"
   id="path7"
   d="m 12,3 0.01,10.55 C 11.42,13.21 10.74,13 10.01,13 7.79,13 6,14.79 6,17 6,19.21 7.79,21 10.01,21 12.23,21 14,19.21 14,17 V 7 h 4 V 3 Z m -1.99,16 c -1.1,0 -2,-0.9 -2,-2 0,-1.1 0.9,-2 2,-2 1.1,0 2,0.9 2,2 0,1.1 -0.9,2 -2,2 z" />

</g>
    </g>
  </g>
</svg>
