<?xml version="1.0" encoding="UTF-8" standalone="no"?>
<!-- Generator: Adobe Illustrator 19.1.0, SVG Export Plug-In . SVG Version: 6.00 Build 0)  -->

<svg
   xmlns:dc="http://purl.org/dc/elements/1.1/"
   xmlns:cc="http://creativecommons.org/ns#"
   xmlns:rdf="http://www.w3.org/1999/02/22-rdf-syntax-ns#"
   xmlns="http://www.w3.org/2000/svg"
   xmlns:sodipodi="http://sodipodi.sourceforge.net/DTD/sodipodi-0.dtd"
   xmlns:inkscape="http://www.inkscape.org/namespaces/inkscape"
   version="1.1"
   x="0px"
   y="0px"
   width="24px"
   height="24px"
   viewBox="0 0 24 24"
   enable-background="new 0 0 24 24"
   xml:space="preserve"
   id="svg10"
   sodipodi:docname="ic_stats.svg"
   inkscape:version="0.92.3 (2405546, 2018-03-11)"><metadata
   id="metadata16"><rdf:RDF><cc:Work
       rdf:about=""><dc:format>image/svg+xml</dc:format><dc:type
         rdf:resource="http://purl.org/dc/dcmitype/StillImage" /><dc:title></dc:title></cc:Work></rdf:RDF></metadata><defs
   id="defs14" /><sodipodi:namedview
   pagecolor="#ffffff"
   bordercolor="#666666"
   borderopacity="1"
   objecttolerance="10"
   gridtolerance="10"
   guidetolerance="10"
   inkscape:pageopacity="0"
   inkscape:pageshadow="2"
   inkscape:window-width="1280"
   inkscape:window-height="926"
   id="namedview12"
   showgrid="true"
   inkscape:zoom="15.383789"
   inkscape:cx="6.7125137"
   inkscape:cy="5.7795987"
   inkscape:window-x="1366"
   inkscape:window-y="27"
   inkscape:window-maximized="1"
   inkscape:current-layer="svg10"><inkscape:grid
     type="xygrid"
     id="grid823" /></sodipodi:namedview>
<g
   id="Bounding_Boxes">
	<g
   id="ui_x5F_spec_x5F_header_copy_3">
	</g>
	<path
   fill="none"
   d="M0,0h24v24H0V0z"
   id="path3" />
</g>
<g
   id="Outline"
   style="fill:#fbffff;fill-opacity:1">
	<g
   id="ui_x5F_spec_x5F_header"
   style="fill:#fbffff;fill-opacity:1">
	</g>
	<path
   d="m 13,2.05 v 3.03 c 3.39,0.49 6,3.39 6,6.92 0,0.9 -0.18,1.75 -0.48,2.54 l 2.6,1.53 C 21.68,14.83 22,13.45 22,12 22,6.82 18.05,2.55 13,2.05 Z M 12,19 C 8.13,19 5,15.87 5,12 5,8.47 7.61,5.57 11,5.08 V 2.05 C 5.94,2.55 2,6.81 2,12 c 0,5.52 4.47,10 9.99,10 3.31,0 6.24,-1.61 8.06,-4.09 l -2.6,-1.53 C 16.17,17.98 14.21,19 12,19 Z"
   id="path7"
   inkscape:connector-curvature="0"
   style="fill:#fbffff;fill-opacity:1" />
</g>
</svg>