<?xml version="1.0" encoding="UTF-8" standalone="no"?>
<!-- Created with Inkscape (http://www.inkscape.org/) -->

<svg
   xmlns:dc="http://purl.org/dc/elements/1.1/"
   xmlns:cc="http://creativecommons.org/ns#"
   xmlns:rdf="http://www.w3.org/1999/02/22-rdf-syntax-ns#"
   xmlns:svg="http://www.w3.org/2000/svg"
   xmlns="http://www.w3.org/2000/svg"
   xmlns:sodipodi="http://sodipodi.sourceforge.net/DTD/sodipodi-0.dtd"
   xmlns:inkscape="http://www.inkscape.org/namespaces/inkscape"
   width="32"
   height="32"
   id="svg2995"
   version="1.1"
   inkscape:version="0.48.4 r9939"
   sodipodi:docname="tag_stress.svg"
   inkscape:export-filename="/home/petr/project/android-git/Sleep-actionbar2/res/drawable-xhdpi/tag_stress.png"
   inkscape:export-xdpi="135"
   inkscape:export-ydpi="135">
  <defs
     id="defs2997">
    <inkscape:path-effect
       is_visible="true"
       id="path-effect13434"
       effect="spiro" />
    <inkscape:path-effect
       effect="spiro"
       id="path-effect13430"
       is_visible="true" />
    <inkscape:path-effect
       is_visible="true"
       id="path-effect6286"
       effect="spiro" />
    <inkscape:path-effect
       effect="spiro"
       id="path-effect3157"
       is_visible="true" />
  </defs>
  <sodipodi:namedview
     id="base"
     pagecolor="#000000"
     bordercolor="#666666"
     borderopacity="1.0"
     inkscape:pageopacity="0"
     inkscape:pageshadow="2"
     inkscape:zoom="7.9195959"
     inkscape:cx="-19.093816"
     inkscape:cy="7.268394"
     inkscape:document-units="px"
     inkscape:current-layer="layer1"
     showgrid="false"
     inkscape:window-width="1317"
     inkscape:window-height="744"
     inkscape:window-x="49"
     inkscape:window-y="24"
     inkscape:window-maximized="1" />
  <metadata
     id="metadata3000">
    <rdf:RDF>
      <cc:Work
         rdf:about="">
        <dc:format>image/svg+xml</dc:format>
        <dc:type
           rdf:resource="http://purl.org/dc/dcmitype/StillImage" />
        <dc:title></dc:title>
      </cc:Work>
    </rdf:RDF>
  </metadata>
  <g
     inkscape:label="Layer 1"
     inkscape:groupmode="layer"
     id="layer1"
     transform="translate(0,-1020.3622)">
    <path
       sodipodi:type="inkscape:offset"
       inkscape:radius="0.26784915"
       inkscape:original="M 16.96875 1021.4062 C 13.448645 1021.4105 9.8431648 1022.8133 6.875 1025.7812 C 2.2159033 1030.4403 1.3369118 1037.4884 4.8125 1042.9688 C 6.6246509 1045.8262 9.5497192 1048.3334 12.1875 1049.125 C 16.974658 1050.5621 23.273277 1049.2716 26.71875 1046.0625 C 29.286251 1043.671 30.986823 1039.4844 30.96875 1035.7188 C 30.930437 1027.7074 25.084689 1022.216 18.46875 1021.5 C 17.98426 1021.4475 17.482467 1021.4057 16.96875 1021.4062 z M 16.3125 1024.0938 C 16.787017 1024.0694 17.269441 1024.0855 17.75 1024.125 C 23.456159 1024.594 28.5625 1029.5451 28.5625 1035.875 C 28.5625 1038.2507 28.114746 1040.1352 27.1875 1041.6562 C 26.260351 1043.1776 24.819866 1044.3968 22.6875 1045.375 C 21.633828 1045.8584 19.625606 1046.3952 17.65625 1046.6875 C 15.689742 1046.9794 13.656732 1046.9558 12.90625 1046.6562 C 10.737368 1045.7908 8.693862 1043.9291 7.28125 1041.7188 C 5.8698412 1039.51 5.1164467 1036.9642 5.375 1034.7812 C 5.8308585 1030.9322 8.677672 1026.9341 12 1025.25 C 13.422064 1024.529 14.876015 1024.1667 16.3125 1024.0938 z "
       style="fill:#323232;fill-opacity:1"
       id="path3312"
       d="m 16.96875,1021.125 c -3.591042,0 -7.2662349,1.454 -10.28125,4.4688 -4.7426905,4.7426 -5.6359035,11.9458 -2.09375,17.5312 1.8440163,2.9076 4.7965504,5.4293 7.53125,6.25 4.891419,1.4684 11.242849,0.1707 14.78125,-3.125 2.638421,-2.4576 4.362215,-6.6841 4.34375,-10.5312 -0.03893,-8.1412 -6.005193,-13.7701 -12.75,-14.5 -0.489044,-0.053 -1.002834,-0.094 -1.53125,-0.094 z m -0.65625,3.25 c 0.459184,-0.024 0.934355,-0.01 1.40625,0.031 5.56578,0.4575 10.5625,5.2829 10.5625,11.4688 0,2.342 -0.416489,4.1865 -1.3125,5.6562 -0.896084,1.4705 -2.308996,2.6317 -4.40625,3.5938 -1.004741,0.461 -2.989094,1.0233 -4.9375,1.3125 -0.968957,0.1438 -1.980453,0.1942 -2.8125,0.1875 -0.832047,-0.01 -1.512356,-0.099 -1.8125,-0.2188 -2.09986,-0.8378 -4.1137576,-2.6747 -5.5,-4.8437 -1.3844139,-2.1666 -2.0922944,-4.6515 -1.84375,-6.75 0.4430879,-3.7412 3.2438708,-7.6778 6.46875,-9.3125 1.388666,-0.7041 2.786741,-1.0539 4.1875,-1.125 z"
       transform="translate(-0.86357816,0.75761442)" />
    <path
       style="fill:#ffffff"
       d="m 11.217313,1049.543 c -2.3362422,-0.7011 -5.3651905,-3.5189 -7.0782855,-6.2203 -3.28240938,-5.1757 -2.4311782,-12.237 2.0436149,-16.5945 9.6361096,-9.3836 23.6154116,-2.291 23.6738316,9.9242 0.01689,3.5193 -2.136714,8.0532 -4.490599,10.2456 -3.165466,2.9484 -9.678551,3.9867 -14.148562,2.645 z m 11.351799,-3.5501 c 2.197204,-1.0403 5.054931,-3.5955 5.433738,-8.4142 0.705238,-8.9711 -9.065727,-16.3456 -16.938099,-11.842 -3.8486372,2.2017 -7.0924149,7.1038 -6.7827848,11.2776 0.4351189,5.8654 5.3728191,10.1205 8.2605038,10.7738 3.160101,0.7149 8.541214,-1.0871 10.026642,-1.7952 z"
       id="path2993"
       inkscape:connector-curvature="0"
       sodipodi:nodetypes="cssccccssssc" />
    <path
       sodipodi:type="inkscape:offset"
       inkscape:radius="0.55531257"
       inkscape:original="M 11.53125 1029.7812 C 10.892172 1029.8167 10.26657 1030.2326 9.78125 1030.9688 C 8.9833171 1032.1786 8.8532179 1033.9153 9.4375 1035.3125 C 9.7443773 1036.0463 10.217966 1036.6643 10.75 1036.9062 C 11.652606 1037.3173 12.798487 1036.9476 13.40625 1036.0938 C 13.858606 1035.4549 14.127944 1034.4129 14.125 1033.4688 C 14.121533 1032.365 13.837857 1031.4341 13.375 1030.7812 C 12.912143 1030.1286 12.231115 1029.7416 11.53125 1029.7812 z M 11.59375 1031.0938 C 11.92706 1031.0748 12.245853 1031.2507 12.53125 1031.6562 C 12.816647 1032.062 13.028779 1032.685 13.03125 1033.4688 C 13.03327 1034.1121 12.835149 1034.8778 12.59375 1035.2188 C 12.268243 1035.6784 11.546918 1035.8795 11.125 1035.6875 C 10.973836 1035.6187 10.5781 1035.1732 10.375 1034.6875 C 9.9872431 1033.7603 10.083888 1032.4918 10.59375 1031.7188 C 10.903263 1031.2492 11.273484 1031.1118 11.59375 1031.0938 z "
       style="fill:#323232;fill-opacity:1"
       id="path13420"
       d="m 11.5,1029.2188 c -0.858854,0.048 -1.6343787,0.5984 -2.1875,1.4374 -0.9171443,1.3906 -1.0337926,3.2997 -0.375,4.875 0.3425206,0.8191 0.8503441,1.537 1.59375,1.875 1.178231,0.5367 2.557422,0.061 3.3125,-1 a 0.55536811,0.55536811 0 0 0 0.03125,0 c 0.556828,-0.7864 0.815777,-1.8865 0.8125,-2.9374 -0.0038,-1.198 -0.330025,-2.2313 -0.875,-3 -0.551625,-0.7778 -1.388616,-1.3023 -2.3125,-1.25 z m 0.125,2.4374 c 0.1188,-0.01 0.220622,0 0.4375,0.3126 0.206033,0.2929 0.404092,0.8154 0.40625,1.5 0.0017,0.5279 -0.246068,1.2995 -0.34375,1.4374 -0.07301,0.1031 -0.23317,0.1971 -0.40625,0.25 -0.17308,0.053 -0.339156,0.048 -0.375,0.031 0.08472,0.039 0.03853,0.01 0,-0.031 -0.03853,-0.037 -0.067,-0.083 -0.125,-0.1562 -0.116006,-0.1464 -0.268411,-0.3511 -0.34375,-0.5312 -0.305528,-0.7306 -0.186376,-1.8707 0.1875,-2.4376 0.224929,-0.3412 0.376372,-0.3645 0.5625,-0.375 z"
       transform="matrix(1.1030697,0,0,1.1030697,-1.0326796,-107.46571)" />
    <path
       sodipodi:type="inkscape:offset"
       inkscape:radius="0.30843383"
       inkscape:original="M 11.5625 1030.0938 C 11.039576 1030.1227 10.475926 1030.4506 10.03125 1031.125 C 9.302671 1032.2298 9.177273 1033.8927 9.71875 1035.1875 C 10.001346 1035.8632 10.489606 1036.4497 10.875 1036.625 C 11.612389 1036.9607 12.634064 1036.6399 13.15625 1035.9062 C 13.544555 1035.3579 13.815245 1034.3491 13.8125 1033.4688 C 13.8059 1031.368 12.712932 1030.0285 11.5625 1030.0938 z M 11.5625 1030.7812 C 12.47837 1030.7293 13.338475 1031.7961 13.34375 1033.4688 C 13.34595 1034.1696 13.152883 1034.9697 12.84375 1035.4062 C 12.428032 1035.9934 11.587042 1036.2359 11 1035.9688 C 10.693184 1035.8291 10.318728 1035.3505 10.09375 1034.8125 C 9.662677 1033.7817 9.763722 1032.4421 10.34375 1031.5625 C 10.697762 1031.0256 11.146195 1030.8048 11.5625 1030.7812 z "
       style="fill:#ffffff;fill-opacity:1"
       id="path6280"
       d="m 11.53125,1029.7812 c -0.639078,0.035 -1.26468,0.4515 -1.75,1.1876 -0.7979329,1.2099 -0.9280321,2.9465 -0.34375,4.3437 0.3068773,0.7338 0.780466,1.3517 1.3125,1.5937 0.902606,0.411 2.048487,0.042 2.65625,-0.8124 0.452356,-0.6388 0.721694,-1.6808 0.71875,-2.625 -0.0035,-1.1037 -0.287143,-2.0348 -0.75,-2.6876 -0.462857,-0.6527 -1.143885,-1.0397 -1.84375,-1 z m 0.0625,1.3126 c 0.33331,-0.019 0.652103,0.1568 0.9375,0.5624 0.285397,0.4057 0.497529,1.0289 0.5,1.8126 0.002,0.6434 -0.196101,1.4091 -0.4375,1.75 -0.325507,0.4597 -1.046832,0.6607 -1.46875,0.4687 -0.151164,-0.069 -0.5469,-0.5143 -0.75,-1 -0.3877569,-0.9272 -0.291112,-2.1956 0.21875,-2.9687 0.309513,-0.4695 0.679734,-0.6069 1,-0.625 z"
       transform="matrix(1.1030697,0,0,1.1030697,-1.0326796,-107.46571)" />
    <path
       transform="matrix(1.1030697,0,0,1.1030697,7.346128,-107.46571)"
       d="m 11.5,1029.2188 c -0.858854,0.048 -1.6343787,0.5984 -2.1875,1.4374 -0.9171443,1.3906 -1.0337926,3.2997 -0.375,4.875 0.3425206,0.8191 0.8503441,1.537 1.59375,1.875 1.178231,0.5367 2.557422,0.061 3.3125,-1 a 0.55536811,0.55536811 0 0 0 0.03125,0 c 0.556828,-0.7864 0.815777,-1.8865 0.8125,-2.9374 -0.0038,-1.198 -0.330025,-2.2313 -0.875,-3 -0.551625,-0.7778 -1.388616,-1.3023 -2.3125,-1.25 z m 0.125,2.4374 c 0.1188,-0.01 0.220622,0 0.4375,0.3126 0.206033,0.2929 0.404092,0.8154 0.40625,1.5 0.0017,0.5279 -0.246068,1.2995 -0.34375,1.4374 -0.07301,0.1031 -0.23317,0.1971 -0.40625,0.25 -0.17308,0.053 -0.339156,0.048 -0.375,0.031 0.08472,0.039 0.03853,0.01 0,-0.031 -0.03853,-0.037 -0.067,-0.083 -0.125,-0.1562 -0.116006,-0.1464 -0.268411,-0.3511 -0.34375,-0.5312 -0.305528,-0.7306 -0.186376,-1.8707 0.1875,-2.4376 0.224929,-0.3412 0.376372,-0.3645 0.5625,-0.375 z"
       id="path13424"
       style="fill:#323232;fill-opacity:1"
       inkscape:original="M 11.53125 1029.7812 C 10.892172 1029.8167 10.26657 1030.2326 9.78125 1030.9688 C 8.9833171 1032.1786 8.8532179 1033.9153 9.4375 1035.3125 C 9.7443773 1036.0463 10.217966 1036.6643 10.75 1036.9062 C 11.652606 1037.3173 12.798487 1036.9476 13.40625 1036.0938 C 13.858606 1035.4549 14.127944 1034.4129 14.125 1033.4688 C 14.121533 1032.365 13.837857 1031.4341 13.375 1030.7812 C 12.912143 1030.1286 12.231115 1029.7416 11.53125 1029.7812 z M 11.59375 1031.0938 C 11.92706 1031.0748 12.245853 1031.2507 12.53125 1031.6562 C 12.816647 1032.062 13.028779 1032.685 13.03125 1033.4688 C 13.03327 1034.1121 12.835149 1034.8778 12.59375 1035.2188 C 12.268243 1035.6784 11.546918 1035.8795 11.125 1035.6875 C 10.973836 1035.6187 10.5781 1035.1732 10.375 1034.6875 C 9.9872431 1033.7603 10.083888 1032.4918 10.59375 1031.7188 C 10.903263 1031.2492 11.273484 1031.1118 11.59375 1031.0938 z "
       inkscape:radius="0.55531257"
       sodipodi:type="inkscape:offset" />
    <path
       transform="matrix(1.1030697,0,0,1.1030697,7.346128,-107.46571)"
       d="m 11.53125,1029.7812 c -0.639078,0.035 -1.26468,0.4515 -1.75,1.1876 -0.7979329,1.2099 -0.9280321,2.9465 -0.34375,4.3437 0.3068773,0.7338 0.780466,1.3517 1.3125,1.5937 0.902606,0.411 2.048487,0.042 2.65625,-0.8124 0.452356,-0.6388 0.721694,-1.6808 0.71875,-2.625 -0.0035,-1.1037 -0.287143,-2.0348 -0.75,-2.6876 -0.462857,-0.6527 -1.143885,-1.0397 -1.84375,-1 z m 0.0625,1.3126 c 0.33331,-0.019 0.652103,0.1568 0.9375,0.5624 0.285397,0.4057 0.497529,1.0289 0.5,1.8126 0.002,0.6434 -0.196101,1.4091 -0.4375,1.75 -0.325507,0.4597 -1.046832,0.6607 -1.46875,0.4687 -0.151164,-0.069 -0.5469,-0.5143 -0.75,-1 -0.3877569,-0.9272 -0.291112,-2.1956 0.21875,-2.9687 0.309513,-0.4695 0.679734,-0.6069 1,-0.625 z"
       id="path13426"
       style="fill:#ffffff;fill-opacity:1"
       inkscape:original="M 11.5625 1030.0938 C 11.039576 1030.1227 10.475926 1030.4506 10.03125 1031.125 C 9.302671 1032.2298 9.177273 1033.8927 9.71875 1035.1875 C 10.001346 1035.8632 10.489606 1036.4497 10.875 1036.625 C 11.612389 1036.9607 12.634064 1036.6399 13.15625 1035.9062 C 13.544555 1035.3579 13.815245 1034.3491 13.8125 1033.4688 C 13.8059 1031.368 12.712932 1030.0285 11.5625 1030.0938 z M 11.5625 1030.7812 C 12.47837 1030.7293 13.338475 1031.7961 13.34375 1033.4688 C 13.34595 1034.1696 13.152883 1034.9697 12.84375 1035.4062 C 12.428032 1035.9934 11.587042 1036.2359 11 1035.9688 C 10.693184 1035.8291 10.318728 1035.3505 10.09375 1034.8125 C 9.662677 1033.7817 9.763722 1032.4421 10.34375 1031.5625 C 10.697762 1031.0256 11.146195 1030.8048 11.5625 1030.7812 z "
       inkscape:radius="0.30843383"
       sodipodi:type="inkscape:offset" />
    <path
       sodipodi:type="inkscape:offset"
       inkscape:radius="0.54104006"
       inkscape:original="M 16.40625 1038.7188 C 15.292919 1038.7672 14.176976 1038.976 13.125 1039.3438 C 11.419493 1039.9484 9.4424429 1041.0925 8.59375 1042.9062 C 8.5572418 1043.1863 8.70646 1043.5518 8.96875 1043.6562 C 9.4264018 1043.8387 9.9175767 1043.4034 10.34375 1043.1562 C 10.963796 1042.7966 11.357159 1042.067 12 1041.75 C 14.074528 1040.8192 17.224662 1040.7844 19.6875 1041 C 20.775921 1041.5754 21.901488 1042.4534 22.96875 1043.2812 C 23.246769 1043.3792 23.655465 1043.4778 23.875 1043.2812 C 24.158997 1043.0271 24.106077 1042.4911 24 1042.125 C 23.165579 1040.6833 21.889244 1039.5868 20.0625 1039.0938 C 18.88074 1038.763 17.632206 1038.6657 16.40625 1038.7188 z "
       style="fill:#323232;fill-opacity:1;stroke:none"
       id="path13436"
       d="m 16.375,1038.1875 c -1.165113,0.051 -2.333217,0.2702 -3.4375,0.6563 -1.783995,0.6324 -3.8953691,1.817 -4.84375,3.8437 a 0.54109417,0.54109417 0 0 0 -0.03125,0.1563 c -0.034362,0.2636 0.016513,0.4878 0.125,0.7187 0.1084872,0.2309 0.2937966,0.4744 0.59375,0.5937 0.4281597,0.1708 0.8302066,0.054 1.125,-0.094 0.294793,-0.1477 0.546857,-0.3378 0.71875,-0.4375 0.799813,-0.4639 1.173262,-1.1563 1.59375,-1.375 0.0083,-0 0.02289,0 0.03125,0 1.871935,-0.8285 4.886978,-0.9203 7.28125,-0.7188 0.998861,0.5432 2.056492,1.383 3.09375,2.1876 a 0.54109417,0.54109417 0 0 0 0.15625,0.062 c 0.163749,0.058 0.381692,0.1381 0.625,0.1563 0.243308,0.018 0.576199,-0.01 0.84375,-0.25 0.295326,-0.2642 0.362415,-0.6108 0.375,-0.9063 0.01259,-0.2954 -0.02776,-0.5847 -0.09375,-0.8124 a 0.54109417,0.54109417 0 0 0 -0.0625,-0.125 c -0.894663,-1.5458 -2.289626,-2.7522 -4.25,-3.2813 -1.250498,-0.35 -2.573382,-0.43 -3.84375,-0.375 z" />
    <path
       style="fill:#ffffff;stroke:none;stroke-width:1px;stroke-linecap:butt;stroke-linejoin:miter;stroke-opacity:1"
       d="m 13.131984,1039.3565 c 1.052073,-0.3789 2.166748,-0.565 3.282995,-0.6314 1.23207,-0.073 2.487008,4e-4 3.661803,0.3788 1.602633,0.5163 3.013107,1.6083 3.914341,3.0305 0.14409,0.1599 0.215791,0.3826 0.192022,0.5966 -0.02377,0.2139 -0.142619,0.4154 -0.318291,0.5398 -0.128192,0.091 -0.284882,0.1406 -0.441942,0.1406 -0.157059,0 -0.313749,-0.05 -0.441941,-0.1406 l -3.282996,-2.2728 c -1.232346,-0.5497 -2.608589,-0.7729 -3.95149,-0.6408 -1.342902,0.1321 -2.649291,0.6191 -3.750923,1.3984 -0.585572,0.4142 -1.110819,0.9065 -1.641498,1.389 -0.193755,0.1762 -0.3922336,0.3538 -0.6291915,0.4653 -0.118479,0.056 -0.2459631,0.094 -0.3765292,0.1041 -0.1305661,0.01 -0.2643444,-0.01 -0.3832394,-0.064 -0.1384592,-0.064 -0.2541129,-0.176 -0.3223073,-0.3123 -0.068195,-0.1364 -0.088468,-0.2962 -0.0565,-0.4453 1.0930029,-1.617 2.7093692,-2.8742 4.5456872,-3.5355"
       id="path13428"
       inkscape:path-effect="#path-effect13430"
       inkscape:original-d="m 13.131984,1039.3565 c 1.051976,-0.3677 2.169664,-0.583 3.282995,-0.6314 1.225956,-0.053 2.480043,0.048 3.661803,0.3788 1.826744,0.4931 3.07992,1.5888 3.914341,3.0305 0.106077,0.3661 0.157728,0.8822 -0.126269,1.1364 -0.219535,0.1965 -0.605864,0.098 -0.883883,0 -1.067262,-0.8278 -2.194575,-1.6974 -3.282996,-2.2728 -2.462838,-0.2156 -5.627885,-0.1732 -7.702413,0.7576 -0.642841,0.317 -1.021452,1.0294 -1.641498,1.389 -0.4261733,0.2471 -0.9313083,0.6874 -1.3889601,0.505 -0.26229,-0.1045 -0.4153153,-0.4776 -0.3788071,-0.7576 0.8486929,-1.8138 2.8401802,-2.9308 4.5456872,-3.5355 z"
       inkscape:connector-curvature="0"
       sodipodi:nodetypes="caccacccaacc" />
  </g>
</svg>
