<?xml version="1.0" encoding="UTF-8" standalone="no"?>
<!-- Created with Inkscape (http://www.inkscape.org/) -->

<svg
   xmlns:dc="http://purl.org/dc/elements/1.1/"
   xmlns:cc="http://creativecommons.org/ns#"
   xmlns:rdf="http://www.w3.org/1999/02/22-rdf-syntax-ns#"
   xmlns:svg="http://www.w3.org/2000/svg"
   xmlns="http://www.w3.org/2000/svg"
   xmlns:sodipodi="http://sodipodi.sourceforge.net/DTD/sodipodi-0.dtd"
   xmlns:inkscape="http://www.inkscape.org/namespaces/inkscape"
   id="svg2"
   version="1.1"
   inkscape:version="0.48.4 r9939"
   width="32"
   height="32"
   sodipodi:docname="tag_cpap.svg"
   inkscape:export-filename="/home/petr/project/android-git/Sleep-actionbar2/res/drawable-xhdpi/tag_cpap.png"
   inkscape:export-xdpi="135"
   inkscape:export-ydpi="135">
  <metadata
     id="metadata8">
    <rdf:RDF>
      <cc:Work
         rdf:about="">
        <dc:format>image/svg+xml</dc:format>
        <dc:type
           rdf:resource="http://purl.org/dc/dcmitype/StillImage" />
        <dc:title></dc:title>
      </cc:Work>
    </rdf:RDF>
  </metadata>
  <defs
     id="defs6">
    <inkscape:path-effect
       is_visible="true"
       id="path-effect4103"
       effect="spiro" />
    <inkscape:path-effect
       is_visible="true"
       id="path-effect4097"
       effect="spiro" />
    <inkscape:path-effect
       is_visible="true"
       id="path-effect4091"
       effect="spiro" />
    <inkscape:path-effect
       effect="spiro"
       id="path-effect3240"
       is_visible="true" />
    <inkscape:path-effect
       effect="spiro"
       id="path-effect3236"
       is_visible="true" />
    <inkscape:path-effect
       is_visible="true"
       id="path-effect3232"
       effect="spiro" />
    <inkscape:path-effect
       effect="spiro"
       id="path-effect3228"
       is_visible="true" />
    <inkscape:path-effect
       effect="spiro"
       id="path-effect3224"
       is_visible="true" />
    <inkscape:path-effect
       effect="spiro"
       id="path-effect3220"
       is_visible="true" />
  </defs>
  <sodipodi:namedview
     pagecolor="#ffffff"
     bordercolor="#666666"
     borderopacity="1"
     objecttolerance="10"
     gridtolerance="10"
     guidetolerance="10"
     inkscape:pageopacity="0"
     inkscape:pageshadow="2"
     inkscape:window-width="1317"
     inkscape:window-height="744"
     id="namedview4"
     showgrid="false"
     inkscape:zoom="12.941828"
     inkscape:cx="8.9306901"
     inkscape:cy="12.7545"
     inkscape:window-x="49"
     inkscape:window-y="24"
     inkscape:window-maximized="1"
     inkscape:current-layer="svg2" />
  <path
     sodipodi:type="inkscape:offset"
     inkscape:radius="0.30907536"
     inkscape:original="M 21.03125 1.375 C 20.120944 1.3755278 19.232706 1.4075462 18.65625 1.5 C 16.334656 1.8723214 14.683354 2.5800361 13.34375 3.84375 C 12.477128 4.6612771 11.892595 5.560728 11.5625 6.53125 C 11.496227 6.7260938 11.197461 7.3706481 10.96875 7.875 C 10.511272 8.8838683 10.465338 9.0924404 10.375 10.46875 C 10.337786 11.035733 10.348911 11.202516 10.25 11.40625 C 10.151089 11.609984 9.8622835 11.951625 9.25 12.71875 C 8.6927485 13.416936 8.385438 13.812273 8.1875 14.125 C 7.989562 14.437727 7.90625 14.732056 7.90625 14.96875 C 7.90625 15.597348 8.3812579 16.091048 9.03125 16.4375 C 9.133249 16.491861 9.2281759 16.551393 9.28125 16.59375 C 9.2899053 16.648449 9.3203275 16.811701 9.3125 17 C 9.3034744 17.21712 9.2671624 17.452443 9.21875 17.625 L 9.09375 18.0625 A 0.46365936 0.46365936 0 0 0 9.21875 18.53125 L 9.46875 18.75 C 9.4355885 18.812091 9.3978556 18.880753 9.375 18.96875 C 9.3398178 19.104205 9.3230854 19.268089 9.375 19.40625 C 9.4788293 19.682571 9.6522103 19.825759 9.90625 20.09375 C 10.126299 20.325895 10.180406 20.396317 10.1875 20.4375 C 10.194594 20.478683 10.170841 20.65412 10.0625 21.03125 C 9.8991366 21.599953 9.7930653 22.087639 9.8125 22.53125 C 9.8319347 22.974861 10.005206 23.400666 10.34375 23.6875 C 11.020839 24.261168 12.07572 24.363524 13.8125 24.46875 C 14.869896 24.532787 15.412028 24.589311 15.625 24.65625 C 15.731486 24.68972 15.743491 24.71078 15.78125 24.75 C 15.819009 24.78922 15.878028 24.877315 15.96875 25.03125 C 16.309395 25.609269 16.589141 26.30577 16.90625 27.5625 C 16.998166 27.919079 17.061725 28.203662 17.1875 28.65625 A 0.46365936 0.46365936 0 0 0 17.59375 29 C 22.278822 29.467887 25.711011 29.157035 28.75 28.53125 A 0.46365936 0.46365936 0 0 0 28.8125 28.5 C 28.8125 28.5 29.12499 28.093934 29.125 28.09375 C 29.12501 28.093566 29.125096 28.068287 29.125 28.0625 C 29.124807 28.050926 29.125218 28.035426 29.125 28.03125 C 29.124564 28.022898 29.125486 28.006908 29.125 28 C 29.124028 27.986185 29.126752 27.990734 29.125 27.96875 C 29.121497 27.924782 29.100509 27.861105 29.09375 27.78125 C 29.080232 27.62154 29.055351 27.399207 29.03125 27.125 C 28.983047 26.576585 28.912672 25.840354 28.84375 25.09375 C 28.774828 24.347146 28.717017 23.566074 28.65625 22.96875 C 28.625867 22.670088 28.585699 22.416987 28.5625 22.21875 C 28.539301 22.020513 28.532285 21.91327 28.5 21.78125 C 28.016354 19.803494 27.921544 18.154864 28.09375 17.5625 C 28.250723 17.022545 28.408045 16.724812 29.25 15.4375 C 29.671301 14.79336 30.077067 14.164018 30.21875 13.84375 C 30.660643 12.844584 30.80658 11.221116 30.6875 9.65625 C 30.525044 7.5215159 29.956302 5.7912061 28.90625 4.375 C 27.778643 2.8541986 26.000673 1.9423817 23.40625 1.5 C 22.847545 1.4046821 21.941556 1.3744722 21.03125 1.375 z "
     style="fill:#5a5a5a;fill-opacity:1"
     id="path4119"
     d="m 21.03125,1.0625 c -0.917437,5.319e-4 -1.823044,0.026452 -2.4375,0.125 -2.359433,0.3783898 -4.078822,1.126313 -5.46875,2.4375 -0.898471,0.8475723 -1.496583,1.7917837 -1.84375,2.8125 -0.042,0.1234751 -0.364133,0.8061493 -0.59375,1.3125 -0.460881,1.0163734 -0.534347,1.3063941 -0.625,2.6875 -0.01887,0.287476 -0.01889,0.473925 -0.03125,0.59375 -0.01236,0.119825 -0.02951,0.182037 -0.0625,0.25 -0.054965,0.113215 -0.3548162,0.480807 -0.96875,1.25 -0.5581764,0.699345 -0.8501999,1.102082 -1.0625,1.4375 -0.223847,0.353661 -0.34375,0.69078 -0.34375,1 0,0.784302 0.5788603,1.37562 1.28125,1.75 0.039969,0.0213 0.059605,0.04133 0.09375,0.0625 0.00909,0.0681 0.035175,0.124326 0.03125,0.21875 -0.00798,0.192008 -0.054222,0.390358 -0.09375,0.53125 l -0.125,0.4375 c -0.00167,0.006 2.241e-4,0.03039 0,0.03125 -4.482e-4,0.0017 3.889e-4,0.02952 0,0.03125 -3.889e-4,0.0017 3.291e-4,0.02951 0,0.03125 -2.69e-4,0.0018 2.086e-4,0.02949 0,0.03125 -2.086e-4,0.0018 1.479e-4,0.02948 0,0.03125 -1.479e-4,0.0018 8.7e-5,0.02948 0,0.03125 -8.7e-5,0.0018 -0.031224,0.02948 -0.03125,0.03125 -2.6e-5,0.0018 -3.5e-5,0.02948 0,0.03125 3.5e-5,0.0018 0.031154,0.02948 0.03125,0.03125 1.568e-4,0.0018 -2.175e-4,0.02949 0,0.03125 2.175e-4,0.0018 -2.779e-4,0.0295 0,0.03125 2.779e-4,0.0018 -3.38e-4,0.02951 0,0.03125 3.38e-4,0.0017 -3.976e-4,0.02952 0,0.03125 3.976e-4,0.0017 -4.568e-4,0.02954 0,0.03125 4.568e-4,0.0017 0.030734,-0.0017 0.03125,0 5.155e-4,0.0017 -5.736e-4,0.02957 0,0.03125 5.736e-4,0.0017 -6.309e-4,0.02959 0,0.03125 6.309e-4,0.0017 -6.876e-4,0.02962 0,0.03125 6.876e-4,0.0016 0.030507,0.02964 0.03125,0.03125 7.983e-4,0.0016 0.030398,0.0297 0.03125,0.03125 8.523e-4,0.0016 -9.053e-4,0.02973 0,0.03125 9.053e-4,0.0015 -9.572e-4,0.02976 0,0.03125 9.572e-4,0.0015 0.030242,-0.0015 0.03125,0 0.00101,0.0015 -0.00106,0.02983 0,0.03125 0.00106,0.0014 0.030144,0.02986 0.03125,0.03125 0.00115,0.0013 0.030051,0.02994 0.03125,0.03125 0.0012,0.0013 0.030007,0.02998 0.03125,0.03125 l 0.09375,0.09375 c -0.00839,0.02405 -0.024251,0.03555 -0.03125,0.0625 -0.044437,0.171087 -0.056663,0.359786 0.03125,0.59375 0.131313,0.349463 0.3501989,0.555574 0.59375,0.8125 0.099097,0.104545 0.1538449,0.147149 0.1875,0.1875 0.00302,0.0036 -0.00254,0.02811 0,0.03125 -0.00189,0.0112 0.00269,0.01736 0,0.03125 -0.01612,0.08335 -0.072686,0.192898 -0.125,0.375 -0.166507,0.579647 -0.2720205,1.091117 -0.25,1.59375 0.022572,0.515222 0.2422862,1.055516 0.65625,1.40625 0.784055,0.664296 1.883684,0.738249 3.625,0.84375 1.052805,0.06376 1.632681,0.119376 1.75,0.15625 0.07745,0.02434 -0.02215,-0.02422 0.03125,0.03125 -0.01102,-0.01144 0.03786,0.07089 0.125,0.21875 0.323084,0.548221 0.593063,1.196314 0.90625,2.4375 0.09059,0.351438 0.153718,0.666089 0.28125,1.125 l 0.03125,0 c 5.73e-4,0.0019 -6.45e-4,0.02939 0,0.03125 6.45e-4,0.0019 -7.15e-4,0.02942 0,0.03125 7.15e-4,0.0018 0.03046,0.02944 0.03125,0.03125 7.85e-4,0.0018 -8.53e-4,0.02948 0,0.03125 8.53e-4,0.0018 -9.2e-4,0.02951 0,0.03125 9.2e-4,0.0017 0.03026,0.02955 0.03125,0.03125 0.001,0.0017 0.03014,0.02963 0.03125,0.03125 0.0011,0.0016 0.03008,0.02967 0.03125,0.03125 0.0012,0.0016 -0.0012,0.02972 0,0.03125 0.0012,0.0015 0.02996,-0.0015 0.03125,0 0.0013,0.0015 -0.0013,0.02981 0,0.03125 0.0013,0.0014 0.02985,0.02987 0.03125,0.03125 0.0014,0.0014 0.0298,-0.0013 0.03125,0 0.0015,0.0013 -0.0015,0.02998 0,0.03125 0.0015,0.0013 0.0297,0.03004 0.03125,0.03125 0.0016,0.0012 0.02966,-0.0012 0.03125,0 0.0016,0.0012 0.02961,0.03016 0.03125,0.03125 0.0017,0.001 0.02953,0.03029 0.03125,0.03125 0.0017,9.63e-4 0.0295,-8.97e-4 0.03125,0 0.0018,8.97e-4 0.02946,0.03042 0.03125,0.03125 0.0018,8.29e-4 0.02943,-7.6e-4 0.03125,0 0.0018,7.6e-4 0.02941,-6.91e-4 0.03125,0 0.0018,6.91e-4 0.02938,0.03063 0.03125,0.03125 0.0019,5.48e-4 0.02934,-4.75e-4 0.03125,0 0.0019,4.75e-4 0.02932,-4.02e-4 0.03125,0 0.0019,4.02e-4 0.02931,0.03092 0.03125,0.03125 0.0019,3.28e-4 0.0293,-2.54e-4 0.03125,0 0.002,2.54e-4 0.02929,-1.79e-4 0.03125,0 4.713393,0.470715 8.185789,0.162229 11.25,-0.46875 A 0.30910626,0.30910626 0 0 0 28.875,28.8125 c 0.0018,-7.36e-4 0.02948,8.03e-4 0.03125,0 0.0018,-8.03e-4 -0.0017,-0.03038 0,-0.03125 0.0017,-8.69e-4 0.02955,9.34e-4 0.03125,0 0.0017,-9.34e-4 0.02958,-0.03025 0.03125,-0.03125 a 0.30910626,0.30910626 0 0 0 0.0625,-0.03125 0.30910626,0.30910626 0 0 0 0.03125,-0.03125 c 0,0 0.07811,-0.08594 0.15625,-0.1875 0.03907,-0.05078 0.06443,-0.118122 0.09375,-0.15625 0.01466,-0.01906 0.02265,-0.02006 0.03125,-0.03125 0.0086,-0.01119 0.03125,-0.03125 0.03125,-0.03125 A 0.30910626,0.30910626 0 0 0 29.4375,28.125 c 10e-6,-1.84e-4 3.94e-4,-0.03873 0,-0.0625 3e-6,1.7e-4 -3.23e-4,-0.02867 0,-0.03125 5.3e-4,-0.0052 -2.43e-4,-0.02264 0,-0.03125 0.0018,0.03481 0.0048,0.03626 0,-0.03125 -1.28e-4,-0.0093 5.83e-4,-0.02393 0,-0.03125 -0.0094,-0.117846 -0.02786,-0.147465 -0.03125,-0.1875 -0.01417,-0.167448 -0.03875,-0.386009 -0.0625,-0.65625 -0.04839,-0.550519 -0.118639,-1.285303 -0.1875,-2.03125 -0.06856,-0.742709 -0.125985,-1.520322 -0.1875,-2.125 -0.03138,-0.308458 -0.07181,-0.562506 -0.09375,-0.75 -0.02254,-0.192601 -0.0235,-0.30925 -0.0625,-0.46875 -0.238223,-0.974156 -0.407712,-1.879 -0.46875,-2.59375 -0.06104,-0.71475 -0.02915,-1.260973 0.03125,-1.46875 0.150022,-0.516044 0.28534,-0.778698 1.125,-2.0625 0.422019,-0.645238 0.830595,-1.242067 1,-1.625 C 30.981803,12.879344 31.121757,11.225043 31,9.625 30.834361,7.4484432 30.246237,5.6575671 29.15625,4.1875 c -1.184983,-1.5981846 -3.046772,-2.5497227 -5.6875,-3 -0.602636,-0.1028127 -1.520237,-0.1255318 -2.4375,-0.125 z" />
  <path
     sodipodi:type="inkscape:offset"
     inkscape:radius="0.1572073"
     inkscape:original="M 4.125 18.125 A 0.54642783 0.54642783 0 0 0 4.03125 18.15625 A 0.54642783 0.54642783 0 0 0 3.84375 18.28125 C 3.84375 18.28125 3.468685 18.565685 3.0625 18.96875 C 2.656315 19.371815 2.1958745 19.84889 1.9375 20.375 C 1.4535654 21.360402 1.4515774 22.454772 1.375 23.375 C 1.1990956 25.488832 1.5 29.46875 1.5 29.46875 A 0.54642783 0.54642783 0 0 0 2.03125 29.96875 L 4.0625 29.96875 A 0.54642783 0.54642783 0 0 0 4.59375 29.4375 C 4.5770202 28.438224 4.5837705 27.881218 4.5625 27.5625 C 4.5518647 27.403141 4.5379855 27.329949 4.5 27.1875 C 4.4919281 27.15723 4.4733641 27.096425 4.4375 27.03125 C 4.431171 27.019749 4.4459424 27.013615 4.4375 27 C 4.4523546 26.635566 4.473418 26.24583 4.53125 26 C 4.6179232 25.631573 4.7642832 25.133664 4.9375 24 C 5.0994064 22.94036 5.340067 22.457718 5.46875 22.28125 C 5.5223679 22.207722 5.5277368 22.189585 5.53125 22.1875 A 0.54642783 0.54642783 0 0 0 5.9375 21.5625 C 5.8088225 20.867979 5.6381633 20.531836 5.40625 20 A 0.54642783 0.54642783 0 0 0 5.40625 19.96875 C 5.2270542 19.599785 4.6875 18.46875 4.6875 18.46875 A 0.54642783 0.54642783 0 0 0 4.125 18.125 z "
     style="fill:#5a5a5a;fill-opacity:1;stroke:none"
     id="path4121"
     d="M 4.0625,17.96875 C 4.0596746,17.969552 4.0340565,17.999135 4.03125,18 4.0284638,18.000929 4.0027645,17.999008 4,18 c -0.00274,0.0011 -0.028533,-0.0011 -0.03125,0 -0.00313,0.0012 0.00309,0.02992 0,0.03125 -0.00309,0.0013 -0.028192,-0.0014 -0.03125,0 -0.00302,0.0015 -0.028269,-0.0016 -0.03125,0 -0.00298,0.0016 -0.028311,0.02961 -0.03125,0.03125 -0.0029,0.0017 -0.0284,-0.0018 -0.03125,0 -0.00285,0.0018 0.0028,0.02938 0,0.03125 -0.00275,0.0019 -0.028548,-0.002 -0.03125,0 -0.0027,0.002 0.00265,0.02917 0,0.03125 -0.00265,0.0021 -0.028656,-0.0021 -0.03125,0 -0.00254,0.0022 -0.028771,0.02897 -0.03125,0.03125 l -0.03125,0 c -0.016599,0.01263 -0.376253,0.285614 -0.78125,0.6875 -0.4080464,0.404912 -0.8818757,0.910061 -1.15625,1.46875 -0.5041609,1.026587 -0.4867582,2.152313 -0.5625,3.0625 -0.1784855,2.144849 0.125,6.09375 0.125,6.09375 2.509e-4,0.003 -3.183e-4,0.0283 0,0.03125 3.855e-4,0.0029 -4.525e-4,0.02832 0,0.03125 5.193e-4,0.0029 -5.858e-4,0.02835 0,0.03125 6.52e-4,0.0029 0.030532,0.02838 0.03125,0.03125 7.833e-4,0.0029 -8.484e-4,0.02841 0,0.03125 9.13e-4,0.0028 -9.772e-4,0.02845 0,0.03125 0.00104,0.0028 0.030146,0.0285 0.03125,0.03125 0.00117,0.0027 -0.00123,0.02855 0,0.03125 0.00129,0.0027 -0.00135,0.02861 0,0.03125 0.00135,0.0026 0.02984,-0.0026 0.03125,0 0.00141,0.0026 -0.00147,0.02868 0,0.03125 0.00153,0.0025 -0.00159,0.02875 0,0.03125 0.00159,0.0025 0.029608,-0.0025 0.03125,0 0.0017,0.0024 -0.00175,0.02886 0,0.03125 0.00175,0.0024 0.029443,-0.0023 0.03125,0 0.00181,0.0023 -0.00186,0.02894 0,0.03125 0.00191,0.0023 0.029286,-0.0022 0.03125,0 0.00196,0.0022 -0.00201,0.02908 0,0.03125 0.00206,0.0021 0.029139,0.02917 0.03125,0.03125 0.0022,0.002 0.029001,0.02932 0.03125,0.03125 0.00229,0.0019 0.028916,-0.0018 0.03125,0 0.00233,0.0018 -0.00238,0.02948 0,0.03125 0.00242,0.0017 0.028796,-0.0017 0.03125,0 0.00249,0.0016 0.028723,0.0297 0.03125,0.03125 0.00256,0.0015 0.028655,-0.0014 0.03125,0 0.00263,0.0014 -0.00266,0.02994 0,0.03125 0.00266,0.0013 0.028563,-0.0012 0.03125,0 0.00271,0.0012 0.028509,-0.0011 0.03125,0 0.00274,0.0011 -0.00277,0.03019 0,0.03125 0.00277,0.0011 0.02846,-9.99e-4 0.03125,0 0.00281,9.35e-4 0.028417,-8.71e-4 0.03125,0 0.00285,8.06e-4 0.028381,-7.41e-4 0.03125,0 0.00289,6.75e-4 0.02835,0.03064 0.03125,0.03125 0.00291,5.42e-4 0.028325,-4.76e-4 0.03125,0 0.00294,4.09e-4 0.028306,-3.42e-4 0.03125,0 0.00295,2.74e-4 0.028294,-2.07e-4 0.03125,0 0.00296,1.39e-4 0.028287,-7.2e-5 0.03125,0 l 2.03125,0 c 0.00307,-8.4e-5 0.028181,1.57e-4 0.03125,0 0.00306,-2.3e-4 0.028192,3.02e-4 0.03125,0 0.00305,-3.74e-4 0.028209,4.47e-4 0.03125,0 0.00303,-5.19e-4 0.028234,5.9e-4 0.03125,0 0.003,-6.61e-4 0.028265,-0.03052 0.03125,-0.03125 0.00297,-8.03e-4 0.028303,8.73e-4 0.03125,0 0.00293,-9.42e-4 0.028348,0.001 0.03125,0 0.00288,-0.0011 0.028399,-0.0301 0.03125,-0.03125 0.00282,-0.0012 0.028457,0.0013 0.03125,0 0.00276,-0.0013 0.02852,0.0014 0.03125,0 0.00273,-0.0014 -0.0027,-0.02977 0,-0.03125 0.0027,-0.0015 0.02859,0.0015 0.03125,0 0.00262,-0.0016 0.028666,-0.02959 0.03125,-0.03125 0.00254,-0.0017 0.028748,0.0018 0.03125,0 0.00246,-0.0018 -0.00241,-0.02935 0,-0.03125 0.00241,-0.0019 0.028881,0.002 0.03125,0 0.00232,-0.002 0.028976,-0.02918 0.03125,-0.03125 0.00222,-0.0021 -0.00217,-0.02908 0,-0.03125 0.00217,-0.0022 0.029129,0.0022 0.03125,0 0.00207,-0.0023 0.029237,-0.02893 0.03125,-0.03125 0.00196,-0.0024 -0.0019,-0.02884 0,-0.03125 0.0019,-0.0024 0.029407,0.0025 0.03125,0 0.00178,-0.0025 -0.00172,-0.02871 0,-0.03125 0.00166,-0.0026 0.029648,-0.02863 0.03125,-0.03125 0.00154,-0.0027 -0.00148,-0.02856 0,-0.03125 0.00148,-0.0027 0.029838,0.0027 0.03125,0 0.00141,-0.0027 -0.00135,-0.02849 0,-0.03125 0.00128,-0.0028 -0.00121,-0.02843 0,-0.03125 0.00115,-0.0029 0.03017,-0.02837 0.03125,-0.03125 0.00101,-0.0029 -9.423e-4,-0.02832 0,-0.03125 8.728e-4,-0.0029 -8.028e-4,-0.02828 0,-0.03125 7.323e-4,-0.003 0.030589,-0.02825 0.03125,-0.03125 5.901e-4,-0.003 -5.185e-4,-0.02822 0,-0.03125 4.466e-4,-0.003 -3.745e-4,-0.0282 0,-0.03125 3.021e-4,-0.0031 -2.296e-4,-0.02819 0,-0.03125 1.569e-4,-0.0031 -8.42e-5,-0.02818 0,-0.03125 -0.016702,-0.997591 -0.00902,-1.541934 -0.03125,-1.875 -0.011027,-0.165235 -0.023517,-0.260059 -0.0625,-0.40625 -0.00535,-0.02006 -0.048733,-0.05777 -0.0625,-0.09375 0.00172,-0.0044 -0.00133,-0.04067 0,-0.0625 0.014794,-0.362949 0.042451,-0.750692 0.09375,-0.96875 0.084869,-0.360759 0.2320742,-0.86006 0.40625,-2 0.1594698,-1.043693 0.3967407,-1.514647 0.5,-1.65625 0.00668,-0.0092 -0.00553,-0.02339 0,-0.03125 0.00292,-8.72e-4 0.028356,-0.03031 0.03125,-0.03125 0.00287,-0.001 0.028403,0.0011 0.03125,0 0.00282,-0.0011 0.028456,0.0012 0.03125,0 0.00279,-0.0012 -0.00276,-0.02998 0,-0.03125 0.00276,-0.0013 0.028516,0.0013 0.03125,0 0.0027,-0.0014 0.028582,0.0015 0.03125,0 0.00263,-0.0015 0.028653,-0.02966 0.03125,-0.03125 0.00252,-0.0017 0.028772,-0.02948 0.03125,-0.03125 0.00244,-0.0018 0.028857,0.0019 0.03125,0 0.00239,-0.0019 -0.00235,-0.02931 0,-0.03125 0.00235,-0.0019 0.028948,0.002 0.03125,0 0.00225,-0.002 -0.00221,-0.02915 0,-0.03125 0.00221,-0.0021 0.029094,0.0021 0.03125,0 0.00211,-0.0022 -0.00205,-0.029 0,-0.03125 0.00205,-0.0022 0.02925,0.0023 0.03125,0 0.002,-0.0023 -0.00195,-0.02891 0,-0.03125 0.00189,-0.0024 0.029416,0.0024 0.03125,0 0.00183,-0.0024 -0.00178,-0.02878 0,-0.03125 0.00172,-0.0025 0.029591,-0.0287 0.03125,-0.03125 0.0016,-0.0026 -0.00154,-0.02862 0,-0.03125 0.00148,-0.0027 0.029838,-0.02855 0.03125,-0.03125 0.00128,-0.0028 -0.00122,-0.02846 0,-0.03125 0.00122,-0.0028 0.030097,0.0028 0.03125,0 0.00115,-0.0028 -0.00109,-0.02841 0,-0.03125 0.00102,-0.0029 -9.526e-4,-0.02836 0,-0.03125 8.845e-4,-0.0029 -8.16e-4,-0.02832 0,-0.03125 8.16e-4,-0.0029 0.030503,0.0029 0.03125,0 7.47e-4,-0.0029 -6.776e-4,-0.02828 0,-0.03125 6.078e-4,-0.003 -5.377e-4,-0.02826 0,-0.03125 5.377e-4,-0.003 -4.673e-4,-0.02824 0,-0.03125 3.966e-4,-0.003 -3.257e-4,-0.02822 0,-0.03125 2.547e-4,-0.003 -1.835e-4,-0.02821 0,-0.03125 1.122e-4,-0.003 -4.08e-5,-0.02821 0,-0.03125 -3.06e-5,-0.003 1.019e-4,-0.02821 0,-0.03125 -1.733e-4,-0.003 2.445e-4,-0.02822 0,-0.03125 -3.156e-4,-0.003 3.865e-4,-0.02823 0,-0.03125 -4.572e-4,-0.003 5.276e-4,-0.02825 0,-0.03125 C 5.9646721,20.834568 5.7866111,20.480876 5.5625,19.96875 a 0.15722302,0.15722302 0 0 0 0,-0.03125 0.15722302,0.15722302 0 0 0 0,-0.03125 c -0.1782161,-0.366948 -0.71875,-1.5 -0.71875,-1.5 -0.00101,-0.0024 -0.030191,-0.02885 -0.03125,-0.03125 -0.00111,-0.0024 0.00116,-0.02889 0,-0.03125 -0.00125,-0.0023 -0.029954,-0.02897 -0.03125,-0.03125 -0.00139,-0.0022 0.00143,-0.02905 0,-0.03125 -0.00143,-0.0022 -0.029774,0.0022 -0.03125,0 -0.00148,-0.0022 0.00152,-0.02911 0,-0.03125 -0.00161,-0.0021 -0.029603,-0.02921 -0.03125,-0.03125 -0.00173,-0.002 -0.029482,-0.02931 -0.03125,-0.03125 -0.00185,-0.0019 -0.029367,-0.02942 -0.03125,-0.03125 -0.00196,-0.0018 -0.02926,-0.02954 -0.03125,-0.03125 -0.00206,-0.0016 -0.02916,-0.02966 -0.03125,-0.03125 -0.00215,-0.0015 -0.029067,0.0015 -0.03125,0 -0.00218,-0.0015 0.00221,-0.02984 0,-0.03125 -0.00221,-0.0014 -0.02901,0.0014 -0.03125,0 -0.00229,-0.0013 -0.028931,0.0012 -0.03125,0 -0.00232,-0.0012 0.00234,-0.03007 0,-0.03125 -0.00234,-0.0012 -0.028883,0.0011 -0.03125,0 -0.00241,-0.001 -0.028818,9.9e-4 -0.03125,0 -0.00243,-9.9e-4 0.00245,-0.03031 0,-0.03125 -0.00245,-9.41e-4 -0.02878,8.91e-4 -0.03125,0 -0.0025,-7.9e-4 -0.028731,7.39e-4 -0.03125,0 -0.00253,-6.88e-4 -0.028703,6.37e-4 -0.03125,0 -0.00255,-6.37e-4 0.00256,-0.03066 0,-0.03125 -0.00256,-5.85e-4 -0.028679,5.33e-4 -0.03125,0 -0.00258,-4.81e-4 -0.02866,4.29e-4 -0.03125,0 -0.00261,-3.24e-4 -0.028639,2.71e-4 -0.03125,0 -0.00262,-2.18e-4 -0.02863,1.65e-4 -0.03125,0 -0.00262,-1.12e-4 -0.028625,5.9e-5 -0.03125,0 -0.00263,-6e-6 -0.028625,-4.7e-5 -0.03125,0 -0.00262,10e-5 -0.028629,-1.53e-4 -0.03125,0 a 0.15722302,0.15722302 0 0 0 -0.03125,0 c -0.00286,6.73e-4 -0.028407,-7.38e-4 -0.03125,0 z" />
  <path
     style="fill:#ffffff;stroke:none;stroke-width:0.94042592999999997px;stroke-linecap:butt;stroke-linejoin:miter;stroke-opacity:1"
     d="M 5.4106785,21.653905 C 5.2607547,21.167065 5.0892563,20.68687 4.8968552,20.2152 4.682605,19.689968 4.4424317,19.175311 4.1775018,18.673729 3.4103891,19.120624 2.7896743,19.814364 2.4305023,20.626258 2.047736,21.491486 1.9645736,22.456005 1.9166788,23.400905 c -0.101718,2.00676 -0.067358,4.020406 0.1027646,6.022527 l 2.0552933,0 C 3.9484623,28.794107 3.8795747,28.153278 3.8692076,27.511493 3.8494767,26.290036 4.0427642,25.067217 4.4173236,23.90444 4.6691991,23.122521 5.0027084,22.366926 5.4106785,21.653905"
     id="path3222"
     inkscape:path-effect="#path-effect3224"
     inkscape:original-d="M 5.4106785,21.653905 C 5.2915698,21.011031 5.136425,20.764594 4.8968552,20.2152 4.7093437,19.829113 4.1775018,18.673729 4.1775018,18.673729 c 0,0 -1.3620227,1.168628 -1.7469995,1.952529 -0.4146328,0.844288 -0.4358197,1.837279 -0.5138235,2.774647 -0.1665054,2.000885 0.1027646,6.022527 0.1027646,6.022527 l 2.0552933,0 C 4.0080606,25.440845 3.8808661,28.429881 3.8692076,27.511493 3.8464211,25.716521 4.0776417,26.12758 4.4173236,23.90444 4.7570054,21.681301 5.4106785,21.653905 5.4106785,21.653905 z"
     inkscape:connector-curvature="0"
     sodipodi:nodetypes="cccaaccssc" />
  <path
     style="fill:#ffffff"
     d="M 17.336697,27.424648 C 17.014791,26.148905 16.741903,25.398766 16.370448,24.768467 16.002354,24.143892 15.96174,24.1316 13.843224,24.003301 c -3.436768,-0.208222 -3.9637705,-0.6586 -3.334201,-2.850265 0.220842,-0.768741 0.20044,-0.874278 -0.26342,-1.363637 C 9.7474958,19.263936 9.7123295,19.172234 9.8920759,18.867588 L 10.033251,18.628331 9.7779345,18.407723 9.5226199,18.187114 9.6420383,17.761508 C 9.7666908,17.317207 9.80691,16.65218 9.7247675,16.393363 9.6961128,16.303157 9.5104451,16.153707 9.2632699,16.021973 8.6943434,15.71873 8.3790064,15.340611 8.3790064,14.961627 c 0,-0.35101 0.1341179,-0.561406 1.2451362,-1.953412 1.2214394,-1.530332 1.1595454,-1.403832 1.2327754,-2.51954 0.09016,-1.3735916 0.09892,-1.4117066 0.555336,-2.4182329 0.228694,-0.5043146 0.48911,-1.1324807 0.578716,-1.3959231 0.305274,-0.8975445 0.847648,-1.7032676 1.666624,-2.4758482 1.266141,-1.1944123 2.804949,-1.8729632 5.072013,-2.2365395 1.032942,-0.1656665 3.616,-0.1632128 4.598696,0.00444 2.527357,0.430946 4.157652,1.2705714 5.202024,2.6791141 0.991098,1.3366954 1.544404,2.978992 1.70219,5.0523602 0.114441,1.5039004 -0.06403,3.1120984 -0.439672,3.9614644 -0.09532,0.215467 -0.510369,0.907252 -0.922328,1.537108 -0.845668,1.29299 -1.045893,1.663139 -1.215781,2.247518 -0.23418,0.805548 -0.08343,2.451067 0.409002,4.46475 0.09241,0.377885 0.59874,6.138668 0.592289,6.140748 -3.001913,0.61815 -6.384991,0.955794 -11.027264,0.492181 -0.123108,-0.442992 -0.198241,-0.753182 -0.292066,-1.117167 z"
     id="path3307"
     inkscape:connector-curvature="0"
     sodipodi:nodetypes="cssssscccsssssssssssssssssccc" />
  <path
     sodipodi:type="inkscape:offset"
     inkscape:radius="0.69541955"
     inkscape:original="M 9.71875 11.59375 C 9.71875 11.59375 9.2287127 12.274962 9 12.625 C 8.1787279 14.101953 7.2928711 15.380515 6.34375 16.625 C 6.0584116 17.028297 5.5 17.84375 5.5 17.84375 L 6.125 19.1875 L 6.9375 21.03125 C 6.9375 21.03125 8.6505585 21.65625 9.53125 21.65625 C 10.411941 21.65625 12.09375 21.03125 12.09375 21.03125 L 12.59375 20.3125 C 11.235053 18.740733 11.112899 16.274199 11.0625 14.15625 C 11.04173 13.283165 11.5625 11.59375 11.5625 11.59375 L 9.71875 11.59375 z "
     style="fill:#5a5a5a;fill-opacity:1;stroke:none"
     id="path4093"
     d="m 9.59375,10.90625 a 0.69548909,0.69548909 0 0 0 -0.4375,0.28125 c 0,0 -0.4984721,0.677544 -0.75,1.0625 a 0.69548909,0.69548909 0 0 0 0,0.03125 c -0.8008926,1.440303 -1.6886273,2.709731 -2.625,3.9375 C 5.4877114,16.633637 4.9375,17.4375 4.9375,17.4375 A 0.69548909,0.69548909 0 0 0 4.875,18.125 L 5.5,19.46875 6.3125,21.3125 a 0.69548909,0.69548909 0 0 0 0.375,0.375 c 0,0 0.4685269,0.149176 1.03125,0.3125 0.5627231,0.163324 1.2076482,0.34375 1.8125,0.34375 0.604852,0 1.256953,-0.180135 1.8125,-0.34375 0.555547,-0.163615 1,-0.3125 1,-0.3125 a 0.69548909,0.69548909 0 0 0 0.3125,-0.25 l 0.5,-0.71875 A 0.69548909,0.69548909 0 0 0 13.125,19.84375 C 11.988208,18.528687 11.800069,16.22907 11.75,14.125 c -0.0068,-0.287732 0.0967,-0.897855 0.21875,-1.40625 0.122052,-0.508395 0.25,-0.90625 0.25,-0.90625 A 0.69548909,0.69548909 0 0 0 11.5625,10.90625 l -1.84375,0 a 0.69548909,0.69548909 0 0 0 -0.125,0 z" />
  <path
     style="fill:#ffffff;stroke:none;stroke-width:0.94042592999999997px;stroke-linecap:butt;stroke-linejoin:miter;stroke-opacity:1"
     d="m 12.604208,20.317964 c -1.143169,-1.825478 -1.691101,-4.017204 -1.541471,-6.165882 0.06084,-0.873601 0.23398,-1.739318 0.513824,-2.569117 l -1.849765,-10e-7 -0.7193532,1.027646 c -0.8906278,1.335941 -1.7812554,2.671883 -2.6718826,4.007825 -0.2740389,0.411059 -0.5480778,0.822117 -0.8221166,1.233176 0.2081851,0.444081 0.4137192,0.889406 0.6165874,1.335941 0.2790971,0.614323 0.5531486,1.230939 0.8221175,1.849764 0.7920647,0.403429 1.6802304,0.616589 2.5691181,0.616589 0.8888874,0 1.7770534,-0.21316 2.5691184,-0.616589 l 0.513823,-0.719352"
     id="path3218"
     inkscape:path-effect="#path-effect3220"
     inkscape:original-d="m 12.604208,20.317964 c -1.358697,-1.571767 -1.491072,-4.047933 -1.541471,-6.165882 -0.02077,-0.873085 0.513824,-2.569117 0.513824,-2.569117 l -1.849765,-10e-7 c 0,0 -0.4906405,0.677608 -0.7193532,1.027646 -0.8212721,1.476953 -1.7227615,2.76334 -2.6718826,4.007825 -0.2853384,0.403297 -0.8221166,1.233176 -0.8221166,1.233176 l 0.6165874,1.335941 0.8221175,1.849764 c 0,0 1.6884266,0.616589 2.5691181,0.616589 0.8806914,0 2.5691184,-0.616589 2.5691184,-0.616589 z"
     inkscape:connector-curvature="0"
     sodipodi:nodetypes="cacccccccacc" />
</svg>
