<?xml version="1.0" encoding="UTF-8" standalone="no"?>
<!-- Created with Inkscape (http://www.inkscape.org/) -->

<svg
   xmlns:dc="http://purl.org/dc/elements/1.1/"
   xmlns:cc="http://creativecommons.org/ns#"
   xmlns:rdf="http://www.w3.org/1999/02/22-rdf-syntax-ns#"
   xmlns:svg="http://www.w3.org/2000/svg"
   xmlns="http://www.w3.org/2000/svg"
   xmlns:sodipodi="http://sodipodi.sourceforge.net/DTD/sodipodi-0.dtd"
   xmlns:inkscape="http://www.inkscape.org/namespaces/inkscape"
   width="32"
   height="32"
   id="svg2995"
   version="1.1"
   inkscape:version="0.48.4 r9939"
   sodipodi:docname="tag_baby.svg"
   inkscape:export-filename="/home/petr/project/android-git/Sleep-actionbar2/res/drawable-xhdpi/tag_baby.png"
   inkscape:export-xdpi="135"
   inkscape:export-ydpi="135">
  <defs
     id="defs2997">
    <inkscape:path-effect
       effect="spiro"
       id="path-effect3157"
       is_visible="true" />
    <inkscape:path-effect
       is_visible="true"
       id="path-effect3058"
       effect="spiro" />
  </defs>
  <sodipodi:namedview
     id="base"
     pagecolor="#000000"
     bordercolor="#666666"
     borderopacity="1.0"
     inkscape:pageopacity="0"
     inkscape:pageshadow="2"
     inkscape:zoom="11.2"
     inkscape:cx="17.968683"
     inkscape:cy="12.166039"
     inkscape:document-units="px"
     inkscape:current-layer="layer1"
     showgrid="false"
     inkscape:window-width="1317"
     inkscape:window-height="744"
     inkscape:window-x="49"
     inkscape:window-y="24"
     inkscape:window-maximized="1" />
  <metadata
     id="metadata3000">
    <rdf:RDF>
      <cc:Work
         rdf:about="">
        <dc:format>image/svg+xml</dc:format>
        <dc:type
           rdf:resource="http://purl.org/dc/dcmitype/StillImage" />
        <dc:title></dc:title>
      </cc:Work>
    </rdf:RDF>
  </metadata>
  <g
     inkscape:label="Layer 1"
     inkscape:groupmode="layer"
     id="layer1"
     transform="translate(0,-1020.3622)">
    <g
       id="g4085"
       transform="matrix(1.0750631,0,0,1.0750631,-1.1942129,-77.794487)">
      <path
         d="m 8.03125,1023.875 c -0.2189875,0 -0.4049325,0.045 -0.53125,0.062 -2.0414964,0.2756 -3.7445521,1.9151 -3.9375,4.1563 -0.1271821,1.4764 0.3141108,2.6266 1.4375,3.75 1.2257814,1.2262 2.9308157,1.6289 4.5625,1.125 0.1200746,-0.037 0.1990468,-0.1116 0.3125,-0.1563 -0.5436345,0.563 -0.9859868,1.049 -1.21875,1.5625 -0.3832057,0.8457 -0.4033964,1.7746 -0.5625,3.7812 -0.1710609,2.1571 -0.2167644,3.5271 -0.1875,4.4688 0.02933,0.9438 0.1368773,1.5432 0.53125,1.9375 0.3137782,0.3138 0.6802861,0.5369 1.09375,0.5625 0.4199793,0.026 0.834305,-0.1521 1.1875,-0.4375 0.375676,-0.3034 0.659977,-0.649 0.8125,-1.1875 0.150906,-0.5325 0.245623,-1.2585 0.34375,-2.5938 l 0.125,-1.5937 1.09375,1.0625 1.90625,1.7812 a 0.39711423,0.39711423 0 0 0 0.1875,0.094 c -0.0026,-5e-4 0.02409,-0 0.03125,0 0.0072,0 0.0026,0.032 0,0.031 0.0072,0 0.03387,4e-4 0.03125,0 0.0072,0 0.03387,4e-4 0.03125,0 -0.0053,-2e-4 0.03655,0 0.03125,0 -0.0053,0 0.03655,-2e-4 0.03125,0 -0.0053,6e-4 0.03649,-7e-4 0.03125,0 -0.0026,4e-4 0.02409,0 0.03125,0 -0.0026,4e-4 0.02409,0 0.03125,0 -0.0026,4e-4 0.02409,0 0.03125,0 -0.0026,4e-4 -0.0072,-0.03 0,-0.031 0.0072,-0 0.03385,-5e-4 0.03125,0 a 0.39711423,0.39711423 0 0 0 0.1875,-0.094 l 3,-3.0937 3,-3.125 a 0.39711423,0.39711423 0 0 0 0.09375,-0.1875 c -5.24e-4,0 -0.0013,-0.024 0,-0.031 -5.24e-4,0 0.02999,0.01 0.03125,0 -7.89e-4,0.01 5.27e-4,-0.037 0,-0.031 -7.89e-4,0.01 5.27e-4,-0.036 0,-0.031 0.0013,-0.01 3.97e-4,-0.034 0,-0.031 -7.94e-4,0.01 5.3e-4,-0.036 0,-0.031 5.27e-4,0.01 -7.89e-4,-0.037 0,-0.031 2.66e-4,0.01 -5.3e-4,-0.036 0,-0.031 5.3e-4,0.01 -7.94e-4,-0.036 0,-0.031 5.3e-4,0.01 -7.94e-4,-0.036 0,-0.031 3.97e-4,0 -0.02998,0.01 -0.03125,0 -0.0013,-0.01 -5.28e-4,-0.034 0,-0.031 A 0.39711423,0.39711423 0 0 0 21.6875,1035.25 l -1.65625,-1.7188 -0.84375,-0.9062 1.3125,0 c 1.11618,0 1.763765,-0.05 2.25,-0.1562 0.494184,-0.1088 0.843898,-0.3536 1.125,-0.6876 0.192795,-0.2291 0.336068,-0.4866 0.4375,-0.7187 0.110705,-0.2532 0.160755,-0.5215 0.09375,-0.8125 -0.07686,-0.3344 -0.255821,-0.6826 -0.59375,-0.9062 -0.328776,-0.2176 -0.753511,-0.3549 -1.34375,-0.4376 -0.587112,-0.082 -1.347562,-0.1126 -2.34375,-0.125 -0.995663,-0.012 -2.223261,-0 -3.78125,0.031 l -2.375,0.062 a 0.39711423,0.39711423 0 0 0 -0.0625,0.031 0.39711423,0.39711423 0 0 0 -0.03125,0 c 0.0053,-5e-4 -0.03649,8e-4 -0.03125,0 a 0.39711423,0.39711423 0 0 0 -0.0625,0.031 c 0.0033,-0 -0.0345,0 -0.03125,0 A 0.39711423,0.39711423 0 0 0 13.6875,1029 c 0.0028,-0 -0.03392,0 -0.03125,0 a 0.39711423,0.39711423 0 0 0 -0.03125,0.031 l -0.03125,0.063 -1.15625,1.125 c 0.195213,-0.5244 0.339314,-1.0689 0.34375,-1.625 0.01483,-1.8605 -1.050009,-3.7543 -3.15625,-4.4376 -0.523999,-0.1699 -1.056271,-0.2904 -1.59375,-0.2812 z m 14,12.3125 c 0.0026,-4e-4 0.0072,0.03 0,0.031 -0.0072,0 -0.03385,5e-4 -0.03125,0 a 0.39711423,0.39711423 0 0 0 -0.03125,0 0.39711423,0.39711423 0 0 0 -0.03125,0.031 0.39711423,0.39711423 0 0 0 -0.09375,0.031 0.39711423,0.39711423 0 0 0 0,0.031 0.39711423,0.39711423 0 0 0 -0.03125,0.031 0.39711423,0.39711423 0 0 0 -0.0625,0.031 0.39711423,0.39711423 0 0 0 -0.03125,0.031 c -0.0033,0 -0.0012,0.033 0,0.031 a 0.39711423,0.39711423 0 0 0 0,0.031 0.39711423,0.39711423 0 0 0 -0.03125,0 c 0.0019,-0 -0.0018,0.034 0,0.031 a 0.39711423,0.39711423 0 0 0 0,0.031 0.39711423,0.39711423 0 0 0 -0.03125,0 0.39711423,0.39711423 0 0 0 0,0.031 0.39711423,0.39711423 0 0 0 0,0.031 c 5.27e-4,-0.01 -2.64e-4,0.036 0,0.031 a 0.39711423,0.39711423 0 0 0 0,0.031 0.39711423,0.39711423 0 0 0 -0.03125,0.031 l 0,2.0937 0,2.0626 a 0.39711423,0.39711423 0 0 0 0.03125,0.062 c -2.64e-4,-0.01 5.27e-4,0.037 0,0.031 -5.27e-4,-0.01 7.89e-4,0.036 0,0.031 a 0.39711423,0.39711423 0 0 0 0,0.031 c 0.0013,0.01 0.03177,0 0.03125,0 a 0.39711423,0.39711423 0 0 0 0,0.031 c -0.0018,-0 0.0019,0.035 0,0.031 -0.002,-0 0.03341,0 0.03125,0 a 0.39711423,0.39711423 0 0 0 0,0.031 c -0.0012,-0 0.02793,-0 0.03125,0 -0.0018,-0 0.0019,0.034 0,0.031 a 0.39711423,0.39711423 0 0 0 0.03125,0.031 0.39711423,0.39711423 0 0 0 0,0.031 c 0.004,0 0.03272,0 0.03125,0 a 0.39711423,0.39711423 0 0 0 0.03125,0.031 0.39711423,0.39711423 0 0 0 0,0.031 c 0.004,0 0.03272,0 0.03125,0 a 0.39711423,0.39711423 0 0 0 0.03125,0.031 c -0.0032,-0 0.03456,0 0.03125,0 a 0.39711423,0.39711423 0 0 0 0.03125,0 0.39711423,0.39711423 0 0 0 0,0.031 c 0.0072,0 0.03387,4e-4 0.03125,0 -0.0052,-8e-4 0.03653,5e-4 0.03125,0 -0.0053,-5e-4 0.03655,3e-4 0.03125,0 a 0.39711423,0.39711423 0 0 0 0.0625,0.031 l 1.28125,0.031 c 0.361877,0 0.6946,0 0.90625,0.031 0.07087,0.01 0.131451,0.018 0.1875,0.031 0.0038,0.058 -0.0113,0.097 0,0.2187 0.02544,0.2745 0.03511,0.6807 0.03125,1.0938 -0.0095,1.0118 0.126786,1.7663 0.5625,2.2812 0.223153,0.2641 0.548091,0.4446 0.875,0.5 0.350611,0.06 0.692789,-0.023 1.0625,-0.125 0.362222,-0.1001 0.734599,-0.2346 1,-0.5 0.143753,-0.1378 0.161504,-0.2635 0.1875,-0.3437 0.03602,-0.1111 0.07356,-0.2263 0.09375,-0.3437 0.0413,-0.2402 0.07103,-0.5237 0.09375,-0.875 0.04529,-0.7007 0.04595,-1.5942 0.03125,-2.4688 -0.01476,-0.8784 -0.05657,-1.7389 -0.125,-2.4375 -0.03462,-0.3536 -0.106388,-0.6926 -0.15625,-0.9375 -0.0203,-0.1 -0.01584,-0.1793 -0.0625,-0.3125 -0.0263,-0.075 -0.05205,-0.2083 -0.1875,-0.3437 -0.298431,-0.2985 -0.677467,-0.3604 -1.1875,-0.4376 -0.51207,-0.077 -1.219082,-0.1432 -2.0625,-0.1562 l -2.46875,-0.062 -0.0625,0 c 0.0053,0 -0.03655,3e-4 -0.03125,0 0.0053,-3e-4 -0.03653,5e-4 -0.03125,0 0.0053,-5e-4 -0.03649,8e-4 -0.03125,0 z m 3.09375,4.6875 c -8.9e-5,-10e-5 0.06253,0.1251 0.0625,0.125 -1.6e-5,0 0.03125,0.094 0.03125,0.094 0,0 -0.40625,0.031 -0.40625,0.031 0,0 0.375,0.094 0.375,0.094 0,0 -0.03125,0.094 -0.03125,0.094 0,0 -0.03125,0.062 -0.03125,0.062 2.4e-5,0 -0.156287,0.125 -0.15625,0.125 7.4e-5,0 -0.156372,0.031 -0.15625,0.031 1.22e-4,0 -0.06267,0 -0.0625,0 3.36e-4,1e-4 -0.0479,-0.026 -0.0625,-0.031 -0.0584,-0.02 -0.07168,-0.047 -0.09375,-0.062 0,0 0.03985,-0.079 0.09375,-0.1563 0.03872,-0.056 0.07072,-0.061 0.09375,-0.094 0.01219,-0.017 0.03125,-0.062 0.03125,-0.062 0,0 0.3125,-0.25 0.3125,-0.25 z M 20,1041.9062 c -0.166836,0 -0.351701,0.023 -0.53125,0.031 -0.38281,0.017 -0.869658,0.024 -1.40625,0.062 l -1.875,0.125 a 0.39711423,0.39711423 0 0 0 -0.03125,0.031 0.39711423,0.39711423 0 0 0 -0.0625,0 c 0.0026,-3e-4 -0.02409,-0 -0.03125,0 a 0.39711423,0.39711423 0 0 0 -0.03125,0.031 0.39711423,0.39711423 0 0 0 -0.0625,0.062 0.39711423,0.39711423 0 0 0 -0.03125,0 0.39711423,0.39711423 0 0 0 -0.03125,0.031 0.39711423,0.39711423 0 0 0 -0.03125,0.031 0.39711423,0.39711423 0 0 0 -0.03125,0.031 0.39711423,0.39711423 0 0 0 -0.03125,0 0.39711423,0.39711423 0 0 0 0,0.031 0.39711423,0.39711423 0 0 0 -0.03125,0.031 c 0.0019,-0 -0.0018,0.035 0,0.031 a 0.39711423,0.39711423 0 0 0 -0.03125,0.031 c -0.0013,0.01 -3.97e-4,0.034 0,0.031 7.94e-4,-0.01 -5.3e-4,0.036 0,0.031 5.3e-4,-0.01 -2.66e-4,0.037 0,0.031 a 0.39711423,0.39711423 0 0 0 0,0.031 0.39711423,0.39711423 0 0 0 -0.03125,0.062 l 0.15625,2.625 c 0.04602,0.7384 0.137847,1.4391 0.21875,1.9688 0.04126,0.2702 0.109447,0.4999 0.15625,0.6875 0.02693,0.1077 0.04403,0.2014 0.0625,0.25 -0.0055,-0.014 -0.03288,0.092 0.15625,0.2813 0.170354,0.1704 0.363828,0.2065 0.5625,0.25 0.198419,0.043 0.506562,0.1128 0.90625,0.125 0.769442,0.023 1.985033,0 4.09375,-0.063 0.592936,-0.019 1.168314,-0.093 1.59375,-0.1562 0.207991,-0.031 0.381077,-0.076 0.5625,-0.125 0.129474,-0.035 0.312952,-0.032 0.5,-0.2188 0.212078,-0.2119 0.260574,-0.4571 0.3125,-0.6874 0.05627,-0.2497 0.09727,-0.5152 0.09375,-0.7813 -0.0032,-0.2458 -0.02368,-0.5332 -0.09375,-0.8125 -0.06372,-0.2544 -0.153544,-0.4973 -0.34375,-0.6875 -0.164006,-0.1643 -0.320556,-0.1824 -0.4375,-0.2187 -0.115463,-0.036 -0.304641,-0.1204 -0.53125,-0.1563 -0.391585,-0.062 -0.878258,-0.099 -1.375,-0.094 l -1.25,0 -0.03125,-0.9688 c -0.01735,-0.4268 -0.0724,-0.8052 -0.125,-1.0938 -0.02998,-0.1646 -0.08423,-0.2975 -0.125,-0.4062 -0.0068,-0.032 -0.05102,-0.1257 -0.09375,-0.1875 -0.06063,-0.087 -0.19253,-0.1903 -0.3125,-0.2187 -0.06992,-0.016 -0.204765,-0.065 -0.375,-0.063 z"
         id="path4081"
         style="fill:#323232;fill-opacity:1"
         inkscape:original="M 8.03125 1024.2812 C 7.8716275 1024.2841 7.7183073 1024.3227 7.5625 1024.3438 C 5.6947539 1024.5959 4.1461414 1026.0645 3.96875 1028.125 C 3.8488012 1029.5175 4.2114498 1030.4927 5.28125 1031.5625 C 6.4111403 1032.6928 7.9341724 1033.0581 9.4375 1032.5938 C 11.386701 1031.9917 12.361351 1030.3052 12.375 1028.5938 C 12.388649 1026.8821 11.440226 1025.1606 9.5 1024.5312 C 9.0049667 1024.3706 8.5101176 1024.273 8.03125 1024.2812 z M 20.125 1029.1875 C 19.135699 1029.1752 17.898402 1029.1836 16.34375 1029.2188 L 13.96875 1029.2812 A 0.078717846 0.078717846 0 0 0 13.9375 1029.3125 A 0.078717846 0.078717846 0 0 0 13.90625 1029.3125 L 11.40625 1031.8125 C 10.005149 1033.2136 9.3690257 1033.7861 9.03125 1034.5312 C 8.6934743 1035.2766 8.6594894 1036.176 8.5 1038.1875 C 8.3295513 1040.3368 8.2840259 1041.7087 8.3125 1042.625 C 8.3409741 1043.5413 8.4510794 1044.0136 8.71875 1044.2812 C 8.9868177 1044.5493 9.2690329 1044.7006 9.5625 1044.7188 C 9.8559671 1044.7369 10.171383 1044.6153 10.46875 1044.375 C 10.826504 1044.0861 11.023234 1043.8758 11.15625 1043.4062 C 11.289266 1042.9368 11.371029 1042.2047 11.46875 1040.875 L 11.65625 1038.4062 L 13.375 1040.0938 L 15.28125 1041.875 A 0.078717846 0.078717846 0 0 0 15.3125 1041.875 A 0.078717846 0.078717846 0 0 0 15.34375 1041.875 A 0.078717846 0.078717846 0 0 0 15.375 1041.875 A 0.078717846 0.078717846 0 0 0 15.40625 1041.875 L 18.40625 1038.7812 L 21.40625 1035.6562 A 0.078717846 0.078717846 0 0 0 21.40625 1035.625 A 0.078717846 0.078717846 0 0 0 21.40625 1035.5938 A 0.078717846 0.078717846 0 0 0 21.40625 1035.5625 A 0.078717846 0.078717846 0 0 0 21.40625 1035.5312 L 19.75 1033.8125 L 18.28125 1032.2188 L 20.5 1032.2188 C 21.608635 1032.2188 22.230949 1032.1872 22.65625 1032.0938 C 23.081551 1032.0002 23.310074 1031.8311 23.5625 1031.5312 C 23.718938 1031.3453 23.847613 1031.1119 23.9375 1030.9062 C 24.027387 1030.7006 24.067141 1030.4997 24.03125 1030.3438 C 23.968751 1030.0719 23.850056 1029.8571 23.59375 1029.6875 C 23.337444 1029.5179 22.961782 1029.3903 22.40625 1029.3125 C 21.850718 1029.2347 21.114301 1029.1998 20.125 1029.1875 z M 22.09375 1036.5938 A 0.078717846 0.078717846 0 0 0 22.09375 1036.625 A 0.078717846 0.078717846 0 0 0 22.0625 1036.625 A 0.078717846 0.078717846 0 0 0 22.0625 1036.6562 A 0.078717846 0.078717846 0 0 0 22.03125 1036.6875 L 22.03125 1038.7812 L 22.03125 1040.8438 A 0.078717846 0.078717846 0 0 0 22.0625 1040.875 A 0.078717846 0.078717846 0 0 0 22.0625 1040.9062 A 0.078717846 0.078717846 0 0 0 22.09375 1040.9062 A 0.078717846 0.078717846 0 0 0 22.125 1040.9375 L 23.40625 1040.9688 C 23.760368 1040.9729 24.112866 1040.9666 24.375 1041 C 24.506067 1041.0167 24.605833 1041.0423 24.6875 1041.0625 C 24.769167 1041.0827 24.81699 1041.1295 24.8125 1041.125 C 24.807726 1041.1202 24.834639 1041.1303 24.84375 1041.1562 C 24.852861 1041.1823 24.865613 1041.204 24.875 1041.25 C 24.893775 1041.3421 24.892317 1041.4746 24.90625 1041.625 C 24.934117 1041.9257 24.941428 1042.3299 24.9375 1042.75 C 24.928433 1043.7189 25.078988 1044.3944 25.40625 1044.7812 C 25.569881 1044.9748 25.775843 1045.0817 26.03125 1045.125 C 26.286657 1045.1683 26.597774 1045.1252 26.9375 1045.0312 C 27.248875 1044.9451 27.591356 1044.7836 27.75 1044.625 C 27.795896 1044.581 27.819047 1044.5137 27.84375 1044.4375 C 27.868453 1044.3613 27.887055 1044.2679 27.90625 1044.1562 C 27.94464 1043.933 27.978048 1043.652 28 1043.3125 C 28.043904 1042.6334 28.045863 1041.7445 28.03125 1040.875 C 28.016637 1040.0055 27.973177 1039.1521 27.90625 1038.4688 C 27.872787 1038.127 27.827299 1037.82 27.78125 1037.5938 C 27.758225 1037.4805 27.74597 1037.3902 27.71875 1037.3125 C 27.69153 1037.2348 27.669609 1037.1696 27.625 1037.125 C 27.465205 1036.9652 27.150601 1036.8873 26.65625 1036.8125 C 26.161899 1036.7377 25.480957 1036.6689 24.65625 1036.6562 L 22.125 1036.5938 A 0.078717846 0.078717846 0 0 0 22.09375 1036.5938 z M 20 1042.3125 C 19.871619 1042.314 19.696454 1042.3347 19.5 1042.3438 C 19.107092 1042.3616 18.616303 1042.3688 18.09375 1042.4062 L 16.21875 1042.5312 A 0.078717846 0.078717846 0 0 0 16.1875 1042.5625 A 0.078717846 0.078717846 0 0 0 16.15625 1042.5625 A 0.078717846 0.078717846 0 0 0 16.15625 1042.5938 A 0.078717846 0.078717846 0 0 0 16.125 1042.625 L 16.28125 1045.25 C 16.326115 1045.9698 16.419999 1046.6637 16.5 1047.1875 C 16.54 1047.4494 16.583005 1047.6755 16.625 1047.8438 C 16.645997 1047.9278 16.665867 1047.9743 16.6875 1048.0312 C 16.709133 1048.0883 16.714372 1048.1519 16.75 1048.1875 C 16.828754 1048.2663 16.943733 1048.3042 17.125 1048.3438 C 17.306267 1048.3831 17.562637 1048.4261 17.9375 1048.4375 C 18.687227 1048.4604 19.925226 1048.4423 22.03125 1048.375 C 22.596942 1048.3571 23.140291 1048.2816 23.5625 1048.2188 C 23.773604 1048.1872 23.953086 1048.1629 24.09375 1048.125 C 24.234414 1048.0871 24.341324 1048.0649 24.40625 1048 C 24.519593 1047.8867 24.577911 1047.7089 24.625 1047.5 C 24.672089 1047.2911 24.690704 1047.0549 24.6875 1046.8125 C 24.684296 1046.5701 24.677707 1046.3039 24.625 1046.0938 C 24.572293 1045.8834 24.490379 1045.7092 24.375 1045.5938 C 24.311708 1045.5304 24.221778 1045.5086 24.09375 1045.4688 C 23.965722 1045.4289 23.808442 1045.3729 23.625 1045.3438 C 23.258116 1045.2852 22.783844 1045.245 22.3125 1045.25 L 20.6875 1045.25 L 20.625 1043.9062 C 20.608797 1043.5076 20.550577 1043.1212 20.5 1042.8438 C 20.474711 1042.7049 20.439225 1042.5879 20.40625 1042.5 C 20.389763 1042.4561 20.396847 1042.4378 20.375 1042.4062 C 20.353153 1042.3748 20.327215 1042.3547 20.28125 1042.3438 C 20.222733 1042.3302 20.128381 1042.311 20 1042.3125 z "
         inkscape:radius="0.39707452"
         sodipodi:type="inkscape:offset" />
      <path
         d="m 7.5625,1024.4062 c -1.833083,0.2475 -3.3256264,1.6934 -3.5,3.7188 -0.1185804,1.3766 0.2219334,2.3157 1.28125,3.375 1.1115719,1.112 2.5849081,1.4877 4.0625,1.0312 3.832689,-1.1838 3.877475,-6.7 0.0625,-7.9374 -0.6495751,-0.2108 -1.2952223,-0.27 -1.90625,-0.1876 z m 8.78125,4.9063 -2.375,0.062 -2.5,2.5 c -2.8039824,2.804 -2.555809,2.2868 -2.875,6.3125 -0.3407656,4.297 -0.3021715,5.5415 0.1875,6.0313 0.518521,0.5184 1.0504426,0.558 1.625,0.094 0.710135,-0.5735 0.773378,-0.779 0.96875,-3.4375 l 0.1875,-2.6562 1.875,1.8124 1.90625,1.7813 3,-3.0937 3,-3.125 -1.65625,-1.7188 -1.625,-1.75 2.4375,0 c 2.215702,3e-4 2.502901,-0.066 3,-0.6562 0.302552,-0.3597 0.5253,-0.848 0.46875,-1.0938 -0.23777,-1.0337 -1.408039,-1.2028 -7.625,-1.0625 z m 5.78125,7.375 0,2.0937 0,2.0626 1.28125,0.031 c 0.713832,0.01 1.374,0.092 1.46875,0.1875 0.09475,0.095 0.16415,0.8425 0.15625,1.6875 -0.01799,1.9222 0.545052,2.5862 1.875,2.2188 0.297008,-0.082 0.644303,-0.2694 0.78125,-0.4063 0.432862,-0.4151 0.324507,-6.9255 -0.125,-7.375 -0.258731,-0.2588 -1.261251,-0.4125 -2.90625,-0.4375 l -2.53125,-0.062 z m -1.875,5.7187 c -0.133738,-0.031 -1.112166,0.019 -2.15625,0.094 l -1.875,0.125 0.15625,2.625 c 0.08946,1.4353 0.288159,2.7257 0.4375,2.875 0.264812,0.2649 1.007317,0.2906 5.21875,0.1562 1.125719,-0.036 2.159012,-0.1902 2.3125,-0.3437 0.378251,-0.3782 0.359356,-1.8907 -0.03125,-2.2813 -0.173736,-0.1737 -1.06621,-0.3224 -2,-0.3124 l -1.71875,0 -0.0625,-1.4376 c -0.03217,-0.7917 -0.147508,-1.468 -0.28125,-1.5 z"
         id="path3307"
         style="fill:#ffffff"
         inkscape:original="M 7.5625 1024.4062 C 5.729417 1024.6537 4.2368736 1026.0996 4.0625 1028.125 C 3.9439196 1029.5016 4.2844334 1030.4407 5.34375 1031.5 C 6.4553219 1032.612 7.9286581 1032.9877 9.40625 1032.5312 C 13.238939 1031.3474 13.283725 1025.8312 9.46875 1024.5938 C 8.8191749 1024.383 8.1735277 1024.3238 7.5625 1024.4062 z M 16.34375 1029.3125 L 13.96875 1029.375 L 11.46875 1031.875 C 8.6647676 1034.679 8.912941 1034.1618 8.59375 1038.1875 C 8.2529844 1042.4845 8.2915785 1043.729 8.78125 1044.2188 C 9.299771 1044.7372 9.8316926 1044.7768 10.40625 1044.3125 C 11.116385 1043.739 11.179628 1043.5335 11.375 1040.875 L 11.5625 1038.2188 L 13.4375 1040.0312 L 15.34375 1041.8125 L 18.34375 1038.7188 L 21.34375 1035.5938 L 19.6875 1033.875 L 18.0625 1032.125 L 20.5 1032.125 C 22.715702 1032.1253 23.002901 1032.0592 23.5 1031.4688 C 23.802552 1031.1091 24.0253 1030.6208 23.96875 1030.375 C 23.73098 1029.3413 22.560711 1029.1722 16.34375 1029.3125 z M 22.125 1036.6875 L 22.125 1038.7812 L 22.125 1040.8438 L 23.40625 1040.875 C 24.120082 1040.8835 24.78025 1040.9675 24.875 1041.0625 C 24.969753 1041.1572 25.03915 1041.905 25.03125 1042.75 C 25.013261 1044.6722 25.576302 1045.3362 26.90625 1044.9688 C 27.203258 1044.8866 27.550553 1044.6994 27.6875 1044.5625 C 28.120362 1044.1474 28.012007 1037.637 27.5625 1037.1875 C 27.303769 1036.9287 26.301249 1036.775 24.65625 1036.75 L 22.125 1036.6875 z M 20.25 1042.4062 C 20.116262 1042.3751 19.137834 1042.425 18.09375 1042.5 L 16.21875 1042.625 L 16.375 1045.25 C 16.464462 1046.6853 16.663159 1047.9757 16.8125 1048.125 C 17.077312 1048.3899 17.819817 1048.4156 22.03125 1048.2812 C 23.156969 1048.2454 24.190262 1048.091 24.34375 1047.9375 C 24.722001 1047.5593 24.703106 1046.0468 24.3125 1045.6562 C 24.138764 1045.4825 23.24629 1045.3338 22.3125 1045.3438 L 20.59375 1045.3438 L 20.53125 1043.9062 C 20.49908 1043.1145 20.383742 1042.4382 20.25 1042.4062 z "
         inkscape:radius="0"
         sodipodi:type="inkscape:offset" />
    </g>
  </g>
</svg>
