<?xml version="1.0" encoding="UTF-8" standalone="no"?>
<!-- Created with Inkscape (http://www.inkscape.org/) -->

<svg
   xmlns:dc="http://purl.org/dc/elements/1.1/"
   xmlns:cc="http://creativecommons.org/ns#"
   xmlns:rdf="http://www.w3.org/1999/02/22-rdf-syntax-ns#"
   xmlns:svg="http://www.w3.org/2000/svg"
   xmlns="http://www.w3.org/2000/svg"
   xmlns:sodipodi="http://sodipodi.sourceforge.net/DTD/sodipodi-0.dtd"
   xmlns:inkscape="http://www.inkscape.org/namespaces/inkscape"
   id="svg2"
   version="1.1"
   inkscape:version="0.48.4 r9939"
   width="32"
   height="32"
   sodipodi:docname="tag_work.svg"
   inkscape:export-filename="/home/petr/project/android-git/Sleep-actionbar2/res/drawable-xhdpi/tag_work.png"
   inkscape:export-xdpi="135"
   inkscape:export-ydpi="135">
  <metadata
     id="metadata8">
    <rdf:RDF>
      <cc:Work
         rdf:about="">
        <dc:format>image/svg+xml</dc:format>
        <dc:type
           rdf:resource="http://purl.org/dc/dcmitype/StillImage" />
        <dc:title></dc:title>
      </cc:Work>
    </rdf:RDF>
  </metadata>
  <defs
     id="defs6" />
  <sodipodi:namedview
     pagecolor="#ffffff"
     bordercolor="#666666"
     borderopacity="1"
     objecttolerance="10"
     gridtolerance="10"
     guidetolerance="10"
     inkscape:pageopacity="0"
     inkscape:pageshadow="2"
     inkscape:window-width="1317"
     inkscape:window-height="744"
     id="namedview4"
     showgrid="false"
     inkscape:zoom="9.1512545"
     inkscape:cx="6.1118691"
     inkscape:cy="22.279059"
     inkscape:window-x="49"
     inkscape:window-y="24"
     inkscape:window-maximized="1"
     inkscape:current-layer="svg2"
     showguides="true"
     inkscape:guide-bbox="true" />
  <path
     sodipodi:type="inkscape:offset"
     inkscape:radius="0"
     inkscape:original="M 4.65625 5.78125 L 4.65625 13.21875 C 4.65625 19.497347 4.8042525 19.956252 4.375 20.3125 C 4.0950566 20.544832 3.0519804 22.241772 2.3125 23.125 C 1.3312858 24.296953 1.0309714 24.913072 1.1875 25.40625 C 1.3994942 26.074184 0.09424187 26.33549 14.9375 26.25 C 32.423638 26.149285 33.316427 27.289156 29.65625 22.625 L 27.5625 19.9375 L 27.53125 13.25 L 27.4375 5.9375 L 16.0625 5.875 L 4.65625 5.78125 z M 6 6.78125 L 16.15625 6.78125 L 26.28125 6.78125 L 26.28125 13.25 L 26.28125 19.75 L 16.15625 19.75 L 6 19.75 L 6 13.25 L 6 6.78125 z M 16.71875 22.96875 C 18.765304 23.048106 20.683229 23.489541 21.28125 24.15625 C 21.284051 24.293406 19.043926 24.40625 16.28125 24.40625 C 11.837492 24.40625 11.258953 24.340287 11.4375 23.875 C 12.492442 23.167434 14.672195 22.889394 16.71875 22.96875 z "
     style="fill:#323232;fill-opacity:1"
     id="path3805"
     d="m 4.65625,5.78125 0,7.4375 c 0,6.278597 0.1480025,6.737502 -0.28125,7.09375 -0.2799434,0.232332 -1.3230196,1.929272 -2.0625,2.8125 -0.9812142,1.171953 -1.2815286,1.788072 -1.125,2.28125 0.2119942,0.667934 -1.09325813,0.92924 13.75,0.84375 17.486138,-0.100715 18.378927,1.039156 14.71875,-3.625 L 27.5625,19.9375 27.53125,13.25 27.4375,5.9375 16.0625,5.875 4.65625,5.78125 z m 1.34375,1 10.15625,0 10.125,0 0,6.46875 0,6.5 -10.125,0 L 6,19.75 6,13.25 6,6.78125 z m 10.71875,16.1875 c 2.046554,0.07936 3.964479,0.520791 4.5625,1.1875 0.0028,0.137156 -2.237324,0.25 -5,0.25 -4.443758,0 -5.022297,-0.06596 -4.84375,-0.53125 1.054942,-0.707566 3.234695,-0.985606 5.28125,-0.90625 z"
     transform="matrix(1.0437252,0,0,1.0437252,-0.92440826,-0.49450501)" />
  <path
     style="fill:#ffffff"
     d="m 1.2665036,25.427406 c -0.1533984,-0.483316 0.1458366,-1.087505 1.1074288,-2.236022 0.7246924,-0.865565 1.7461148,-2.508145 2.02046,-2.735831 0.4206684,-0.349124 0.2947819,-0.808818 0.2947819,-6.961858 l 0,-7.2959789 11.1603297,0.08574 11.160329,0.08574 0.08804,7.1665429 0.02003,6.554465 2.048255,2.610087 c 3.586982,4.570884 2.73606,3.477947 -14.400395,3.576648 C 0.21933976,26.36072 1.4742663,26.081983 1.2665115,25.427406 z M 20.976636,24.209427 c -1.172123,-1.306753 -7.574729,-1.65787 -9.642419,-0.271037 -0.174976,0.455982 0.369919,0.515425 4.724812,0.515425 2.707428,0 4.920352,-0.109974 4.917607,-0.244388 z m 4.892725,-10.671555 0,-6.3540538 -9.938395,0 -9.9383958,0 0,6.3540538 0,6.354056 9.9383958,0 9.938395,0 z"
     id="path3178"
     inkscape:connector-curvature="0"
     sodipodi:nodetypes="sssscccccsssccscccccccccc" />
</svg>
