<?xml version="1.0" encoding="UTF-8" standalone="no"?>
<svg xmlns:dc="http://purl.org/dc/elements/1.1/" xmlns:cc="http://creativecommons.org/ns#" xmlns:rdf="http://www.w3.org/1999/02/22-rdf-syntax-ns#"
    xmlns="http://www.w3.org/2000/svg" xmlns:sodipodi="http://sodipodi.sourceforge.net/DTD/sodipodi-0.dtd"
    xmlns:inkscape="http://www.inkscape.org/namespaces/inkscape" version="1.1" width="24" height="24"
    viewBox="0 0 24 24" id="svg4" sodipodi:docname="ic_action_noise.svg" inkscape:version="0.92.3 (2405546, 2018-03-11)">
  <metadata
     id="metadata10">
    <rdf:RDF>
      <cc:Work
         rdf:about="">
        <dc:format>image/svg+xml</dc:format>
        <dc:type
           rdf:resource="http://purl.org/dc/dcmitype/StillImage" />
        <dc:title />
      </cc:Work>
    </rdf:RDF>
  </metadata>
  <defs
     id="defs8" />
  <sodipodi:namedview
     pagecolor="#ffffff"
     bordercolor="#666666"
     borderopacity="1"
     objecttolerance="1"
     gridtolerance="1"
     guidetolerance="1"
     inkscape:pageopacity="0"
     inkscape:pageshadow="2"
     inkscape:window-width="1920"
     inkscape:window-height="1046"
     id="namedview6"
     showgrid="true"
     inkscape:pagecheckerboard="true"
     inkscape:zoom="27.812867"
     inkscape:cx="10.574984"
     inkscape:cy="12.857148"
     inkscape:window-x="0"
     inkscape:window-y="34"
     inkscape:window-maximized="1"
     inkscape:current-layer="svg4">
    <inkscape:grid
       type="xygrid"
       id="grid817"
       empspacing="2" />
  </sodipodi:namedview>
  <path
     style="fill:#ffffff;fill-opacity:1"
     d="M 20 2 L 5.9003906 11.599609 L 9.8007812 17 L 13 17 L 13 14 L 16 14 L 16 11 L 19 11 L 19 8 L 22 8 L 22 5 L 20 2 z M 19.416016 4.7285156 L 20.207031 6 L 17.078125 7.0351562 L 17.042969 9.0078125 L 14.021484 9.0078125 L 14.021484 11.990234 L 11.037109 11.990234 L 11.001953 15.119141 L 8.7363281 12.035156 L 19.416016 4.7285156 z M 5.0996094 12.199219 L 1.8007812 14.5 C 0.90078125 15.2 0.70078125 16.400781 1.3007812 17.300781 L 4.8007812 22.199219 C 5.5007812 23.099219 6.6996094 23.299219 7.5996094 22.699219 L 9.1992188 21.5 L 9.6992188 18.699219 L 5.0996094 12.199219 z M 4.5996094 15 L 8.0996094 19.800781 L 6.5 21 L 3 16.099609 L 4.5996094 15 z "
     id="path2" />
</svg>
