<?xml version="1.0" encoding="UTF-8" standalone="no"?>
<svg
   xmlns:dc="http://purl.org/dc/elements/1.1/"
   xmlns:cc="http://creativecommons.org/ns#"
   xmlns:rdf="http://www.w3.org/1999/02/22-rdf-syntax-ns#"
   xmlns:svg="http://www.w3.org/2000/svg"
   xmlns="http://www.w3.org/2000/svg"
   xmlns:sodipodi="http://sodipodi.sourceforge.net/DTD/sodipodi-0.dtd"
   xmlns:inkscape="http://www.inkscape.org/namespaces/inkscape"
   version="1.1"
   width="24"
   height="24"
   viewBox="0 0 24 24"
   id="svg2987"
   inkscape:version="0.48.5 r10040"
   sodipodi:docname="ic_action_storm.svg">
  <metadata
     id="metadata2995">
    <rdf:RDF>
      <cc:Work
         rdf:about="">
        <dc:format>image/svg+xml</dc:format>
        <dc:type
           rdf:resource="http://purl.org/dc/dcmitype/StillImage" />
      </cc:Work>
    </rdf:RDF>
  </metadata>
  <defs
     id="defs2993" />
  <sodipodi:namedview
     pagecolor="#ffffff"
     bordercolor="#666666"
     borderopacity="1"
     objecttolerance="10"
     gridtolerance="10"
     guidetolerance="10"
     inkscape:pageopacity="0"
     inkscape:pageshadow="2"
     inkscape:window-width="640"
     inkscape:window-height="480"
     id="namedview2991"
     showgrid="false"
     inkscape:zoom="9.8333333"
     inkscape:cx="12"
     inkscape:cy="12"
     inkscape:window-x="0"
     inkscape:window-y="24"
     inkscape:window-maximized="0"
     inkscape:current-layer="svg2987" />
  <path
     d="M6,16C3.24,16 1,13.76 1,11C1,8.24 3.24,6 6,6C7,3.65 9.3,2 12,2C15.43,2 18.24,4.66 18.5,8.03L19,8C21.21,8 23,9.79 23,12C23,14.21 21.21,16 19,16H18C17.45,16 17,15.55 17,15C17,14.45 17.45,14 18,14H19C20.1,14 21,13.1 21,12C21,10.9 20.1,10 19,10H17V9C17,6.24 14.76,4 12,4C9.5,4 7.45,5.82 7.06,8.19C6.73,8.07 6.37,8 6,8C4.34,8 3,9.34 3,11C3,12.66 4.34,14 6,14H7C7.55,14 8,14.45 8,15C8,15.55 7.55,16 7,16H6M12,11H15L13,15H15L11.25,22L12,17H9.5L12,11Z"
     id="path2989"
     style="fill:#ffffff" />
</svg>
