<?xml version="1.0" encoding="UTF-8" standalone="no"?>
<svg
   xmlns:dc="http://purl.org/dc/elements/1.1/"
   xmlns:cc="http://creativecommons.org/ns#"
   xmlns:rdf="http://www.w3.org/1999/02/22-rdf-syntax-ns#"
   xmlns:svg="http://www.w3.org/2000/svg"
   xmlns="http://www.w3.org/2000/svg"
   xmlns:sodipodi="http://sodipodi.sourceforge.net/DTD/sodipodi-0.dtd"
   xmlns:inkscape="http://www.inkscape.org/namespaces/inkscape"
   version="1.1"
   width="24"
   height="24"
   viewBox="0 0 24 24"
   id="svg2"
   inkscape:version="0.48.5 r10040"
   sodipodi:docname="ic_action_snow.svg">
  <metadata
     id="metadata10">
    <rdf:RDF>
      <cc:Work
         rdf:about="">
        <dc:format>image/svg+xml</dc:format>
        <dc:type
           rdf:resource="http://purl.org/dc/dcmitype/StillImage" />
      </cc:Work>
    </rdf:RDF>
  </metadata>
  <defs
     id="defs8" />
  <sodipodi:namedview
     pagecolor="#ffffff"
     bordercolor="#666666"
     borderopacity="1"
     objecttolerance="10"
     gridtolerance="10"
     guidetolerance="10"
     inkscape:pageopacity="0"
     inkscape:pageshadow="2"
     inkscape:window-width="640"
     inkscape:window-height="480"
     id="namedview6"
     showgrid="false"
     inkscape:zoom="9.8333333"
     inkscape:cx="12"
     inkscape:cy="12"
     inkscape:window-x="10"
     inkscape:window-y="34"
     inkscape:window-maximized="0"
     inkscape:current-layer="svg2" />
  <path
     d="M6,14A1,1 0 0,1 7,15A1,1 0 0,1 6,16A5,5 0 0,1 1,11A5,5 0 0,1 6,6C7,3.65 9.3,2 12,2C15.43,2 18.24,4.66 18.5,8.03L19,8A4,4 0 0,1 23,12A4,4 0 0,1 19,16H18A1,1 0 0,1 17,15A1,1 0 0,1 18,14H19A2,2 0 0,0 21,12A2,2 0 0,0 19,10H17V9A5,5 0 0,0 12,4C9.5,4 7.45,5.82 7.06,8.19C6.73,8.07 6.37,8 6,8A3,3 0 0,0 3,11A3,3 0 0,0 6,14M10,18A2,2 0 0,1 12,20A2,2 0 0,1 10,22A2,2 0 0,1 8,20A2,2 0 0,1 10,18M14.5,16A1.5,1.5 0 0,1 16,17.5A1.5,1.5 0 0,1 14.5,19A1.5,1.5 0 0,1 13,17.5A1.5,1.5 0 0,1 14.5,16M10.5,12A1.5,1.5 0 0,1 12,13.5A1.5,1.5 0 0,1 10.5,15A1.5,1.5 0 0,1 9,13.5A1.5,1.5 0 0,1 10.5,12Z"
     id="path4"
     style="fill:#ffffff" />
</svg>
