<?xml version="1.0" encoding="UTF-8" standalone="no"?>
<svg
  xmlns:dc="http://purl.org/dc/elements/1.1/"
  xmlns:cc="http://creativecommons.org/ns#"
  xmlns:rdf="http://www.w3.org/1999/02/22-rdf-syntax-ns#"
  xmlns="http://www.w3.org/2000/svg"
  xmlns:sodipodi="http://sodipodi.sourceforge.net/DTD/sodipodi-0.dtd"
  xmlns:inkscape="http://www.inkscape.org/namespaces/inkscape"
  version="1.1"
  width="24"
  height="24"
  viewBox="0 0 24 24"
  id="svg4"
  sodipodi:docname="periodic-table-co2.svg"
  inkscape:version="0.92.3 (2405546, 2018-03-11)">
  <metadata
     id="metadata10">
    <rdf:RDF>
      <cc:Work
         rdf:about="">
        <dc:format>image/svg+xml</dc:format>
        <dc:type
           rdf:resource="http://purl.org/dc/dcmitype/StillImage" />
        <dc:title></dc:title>
      </cc:Work>
    </rdf:RDF>
  </metadata>
  <defs
     id="defs8" />
  <sodipodi:namedview
     pagecolor="#7d7d7d"
     bordercolor="#666666"
     borderopacity="1"
     objecttolerance="10"
     gridtolerance="10"
     guidetolerance="10"
     inkscape:pageopacity="0"
     inkscape:pageshadow="2"
     inkscape:window-width="1366"
     inkscape:window-height="741"
     id="namedview6"
     showgrid="true"
     inkscape:zoom="9.8333333"
     inkscape:cx="12"
     inkscape:cy="7.2950774"
     inkscape:window-x="0"
     inkscape:window-y="27"
     inkscape:window-maximized="1"
     inkscape:current-layer="svg4">
    <inkscape:grid
       type="xygrid"
       id="grid817"
       empspacing="2" />
  </sodipodi:namedview>
  <path
     d="m 6.6003968,2.0931596 c -1.9229863,0 -3.481875,1.5588885 -3.481875,3.481875 V 16.020659 c 0,1.922987 1.5588887,3.481875 3.481875,3.481875 h 2.9734003 c 1.9229859,0 3.4818749,-1.558888 3.4818749,-3.481875 V 5.5750346 c 0,-1.9229865 -1.558889,-3.481875 -3.4818749,-3.481875 H 6.6003968 M 5.0749731,4.0496108 H 10.997527 V 17.546083 H 5.0749731 V 4.0496108"
     id="path2"
     inkscape:connector-curvature="0"
     sodipodi:nodetypes="cssssssscccccc"
     style="fill:#ffffff;stroke-width:1" />
  <path
     style="fill:#ffffff;stroke-width:1"
     sodipodi:nodetypes="ccccsscccccssssc"
     inkscape:connector-curvature="0"
     id="path819"
     d="m 15.20339,12.065503 v 1.957627 h 3.915255 v 1.957628 h -1.957627 c -1.081169,0 -1.957628,0.876461 -1.957628,1.957628 v 3.915255 h 5.872883 v -1.754237 h -4.01695 v -2.161018 h 2.059322 c 1.081168,0 1.957628,-0.87646 1.957628,-1.957628 V 14.02313 c 0,-1.081166 -0.87646,-1.957627 -1.957628,-1.957627 z" />
</svg>
