<?xml version="1.0" encoding="UTF-8" standalone="no"?>
<!-- Created with Inkscape (http://www.inkscape.org/) -->

<svg
   xmlns:dc="http://purl.org/dc/elements/1.1/"
   xmlns:cc="http://creativecommons.org/ns#"
   xmlns:rdf="http://www.w3.org/1999/02/22-rdf-syntax-ns#"
   xmlns:svg="http://www.w3.org/2000/svg"
   xmlns="http://www.w3.org/2000/svg"
   xmlns:sodipodi="http://sodipodi.sourceforge.net/DTD/sodipodi-0.dtd"
   xmlns:inkscape="http://www.inkscape.org/namespaces/inkscape"
   id="svg2"
   version="1.1"
   inkscape:version="0.48.4 r9939"
   width="256"
   height="256"
   sodipodi:docname="tag_geo3.svg"
   inkscape:export-filename="/home/petr/project/android-git/Sleep-actionbar2/res/drawable-xxhdpi/tag_geo3.png"
   inkscape:export-xdpi="22.5"
   inkscape:export-ydpi="22.5">
  <metadata
     id="metadata8">
    <rdf:RDF>
      <cc:Work
         rdf:about="">
        <dc:format>image/svg+xml</dc:format>
        <dc:type
           rdf:resource="http://purl.org/dc/dcmitype/StillImage" />
        <dc:title></dc:title>
      </cc:Work>
    </rdf:RDF>
  </metadata>
  <defs
     id="defs6" />
  <sodipodi:namedview
     pagecolor="#ffffff"
     bordercolor="#666666"
     borderopacity="1"
     objecttolerance="10"
     gridtolerance="10"
     guidetolerance="10"
     inkscape:pageopacity="0"
     inkscape:pageshadow="2"
     inkscape:window-width="1307"
     inkscape:window-height="744"
     id="namedview4"
     showgrid="false"
     showguides="true"
     inkscape:guide-bbox="true"
     inkscape:zoom="0.921875"
     inkscape:cx="-1.0847458"
     inkscape:cy="128"
     inkscape:window-x="59"
     inkscape:window-y="24"
     inkscape:window-maximized="1"
     inkscape:current-layer="svg2" />
  <path
     style="fill:#ffffff"
     d="M 128.1875 0.28125 C 117.39581 0.28125 114.52585 0.64809195 107.1875 2.96875 C 102.5125 4.447158 95.762496 7.3599259 92.1875 9.4375 C 83.84686 14.284575 70.75332 27.378109 65.90625 35.71875 C 55.5173 53.595618 53.52981 77.707381 60.71875 98.84375 C 64.00915 108.51792 67.65846 114.4189 81.9375 133.375 C 99.277496 156.39466 104.04099 164.93524 110.25 183.84375 C 115.25839 199.096 117.97905 214.87436 119.4375 237.46875 L 120.59375 255.71875 L 128.1875 255.71875 L 135.75 255.71875 L 136.96875 236.96875 C 138.41015 214.46577 141.03569 199.25929 146.25 183.375 C 151.86186 166.27965 158.61975 154.21777 173.90625 133.9375 C 195.1516 105.75175 199.6051 94.947209 199.5625 71.71875 C 199.54098 59.9754 199.21212 57.231549 197 50.5625 C 193.01515 38.549101 187.80103 30.143808 178.78125 21.21875 C 169.30423 11.841259 160.94859 6.688043 149.1875 2.96875 C 141.84915 0.64809195 138.97919 0.28125 128.1875 0.28125 z M 124.875 27.9375 C 135.41389 27.93759 142.55636 29.973079 146.3125 34.09375 C 150.06854 38.214589 151.93745 43.951479 151.9375 51.28125 C 151.93745 56.24081 151.25547 59.838078 149.90625 62.0625 C 148.55692 64.250568 146.20387 66.239207 142.8125 68.0625 C 146.16741 69.193023 148.64019 71.067148 150.28125 73.65625 C 151.92221 76.208975 152.74994 82.237394 152.75 91.71875 C 152.74994 98.75688 151.94824 104.22306 150.34375 108.125 C 148.73916 111.9905 145.96963 114.92661 142.03125 116.96875 C 138.09278 118.97443 133.03787 120 126.875 120 C 119.87333 120 114.38634 118.83388 110.375 116.5 C 106.4001 114.12966 103.77633 111.23518 102.5 107.84375 C 101.26012 104.41588 100.625 98.486372 100.625 90.0625 L 100.625 83.0625 L 122.71875 83.0625 L 122.71875 97.4375 C 122.71872 101.26654 122.93737 103.72372 123.375 104.78125 C 123.84904 105.80234 124.8694 106.31251 126.4375 106.3125 C 128.15141 106.31251 129.29671 105.65657 129.84375 104.34375 C 130.39072 103.03096 130.65622 99.605487 130.65625 94.0625 L 130.65625 87.9375 C 130.65622 84.546113 130.26577 82.068113 129.5 80.5 C 128.73416 78.931963 127.62011 77.91161 126.125 77.4375 C 124.62983 76.927005 121.70932 76.635475 117.40625 76.5625 L 117.40625 63.6875 C 122.65746 63.687555 125.91635 63.494941 127.15625 63.09375 C 128.39609 62.69267 129.29671 61.818081 129.84375 60.46875 C 130.39072 59.119534 130.65622 57.005946 130.65625 54.125 L 130.65625 49.21875 C 130.65622 46.119136 130.34387 44.07843 129.6875 43.09375 C 129.06753 42.10922 128.06799 41.593827 126.71875 41.59375 C 125.18711 41.593827 124.14594 42.130036 123.5625 43.1875 C 123.01547 44.208647 122.71872 46.421151 122.71875 49.8125 L 122.71875 57.09375 L 100.625 57.09375 L 100.625 49.53125 C 100.625 41.071008 102.572 35.360151 106.4375 32.40625 C 110.30298 29.416054 116.45113 27.93759 124.875 27.9375 z "
     id="path2987" />
</svg>
