<?xml version="1.0" encoding="UTF-8" standalone="no"?>
<!-- Created with Inkscape (http://www.inkscape.org/) -->

<svg
   xmlns:dc="http://purl.org/dc/elements/1.1/"
   xmlns:cc="http://creativecommons.org/ns#"
   xmlns:rdf="http://www.w3.org/1999/02/22-rdf-syntax-ns#"
   xmlns:svg="http://www.w3.org/2000/svg"
   xmlns="http://www.w3.org/2000/svg"
   xmlns:sodipodi="http://sodipodi.sourceforge.net/DTD/sodipodi-0.dtd"
   xmlns:inkscape="http://www.inkscape.org/namespaces/inkscape"
   width="32"
   height="32"
   id="svg2995"
   version="1.1"
   inkscape:version="0.48.4 r9939"
   sodipodi:docname="tag_sport.svg"
   inkscape:export-filename="/home/petr/project/android-git/Sleep-actionbar2/res/drawable-xhdpi/tag_sport.png"
   inkscape:export-xdpi="135"
   inkscape:export-ydpi="135">
  <defs
     id="defs2997">
    <inkscape:path-effect
       effect="spiro"
       id="path-effect3157"
       is_visible="true" />
  </defs>
  <sodipodi:namedview
     id="base"
     pagecolor="#000000"
     bordercolor="#666666"
     borderopacity="1.0"
     inkscape:pageopacity="0"
     inkscape:pageshadow="2"
     inkscape:zoom="2.8"
     inkscape:cx="27.19237"
     inkscape:cy="55.321428"
     inkscape:document-units="px"
     inkscape:current-layer="layer1"
     showgrid="false"
     inkscape:window-width="1317"
     inkscape:window-height="744"
     inkscape:window-x="49"
     inkscape:window-y="24"
     inkscape:window-maximized="1" />
  <metadata
     id="metadata3000">
    <rdf:RDF>
      <cc:Work
         rdf:about="">
        <dc:format>image/svg+xml</dc:format>
        <dc:type
           rdf:resource="http://purl.org/dc/dcmitype/StillImage" />
        <dc:title></dc:title>
      </cc:Work>
    </rdf:RDF>
  </metadata>
  <g
     inkscape:label="Layer 1"
     inkscape:groupmode="layer"
     id="layer1"
     transform="translate(0,-1020.3622)">
    <path
       sodipodi:type="inkscape:offset"
       inkscape:radius="0.78193778"
       inkscape:original="M 9.4375 1029.1875 C 6.5038932 1029.1875 4.7438458 1030.5886 4.125 1033.4062 C 3.9209624 1034.3353 3.3946892 1035.0938 2.96875 1035.0938 C 2.0131078 1035.0938 1.4186333 1036.5607 1.875 1037.75 C 2.0616512 1038.2364 2.5428168 1038.625 2.96875 1038.625 C 3.3946892 1038.625 3.9209624 1039.3835 4.125 1040.3125 C 4.3290376 1041.2414 5.0112334 1042.5575 5.65625 1043.25 C 8.0049407 1045.771 13.180326 1044.481 14.15625 1041.125 C 14.698039 1039.2619 13.32444 1039.4005 11.75 1041.375 L 10.5 1042.9688 L 9.46875 1041.4062 C 8.1658407 1039.4178 8.155868 1034.3311 9.4375 1032.375 C 10.615156 1030.5781 11.109083 1030.5977 12.09375 1032.4375 C 12.936242 1034.0117 14.46875 1034.4289 14.46875 1033.0938 C 14.46875 1032.651 13.89081 1031.6043 13.21875 1030.75 C 12.230328 1029.4934 11.530384 1029.1875 9.4375 1029.1875 z M 22.96875 1029.1875 C 20.035142 1029.1875 18.306345 1030.5886 17.6875 1033.4062 C 17.335457 1035.0094 17.155947 1035.0938 14.15625 1035.0938 C 10.779146 1035.0938 10.032236 1035.5699 10.625 1037.4375 C 10.935555 1038.416 11.508516 1038.625 14.125 1038.625 C 16.923367 1038.625 17.316645 1038.7716 17.625 1040 C 17.815242 1040.7581 18.508394 1042.0742 19.1875 1042.9375 C 20.186941 1044.2082 20.921791 1044.5312 23 1044.5312 C 25.071464 1044.5313 25.795386 1044.2222 26.78125 1042.9688 C 27.45331 1042.1144 28 1041.0365 28 1040.5938 C 28 1039.2411 26.462846 1039.7168 25.75 1041.2812 C 25.380642 1042.0919 24.844081 1042.75 24.53125 1042.75 C 22.306181 1042.75 21.180875 1034.9231 23.03125 1032.2812 C 24.220321 1030.5837 24.921357 1030.6188 25.75 1032.4375 C 26.462846 1034.0021 28 1034.4464 28 1033.0938 C 28 1032.651 27.45331 1031.6043 26.78125 1030.75 C 25.792828 1029.4934 25.061632 1029.1875 22.96875 1029.1875 z M 27.4375 1035.0938 C 24.55517 1035.0937 24.46875 1035.1144 24.46875 1036.8438 C 24.46875 1038.5736 24.555168 1038.625 27.4375 1038.625 C 30.319828 1038.625 30.375 1038.5731 30.375 1036.8438 C 30.375 1035.1142 30.319832 1035.0938 27.4375 1035.0938 z "
       style="fill:#323232;fill-opacity:1"
       id="path11440"
       d="m 9.4375,1028.4062 c -1.5912887,0 -2.9512029,0.3854 -4,1.2188 -1.0487971,0.8334 -1.7255827,2.091 -2.0625,3.625 -0.08137,0.3705 -0.2352716,0.7031 -0.375,0.9062 -0.1397284,0.2032 -0.282431,0.1563 -0.03125,0.1563 -0.8779097,0 -1.5235587,0.6693 -1.8125,1.375 -0.28894133,0.7057 -0.30739095,1.5427 0,2.3437 0.2977808,0.776 0.9109664,1.375 1.8125,1.375 -0.251181,0 -0.1084789,-0.047 0.03125,0.1563 0.1397289,0.2031 0.2936331,0.5358 0.375,0.9063 0.2491887,1.1344 0.9243758,2.4596 1.71875,3.3124 1.4149513,1.5188 3.6053004,1.856 5.53125,1.375 1.92595,-0.4809 3.697303,-1.8044 4.28125,-3.8124 0.159459,-0.5484 0.236217,-1.0091 0.0625,-1.5 -0.05271,-0.149 -0.194985,-0.2764 -0.3125,-0.4063 0.870774,0.024 1.681295,0.081 1.875,0.1563 0.124242,0.048 0.114704,0.031 0.15625,0.094 0.04155,0.062 0.119073,0.2274 0.1875,0.5 0.247379,0.9858 0.929487,2.2551 1.6875,3.2187 0.537388,0.6833 1.089313,1.2265 1.8125,1.5313 0.723187,0.3048 1.545385,0.375 2.625,0.375 1.074629,10e-5 1.875274,-0.076 2.59375,-0.375 0.718476,-0.2985 1.281381,-0.8247 1.8125,-1.5 0.371121,-0.4718 0.691672,-0.988 0.9375,-1.4687 0.245828,-0.4808 0.4375,-0.8318 0.4375,-1.375 0,-0.4388 -0.181867,-0.8742 -0.5,-1.1876 0.876391,0.01 1.554612,0.01 2.125,-0.3437 0.375785,-0.2302 0.612122,-0.6901 0.6875,-1.0625 0.07538,-0.3724 0.0625,-0.7198 0.0625,-1.1562 0,-0.4366 0.0136,-0.7847 -0.0625,-1.1563 -0.0761,-0.3716 -0.340986,-0.8078 -0.71875,-1.0313 -0.57008,-0.3372 -1.230097,-0.3546 -2.09375,-0.3437 0.335291,-0.3157 0.5,-0.7664 0.5,-1.2187 0,-0.5432 -0.191247,-0.9021 -0.4375,-1.375 -0.246253,-0.473 -0.569224,-0.9694 -0.9375,-1.4376 -0.533076,-0.6777 -1.089268,-1.2026 -1.8125,-1.5 -0.723232,-0.2973 -1.540462,-0.3749 -2.625,-0.375 -1.591289,0 -2.958681,0.384 -4,1.2188 -1.041319,0.8348 -1.694925,2.0937 -2.03125,3.625 -0.08533,0.3886 -0.161703,0.6324 -0.21875,0.75 -0.05705,0.1176 -0.07233,0.1162 -0.15625,0.1562 -0.128622,0.062 -0.956029,0.098 -1.84375,0.125 0.336178,-0.3139 0.53125,-0.7381 0.53125,-1.1874 0,-0.5616 -0.214807,-0.904 -0.46875,-1.375 -0.253943,-0.4711 -0.572866,-0.974 -0.9375,-1.4376 -0.5306,-0.6745 -1.09529,-1.2009 -1.8125,-1.5 -0.71721,-0.299 -1.509211,-0.3749 -2.59375,-0.375 z m 1.375,3.4063 c -0.104124,-0 -0.0991,-0.055 0.03125,0.094 0.13035,0.1492 0.328894,0.4698 0.5625,0.9063 0.401869,0.7509 0.925569,1.254 1.53125,1.5625 -1.007527,0.043 -1.85703,0.1281 -2.46875,0.5312 -0.426408,0.2811 -0.7177633,0.7866 -0.78125,1.2813 -0.063487,0.4947 0.022087,0.9788 0.1875,1.5 0.192366,0.6061 0.674223,1.1972 1.375,1.4375 0.43449,0.149 1.15678,0.1576 1.78125,0.1875 -0.652789,0.2832 -1.263826,0.7568 -1.90625,1.5625 a 0.78201597,0.78201597 0 0 0 0,0.031 l -0.5625,0.7188 -0.4375,-0.6562 c -0.4844261,-0.7393 -0.8388758,-2.4245 -0.84375,-4.0938 -0.00487,-1.6693 0.3424732,-3.3451 0.8125,-4.0625 0.280321,-0.4277 0.504274,-0.7265 0.65625,-0.875 0.151976,-0.1485 0.166624,-0.1223 0.0625,-0.125 z m 13.65625,0 c -0.05453,-0 -0.02547,-0.044 0.09375,0.094 0.119218,0.1381 0.278443,0.4261 0.46875,0.8438 0.32821,0.7204 0.824828,1.2337 1.375,1.5625 -0.774666,-0 -1.403111,0.034 -1.9375,0.3437 -0.378808,0.2196 -0.63757,0.6568 -0.71875,1.0313 -0.08118,0.3745 -0.0625,0.7174 -0.0625,1.1563 0,0.4389 -0.01789,0.8121 0.0625,1.1874 0.08039,0.3754 0.341714,0.8051 0.71875,1.0313 0.53189,0.319 1.158891,0.3451 1.9375,0.3437 -0.551667,0.3337 -1.045013,0.8384 -1.375,1.5626 -0.158548,0.3479 -0.33743,0.6467 -0.5,0.8437 -0.04064,0.049 -0.06194,0.062 -0.09375,0.094 -0.04242,-0.015 -0.07302,0.014 -0.15625,-0.062 -0.138719,-0.1267 -0.334397,-0.3893 -0.5,-0.7188 -0.331207,-0.6591 -0.59475,-1.6368 -0.75,-2.7188 -0.310499,-2.1638 -0.0493,-4.7247 0.625,-5.6874 0.275827,-0.3938 0.528467,-0.6474 0.6875,-0.7813 0.159033,-0.1339 0.179534,-0.1219 0.125,-0.125 z" />
    <path
       style="fill:#ffffff"
       d="m 5.6625051,1043.2587 c -0.6450166,-0.6925 -1.3396926,-2.019 -1.5437302,-2.9479 -0.2040376,-0.929 -0.7194672,-1.689 -1.1454064,-1.689 -0.4259332,0 -0.9271367,-0.398 -1.1137879,-0.8844 -0.4563667,-1.1893 0.1581457,-2.653 1.1137879,-2.653 0.4259392,0 0.9413688,-0.7601 1.1454064,-1.6891 0.6188458,-2.8176 2.3701747,-4.2066 5.3037815,-4.2066 2.0928836,0 2.8208056,0.2968 3.8092276,1.5534 0.67206,0.8543 1.221926,1.9156 1.221926,2.3583 0,1.3351 -1.515779,0.9051 -2.358271,-0.6691 -0.984667,-1.8398 -1.495162,-1.8499 -2.6728176,-0.053 -1.281632,1.9561 -1.2542113,7.0346 0.048698,9.0231 l 1.0267556,1.567 1.262991,-1.5839 c 1.57444,-1.9745 2.928123,-2.1205 2.386334,-0.2574 -0.975924,3.356 -6.1362279,4.6523 -8.4849186,2.1313 z m 13.5377279,-0.311 c -0.679106,-0.8633 -1.390384,-2.1898 -1.580626,-2.9479 -0.308355,-1.2284 -0.686498,-1.378 -3.484865,-1.378 -2.616484,0 -3.200993,-0.1954 -3.511548,-1.1739 -0.592764,-1.8676 0.146578,-2.3635 3.523682,-2.3635 2.999697,0 3.179917,-0.086 3.53196,-1.6891 0.618845,-2.8176 2.370174,-4.2066 5.303782,-4.2066 2.092882,0 2.820804,0.2968 3.809226,1.5534 0.67206,0.8543 1.221927,1.9156 1.221927,2.3583 0,1.3527 -1.538154,0.8955 -2.251,-0.6691 -0.828643,-1.8187 -1.537828,-1.8612 -2.726899,-0.1636 -1.850375,2.6418 -0.738509,10.4811 1.48656,10.4811 0.312831,0 0.870981,-0.6633 1.240339,-1.474 0.712846,-1.5645 2.251,-2.0218 2.251,-0.6691 0,0.4427 -0.549867,1.5039 -1.221927,2.3583 -0.985864,1.2534 -1.717936,1.5534 -3.7894,1.5534 -2.078209,0 -2.80277,-0.299 -3.802211,-1.5697 z m 5.27613,-6.0947 c 0,-1.7294 0.06551,-1.7686 2.94784,-1.7686 2.882332,0 2.947838,0.039 2.947838,1.7686 0,1.7294 -0.06551,1.7688 -2.947838,1.7688 -2.882332,0 -2.94784,-0.039 -2.94784,-1.7688 z"
       id="path11436"
       inkscape:connector-curvature="0"
       sodipodi:nodetypes="csscsssssssscsscccsssssssssssssssccsssss" />
  </g>
</svg>
