<?xml version="1.0" encoding="UTF-8" standalone="no"?>
<!-- Created with Inkscape (http://www.inkscape.org/) -->

<svg
   xmlns:dc="http://purl.org/dc/elements/1.1/"
   xmlns:cc="http://creativecommons.org/ns#"
   xmlns:rdf="http://www.w3.org/1999/02/22-rdf-syntax-ns#"
   xmlns:svg="http://www.w3.org/2000/svg"
   xmlns="http://www.w3.org/2000/svg"
   xmlns:xlink="http://www.w3.org/1999/xlink"
   xmlns:sodipodi="http://sodipodi.sourceforge.net/DTD/sodipodi-0.dtd"
   xmlns:inkscape="http://www.inkscape.org/namespaces/inkscape"
   width="32"
   height="32"
   id="svg2995"
   version="1.1"
   inkscape:version="0.48.4 r9939"
   sodipodi:docname="tag_note.svg"
   inkscape:export-filename="/home/petr/project/android-git/Sleep-actionbar2/res/drawable-xhdpi/tag_note.png"
   inkscape:export-xdpi="135"
   inkscape:export-ydpi="135">
  <defs
     id="defs2997">
    <inkscape:path-effect
       effect="spiro"
       id="path-effect3157"
       is_visible="true" />
    <inkscape:path-effect
       is_visible="true"
       id="path-effect3058"
       effect="spiro" />
    <linearGradient
       id="linearGradient2555-1">
      <stop
         id="stop2557-7"
         offset="0"
         style="stop-color:#ffffff;stop-opacity:1;" />
      <stop
         id="stop2559-4"
         offset="1"
         style="stop-color:#ffffff;stop-opacity:0;" />
    </linearGradient>
    <linearGradient
       y2="425.39993"
       x2="-395.84943"
       y1="274.711"
       x1="-344.15295"
       spreadMethod="pad"
       gradientTransform="matrix(-0.5914584,0,0,0.5914584,350.31055,149.56123)"
       gradientUnits="userSpaceOnUse"
       id="linearGradient3592"
       xlink:href="#linearGradient2555-1"
       inkscape:collect="always" />
    <linearGradient
       inkscape:collect="always"
       xlink:href="#linearGradient2555-1"
       id="linearGradient11603"
       gradientUnits="userSpaceOnUse"
       gradientTransform="matrix(-0.5914584,0,0,0.5914584,350.31055,149.56123)"
       spreadMethod="pad"
       x1="-344.15295"
       y1="274.711"
       x2="-395.84943"
       y2="425.39993" />
  </defs>
  <sodipodi:namedview
     id="base"
     pagecolor="#000000"
     bordercolor="#666666"
     borderopacity="1.0"
     inkscape:pageopacity="0"
     inkscape:pageshadow="2"
     inkscape:zoom="3.959798"
     inkscape:cx="-25.465511"
     inkscape:cy="29.247955"
     inkscape:document-units="px"
     inkscape:current-layer="layer1"
     showgrid="false"
     inkscape:window-width="1317"
     inkscape:window-height="744"
     inkscape:window-x="49"
     inkscape:window-y="24"
     inkscape:window-maximized="1"
     showguides="true"
     inkscape:guide-bbox="true" />
  <metadata
     id="metadata3000">
    <rdf:RDF>
      <cc:Work
         rdf:about="">
        <dc:format>image/svg+xml</dc:format>
        <dc:type
           rdf:resource="http://purl.org/dc/dcmitype/StillImage" />
        <dc:title></dc:title>
      </cc:Work>
    </rdf:RDF>
  </metadata>
  <g
     inkscape:label="Layer 1"
     inkscape:groupmode="layer"
     id="layer1"
     transform="translate(0,-1020.3622)">
    <path
       style="font-size:medium;font-style:normal;font-variant:normal;font-weight:normal;font-stretch:normal;text-indent:0;text-align:start;text-decoration:none;line-height:normal;letter-spacing:normal;word-spacing:normal;text-transform:none;direction:ltr;block-progression:tb;writing-mode:lr-tb;text-anchor:start;baseline-shift:baseline;color:#000000;fill:#323232;fill-opacity:1;stroke:none;stroke-width:6;marker:none;visibility:visible;display:inline;overflow:visible;enable-background:accumulate;font-family:Sans;-inkscape-font-specification:Sans"
       d="m 16.00001,1022.2956 c -4.144017,0 -7.9150281,1.2211 -10.70219,3.2683 -2.7888328,2.0484 -4.6141176,4.9825 -4.6141176,8.2669 0,3.2727 1.8367806,6.1729 4.6141176,8.2029 2.6437647,1.9325 6.175793,3.0809 10.06134,3.2043 2.362584,3.4216 5.769409,5.0332 10.509935,5.1909 2.07e-4,0 0.06388,0 0.06409,0 2.07e-4,0 0.03184,0 0.03204,0 2.07e-4,-1e-4 0.06388,0 0.06408,0 2.06e-4,-1e-4 0.03184,0 0.03204,0 2.06e-4,-1e-4 0.06388,-0.032 0.06408,-0.032 2.05e-4,0 0.03184,10e-5 0.03204,0 2.03e-4,0 0.06388,10e-5 0.06408,0 2.01e-4,0 0.03185,-0.032 0.03204,-0.032 1.99e-4,-10e-5 0.03185,0 0.03204,0 1.96e-4,-10e-5 0.06389,-0.032 0.06409,-0.032 1.93e-4,0 0.03186,10e-5 0.03204,0 1.9e-4,-1e-4 0.0639,-0.032 0.06408,-0.032 1.86e-4,-10e-5 0.03186,-0.032 0.03204,-0.032 1.82e-4,-10e-5 0.03187,10e-5 0.03204,0 1.79e-4,-10e-5 0.06391,-0.032 0.06409,-0.032 1.74e-4,-1e-4 0.03188,-0.032 0.03204,-0.032 1.68e-4,-2e-4 0.03188,-0.032 0.03204,-0.032 1.63e-4,-10e-5 0.03189,-0.032 0.03204,-0.032 1.58e-4,-2e-4 0.03189,-0.032 0.03204,-0.032 1.52e-4,-10e-5 0.0319,-0.032 0.03204,-0.032 1.46e-4,-2e-4 0.0319,-0.032 0.03204,-0.032 1.41e-4,-1e-4 0.03191,-0.032 0.03204,-0.032 1.33e-4,-2e-4 0.03192,-0.032 0.03204,-0.032 1.27e-4,-2e-4 0.03192,-0.032 0.03204,-0.032 1.2e-4,-2e-4 0.03193,-0.064 0.03204,-0.064 1.13e-4,-10e-5 0.03194,-0.032 0.03204,-0.032 1.05e-4,-2e-4 0.03194,-0.032 0.03204,-0.032 9.8e-5,-10e-5 -9e-5,-0.032 0,-0.032 9e-5,-2e-4 0.03196,-0.064 0.03204,-0.064 8.3e-5,-2e-4 -7.5e-5,-0.032 0,-0.032 7.4e-5,-2e-4 0.03198,-0.064 0.03204,-0.064 6.7e-5,-2e-4 -5.8e-5,-0.032 0,-0.032 5.8e-5,-10e-5 0.03199,-0.064 0.03204,-0.064 5.1e-5,-2e-4 -4.2e-5,-0.032 0,-0.032 4.3e-5,-2e-4 -3.3e-5,-0.032 0,-0.032 3.4e-5,-2e-4 0.03202,-0.064 0.03204,-0.064 2.5e-5,-2e-4 -1.6e-5,-0.032 0,-0.032 1.6e-5,-3e-4 -8e-6,-0.064 0,-0.064 8e-6,-2e-4 10e-7,-0.032 0,-0.032 -1e-6,-2e-4 9e-6,-0.064 0,-0.064 -9e-6,-2e-4 1.8e-5,-0.032 0,-0.032 -1.8e-5,-2e-4 2.7e-5,-0.064 0,-0.064 -2.7e-5,-2e-4 -0.03201,-0.032 -0.03204,-0.032 -3.4e-5,-2e-4 4.4e-5,-0.064 0,-0.064 -4.3e-5,-2e-4 5.3e-5,-0.032 0,-0.032 -5.2e-5,-2e-4 -0.03198,-0.064 -0.03204,-0.064 -6e-5,-2e-4 6.9e-5,-0.032 0,-0.032 -6.9e-5,-2e-4 -0.03197,-0.064 -0.03204,-0.064 -7.6e-5,-2e-4 8.4e-5,-0.032 0,-0.032 -8.5e-5,-2e-4 -0.03195,-0.032 -0.03204,-0.032 -9.2e-5,-10e-5 -0.03194,-0.064 -0.03204,-0.064 -10e-5,-2e-4 1.06e-4,-0.032 0,-0.032 -1.07e-4,-2e-4 -0.03193,-0.032 -0.03204,-0.032 -1.15e-4,-2e-4 -0.03192,-0.032 -0.03204,-0.032 -1.21e-4,-10e-5 -0.03191,-0.064 -0.03204,-0.064 -1.28e-4,-10e-5 -0.03191,-0.032 -0.03204,-0.032 -1.36e-4,-2e-4 -0.0319,-0.032 -0.03204,-0.032 -1.41e-4,-2e-4 -0.0319,-0.032 -0.03204,-0.032 -1.48e-4,-10e-5 -0.03189,-0.032 -0.03204,-0.032 -1.54e-4,-2e-4 -0.03189,-0.032 -0.03204,-0.032 -1.59e-4,-1e-4 -0.03188,-0.032 -0.03204,-0.032 -1.64e-4,-10e-5 -0.03188,-0.032 -0.03204,-0.032 -1.69e-4,-10e-5 -0.06391,-0.032 -0.06408,-0.032 -1.75e-4,-1e-4 -0.03187,10e-5 -0.03204,0 -1.10912,-0.6531 -2.143233,-1.3661 -2.819738,-2.1468 -0.538181,-0.6211 -0.788822,-1.2988 -0.865147,-2.1469 4.888615,-1.8382 8.491258,-5.5544 8.491258,-10.1575 0,-3.2844 -1.825286,-6.2185 -4.614118,-8.2669 -2.787161,-2.0472 -6.55817,-3.2683 -10.702189,-3.2683 z"
       id="path13656"
       inkscape:connector-curvature="0"
       sodipodi:nodetypes="ssssccsccccccccccccccccccsccccccccccccsccccccccsccccccccccccccccccccccscsss" />
    <path
       style="font-size:medium;font-style:normal;font-variant:normal;font-weight:normal;font-stretch:normal;text-indent:0;text-align:start;text-decoration:none;line-height:normal;letter-spacing:normal;word-spacing:normal;text-transform:none;direction:ltr;block-progression:tb;writing-mode:lr-tb;text-anchor:start;baseline-shift:baseline;color:#000000;fill:#ffffff;fill-opacity:1;stroke:none;stroke-width:6;marker:none;visibility:visible;display:inline;overflow:visible;enable-background:accumulate;font-family:Sans;-inkscape-font-specification:Sans"
       d="m 16.003696,1023.4413 c -7.8341799,0 -14.1581174,4.6639 -14.1581174,10.3766 0,5.6934 6.2998827,10.2849 14.0976124,10.316 2.187175,3.4984 5.233679,4.985 9.983287,5.1429 -2.290418,-1.3488 -4.528219,-3.0019 -4.356343,-5.9597 5.059313,-1.5807 8.591677,-5.2315 8.591677,-9.4992 0,-5.7127 -6.323933,-10.3766 -14.158116,-10.3766 z m -0.937824,1.0285 0.665552,0 0.6353,0 0.211767,0.06 c 0.854814,0.2863 1.558828,1.0522 1.815143,1.936 0.143989,0.4965 0.151262,0.2253 0.151262,4.5682 0,3.7201 0.0084,3.9522 -0.03025,4.1748 -0.265711,1.5295 -1.599697,2.5908 -3.055491,2.4504 -1.129592,-0.109 -2.090722,-0.9505 -2.420191,-2.0874 -0.128923,-0.4449 -0.121055,-0.2751 -0.12101,-4.5378 4.7e-5,-4.2571 -0.0059,-4.0959 0.12101,-4.5379 0.07791,-0.2713 0.281729,-0.7043 0.453786,-0.9379 0.345452,-0.469 0.83246,-0.8514 1.361357,-1.0284 l 0.211767,-0.06 z m -3.751296,8.38 0.484038,0 c 0.280312,-0.01 0.494734,-0.01 0.514291,0 0.02909,0.018 0.04919,0.1996 0.0605,1.3008 0.0147,1.427 0.0049,1.4284 0.181515,1.9059 0.590621,1.5975 2.373615,2.497 4.084072,2.0572 1.110778,-0.2857 2.007564,-1.1203 2.359686,-2.1782 0.150687,-0.4527 0.141421,-0.5052 0.151262,-1.8454 0.0071,-0.959 0.0069,-1.2208 0.03025,-1.2403 0.01964,-0.016 0.200974,0 0.514291,0 l 0.453786,0 0.03025,1.4218 c 0.0055,1.3523 -0.017,1.4179 -0.06051,1.6034 -0.156929,0.669 -0.466232,1.2858 -0.907571,1.8152 -0.638703,0.766 -1.617587,1.329 -2.631958,1.5126 l -0.272271,0.06 0,0.9681 0,0.9681 1.240347,0.03 1.210096,0 0.03025,0.605 0,0.6354 -3.025238,0 -3.025239,0 0,-0.6354 0,-0.6352 1.240348,0 1.210095,0 0,-0.9681 0,-0.9681 -0.302524,-0.06 c -1.667346,-0.324 -2.991705,-1.5153 -3.448772,-3.116 -0.122578,-0.4294 -0.128037,-0.5328 -0.121009,-1.9362 l 0,-1.3008 z"
       id="path4681"
       inkscape:connector-curvature="0" />
  </g>
</svg>
