<?xml version="1.0" encoding="UTF-8" standalone="no"?>
<!-- Created with Inkscape (http://www.inkscape.org/) -->

<svg
   xmlns:dc="http://purl.org/dc/elements/1.1/"
   xmlns:cc="http://creativecommons.org/ns#"
   xmlns:rdf="http://www.w3.org/1999/02/22-rdf-syntax-ns#"
   xmlns:svg="http://www.w3.org/2000/svg"
   xmlns="http://www.w3.org/2000/svg"
   xmlns:sodipodi="http://sodipodi.sourceforge.net/DTD/sodipodi-0.dtd"
   xmlns:inkscape="http://www.inkscape.org/namespaces/inkscape"
   width="32"
   height="32"
   id="svg2995"
   version="1.1"
   inkscape:version="0.48.4 r9939"
   sodipodi:docname="tag_snore.svg"
   inkscape:export-filename="/home/petr/project/android-git/Sleep-actionbar2/res/drawable-xhdpi/tag_snore.png"
   inkscape:export-xdpi="135"
   inkscape:export-ydpi="135">
  <defs
     id="defs2997">
    <inkscape:path-effect
       effect="spiro"
       id="path-effect3157"
       is_visible="true" />
    <inkscape:path-effect
       is_visible="true"
       id="path-effect3058"
       effect="spiro" />
  </defs>
  <sodipodi:namedview
     id="base"
     pagecolor="#000000"
     bordercolor="#666666"
     borderopacity="1.0"
     inkscape:pageopacity="0"
     inkscape:pageshadow="2"
     inkscape:zoom="7.919596"
     inkscape:cx="6.5993625"
     inkscape:cy="14.511736"
     inkscape:document-units="px"
     inkscape:current-layer="layer1"
     showgrid="false"
     inkscape:window-width="1317"
     inkscape:window-height="744"
     inkscape:window-x="49"
     inkscape:window-y="24"
     inkscape:window-maximized="1" />
  <metadata
     id="metadata3000">
    <rdf:RDF>
      <cc:Work
         rdf:about="">
        <dc:format>image/svg+xml</dc:format>
        <dc:type
           rdf:resource="http://purl.org/dc/dcmitype/StillImage" />
        <dc:title></dc:title>
      </cc:Work>
    </rdf:RDF>
  </metadata>
  <g
     inkscape:label="Layer 1"
     inkscape:groupmode="layer"
     id="layer1"
     transform="translate(0,-1020.3622)">
    <path
       sodipodi:type="inkscape:offset"
       inkscape:radius="-3.8030832"
       inkscape:original="M 304.8125 212.53125 C 281.09597 212.53125 261.96875 232.53322 261.96875 256.8125 C 261.96875 281.09178 281.09597 301.09375 304.8125 301.09375 C 328.52903 301.09375 347.6875 281.09717 347.6875 256.8125 C 347.6875 232.52783 328.52903 212.53125 304.8125 212.53125 z "
       style="fill:#323232;fill-opacity:1;stroke:none"
       id="path13872"
       d="m 304.8125,216.34375 c -21.57824,0 -39.03125,18.18685 -39.03125,40.46875 0,22.2819 17.45301,40.46875 39.03125,40.46875 21.57882,0 39.0625,-18.18428 39.0625,-40.46875 0,-22.28447 -17.48368,-40.46875 -39.0625,-40.46875 z"
       transform="matrix(0.12554166,-0.07248151,0.07675748,0.13294785,-40.788448,1032.5911)" />
    <path
       sodipodi:type="arc"
       style="fill:#ffffff;fill-opacity:1;stroke:none"
       id="path3052"
       sodipodi:cx="304.82144"
       sodipodi:cy="256.82648"
       sodipodi:rx="37.32143"
       sodipodi:ry="38.75"
       d="m 342.14287,256.82648 c 0,21.40103 -16.70937,38.75 -37.32143,38.75 -20.61206,0 -37.32143,-17.34897 -37.32143,-38.75 0,-21.40104 16.70937,-38.75 37.32143,-38.75 20.61206,0 37.32143,17.34896 37.32143,38.75 z"
       transform="matrix(0.1172382,-0.0661913,0.07168064,0.12141014,-37.068081,1033.5106)" />
    <path
       sodipodi:type="inkscape:offset"
       inkscape:radius="-0.12820682"
       inkscape:original="M 23.40625 1020.75 C 23.133651 1020.7872 22.960633 1020.9064 22.84375 1021 C 22.469811 1021.2996 22.361524 1021.5579 22.15625 1021.9688 C 21.539713 1023.2029 19.959686 1025.4014 18.34375 1027.1562 C 17.737057 1027.8154 17.324068 1028.2845 17.03125 1028.6562 C 16.884841 1028.8425 16.755357 1029.0143 16.65625 1029.1875 C 16.557143 1029.3607 16.36969 1029.5228 16.46875 1030.0625 C 16.377902 1029.5676 16.504343 1029.5583 16.53125 1029.5312 C 16.492605 1029.5914 16.409615 1029.705 16.28125 1029.875 C 16.02452 1030.2149 15.593647 1030.7407 15 1031.4688 C 13.812707 1032.9245 11.92569 1035.1993 9.15625 1038.5 C 7.0720562 1040.9841 5.1839492 1043.2562 3.8125 1044.9062 C 3.1267754 1045.7314 2.5727226 1046.4067 2.1875 1046.875 C 1.9948887 1047.1092 1.854217 1047.2773 1.75 1047.4062 C 1.6978915 1047.471 1.6571203 1047.5214 1.625 1047.5625 C 1.6089398 1047.583 1.5803596 1047.6006 1.5625 1047.625 C 1.5535702 1047.6372 1.5512368 1047.6568 1.53125 1047.6875 C 1.5212566 1047.7028 1.4935045 1047.7031 1.46875 1047.75 C 1.4563727 1047.7734 1.4375925 1047.8748 1.4375 1047.875 C 1.4374075 1047.8752 1.3749889 1048.3124 1.375 1048.3125 C 1.3750447 1048.313 1.3990549 1048.4077 1.40625 1048.4375 C 1.4134451 1048.4673 1.4012638 1048.4841 1.40625 1048.5 C 1.4162225 1048.5319 1.4317276 1048.5784 1.4375 1048.5938 C 1.4490448 1048.6237 1.4607874 1048.6383 1.46875 1048.6562 C 1.4846752 1048.6931 1.4810128 1048.7096 1.5 1048.75 C 1.5379743 1048.8308 1.5955877 1048.9388 1.65625 1049.0625 C 1.7775745 1049.31 1.9450493 1049.6409 2.125 1050 C 2.3692894 1050.4874 2.5348327 1050.819 2.6875 1051.0625 C 2.7638337 1051.1843 2.7462506 1051.2416 3.0625 1051.4688 C 3.1415624 1051.5252 3.2612542 1051.6159 3.46875 1051.6562 C 3.6679598 1051.6955 3.9696168 1051.636 4.1875 1051.5 C 4.219995 1051.4805 4.2197014 1051.4576 4.25 1051.4375 C 4.6141664 1051.1961 4.8685662 1050.916 5.03125 1050.7188 C 5.207469 1050.5046 5.3169105 1050.391 5.34375 1050.375 C 5.1860948 1050.4691 5.3393857 1050.3865 5.65625 1050.4062 C 5.9731143 1050.4266 6.4533815 1050.5503 7.0625 1050.1875 C 7.668879 1049.8266 7.8067551 1049.3169 7.9375 1049.0312 C 8.0682449 1048.7459 8.1941599 1048.6847 8.03125 1048.7812 C 7.8670728 1048.879 8.0254026 1048.7935 8.34375 1048.8125 C 8.6620974 1048.8315 9.1399111 1048.9561 9.75 1048.5938 C 10.368613 1048.2267 10.500974 1047.7239 10.625 1047.4375 C 10.749026 1047.1511 10.865989 1047.0817 10.6875 1047.1875 C 10.550397 1047.2687 10.598706 1047.2083 10.78125 1047.2188 C 10.963794 1047.2286 11.221609 1047.2756 11.59375 1047.25 A 0.97512339 0.97512339 0 0 0 12.4375 1045.9375 C 11.573938 1043.572 12.407196 1041.034 14.46875 1039.8438 C 16.363956 1038.7493 18.74824 1039.1206 20.375 1040.6875 A 0.97512339 0.97512339 0 0 0 21.125 1040.9688 C 21.195766 1040.9645 21.400726 1040.9842 21.6875 1041 C 21.974274 1041.0158 22.383393 1041.0619 22.84375 1040.7812 C 23.463767 1040.4042 23.593427 1039.8864 23.71875 1039.5938 C 23.844073 1039.3006 23.962059 1039.233 23.78125 1039.3438 C 24.01773 1039.2066 24.624839 1039.09 25.15625 1039.0938 A 0.97512339 0.97512339 0 0 0 25.5625 1039 C 25.687303 1039.0367 25.864686 1039.117 26.15625 1039.0625 C 26.508639 1038.9967 26.750656 1038.8044 26.9375 1038.625 C 27.311187 1038.2662 27.688493 1037.7633 28.46875 1036.75 C 30.124639 1034.5993 30.84033 1033.2836 30.96875 1031.8125 A 0.97512339 0.97512339 0 0 0 30.96875 1031.7812 L 31 1031.3125 A 0.97512339 0.97512339 0 0 0 30.65625 1030.5 L 30.03125 1029.9688 C 29.321884 1029.392 26.43815 1026.363 25.5625 1025.2188 L 24.90625 1024.3438 L 24.84375 1023.2188 A 0.97512339 0.97512339 0 0 0 24.84375 1023.1875 C 24.812276 1022.549 24.794494 1022.1298 24.6875 1021.7188 C 24.634003 1021.5131 24.605107 1021.2724 24.21875 1020.9688 C 24.025572 1020.8169 23.678849 1020.7128 23.40625 1020.75 z M 21.90625 1027.4688 C 22.043362 1027.5073 22.18004 1027.5439 22.46875 1027.8125 C 22.806779 1028.127 23.2729 1028.6984 23.96875 1029.5938 C 24.639973 1030.457 25.592014 1031.5606 26.1875 1032.1562 C 26.719806 1032.689 27.011746 1033.043 27.09375 1033.1875 C 27.175754 1033.332 27.127177 1033.2126 27.09375 1033.375 C 27.080996 1033.437 27.024904 1033.5808 26.9375 1033.6875 C 26.850096 1033.7942 26.73783 1033.835 26.8125 1033.8125 C 27.061506 1033.7374 26.748589 1033.8036 26.4375 1033.6875 C 26.126411 1033.5714 25.761849 1033.3734 25.53125 1033.1875 C 25.476187 1033.1431 25.103504 1032.8115 24.71875 1032.4062 C 24.333996 1032.0016 23.891571 1031.4943 23.46875 1031 C 22.358427 1029.702 21.793214 1028.8921 21.65625 1028.5 C 21.519286 1028.1079 21.53586 1028.0803 21.90625 1027.5 C 21.935869 1027.4536 21.881994 1027.5006 21.90625 1027.4688 z "
       style="fill:#323232;fill-opacity:1;stroke:none"
       id="path13870"
       d="m 23.4375,1020.875 c -0.243446,0.033 -0.389847,0.1305 -0.5,0.2188 -0.355303,0.2846 -0.449432,0.5235 -0.65625,0.9374 -0.628469,1.258 -2.219878,3.4554 -3.84375,5.2188 -0.605802,0.6582 -1.023496,1.1331 -1.3125,1.5 -0.14544,0.1851 -0.2504,0.3369 -0.34375,0.5 -0.04335,0.076 -0.08677,0.1493 -0.125,0.2188 a 0.12821964,0.12821964 0 0 1 0,0.031 0.12821964,0.12821964 0 0 1 0,0.031 0.12821964,0.12821964 0 0 1 0,0.031 0.12821964,0.12821964 0 0 1 0,0.031 0.12821964,0.12821964 0 0 1 -0.03125,0 c -0.0091,0.014 -0.05013,0.044 -0.0625,0.062 -0.01232,0.094 4.42e-4,0.2072 0.03125,0.375 a 0.12821964,0.12821964 0 0 1 0,0.031 0.12821964,0.12821964 0 0 1 0,0.031 0.12821964,0.12821964 0 0 1 0,0.031 0.12821964,0.12821964 0 0 1 -0.03125,0.031 0.12821964,0.12821964 0 0 1 -0.03125,0 0.12821964,0.12821964 0 0 1 -0.03125,0.031 0.12821964,0.12821964 0 0 1 -0.03125,0 0.12821964,0.12821964 0 0 1 -0.03125,0 0.12821964,0.12821964 0 0 1 -0.0625,-0.031 0.12821964,0.12821964 0 0 1 -0.03125,-0.031 0.12821964,0.12821964 0 0 1 0,-0.031 c -0.007,-0.038 0.0049,-0.06 0,-0.094 -0.262294,0.3444 -0.676077,0.8586 -1.25,1.5625 -1.187998,1.4566 -3.074099,3.7303 -5.84375,7.0313 -2.0839574,2.4838 -3.9722926,4.7562 -5.34375,6.4062 -0.6854463,0.8249 -1.2396773,1.5003 -1.625,1.9688 -0.1929463,0.2346 -0.3344833,0.4038 -0.4375,0.5312 -0.05223,0.065 -0.093979,0.1166 -0.125,0.1562 -0.039629,0.051 -0.065789,0.036 -0.0625,0.031 0.023437,-0.032 -1.396e-4,0.015 -0.03125,0.062 -0.0345,0.053 -0.03114,0.062 -0.03125,0.062 -0.00259,0.01 -0.028401,0.018 -0.03125,0.031 -0.00285,0.013 0.00184,0.022 0,0.031 -9.224e-4,0 5.145e-4,0.029 0,0.031 l -0.125,-0.031 0.125,0.062 c -8.5e-5,2e-4 -0.055476,0.2931 -0.0625,0.3437 -1.193e-4,-4e-4 0,0.031 0,0.031 0.00154,0.01 -0.00173,0.024 0,0.031 0.00693,0.027 0.027288,0.046 0.03125,0.062 0.00876,0.036 0.00222,0.079 0,0.094 0.00839,0.025 0.02951,0.058 0.03125,0.062 0.00607,0.016 0.014785,-0.01 0.03125,0.031 0.012134,0.028 -0.00306,0.05 0,0.062 0.00306,0.012 0.025964,0.02 0.03125,0.031 0.035448,0.075 0.094447,0.1865 0.15625,0.3125 0.1206789,0.2462 0.2886582,0.5781 0.46875,0.9375 0.2443307,0.4875 0.3842523,0.828 0.53125,1.0625 0.090647,0.1446 0.037625,0.1551 0.34375,0.375 0.082163,0.059 0.1937883,0.1211 0.375,0.1562 0.1509903,0.03 0.4379587,-0.01 0.625,-0.125 a 0.12821964,0.12821964 0 0 1 0,-0.031 c 0.010752,-0.014 0.037001,-0.014 0.0625,-0.031 0.3490179,-0.2314 0.5911445,-0.5262 0.75,-0.7188 0.089318,-0.1086 0.1637172,-0.1903 0.21875,-0.25 0.027516,-0.03 0.043086,-0.044 0.0625,-0.062 0.01456,-0.014 0.046115,-0.019 0.0625,-0.031 0.00546,-0 -0.00778,-0.027 0,-0.031 a 0.12821964,0.12821964 0 0 1 0.03125,0 0.12821964,0.12821964 0 0 1 0.03125,0 0.12821964,0.12821964 0 0 1 0.03125,0 0.12821964,0.12821964 0 0 1 0.03125,0.031 c 0.00849,-8e-4 0.021681,9e-4 0.03125,0 0.066985,-0.01 0.1100679,-0.01 0.21875,0 0.341736,0.022 0.7710943,0.1224 1.34375,-0.2187 0.5681304,-0.3381 0.6719375,-0.7866 0.8125,-1.0937 0.061392,-0.134 0.1244197,-0.205 0.15625,-0.25 3.28e-5,-4e-4 0.031312,0.063 0.03125,0.062 -6.16e-5,-2e-4 0.031408,0.063 0.03125,0.063 -9.5e-5,-1e-4 0.014163,0.023 0.03125,0.031 0.011391,0.01 0.031353,0 0.03125,0 -2.044e-4,4e-4 6.73e-5,-0.032 0,-0.031 -6.73e-5,3e-4 -6.84e-5,-0.063 0,-0.063 6.84e-5,3e-4 -0.031453,-0.031 -0.03125,-0.031 2.03e-4,2e-4 -0.031586,-0.031 -0.03125,-0.031 3.363e-4,10e-5 -0.031718,-2e-4 -0.03125,0 0.00247,-0 -0.00192,-0.029 0,-0.031 0.054715,-0.01 0.1718979,-0.01 0.34375,0 0.3440068,0.021 0.7700256,0.122 1.34375,-0.2187 0.581332,-0.345 0.679948,-0.7877 0.8125,-1.0938 0.03756,-0.087 0.06464,-0.106 0.09375,-0.1562 0.01795,-0.031 0.05437,-0.08 0.0625,-0.094 8e-5,0 -0.06266,-0.031 -0.0625,-0.031 0.0049,-0 0.04467,0 0.0625,0 0.03566,-0.01 0.05434,-0 0.125,0 0.198003,0.011 0.455122,0.056 0.8125,0.031 0.0106,-0 0.02068,0 0.03125,0 0.01057,-0 0.02073,0 0.03125,0 0.01052,-0 0.02078,0 0.03125,0 0.01047,-0 0.02084,-0.029 0.03125,-0.031 0.01034,-0 0.02099,0 0.03125,0 0.01026,-0 0.02108,0 0.03125,0 0.01017,-0 0.02118,-0.028 0.03125,-0.031 0.01,-0 0.0214,0 0.03125,0 0.0099,-0 0.02152,0 0.03125,0 0.0097,-0 0.02165,-0.027 0.03125,-0.031 0.0095,-0 0.02193,0.01 0.03125,0 0.0093,-0.01 0.02209,-0.026 0.03125,-0.031 0.009,-0.01 0.02242,-0.025 0.03125,-0.031 0.0088,-0.01 0.02259,0.01 0.03125,0 0.0087,-0.01 -0.0085,-0.025 0,-0.031 0.0085,-0.01 0.02297,0.01 0.03125,0 0.0083,-0.01 -0.0081,-0.024 0,-0.031 0.0081,-0.01 0.02337,0.01 0.03125,0 0.0079,-0.01 0.02358,-0.024 0.03125,-0.031 0.0075,-0.01 0.02402,-0.023 0.03125,-0.031 0.007,-0.01 0.02449,-0.023 0.03125,-0.031 0.0068,-0.01 -0.0065,-0.023 0,-0.031 0.0065,-0.01 0.02498,0.01 0.03125,0 0.0063,-0.01 -0.006,-0.022 0,-0.031 0.006,-0.01 0.02549,0.01 0.03125,0 0.0058,-0.01 -0.0055,-0.022 0,-0.031 0.0055,-0.01 -0.0052,-0.022 0,-0.031 0.0052,-0.01 0.02629,-0.022 0.03125,-0.031 0.0047,-0.01 -0.0044,-0.021 0,-0.031 0.0044,-0.01 0.02712,-0.021 0.03125,-0.031 0.0038,-0.01 -0.0035,-0.021 0,-0.031 0.0035,-0.01 0.02799,-0.021 0.03125,-0.031 0.0033,-0.01 -0.003,-0.021 0,-0.031 0.0027,-0.01 -0.0024,-0.021 0,-0.031 0.0024,-0.01 -0.0021,-0.021 0,-0.031 0.0021,-0.011 -0.0018,-0.021 0,-0.031 0.0018,-0.01 0.0298,0.011 0.03125,0 0.0015,-0.01 -0.0011,-0.021 0,-0.031 0.0011,-0.011 -8.38e-4,-0.021 0,-0.031 8.38e-4,-0.011 -5.29e-4,-0.021 0,-0.031 5.29e-4,-0.011 -2.21e-4,-0.021 0,-0.031 -8.8e-5,-0.011 3.97e-4,-0.02 0,-0.031 -3.97e-4,-0.011 7.06e-4,-0.021 0,-0.031 -7.06e-4,-0.011 0.001,-0.021 0,-0.031 -0.0013,-0.011 0.0016,-0.021 0,-0.031 -0.0016,-0.01 -0.02932,-0.021 -0.03125,-0.031 -0.0019,-0.011 0.0022,-0.021 0,-0.031 -0.0022,-0.011 0.0025,-0.021 0,-0.031 -0.0028,-0.01 0.0031,-0.021 0,-0.031 -0.0031,-0.01 -0.02783,-0.021 -0.03125,-0.031 -0.0034,-0.01 0.0037,-0.021 0,-0.031 -0.882803,-2.4183 -0.0232,-5.0279 2.09375,-6.25 1.946406,-1.1241 4.397948,-0.7284 6.0625,0.875 0.0069,0.01 -0.0071,0.024 0,0.031 0.0071,0.01 0.02399,-0.01 0.03125,0 0.0073,0.01 -0.0074,0.025 0,0.031 0.0074,0.01 0.02366,-0.01 0.03125,0 0.0076,0.01 0.0235,-0.01 0.03125,0 0.0077,0.01 -0.0079,0.026 0,0.031 0.0079,0.01 0.0232,-0.01 0.03125,0 0.008,0.01 -0.0082,0.026 0,0.031 0.0082,0.01 0.02293,-0.01 0.03125,0 0.0083,0 0.02279,-0 0.03125,0 0.0085,0 -0.0086,0.027 0,0.031 0.0086,0 0.02255,-0 0.03125,0 0.0088,0 0.02233,0.027 0.03125,0.031 0.0089,0 0.02223,-0 0.03125,0 0.0091,0 0.02205,-0 0.03125,0 0.0092,0 0.02197,0.028 0.03125,0.031 0.0093,0 0.0219,-0 0.03125,0 0.0094,0 0.02177,-0 0.03125,0 0.0095,0 0.02172,-0 0.03125,0 0.0095,0 -0.0096,0.03 0,0.031 0.0096,0 0.02163,-0 0.03125,0 0.0096,0 0.02159,-0 0.03125,0 0.0097,9e-4 0.02154,-7e-4 0.03125,0 0.0097,6e-4 0.02153,-5e-4 0.03125,0 0.0097,4e-4 0.02152,-2e-4 0.03125,0 0.0097,-2e-4 0.02153,3e-4 0.03125,0 0.0097,-4e-4 0.02154,6e-4 0.03125,0 0.05469,-0 0.122179,-0.01 0.21875,0 0.09657,0.01 0.20161,0.023 0.34375,0.031 0.293764,0.016 0.667547,0.041 1.09375,-0.2188 0.582269,-0.354 0.678225,-0.8114 0.8125,-1.125 0.06129,-0.1433 0.134372,-0.2137 0.15625,-0.25 -7.2e-5,0 -0.0016,-0.026 0,-0.031 l -0.03125,-0.031 c 0.145796,-0.085 0.369219,-0.1402 0.625,-0.1876 0.255781,-0.047 0.537069,-0.064 0.8125,-0.062 0.0099,-2e-4 0.02135,3e-4 0.03125,0 0.0099,-7e-4 0.02139,9e-4 0.03125,0 0.0099,-0 0.02142,0 0.03125,0 0.0098,-0 0.02145,0 0.03125,0 0.0098,-0 -0.0098,-0.03 0,-0.031 0.0098,-0 0.02154,0 0.03125,0 0.0097,-0 0.0216,0 0.03125,0 0.0096,-0 0.02173,0 0.03125,0 0.0095,-0 0.02181,0 0.03125,0 0.0094,-0 0.0219,-0.028 0.03125,-0.031 0.0093,-0 0.02208,0 0.03125,0 0.0092,-0 0.02219,0 0.03125,0 0.0091,-0 -0.009,-0.027 0,-0.031 a 0.12821964,0.12821964 0 0 1 0.03125,0 0.12821964,0.12821964 0 0 1 0.03125,0 0.12821964,0.12821964 0 0 1 0.03125,0 c 0.141819,0.042 0.271276,0.1111 0.53125,0.062 0.318496,-0.06 0.538786,-0.2335 0.71875,-0.4063 0.361615,-0.3472 0.750672,-0.8612 1.53125,-1.875 1.651364,-2.1448 2.343343,-3.4071 2.46875,-4.8437 1.89e-4,-0.012 1.89e-4,-0.019 0,-0.031 l 0.03125,-0.4687 c 7.46e-4,-0.011 -4.3e-4,-0.021 0,-0.031 4.3e-4,-0.011 -1.13e-4,-0.02 0,-0.031 1.13e-4,-0.011 2.03e-4,-0.021 0,-0.031 -5.2e-4,-0.011 8.36e-4,-0.021 0,-0.031 -8.36e-4,-0.011 0.0012,-0.021 0,-0.031 -0.0012,-0.011 0.0015,-0.02 0,-0.031 -0.0015,-0.011 0.0018,-0.021 0,-0.031 -0.0018,-0.011 -0.02916,0.01 -0.03125,0 -0.0021,-0.011 0.0024,-0.021 0,-0.031 -0.0024,-0.011 0.0027,-0.021 0,-0.031 -0.0027,-0.01 0.003,-0.021 0,-0.031 -0.0033,-0.01 -0.02764,-0.021 -0.03125,-0.031 -0.0036,-0.01 0.0039,-0.021 0,-0.031 -0.0039,-0.01 0.0042,-0.021 0,-0.031 -0.0045,-0.01 -0.02647,-0.021 -0.03125,-0.031 -0.0048,-0.01 0.0051,-0.022 0,-0.031 -0.0051,-0.01 -0.02591,-0.022 -0.03125,-0.031 -0.0056,-0.01 0.0059,-0.022 0,-0.031 -0.0059,-0.01 -0.02511,-0.022 -0.03125,-0.031 -0.0064,-0.01 -0.0246,-0.023 -0.03125,-0.031 -0.0069,-0.01 -0.02411,-0.023 -0.03125,-0.031 -0.0071,-0.01 0.0074,-0.023 0,-0.031 -0.0074,-0.01 -0.02365,0.01 -0.03125,0 -0.0076,-0.01 0.0078,-0.024 0,-0.031 -0.0078,-0.01 -0.02321,0.01 -0.03125,0 -0.008,-0.01 -0.02301,-0.024 -0.03125,-0.031 l -0.625,-0.5313 c -0.373935,-0.3041 -1.235715,-1.1823 -2.15625,-2.1563 -0.920535,-0.9739 -1.866578,-2.0423 -2.3125,-2.625 l -0.65625,-0.875 a 0.12821964,0.12821964 0 0 1 -0.03125,0 0.12821964,0.12821964 0 0 1 0,-0.031 0.12821964,0.12821964 0 0 1 0,-0.031 l -0.0625,-1.125 c 1.89e-4,-0.012 1.89e-4,-0.019 0,-0.031 -0.03149,-0.6389 -0.05374,-1.0437 -0.15625,-1.4375 -0.0568,-0.2184 -0.07459,-0.4023 -0.4375,-0.6875 -0.156957,-0.1234 -0.46108,-0.2184 -0.6875,-0.1875 z m -1.59375,6.4688 a 0.12821964,0.12821964 0 0 1 0.03125,0 0.12821964,0.12821964 0 0 1 0.03125,0 0.12821964,0.12821964 0 0 1 0.03125,0 c 0.136123,0.038 0.325769,0.097 0.625,0.375 0.351695,0.3272 0.803344,0.8848 1.5,1.7812 0.667667,0.8586 1.630944,1.9746 2.21875,2.5625 0.535809,0.5363 0.835391,0.8826 0.9375,1.0625 0.01944,0.034 0.02079,0.044 0.03125,0.062 0.0052,0.01 -0.006,0.032 0,0.062 0.006,0.031 0.01392,0.074 0,0.094 -0.02783,0.039 -0.03221,0.033 -0.03125,0.031 9.6e-4,-0 0.0065,-3e-4 0,0.031 -0.01982,0.096 -0.08135,0.2455 -0.1875,0.375 -0.04346,0.053 -0.09112,0.069 -0.125,0.094 -8.7e-5,10e-5 2.1e-5,-0.031 0,-0.031 -10e-6,0 -7e-6,-0.031 0,-0.031 7e-6,0 -2.4e-5,-0.062 0,-0.062 2.4e-5,0 -0.03129,-0.031 -0.03125,-0.031 4.1e-5,0 -0.03131,-0.031 -0.03125,-0.031 -0.01057,0 -0.03845,-0.01 -0.0625,0 l 0,0.031 c 2.59e-4,-5e-4 -5.1e-5,0.032 0,0.031 5.1e-5,-4e-4 1.52e-4,0.063 0,0.062 -1.52e-4,-4e-4 0.0316,0.063 0.03125,0.062 -3.51e-4,-3e-4 0.02503,-0 0.03125,0 0.0062,0 -0.0036,0.03 0,0.031 -0.0072,-7e-4 -0.02061,0 -0.03125,0 -0.08515,-0.01 -0.230034,-0.028 -0.40625,-0.094 -0.325084,-0.1213 -0.721379,-0.3318 -0.96875,-0.5313 -0.03891,-0.031 -0.131668,-0.1095 -0.28125,-0.25 -0.149582,-0.1404 -0.336662,-0.3262 -0.53125,-0.5312 -0.387811,-0.4078 -0.826628,-0.9113 -1.25,-1.4062 -1.113477,-1.3017 -1.688699,-2.1187 -1.84375,-2.5626 -0.06932,-0.1984 -0.104795,-0.3369 -0.0625,-0.5 0.03633,-0.14 0.172806,-0.2812 0.3125,-0.5 -3.4e-5,0 0.0021,-0.017 0,-0.031 6.3e-5,3e-4 2.6e-5,-0.032 0,-0.031 0.0109,-0.017 0.01972,-0.013 0.03125,-0.031 0.0016,-0 -0.02821,-0.01 -0.03125,0 1.18e-4,-4e-4 -0.0021,-0.027 0,-0.031 0.0086,-0.017 0.0259,0.01 0.03125,0 a 0.12821964,0.12821964 0 0 1 0,-0.031 0.12821964,0.12821964 0 0 1 0.03125,-0.031 z" />
    <path
       style="opacity:1;fill:#ffffff;fill-opacity:1;stroke:none"
       d="m 23.463445,1021.746 c -0.109849,0.088 -0.24714,0.3086 -0.423603,0.6619 -0.700077,1.4014 -2.308457,3.5838 -3.979408,5.3985 -1.198885,1.302 -1.648166,1.8773 -1.615771,2.0538 0.03286,0.179 -1.989629,2.6696 -7.5302479,9.2731 -4.1665086,4.9659 -7.5753032,9.0533 -7.5724574,9.0848 0.00286,0.032 0.2982397,0.6398 0.6568447,1.3554 0.4798681,0.9575 0.6602804,1.2419 0.6820822,1.0789 0.4533892,-0.2714 0.7276659,-0.8532 1.1780353,-1.1219 0.4503527,-0.2687 1.2614125,0.09 1.7090177,-0.1767 0.4475905,-0.2664 0.5300417,-1.1578 0.9751694,-1.4221 0.445117,-0.2643 1.2494795,0.096 1.6923796,-0.1671 0.442903,-0.2626 0.5211118,-1.145 0.9620764,-1.4064 0.340017,-0.2015 0.892957,-0.034 1.330326,-0.064 -1.011389,-2.7704 -0.03922,-5.8684 2.449727,-7.3054 2.28977,-1.322 5.159795,-0.8291 7.078355,1.0189 0.429312,-0.024 0.963437,0.1332 1.291973,-0.067 0.435856,-0.2653 0.511243,-1.1634 0.947903,-1.4309 0.518942,-0.3004 1.254471,-0.3822 1.873623,-0.3781 0.07817,-0.093 0.321349,-0.1231 0.542261,-0.059 0.397324,0.1144 0.418642,0.097 1.977247,-1.9271 1.623381,-2.1085 2.19918,-3.2178 2.305148,-4.4318 l 0.04152,-0.4658 -0.641201,-0.5217 c -0.927186,-0.7534 -3.637696,-3.6434 -4.61483,-4.9204 l -0.835473,-1.0885 -0.07533,-1.462 c -0.06085,-1.2344 -0.163694,-1.7024 -0.405372,-1.5088 z m -1.95397,4.7201 c 0.126184,-0.068 0.266484,-0.058 0.506534,-0.01 0.701548,0.1521 1.309908,0.7225 2.724559,2.5425 0.644533,0.8292 1.603658,1.9337 2.130075,2.4603 1.098746,1.0991 1.314703,1.4801 1.187962,2.096 -0.106914,0.5196 -0.55199,1.0709 -0.965506,1.1956 -0.441884,0.1333 -1.51624,-0.2651 -2.188089,-0.8067 -0.327998,-0.2644 -1.310428,-1.3136 -2.181803,-2.3322 -2.252025,-2.6327 -2.487972,-3.3064 -1.625031,-4.6583 0.175468,-0.2749 0.285115,-0.4235 0.411299,-0.4911 z"
       id="path3833"
       inkscape:connector-curvature="0" />
  </g>
</svg>
