<?xml version="1.0" encoding="UTF-8" standalone="no"?>
<!-- Created with Inkscape (http://www.inkscape.org/) -->

<svg
   xmlns:dc="http://purl.org/dc/elements/1.1/"
   xmlns:cc="http://creativecommons.org/ns#"
   xmlns:rdf="http://www.w3.org/1999/02/22-rdf-syntax-ns#"
   xmlns:svg="http://www.w3.org/2000/svg"
   xmlns="http://www.w3.org/2000/svg"
   xmlns:sodipodi="http://sodipodi.sourceforge.net/DTD/sodipodi-0.dtd"
   xmlns:inkscape="http://www.inkscape.org/namespaces/inkscape"
   width="32"
   height="32"
   id="svg2995"
   version="1.1"
   inkscape:version="0.48.4 r9939"
   sodipodi:docname="tag_snore_new.svg"
   inkscape:export-filename="/home/petr/project/android-git/Sleep-actionbar2/res/drawable-xxhdpi/tag_snore.png"
   inkscape:export-xdpi="180"
   inkscape:export-ydpi="180">
  <defs
     id="defs2997">
    <inkscape:path-effect
       effect="spiro"
       id="path-effect3157"
       is_visible="true" />
    <inkscape:path-effect
       is_visible="true"
       id="path-effect3058"
       effect="spiro" />
  </defs>
  <sodipodi:namedview
     id="base"
     pagecolor="#000000"
     bordercolor="#666666"
     borderopacity="1.0"
     inkscape:pageopacity="0"
     inkscape:pageshadow="2"
     inkscape:zoom="7.919596"
     inkscape:cx="6.5993625"
     inkscape:cy="14.511736"
     inkscape:document-units="px"
     inkscape:current-layer="layer1"
     showgrid="false"
     inkscape:window-width="1307"
     inkscape:window-height="744"
     inkscape:window-x="59"
     inkscape:window-y="24"
     inkscape:window-maximized="1" />
  <metadata
     id="metadata3000">
    <rdf:RDF>
      <cc:Work
         rdf:about="">
        <dc:format>image/svg+xml</dc:format>
        <dc:type
           rdf:resource="http://purl.org/dc/dcmitype/StillImage" />
        <dc:title></dc:title>
      </cc:Work>
    </rdf:RDF>
  </metadata>
  <g
     inkscape:label="Layer 1"
     inkscape:groupmode="layer"
     id="layer1"
     transform="translate(0,-1020.3622)">
    <path
       sodipodi:type="arc"
       style="fill:#ffffff;fill-opacity:1;stroke:none"
       id="path3052"
       sodipodi:cx="304.82144"
       sodipodi:cy="256.82648"
       sodipodi:rx="37.32143"
       sodipodi:ry="38.75"
       d="m 342.14287,256.82648 a 37.32143,38.75 0 1 1 -74.64286,0 37.32143,38.75 0 1 1 74.64286,0 z"
       transform="matrix(0.11438221,-0.06068736,0.06993446,0.11131464,-35.749049,1034.3625)" />
    <path
       style="fill:#ffffff;fill-opacity:1;stroke:none"
       d="m 23.210907,1021.8723 c -1.013611,1.7568 -2.131747,3.4739 -3.475275,5.0084 -0.913522,1.156 -2.136984,2.105 -2.751441,3.4622 -4.392486,5.5877 -9.084329,10.9334 -13.5986404,16.4225 -0.8801041,0.8867 -1.7296724,1.814 -0.6392864,2.9344 0.2638914,0.9758 0.8558425,1.4765 1.4090095,0.3585 0.8137832,-0.9783 2.667435,0.073 2.858079,-1.7041 0.7892129,-0.7802 2.4951934,0.093 2.657599,-1.5766 0.4193293,-0.8705 2.1926893,0.2438 1.3718623,-1.1433 -0.76938,-2.9303 1.010415,-6.3454 4.021362,-7.0744 2.01657,-0.5529 4.259434,0.125 5.739257,1.5741 1.748359,0.6814 1.608499,-1.8 3.139109,-1.8011 1.224364,-0.054 2.407776,-0.059 2.977745,-1.3924 1.239229,-1.6645 2.816518,-3.3687 2.862821,-5.5662 -2.301655,-1.8971 -4.288533,-4.1607 -6.091504,-6.5306 -0.100053,-0.9954 0.02601,-2.0453 -0.323962,-2.9903 -0.01632,-0.1185 -0.157709,0.077 -0.156735,0.019 z m 1.146834,7.0856 c 0.985233,1.3877 1.78199,2.0063 2.808827,3.3514 0.731077,1.3832 -0.619724,3.2953 -1.797901,2.2147 -1.512373,-0.8768 -2.491748,-2.4175 -3.649795,-3.6867 -0.954172,-1.0427 -1.707742,-2.0445 -0.50015,-3.3096 1.750811,-0.4029 2.305881,0.4865 3.139019,1.4302 z"
       id="path3833"
       inkscape:connector-curvature="0"
       sodipodi:nodetypes="cccccccccccccccccccccccc" />
  </g>
</svg>
