<?xml version="1.0" encoding="UTF-8" standalone="no"?>
<svg
   height="512"
   viewBox="0 0 128 128"
   width="512"
   version="1.1"
   id="svg14"
   sodipodi:docname="example.svg"
   inkscape:version="1.1.2 (0a00cf5339, 2022-02-04)"
   xmlns:inkscape="http://www.inkscape.org/namespaces/inkscape"
   xmlns:sodipodi="http://sodipodi.sourceforge.net/DTD/sodipodi-0.dtd"
   xmlns="http://www.w3.org/2000/svg"
   xmlns:svg="http://www.w3.org/2000/svg">
  <defs
     id="defs18" />
  <sodipodi:namedview
     id="namedview16"
     pagecolor="#ffffff"
     bordercolor="#666666"
     borderopacity="1.0"
     inkscape:pageshadow="2"
     inkscape:pageopacity="0.0"
     inkscape:pagecheckerboard="0"
     showgrid="false"
     inkscape:zoom="1.6015625"
     inkscape:cx="207.29756"
     inkscape:cy="256"
     inkscape:window-width="1920"
     inkscape:window-height="1046"
     inkscape:window-x="0"
     inkscape:window-y="-3"
     inkscape:window-maximized="1"
     inkscape:current-layer="svg14" />
  <path
     d="M 88.202402,109.66162 66.302454,66.130629 64,61.560085 61.697546,66.130629 39.797597,109.66162 a 2.5773742,2.5773742 0 0 0 2.303314,3.73805 2.5773742,2.5773742 0 0 0 2.303313,-1.42013 L 64,73.0294 83.595776,111.97954 a 2.5773742,2.5773742 0 0 0 2.303313,1.42013 2.5773742,2.5773742 0 0 0 2.303313,-3.73805 z"
     fill="#aa7e54"
     id="path2"
     style="stroke-width:0.859125" />
  <path
     d="m 61.422626,14.600328 h 5.154748 v 17.612057 h -5.154748 z"
     fill="#e2a76f"
     id="path4"
     style="stroke-width:0.859125" />
  <path
     d="M 19.003343,21.043764 H 108.99666 V 82.471181 H 19.003343 Z"
     fill="#eaeaf0"
     id="path6"
     style="stroke-width:0.859125" />
  <path
     d="m 103.84191,59.920016 a 1.5034683,1.5034683 0 0 1 -1.50347,-1.503468 V 47.747937 a 1.50347,1.50347 0 0 1 3.00694,0 v 10.667752 a 1.5034683,1.5034683 0 0 1 -1.50347,1.504327 z"
     fill="#b4b4b8"
     id="path8"
     style="stroke-width:0.859125" />
  <path
     d="m 14.600329,78.60512 h 98.799341 v 7.732122 H 14.600329 Z"
     fill="#e2a76f"
     id="path10"
     style="stroke-width:0.859125" />
  <path
     id="rect7228"
     style="fill:#aa7e54;fill-opacity:1;stroke-width:1;stop-color:#000000"
     d="M 176.31445 138.9668 C 174.64553 138.9668 172.97804 139.60595 171.69922 140.88477 L 6.9511719 305.63086 A 255.00229 255.00229 0 0 0 10.53125 320.51953 L 180.93164 150.11914 C 183.48927 147.56151 183.48927 143.4424 180.93164 140.88477 C 179.65282 139.60595 177.98338 138.9668 176.31445 138.9668 z "
     transform="scale(0.25)" />
</svg>
