<?xml version="1.0" encoding="UTF-8" standalone="no"?>
<svg
   id="Capa_1"
   enable-background="new 0 0 496.553 496.553"
   height="512"
   viewBox="0 0 496.553 496.553"
   width="512"
   version="1.1"
   sodipodi:docname="example.svg"
   inkscape:version="1.1.2 (0a00cf5339, 2022-02-04)"
   xmlns:inkscape="http://www.inkscape.org/namespaces/inkscape"
   xmlns:sodipodi="http://sodipodi.sourceforge.net/DTD/sodipodi-0.dtd"
   xmlns="http://www.w3.org/2000/svg"
   xmlns:svg="http://www.w3.org/2000/svg">
  <defs
     id="defs65" />
  <sodipodi:namedview
     id="namedview63"
     pagecolor="#ffffff"
     bordercolor="#666666"
     borderopacity="1.0"
     inkscape:pageshadow="2"
     inkscape:pageopacity="0.0"
     inkscape:pagecheckerboard="0"
     showgrid="false"
     inkscape:zoom="1.6015625"
     inkscape:cx="206.04878"
     inkscape:cy="304.07805"
     inkscape:window-width="1920"
     inkscape:window-height="1046"
     inkscape:window-x="0"
     inkscape:window-y="-3"
     inkscape:window-maximized="1"
     inkscape:current-layer="Capa_1" />
  <g
     id="g60"
     transform="matrix(0.87023006,0,0,0.87023006,32.218827,66.351877)">
    <g
       id="g6">
      <g
         id="g4">
        <path
           d="M 302.897,398.731 H 196.423 l -20.529,28.042 h 147.531 z"
           fill="#ab7b64"
           id="path2" />
      </g>
    </g>
    <g
       id="g16">
      <g
         id="g10">
        <path
           d="m 228.037,398.727 -17.31,28.05 h -34.83 l 20.53,-28.05 z"
           fill="#9a6a53"
           id="path8" />
      </g>
      <g
         id="g14">
        <path
           d="m 323.427,426.777 h -35.01 l -17.37,-28.05 h 31.85 z"
           fill="#9a6a53"
           id="path12" />
      </g>
    </g>
    <path
       d="m 232.09,354.055 -14.644,11.152 0.884,11.153 -65.728,106.547 c -4.038,6.594 -12.663,8.547 -19.091,4.561 -6.53,-4.021 -8.569,-12.581 -4.554,-19.121 l 58.414,-91.986 12.702,-7.812 0.266,-12.61 z"
       fill="#ab7b64"
       id="path18" />
    <path
       d="m 266.894,354.055 15.574,13.132 -1.759,9.169 66.007,106.551 c 4.038,6.594 12.663,8.547 19.091,4.561 6.53,-4.021 8.569,-12.581 4.554,-19.121 l -58.416,-91.989 -12.456,-11.151 -0.511,-9.269 z"
       fill="#ab7b64"
       id="path20" />
    <g
       id="g24">
      <path
         d="m 24.12,340.555 c -5.711,0 -5.822,-5.103 -5.822,-10.815 V 22.676 c 0,-8.284 2.184,-14.043 10.468,-14.043 l 2.011,-1.605 h 436.998 c 8.284,0 15,6.716 15,15 v 308.185 c 0,5.711 -4.63,10.341 -10.341,10.341 H 24.12 Z"
         fill="#ab7b64"
         id="path22" />
    </g>
    <g
       id="g28">
      <path
         d="m 482.777,305.557 v 24.66 c 0,5.71 -4.63,10.34 -10.34,10.34 H 24.117 c -5.71,0 -10.34,-4.63 -10.34,-10.34 V 22.027 c 0,-8.28 6.72,-15 15,-15 h 2 v 288.19 c 0,5.71 4.63,10.34 10.34,10.34 z"
         fill="#9a6a53"
         id="path26" />
    </g>
    <path
       d="M 50.638,333.507 48.596,49.229 c 0,-5.523 -0.34,-12.201 5.183,-12.201 h 388.996 c 5.523,0 10,4.477 10,10 v 258.529 l -7.413,25.204 z"
       fill="#94d4a2"
       id="path30" />
    <g
       fill="#f7f9fa"
       id="g44">
      <path
         d="m 115.585,141.255 c 4.219,0 7.624,-3.483 7.497,-7.731 -0.123,-4.105 -3.704,-7.269 -7.811,-7.269 H 82.422 c -4.142,0 -7.5,3.358 -7.5,7.5 v 108.09 c 0,4.142 3.358,7.5 7.5,7.5 h 32.849 c 4.107,0 7.688,-3.164 7.811,-7.269 0.128,-4.247 -3.278,-7.731 -7.497,-7.731 H 91.922 c -1.105,0 -2,-0.895 -2,-2 V 197.3 c 0,-1.105 0.895,-2 2,-2 h 20.904 c 4.107,0 7.688,-3.164 7.811,-7.269 0.128,-4.247 -3.278,-7.731 -7.497,-7.731 H 91.922 c -1.105,0 -2,-0.895 -2,-2 v -35.045 c 0,-1.105 0.895,-2 2,-2 z"
         id="path32" />
      <path
         d="m 373.78,228.213 c -3.173,-2.662 -7.904,-2.248 -10.566,0.926 -0.471,0.562 -0.979,1.086 -1.509,1.558 -2.718,2.42 -6.198,3.648 -10.344,3.648 -11.268,0 -20.435,-9.167 -20.435,-20.435 0,-11.268 9.167,-20.435 20.435,-20.435 4.096,0 8.045,1.205 11.42,3.486 3.433,2.318 8.094,1.417 10.414,-2.016 2.319,-3.432 1.416,-8.095 -2.016,-10.414 -5.865,-3.962 -12.717,-6.056 -19.817,-6.056 -19.539,0 -35.435,15.896 -35.435,35.435 0,19.539 15.896,35.435 35.435,35.435 7.823,0 14.85,-2.575 20.32,-7.447 1.071,-0.954 2.088,-2.003 3.024,-3.119 2.661,-3.173 2.247,-7.904 -0.926,-10.566 z"
         id="path34" />
      <path
         d="m 275.863,179.314 c -6.8,0 -12.585,2.07 -17.004,5.813 -0.801,0.678 -1.971,0.626 -2.714,-0.115 -3.989,-3.98 -9.43,-5.987 -16.311,-5.987 -4.256,0 -8.174,0.955 -11.642,2.715 -0.874,0.444 -1.917,0.167 -2.507,-0.616 -1.441,-1.912 -3.774,-3.113 -6.382,-2.98 -4.037,0.206 -7.106,3.738 -7.106,7.779 v 55.614 c 0,4.107 3.164,7.681 7.269,7.804 4.247,0.128 7.731,-3.278 7.731,-7.497 v -28.981 c 0,-0.029 0.004,-0.058 0.004,-0.087 0,-11.392 4.959,-18.752 12.634,-18.752 3.783,0 8.964,0 9.438,16.069 0.015,0.513 0.022,1.047 0.026,1.586 l -0.003,1.302 c -0.002,0.306 -0.001,0.605 -0.006,0.916 0,0.044 -0.001,0.089 -0.001,0.134 v 27.499 c 0,4.107 3.164,7.688 7.269,7.811 4.247,0.128 7.731,-3.278 7.731,-7.497 V 216.71 l 0.008,-3.839 c 0.002,-0.426 0.006,-0.852 0.003,-1.268 l 0.005,-2.613 c 0.002,-9.738 3.891,-14.676 11.559,-14.676 5.054,0 6.543,1.557 7.032,2.069 1.611,1.685 3.431,5.924 2.952,16.548 -0.005,0.112 -0.008,0.225 -0.008,0.337 v 28.262 c 0,4.107 3.164,7.688 7.269,7.811 4.247,0.128 7.731,-3.278 7.731,-7.497 v -28.411 c 0.564,-13.044 -1.694,-21.759 -7.102,-27.416 -4.252,-4.448 -10.267,-6.703 -17.875,-6.703 z"
         id="path36" />
      <path
         d="m 188.696,186.373 h -44.111 c -4.142,0 -7.5,3.358 -7.5,7.5 0,4.142 3.358,7.5 7.5,7.5 h 44.111 c 4.142,0 7.5,-3.358 7.5,-7.5 0,-4.142 -3.358,-7.5 -7.5,-7.5 z"
         id="path38" />
      <path
         d="m 188.696,212.828 h -44.111 c -4.142,0 -7.5,3.358 -7.5,7.5 0,4.142 3.358,7.5 7.5,7.5 h 44.111 c 4.142,0 7.5,-3.358 7.5,-7.5 0,-4.142 -3.358,-7.5 -7.5,-7.5 z"
         id="path40" />
      <path
         d="m 414.134,159.325 c -0.032,0 -0.064,0 -0.096,0 -1.653,0.021 -3.346,0.039 -5.025,0.054 -1.639,0.015 -2.6,-1.836 -1.641,-3.165 1.706,-2.364 3.652,-5.098 5.864,-8.257 3.119,-4.456 5.156,-8.707 6.052,-12.633 0.039,-0.223 0.077,-0.441 0.115,-0.664 l 0.227,-1.772 c 0.035,-0.277 0.059,-0.558 0.06,-0.837 0.062,-10.653 -8.586,-19.339 -19.225,-19.339 -8.934,0 -16.696,6.195 -18.718,14.828 -0.958,4.09 1.312,8.385 5.388,9.399 4.183,1.041 8.342,-1.626 9.178,-5.801 0.334,-1.669 1.65,-3.027 3.322,-3.347 2.566,-0.491 4.834,1.359 5.039,3.786 l -0.096,0.751 c -0.381,1.428 -1.327,3.736 -3.631,7.028 -7.231,10.332 -11.543,15.979 -13.86,19.012 -2.951,3.865 -4.901,6.417 -3.666,10.432 0.732,2.377 2.598,4.272 4.989,5.068 0.982,0.328 1.724,0.575 10.966,0.575 3.481,0 8.169,-0.035 14.531,-0.114 4.094,-0.051 7.635,-3.24 7.724,-7.333 0.091,-4.232 -3.311,-7.671 -7.497,-7.671 z"
         id="path42" />
    </g>
    <g
       id="g48">
      <path
         d="m 232.087,354.057 -13.76,22.3 h -30.96 l 12.97,-20.42 z"
         fill="#9a6a53"
         id="path46" />
    </g>
    <g
       id="g52">
      <path
         d="m 311.947,376.357 h -31.24 l -13.81,-22.3 32.08,1.88 z"
         fill="#9a6a53"
         id="path50" />
    </g>
    <path
       d="m 452.777,305.527 v 0.03 l -0.002,25.149 -402.138,2.801 -0.2,-27.98 z"
       fill="#7fcb8f"
       id="path54" />
    <g
       id="g58">
      <path
         d="M 486.553,356.358 H 10 c -5.523,0 -10,-4.477 -10,-10 v -9.83 c 0,-5.523 4.477,-10 10,-10 h 476.553 c 5.523,0 10,4.477 10,10 v 9.83 c 0,5.523 -4.477,10 -10,10 z"
         fill="#855b47"
         id="path56" />
    </g>
  </g>
  <path
     id="rect928"
     style="fill:#ab7b64;fill-opacity:1;stroke-width:0.810101;stop-color:#000000"
     d="M 178.39258 275.19922 C 176.16465 275.19922 173.93762 276.05262 172.23047 277.75977 L 7.0839844 442.90625 L 7.0839844 467.55664 L 184.55664 290.08594 C 187.97094 286.67164 187.97094 281.17407 184.55664 277.75977 C 182.84949 276.05262 180.6205 275.19922 178.39258 275.19922 z "
     transform="scale(0.96983008)" />
</svg>
