<?xml version="1.0" encoding="iso-8859-1"?>
<!-- Generator: Adobe Illustrator 19.0.0, SVG Export Plug-In . SVG Version: 6.00 Build 0)  -->
<svg version="1.1" id="Layer_1" xmlns="http://www.w3.org/2000/svg" xmlns:xlink="http://www.w3.org/1999/xlink" x="0px" y="0px"
	 viewBox="0 0 497.786 497.786" style="enable-background:new 0 0 497.786 497.786;" xml:space="preserve">
<g>
	<path style="fill:#BDDBFF;" d="M97.059,248.893c0-82.62,65.764-149.875,147.796-152.283c-48.351,1.12-96.1,15.5-137.582,39.954
		c-41.985,24.75-77.077,60.13-101.48,102.314L0,248.893l5.793,10.015c24.403,42.185,59.495,77.564,101.48,102.314
		c42.783,25.221,91.715,39.719,141.616,40.021C164.991,400.961,97.059,332.862,97.059,248.893z"/>
	<path style="fill:#9BC9FF;" d="M491.992,238.878c-24.403-42.185-59.495-77.564-101.48-102.314
		c-40.181-23.687-86.242-37.92-133.034-39.808c80.389,4.195,144.281,70.704,144.281,152.137
		c0,82.041-64.852,148.924-146.085,152.212c47.545-1.51,93.994-15.805,134.839-39.883c41.985-24.75,77.077-60.13,101.48-102.314
		l5.793-10.015L491.992,238.878z"/>
	<path style="fill:#9BC9FF;" d="M248.377,96.543c0.069,0.001,0.136,0.004,0.204,0.005c0.021,0,0.041-0.001,0.062-0.001
		C248.554,96.546,248.465,96.544,248.377,96.543z"/>
	<path style="fill:#005ECE;" d="M249.409,96.543h-0.52v85.523c0.175-0.001,0.346-0.013,0.52-0.013
		c36.915,0,66.84,29.925,66.84,66.84s-29.925,66.84-66.84,66.84c-0.174,0-0.344-0.012-0.518-0.013
		c-0.003,0-0.003,85.523-0.003,85.523h0.52c84.14,0,152.35-68.21,152.35-152.35S333.549,96.543,249.409,96.543z"/>
	<path style="fill:#2488FF;" d="M182.57,248.893c0-36.74,29.646-66.546,66.321-66.827l-0.001-85.523
		c-83.9,0.28-151.83,68.38-151.83,152.35s67.934,152.07,151.834,152.35l-0.001-85.523C212.217,315.44,182.57,285.634,182.57,248.893
		z"/>
	<path style="fill:#1D1D1F;" d="M182.57,248.893c0,36.741,29.647,66.547,66.322,66.827c0.173,0.001,0.344,0.013,0.518,0.013
		c36.915,0,66.84-29.925,66.84-66.84s-29.925-66.84-66.84-66.84c-0.174,0-0.345,0.012-0.519,0.013
		C212.216,182.347,182.57,212.152,182.57,248.893z"/>
</g>
<g>
</g>
<g>
</g>
<g>
</g>
<g>
</g>
<g>
</g>
<g>
</g>
<g>
</g>
<g>
</g>
<g>
</g>
<g>
</g>
<g>
</g>
<g>
</g>
<g>
</g>
<g>
</g>
<g>
</g>
</svg>
