<?xml version="1.0" encoding="UTF-8" standalone="no"?>
<!-- Generator: Adobe Illustrator 16.0.0, SVG Export Plug-In . SVG Version: 6.00 Build 0)  -->

<svg
   xmlns:dc="http://purl.org/dc/elements/1.1/"
   xmlns:cc="http://creativecommons.org/ns#"
   xmlns:rdf="http://www.w3.org/1999/02/22-rdf-syntax-ns#"
   xmlns:svg="http://www.w3.org/2000/svg"
   xmlns="http://www.w3.org/2000/svg"
   xmlns:sodipodi="http://sodipodi.sourceforge.net/DTD/sodipodi-0.dtd"
   xmlns:inkscape="http://www.inkscape.org/namespaces/inkscape"
   version="1.1"
   id="Capa_1"
   x="0px"
   y="0px"
   width="206.793px"
   height="206.793px"
   viewBox="0 0 206.793 206.793"
   style="enable-background:new 0 0 206.793 206.793;"
   xml:space="preserve"
   sodipodi:docname="example.svg"
   inkscape:version="0.92.4 (5da689c313, 2019-01-14)"><metadata
   id="metadata51"><rdf:RDF><cc:Work
       rdf:about=""><dc:format>image/svg+xml</dc:format><dc:type
         rdf:resource="http://purl.org/dc/dcmitype/StillImage" /></cc:Work></rdf:RDF></metadata><defs
   id="defs49" /><sodipodi:namedview
   pagecolor="#ffffff"
   bordercolor="#666666"
   borderopacity="1"
   objecttolerance="10"
   gridtolerance="10"
   guidetolerance="10"
   inkscape:pageopacity="0"
   inkscape:pageshadow="2"
   inkscape:window-width="1920"
   inkscape:window-height="972"
   id="namedview47"
   showgrid="false"
   inkscape:zoom="3.6991848"
   inkscape:cx="105.14898"
   inkscape:cy="101.2059"
   inkscape:window-x="0"
   inkscape:window-y="27"
   inkscape:window-maximized="1"
   inkscape:current-layer="Capa_1" />
<g
   id="g14"
   style="fill:#333333">
	<g
   id="g12"
   style="fill:#333333">
		<path
   d="M 196.189,3.977 H 10.605 C 4.751,3.977 0,7.239 0,11.268 c 0,2.693 2.141,5.015 5.302,6.284 v 21.554 c 0,1.463 1.188,2.651 2.651,2.651 1.463,0 2.651,-1.188 2.651,-2.651 V 18.559 H 77.218 V 25.5 c -3.037,-0.622 -6.172,-0.976 -9.391,-0.976 -1.007,0 -1.983,0.09 -2.975,0.147 0.329,-0.096 0.536,-0.147 0.536,-0.147 -19.211,-4.417 -44.402,4.417 -44.402,4.417 -3.298,10.383 0,42.425 0,42.425 0,12.042 4.604,22.996 12.094,31.307 -0.254,2.49 -0.381,5.023 -0.381,7.581 0,32.964 21.543,60.854 51.323,70.438 0.285,-12.567 -0.383,-41.202 -10.734,-62.836 13.903,-1.621 25.973,-9.331 33.433,-20.412 7.068,10.501 18.289,17.927 31.266,20.07 -10.688,22.048 -11.186,51.574 -10.864,63.846 30.944,-8.864 53.609,-37.303 53.609,-71.105 0,-2.558 -0.13,-5.091 -0.378,-7.581 7.487,-8.311 12.091,-19.271 12.091,-31.307 0,-2.499 -0.254,-4.938 -0.632,-7.327 0.762,-10.092 1.673,-27.853 -0.627,-35.098 0,0 -25.196,-8.833 -44.407,-4.417 0,0 0.146,0.042 0.27,0.075 -0.487,-0.018 -0.958,-0.075 -1.439,-0.075 -1.383,0 -2.745,0.075 -4.091,0.197 V 18.56 h 54.671 c 5.851,0 10.604,-3.262 10.604,-7.291 -0.001,-4.03 -4.754,-7.292 -10.605,-7.292 z M 125.87,28.94 c -4.246,1.989 -8.182,4.56 -11.619,7.674 -2.476,-0.251 -4.992,-0.378 -7.535,-0.378 -2.545,0 -5.059,0.126 -7.534,0.378 -3.441,-3.115 -7.376,-5.686 -11.623,-7.674 z m 17.295,3.538 c 21.479,0 38.888,17.409 38.888,38.888 0,21.479 -17.409,38.888 -38.888,38.888 -16.632,0 -30.789,-10.46 -36.34,-25.145 -5.564,14.685 -19.716,25.145 -36.346,25.145 -21.479,0 -38.887,-17.409 -38.887,-38.888 0,-21.479 17.409,-38.888 38.887,-38.888 16.635,0 30.787,10.462 36.346,25.145 5.55,-14.684 19.708,-25.145 36.34,-25.145 z"
   id="path2"
   inkscape:connector-curvature="0"
   style="fill:#333333" />
		<circle
   cx="67.828003"
   cy="71.364998"
   r="15.918"
   id="circle4"
   style="fill:#333333" />
		<circle
   cx="145.604"
   cy="71.364998"
   r="15.918"
   id="circle6"
   style="fill:#333333" />
		<path
   d="M 68.268,184.269 H 62.51 c -5.859,0 -10.605,4.153 -10.605,9.274 0,5.121 4.746,9.273 10.605,9.273 h 5.758 c 5.854,0 10.605,-4.152 10.605,-9.273 0,-5.121 -4.751,-9.274 -10.605,-9.274 z"
   id="path8"
   inkscape:connector-curvature="0"
   style="fill:#333333" />
		<path
   d="m 146.043,184.269 h -5.758 c -5.852,0 -10.604,4.153 -10.604,9.274 0,5.121 4.753,9.273 10.604,9.273 h 5.758 c 5.852,0 10.605,-4.152 10.605,-9.273 0,-5.121 -4.743,-9.274 -10.605,-9.274 z"
   id="path10"
   inkscape:connector-curvature="0"
   style="fill:#333333" />
	</g>
</g>
<g
   id="g16"
   style="fill:#333333">
</g>
<g
   id="g18"
   style="fill:#333333">
</g>
<g
   id="g20"
   style="fill:#333333">
</g>
<g
   id="g22"
   style="fill:#333333">
</g>
<g
   id="g24"
   style="fill:#333333">
</g>
<g
   id="g26"
   style="fill:#333333">
</g>
<g
   id="g28"
   style="fill:#333333">
</g>
<g
   id="g30"
   style="fill:#333333">
</g>
<g
   id="g32"
   style="fill:#333333">
</g>
<g
   id="g34"
   style="fill:#333333">
</g>
<g
   id="g36"
   style="fill:#333333">
</g>
<g
   id="g38"
   style="fill:#333333">
</g>
<g
   id="g40"
   style="fill:#333333">
</g>
<g
   id="g42"
   style="fill:#333333">
</g>
<g
   id="g44"
   style="fill:#333333">
</g>
</svg>