<?xml version="1.0" encoding="UTF-8" standalone="no"?>
<!-- Generator: Adobe Illustrator 19.0.0, SVG Export Plug-In . SVG Version: 6.00 Build 0)  -->

<svg
   xmlns:dc="http://purl.org/dc/elements/1.1/"
   xmlns:cc="http://creativecommons.org/ns#"
   xmlns:rdf="http://www.w3.org/1999/02/22-rdf-syntax-ns#"
   xmlns:svg="http://www.w3.org/2000/svg"
   xmlns="http://www.w3.org/2000/svg"
   xmlns:sodipodi="http://sodipodi.sourceforge.net/DTD/sodipodi-0.dtd"
   xmlns:inkscape="http://www.inkscape.org/namespaces/inkscape"
   version="1.1"
   id="Layer_1"
   x="0px"
   y="0px"
   viewBox="0 0 511.99 511.99"
   style="enable-background:new 0 0 511.99 511.99;"
   xml:space="preserve"
   sodipodi:docname="example.svg"
   inkscape:version="0.92.4 (5da689c313, 2019-01-14)"><metadata
   id="metadata1025"><rdf:RDF><cc:Work
       rdf:about=""><dc:format>image/svg+xml</dc:format><dc:type
         rdf:resource="http://purl.org/dc/dcmitype/StillImage" /><dc:title /></cc:Work></rdf:RDF></metadata><defs
   id="defs1023" /><sodipodi:namedview
   pagecolor="#ffffff"
   bordercolor="#666666"
   borderopacity="1"
   objecttolerance="10"
   gridtolerance="10"
   guidetolerance="10"
   inkscape:pageopacity="0"
   inkscape:pageshadow="2"
   inkscape:window-width="1920"
   inkscape:window-height="1045"
   id="namedview1021"
   showgrid="false"
   inkscape:zoom="1.664095"
   inkscape:cx="287.49755"
   inkscape:cy="214.24133"
   inkscape:window-x="0"
   inkscape:window-y="35"
   inkscape:window-maximized="1"
   inkscape:current-layer="Layer_1" />


<path
   style="fill:#48CFAD;"
   d="M490.647,58.659H21.335c-5.89,0-10.671,4.781-10.671,10.672V367.99  c0,5.891,4.781,10.656,10.671,10.656h469.312c5.906,0,10.688-4.766,10.688-10.656V69.33  C501.335,63.44,496.554,58.659,490.647,58.659z"
   id="path966" /><text
   xml:space="preserve"
   style="font-style:normal;font-variant:normal;font-weight:normal;font-stretch:normal;font-size:204.32347107px;line-height:1.25;font-family:'Noto Sans Telugu UI';-inkscape-font-specification:'Noto Sans Telugu UI';letter-spacing:0px;word-spacing:0px;fill:#f6f7f8;fill-opacity:1;stroke:none;stroke-width:2.12836933"
   x="104.89487"
   y="275.52982"
   id="text1586"><tspan
     sodipodi:role="line"
     id="tspan1584"
     x="104.89487"
     y="275.52982"
     style="font-style:normal;font-variant:normal;font-weight:normal;font-stretch:normal;font-family:'Quicksand Medium';-inkscape-font-specification:'Quicksand Medium, ';stroke-width:2.12836933">1+2</tspan></text>

<path
   style="fill:#434a54;stroke-width:0.98878688"
   d="M 490.15499,378.645 H 10.426188 C 4.6665599,378.645 0,373.879 0,367.989 0,362.099 4.6665599,357.333 10.426188,357.333 H 490.15499 c 5.74399,0 10.41739,4.766 10.41739,10.656 0,5.89 -4.6734,10.656 -10.41739,10.656 z"
   id="path968"
   inkscape:connector-curvature="0" />

<rect
   x="63.995"
   y="314.645"
   style="fill:#FFCE54;"
   width="85.33"
   height="42.686"
   id="rect972" />
<g
   id="g978">
	<path
   style="fill:#f6bb42"
   d="m 95.998,335.991 c 5.891,0 10.664,-4.781 10.664,-10.656 V 314.647 H 85.335 v 10.688 c 0,5.875 4.772,10.656 10.663,10.656 z"
   id="path974"
   inkscape:connector-curvature="0" />
	<path
   style="fill:#f6bb42"
   d="m 117.334,335.991 c -5.891,0 -10.672,4.781 -10.672,10.654 v 10.688 h 21.336 v -10.688 c 0,-5.873 -4.774,-10.654 -10.664,-10.654 z"
   id="path976"
   inkscape:connector-curvature="0" />
</g>

<g
   id="g990">
</g>
<g
   id="g992">
</g>
<g
   id="g994">
</g>
<g
   id="g996">
</g>
<g
   id="g998">
</g>
<g
   id="g1000">
</g>
<g
   id="g1002">
</g>
<g
   id="g1004">
</g>
<g
   id="g1006">
</g>
<g
   id="g1008">
</g>
<g
   id="g1010">
</g>
<g
   id="g1012">
</g>
<g
   id="g1014">
</g>
<g
   id="g1016">
</g>
<g
   id="g1018">
</g>
<path
   inkscape:connector-curvature="0"
   style="fill:#f5f7fa;stroke-width:1.18604815"
   d="m 435.6812,376.03981 h -50.59207 c -7.0048,0 -12.67649,-5.6705 -12.67649,-12.67649 0,-6.96566 5.6705,-12.63615 12.67649,-12.63615 h 50.59207 c 6.98701,0 12.63853,5.67049 12.63853,12.63615 0,7.00599 -5.65152,12.67649 -12.63853,12.67649 z"
   id="path970" /><rect
   style="opacity:1;vector-effect:none;fill:#d38d5f;fill-opacity:1;stroke:none;stroke-width:7.55905533;stroke-linecap:round;stroke-linejoin:miter;stroke-miterlimit:4;stroke-dasharray:none;stroke-dashoffset:0;stroke-opacity:1"
   id="rect1600"
   width="235.79286"
   height="17.391237"
   x="248.24817"
   y="-40.226707"
   rx="8.6956186"
   ry="8.6956186"
   transform="rotate(57.157446)" /><path
   inkscape:connector-curvature="0"
   style="fill:#008066;fill-opacity:1;stroke-width:1.08756542"
   d="m 513.5134,511.78298 c 0,-72.23682 8.66449,-164.58294 -37.34048,-176.90993 h -78.88438 c -16.24062,4.64064 -31.32189,13.92084 -44.08229,24.36147 l -44.24484,17.84167 -35.39857,-52.0585 c -6.96043,-10.44063 -20.88126,-13.92083 -31.32189,-6.96042 -10.44063,6.96042 -13.92084,20.88126 -6.96042,31.32188 l 45.83921,67.13869 c 4.64064,6.96042 11.60106,10.44063 19.72082,10.44063 2.31978,0 5.79999,0 8.12085,-1.16043 L 373.3621,401.3581 c -10.3959,46.63029 -7.97512,110.42488 -7.97512,110.42488 z"
   id="path12"
   sodipodi:nodetypes="ccccccsccscccc" /><ellipse
   style="fill:#f1956d;fill-opacity:1;stroke-width:0.96456772"
   cx="443.26852"
   cy="286.37097"
   rx="63.789764"
   ry="64.818954"
   id="ellipse14" /></svg>