<?xml version="1.0" encoding="UTF-8" standalone="no"?>
<svg
   id="Capa_1"
   enable-background="new 0 0 496.553 496.553"
   height="512"
   viewBox="0 0 496.553 496.553"
   width="512"
   version="1.1"
   sodipodi:docname="example.svg"
   inkscape:version="1.1.2 (0a00cf5339, 2022-02-04)"
   xmlns:inkscape="http://www.inkscape.org/namespaces/inkscape"
   xmlns:sodipodi="http://sodipodi.sourceforge.net/DTD/sodipodi-0.dtd"
   xmlns="http://www.w3.org/2000/svg"
   xmlns:svg="http://www.w3.org/2000/svg">
  <defs
     id="defs65" />
  <sodipodi:namedview
     id="namedview63"
     pagecolor="#ffffff"
     bordercolor="#666666"
     borderopacity="1.0"
     inkscape:pageshadow="2"
     inkscape:pageopacity="0.0"
     inkscape:pagecheckerboard="0"
     showgrid="false"
     inkscape:zoom="1.6015625"
     inkscape:cx="256"
     inkscape:cy="254.12683"
     inkscape:window-width="1920"
     inkscape:window-height="1046"
     inkscape:window-x="0"
     inkscape:window-y="-3"
     inkscape:window-maximized="1"
     inkscape:current-layer="Capa_1" />
  <circle
     style="fill:#ff9955;stroke-width:0.96983;stop-color:#000000"
     id="path873"
     cx="248.2765"
     cy="248.2765"
     r="245.22304" />
  <path
     d="m 64.10863,375.92562 c -4.686443,0 -4.77753,-4.18752 -4.77753,-8.87479 V 115.07431 c 0,-6.79784 1.792189,-11.52368 8.590034,-11.52368 l 1.650226,-1.31706 h 358.60028 c 6.79784,0 12.30899,5.51115 12.30899,12.30899 v 252.89642 c 0,4.68644 -3.79938,8.48581 -8.48582,8.48581 H 64.10863 Z"
     fill="#ab7b64"
     id="path22"
     style="stroke-width:0.820599" />
  <path
     d="m 440.48227,347.20628 v 20.23598 c 0,4.68562 -3.79937,8.485 -8.485,8.485 H 64.106168 c -4.685623,0 -8.484998,-3.79938 -8.484998,-8.485 V 114.54174 c 0,-6.79456 5.514428,-12.30899 12.308991,-12.30899 h 1.641199 v 236.48853 c 0,4.68562 3.799375,8.485 8.484997,8.485 z"
     fill="#9a6a53"
     id="path26"
     style="stroke-width:0.820599" />
  <path
     d="M 85.869283,370.14203 84.193619,136.86369 c 0,-4.53217 -0.279003,-10.01214 4.253167,-10.01214 H 407.65665 c 4.53217,0 8.206,3.67383 8.206,8.206 v 212.14873 l -6.0831,20.68238 z"
     fill="#94d4a2"
     id="path30"
     style="stroke-width:0.820599" />
  <path
     d="m 139.16475,212.38016 c 3.46211,0 6.25625,-2.85814 6.15203,-6.34405 -0.10093,-3.36856 -3.0395,-5.96494 -6.4097,-5.96494 h -26.95587 c -3.39892,0 -6.15449,2.75557 -6.15449,6.1545 v 88.69858 c 0,3.39892 2.75557,6.1545 6.15449,6.1545 h 26.95587 c 3.3702,0 6.30877,-2.59638 6.4097,-5.96494 0.10504,-3.48508 -2.68992,-6.34405 -6.15203,-6.34405 h -19.41784 c -0.90676,0 -1.6412,-0.73444 -1.6412,-1.6412 v -28.75791 c 0,-0.90676 0.73444,-1.64119 1.6412,-1.64119 h 17.15381 c 3.3702,0 6.30876,-2.59638 6.4097,-5.96494 0.10503,-3.48509 -2.68993,-6.34406 -6.15204,-6.34406 h -17.41147 c -0.90676,0 -1.6412,-0.73443 -1.6412,-1.64119 v -28.75791 c 0,-0.90676 0.73444,-1.6412 1.6412,-1.6412 z"
     id="path32"
     style="fill:#f7f9fa;stroke-width:0.820599" />
  <path
     d="m 351.0394,283.73784 c -2.60376,-2.18443 -6.48602,-1.84471 -8.67045,0.75988 -0.3865,0.46117 -0.80337,0.89117 -1.23829,1.27849 -2.23038,1.98585 -5.08607,2.99355 -8.48828,2.99355 -9.24651,0 -16.76894,-7.52244 -16.76894,-16.76895 0,-9.24651 7.52243,-16.76895 16.76894,-16.76895 3.36118,0 6.60173,0.98882 9.37125,2.86061 2.81712,1.90215 6.64193,1.16279 8.54572,-1.65433 1.90297,-2.81629 1.16197,-6.64275 -1.65433,-8.54572 -4.81281,-3.25121 -10.43556,-4.96955 -16.26181,-4.96955 -16.0337,0 -29.07794,13.04425 -29.07794,29.07794 0,16.03369 13.04424,29.07794 29.07794,29.07794 6.41954,0 12.1859,-2.11305 16.67457,-6.11101 0.87887,-0.78285 1.71342,-1.64366 2.4815,-2.55945 2.18361,-2.60376 1.84388,-6.48601 -0.75988,-8.67045 z"
     id="path34"
     style="fill:#f7f9fa;stroke-width:0.820599" />
  <path
     d="m 270.68877,243.61135 c -5.58007,0 -10.32724,1.69864 -13.95347,4.77015 -0.6573,0.55636 -1.6174,0.51369 -2.2271,-0.0944 -3.27337,-3.26599 -7.73826,-4.91293 -13.3848,-4.91293 -3.49247,0 -6.70758,0.78367 -9.55342,2.22793 -0.7172,0.36434 -1.57309,0.13704 -2.05724,-0.50549 -1.18248,-1.56899 -3.09694,-2.55453 -5.23707,-2.44539 -3.31276,0.16905 -5.83117,3.0674 -5.83117,6.38344 v 45.63682 c 0,3.3702 2.59637,6.30302 5.96493,6.40396 3.48509,0.10503 6.34406,-2.68993 6.34406,-6.15204 v -23.78179 c 0,-0.0238 0.003,-0.0476 0.003,-0.0714 0,-9.34827 4.06935,-15.38788 10.36745,-15.38788 3.10433,0 7.35585,0 7.74482,13.18621 0.0123,0.42097 0.018,0.85917 0.0213,1.30147 l -0.002,1.06842 c -0.002,0.25111 -8.2e-4,0.49646 -0.005,0.75167 0,0.0361 -8.2e-4,0.073 -8.2e-4,0.10996 v 22.56566 c 0,3.3702 2.59637,6.30877 5.96493,6.40971 3.48509,0.10503 6.34406,-2.68993 6.34406,-6.15204 v -20.62494 l 0.007,-3.15028 c 0.002,-0.34958 0.005,-0.69915 0.002,-1.04052 l 0.004,-2.14423 c 0.002,-7.991 3.19295,-12.04312 9.4853,-12.04312 4.14731,0 5.36919,1.27768 5.77046,1.69782 1.32199,1.38271 2.81548,4.86123 2.42241,13.57928 -0.004,0.0919 -0.007,0.18464 -0.007,0.27654 v 23.19178 c 0,3.3702 2.59638,6.30877 5.96494,6.40971 3.48509,0.10503 6.34405,-2.68993 6.34405,-6.15204 v -23.31405 c 0.46282,-10.70389 -1.39009,-17.85542 -5.82789,-22.49755 -3.48919,-3.65002 -8.4251,-5.50048 -14.66822,-5.50048 z"
     id="path36"
     style="fill:#f7f9fa;stroke-width:0.820599" />
  <path
     d="m 199.15959,249.40396 h -36.19746 c -3.39892,0 -6.15449,2.75558 -6.15449,6.1545 0,3.39892 2.75557,6.15449 6.15449,6.15449 h 36.19746 c 3.39892,0 6.1545,-2.75557 6.1545,-6.15449 0,-3.39892 -2.75558,-6.1545 -6.1545,-6.1545 z"
     id="path38"
     style="fill:#f7f9fa;stroke-width:0.820599" />
  <path
     d="m 199.15959,271.11292 h -36.19746 c -3.39892,0 -6.15449,2.75557 -6.15449,6.1545 0,3.39892 2.75557,6.15449 6.15449,6.15449 h 36.19746 c 3.39892,0 6.1545,-2.75557 6.1545,-6.15449 0,-3.39893 -2.75558,-6.1545 -6.1545,-6.1545 z"
     id="path40"
     style="fill:#f7f9fa;stroke-width:0.820599" />
  <path
     d="m 384.15387,227.20839 c -0.0263,0 -0.0525,0 -0.0788,0 -1.35645,0.0172 -2.74572,0.032 -4.12351,0.0443 -1.34496,0.0123 -2.13356,-1.50663 -1.3466,-2.5972 1.39994,-1.9399 2.99682,-4.18342 4.81199,-6.77569 2.55945,-3.65659 4.23101,-7.14496 4.96627,-10.36663 0.032,-0.183 0.0632,-0.36189 0.0944,-0.54488 l 0.18627,-1.4541 c 0.0287,-0.22731 0.0484,-0.4579 0.0492,-0.68684 0.0509,-8.74185 -7.04567,-15.86957 -15.77602,-15.86957 -7.33124,0 -13.70073,5.08361 -15.35998,12.16784 -0.78614,3.35625 1.07662,6.88073 4.42139,7.71282 3.43256,0.85424 6.84544,-1.3343 7.53146,-4.7603 0.27408,-1.36958 1.35399,-2.48396 2.72603,-2.74655 2.10566,-0.40291 3.96678,1.1152 4.135,3.10679 l -0.0788,0.61627 c -0.31265,1.17182 -1.08893,3.06576 -2.9796,5.76717 -5.93375,8.47844 -9.47217,13.11236 -11.3735,15.60124 -2.42159,3.17162 -4.02176,5.26579 -3.00832,8.56049 0.60068,1.95057 2.13192,3.5056 4.09397,4.1588 0.80583,0.26916 1.41471,0.47184 8.99869,0.47184 2.85651,0 6.70348,-0.0287 11.92413,-0.0935 3.35954,-0.0418 6.26528,-2.65875 6.33831,-6.01746 0.0747,-3.47278 -2.717,-6.29482 -6.15203,-6.29482 z"
     id="path42"
     style="fill:#f7f9fa;stroke-width:0.820599" />
  <path
     d="m 415.86429,347.18166 v 0.0246 l -0.002,20.63725 -329.994187,2.2985 -0.16412,-22.96037 z"
     fill="#7fcb8f"
     id="path54"
     style="stroke-width:0.820599" />
  <path
     d="M 443.58085,388.89355 H 52.521767 c -4.532171,0 -8.205994,-3.67383 -8.205994,-8.206 v -8.06649 c 0,-4.53217 3.673823,-8.20599 8.205994,-8.20599 H 443.58085 c 4.53217,0 8.206,3.67382 8.206,8.20599 v 8.06649 c 0,4.53217 -3.67383,8.206 -8.206,8.206 z"
     fill="#855b47"
     id="path56"
     style="stroke-width:0.820599" />
  <path
     id="rect928"
     style="fill:#ab7b64;fill-opacity:1;stroke-width:0.78566;stop-color:#000000"
     d="m 177.90088,292.20379 c -2.16071,0 -4.32055,0.82765 -5.9762,2.4833 L 11.760642,454.85111 V 478.7578 L 183.87897,306.64138 c 3.31129,-3.31129 3.31129,-8.643 0,-11.95429 -1.65564,-1.65565 -3.81739,-2.4833 -5.97809,-2.4833 z" />
</svg>
