<?xml version="1.0" encoding="UTF-8" standalone="no"?>
<svg
   id="Capa_1"
   enable-background="new 0 0 496.553 496.553"
   height="512"
   viewBox="0 0 496.553 496.553"
   width="512"
   version="1.1"
   sodipodi:docname="example.svg"
   inkscape:version="1.1.2 (0a00cf5339, 2022-02-04)"
   xmlns:inkscape="http://www.inkscape.org/namespaces/inkscape"
   xmlns:sodipodi="http://sodipodi.sourceforge.net/DTD/sodipodi-0.dtd"
   xmlns="http://www.w3.org/2000/svg"
   xmlns:svg="http://www.w3.org/2000/svg">
  <defs
     id="defs65" />
  <sodipodi:namedview
     id="namedview63"
     pagecolor="#ffffff"
     bordercolor="#666666"
     borderopacity="1.0"
     inkscape:pageshadow="2"
     inkscape:pageopacity="0.0"
     inkscape:pagecheckerboard="0"
     showgrid="false"
     inkscape:zoom="1.6015625"
     inkscape:cx="256"
     inkscape:cy="275.98049"
     inkscape:window-width="1920"
     inkscape:window-height="1046"
     inkscape:window-x="0"
     inkscape:window-y="-3"
     inkscape:window-maximized="1"
     inkscape:current-layer="Capa_1" />
  <circle
     style="fill:#ff9955;stroke-width:0.96983;stop-color:#000000"
     id="path873"
     cx="248.2765"
     cy="248.2765"
     r="245.22304" />
  <path
     d="m 23.841333,408.95462 c -5.7181,0 -5.829238,-5.10935 -5.829238,-10.82846 V 90.680432 c 0,-8.294293 2.186714,-14.060462 10.481013,-14.060462 l 2.013501,-1.606993 H 468.04787 c 8.2943,0 15.01865,6.724355 15.01865,15.018647 V 398.59976 c 0,5.7181 -4.63576,10.35385 -10.35386,10.35385 H 23.841333 Z"
     fill="#ab7b64"
     id="path22"
     style="stroke-width:1.00124" />
  <path
     d="m 483.06852,373.9131 v 24.69066 c 0,5.71709 -4.63575,10.35285 -10.35286,10.35285 H 23.838329 c -5.7171,0 -10.352855,-4.63576 -10.352855,-10.35285 V 90.030624 c 0,-8.29029 6.728354,-15.018648 15.018648,-15.018648 h 2.002487 V 363.56024 c 0,5.7171 4.635756,10.35286 10.352854,10.35286 z"
     fill="#9a6a53"
     id="path26"
     style="stroke-width:1.00124" />
  <path
     d="M 50.392299,401.89784 48.34776,117.26645 c 0,-5.52986 -0.340422,-12.21618 5.189444,-12.21618 H 443.01678 c 5.52987,0 10.01244,4.48257 10.01244,10.01245 V 373.9131 l -7.42221,25.23533 z"
     fill="#94d4a2"
     id="path30"
     style="stroke-width:1.00124;fill:#3a5340;fill-opacity:1" />
  <path
     d="m 115.42003,209.40684 c 4.22425,0 7.63348,-3.48732 7.50632,-7.74061 -0.12315,-4.1101 -3.7086,-7.27803 -7.82071,-7.27803 H 82.215812 c -4.147151,0 -7.509322,3.36217 -7.509322,7.50933 v 108.22436 c 0,4.14715 3.362171,7.50933 7.509322,7.50933 h 32.889828 c 4.11211,0 7.69756,-3.16793 7.82071,-7.27803 0.12816,-4.25228 -3.28207,-7.74061 -7.50632,-7.74061 H 91.727624 c -1.10637,0 -2.00249,-0.89612 -2.00249,-2.00249 v -35.08858 c 0,-1.10637 0.89612,-2.00247 2.00249,-2.00247 h 20.929986 c 4.1121,0 7.69755,-3.16794 7.82071,-7.27804 0.12815,-4.25229 -3.28208,-7.74062 -7.50633,-7.74062 H 91.727624 c -1.10637,0 -2.00249,-0.8961 -2.00249,-2.00247 v -35.08858 c 0,-1.10637 0.89612,-2.00249 2.00249,-2.00249 z"
     id="path32"
     style="fill:#f7f9fa;stroke-width:1.00124" />
  <path
     d="m 373.93601,296.47295 c -3.17694,-2.66531 -7.91382,-2.2508 -10.57913,0.92715 -0.47158,0.56269 -0.98022,1.08735 -1.51088,1.55994 -2.72137,2.42301 -6.2057,3.65254 -10.35686,3.65254 -11.282,0 -20.46039,-9.1784 -20.46039,-20.46041 0,-11.282 9.17839,-20.46041 20.46039,-20.46041 4.1011,0 8.05502,1.2065 11.4342,3.49034 3.43728,2.32088 8.10407,1.41876 10.42695,-2.01851 2.32189,-3.43626 1.41776,-8.10506 -2.01851,-10.42695 -5.87228,-3.96692 -12.73281,-6.06353 -19.84162,-6.06353 -19.56331,0 -35.47906,15.91577 -35.47906,35.47906 0,19.56329 15.91575,35.47905 35.47906,35.47905 7.8327,0 14.86845,-2.57821 20.34524,-7.45627 1.07235,-0.95518 2.09061,-2.00548 3.02777,-3.12287 2.6643,-3.17694 2.24978,-7.91382 -0.92716,-10.57913 z"
     id="path34"
     style="fill:#f7f9fa;stroke-width:1.00124" />
  <path
     d="m 275.89728,247.51315 c -6.80844,0 -12.60064,2.07258 -17.02513,5.82024 -0.802,0.67883 -1.97345,0.62678 -2.71737,-0.11519 -3.99396,-3.98495 -9.44173,-5.99444 -16.33128,-5.99444 -4.2613,0 -8.18417,0.95618 -11.65648,2.71838 -0.87508,0.44454 -1.91938,0.16721 -2.51011,-0.61677 -1.44279,-1.91438 -3.77869,-3.11687 -6.38994,-2.9837 -4.04201,0.20625 -7.11482,3.74264 -7.11482,7.78866 v 55.68315 c 0,4.11211 3.16792,7.69055 7.27802,7.81371 4.25229,0.12815 7.74062,-3.28208 7.74062,-7.50633 v -29.01703 c 0,-0.029 0.003,-0.0581 0.003,-0.0871 0,-11.40616 4.96516,-18.77531 12.6497,-18.77531 3.78771,0 8.97514,0 9.44974,16.08897 0.015,0.51365 0.022,1.0483 0.026,1.58797 l -0.002,1.30362 c -0.002,0.30639 -9.9e-4,0.60575 -0.006,0.91714 0,0.044 -0.001,0.0891 -0.001,0.13417 v 27.53318 c 0,4.11211 3.16793,7.69757 7.27803,7.82072 4.25229,0.12815 7.74061,-3.28208 7.74061,-7.50633 V 284.9556 l 0.008,-3.84377 c 0.002,-0.42653 0.006,-0.85306 0.002,-1.26958 l 0.005,-2.61624 c 0.002,-9.75012 3.89583,-14.69425 11.57335,-14.69425 5.06029,0 6.55115,1.55893 7.04075,2.07157 1.61301,1.68709 3.43528,5.93136 2.95567,16.56857 -0.005,0.11213 -0.008,0.22529 -0.008,0.33742 v 28.29713 c 0,4.11211 3.16794,7.69757 7.27804,7.82072 4.25228,0.12815 7.74061,-3.28208 7.74061,-7.50633 v -28.44632 c 0.56471,-13.0602 -1.69611,-21.78605 -7.11083,-27.45007 -4.25728,-4.45353 -10.27977,-6.71135 -17.89722,-6.71135 z"
     id="path36"
     style="fill:#f7f9fa;stroke-width:1.00124" />
  <path
     d="m 188.62192,254.58093 h -44.16583 c -4.14715,0 -7.50932,3.36218 -7.50932,7.50933 0,4.14714 3.36217,7.50931 7.50932,7.50931 h 44.16583 c 4.14715,0 7.50933,-3.36217 7.50933,-7.50931 0,-4.14715 -3.36218,-7.50933 -7.50933,-7.50933 z"
     id="path38"
     style="fill:#f7f9fa;stroke-width:1.00124" />
  <path
     d="m 188.62192,281.06882 h -44.16583 c -4.14715,0 -7.50932,3.36217 -7.50932,7.50933 0,4.14714 3.36217,7.50931 7.50932,7.50931 h 44.16583 c 4.14715,0 7.50933,-3.36217 7.50933,-7.50931 0,-4.14716 -3.36218,-7.50933 -7.50933,-7.50933 z"
     id="path40"
     style="fill:#f7f9fa;stroke-width:1.00124" />
  <path
     d="m 414.34019,227.4993 c -0.0321,0 -0.0641,0 -0.0961,0 -1.65506,0.021 -3.35015,0.0391 -5.03125,0.054 -1.64103,0.015 -2.60323,-1.83828 -1.64303,-3.16893 1.70812,-2.36694 3.65653,-5.10434 5.87128,-8.26727 3.12288,-4.46154 5.16241,-8.71782 6.05953,-12.64871 0.0391,-0.22327 0.0771,-0.44155 0.11518,-0.66482 l 0.22728,-1.7742 c 0.035,-0.27735 0.0591,-0.5587 0.06,-0.83803 0.0621,-10.66626 -8.59668,-19.36305 -19.2489,-19.36305 -8.94511,0 -16.71676,6.2027 -18.74127,14.84642 -0.9592,4.09509 1.31362,8.39543 5.3947,9.4107 4.18818,1.04229 8.35237,-1.62803 9.1894,-5.80822 0.33442,-1.67107 1.65206,-3.03076 3.32613,-3.35116 2.5692,-0.49161 4.84001,1.36069 5.04527,3.7907 l -0.0961,0.75194 c -0.38149,1.42977 -1.32866,3.74065 -3.63552,7.03673 -7.23999,10.34486 -11.55735,15.99887 -13.87723,19.03565 -2.95466,3.8698 -4.9071,6.42498 -3.67056,10.44496 0.73291,2.37996 2.60124,4.27731 4.9952,5.0743 0.98322,0.32841 1.72614,0.57571 10.97963,0.57571 3.48533,0 8.17916,-0.035 14.54906,-0.11408 4.0991,-0.051 7.64451,-3.24403 7.73361,-7.34212 0.0911,-4.23727 -3.31511,-7.68054 -7.50631,-7.68054 z"
     id="path42"
     style="fill:#f7f9fa;stroke-width:1.00124" />
  <path
     d="m 453.03123,373.88306 v 0.03 l -0.002,25.18026 -402.637924,2.80448 -0.200249,-28.01478 z"
     fill="#7fcb8f"
     id="path54"
     style="stroke-width:1.00124;fill:#263d2b;fill-opacity:1" />
  <path
     d="M 486.84921,424.77726 H 9.7037797 c -5.529868,0 -10.0124334,-4.48258 -10.0124334,-10.01244 v -9.84222 c 0,-5.52987 4.4825654,-10.01242 10.0124334,-10.01242 H 486.84921 c 5.52986,0 10.01244,4.48255 10.01244,10.01242 v 9.84222 c 0,5.52986 -4.48258,10.01244 -10.01244,10.01244 z"
     fill="#855b47"
     id="path56"
     style="stroke-width:1.00124" />
  <path
     id="rect928"
     style="fill:#ab7b64;fill-opacity:1;stroke-width:0.78566;stop-color:#000000"
     d="m 166.26292,311.60039 c -2.16071,0 -4.32055,0.82765 -5.9762,2.4833 L 0.12268102,474.24771 V 498.1544 L 172.24101,326.03798 c 3.31129,-3.31129 3.31129,-8.643 0,-11.95429 -1.65564,-1.65565 -3.81739,-2.4833 -5.97809,-2.4833 z" />
</svg>
