<?xml version="1.0" encoding="UTF-8" standalone="no"?>
<!-- Generator: Adobe Illustrator 19.1.0, SVG Export Plug-In . SVG Version: 6.00 Build 0)  -->

<svg
   xmlns:dc="http://purl.org/dc/elements/1.1/"
   xmlns:cc="http://creativecommons.org/ns#"
   xmlns:rdf="http://www.w3.org/1999/02/22-rdf-syntax-ns#"
   xmlns="http://www.w3.org/2000/svg"
   xmlns:sodipodi="http://sodipodi.sourceforge.net/DTD/sodipodi-0.dtd"
   xmlns:inkscape="http://www.inkscape.org/namespaces/inkscape"
   version="1.1"
   x="0px"
   y="0px"
   width="24px"
   height="24px"
   viewBox="0 0 24 24"
   enable-background="new 0 0 24 24"
   xml:space="preserve"
   id="svg13"
   sodipodi:docname="ic_mic.svg"
   inkscape:version="0.92.3 (2405546, 2018-03-11)"><metadata
   id="metadata19"><rdf:RDF><cc:Work
       rdf:about=""><dc:format>image/svg+xml</dc:format><dc:type
         rdf:resource="http://purl.org/dc/dcmitype/StillImage" /><dc:title></dc:title></cc:Work></rdf:RDF></metadata><defs
   id="defs17" /><sodipodi:namedview
   pagecolor="#ffffff"
   bordercolor="#666666"
   borderopacity="1"
   objecttolerance="10"
   gridtolerance="10"
   guidetolerance="10"
   inkscape:pageopacity="0"
   inkscape:pageshadow="2"
   inkscape:window-width="1280"
   inkscape:window-height="926"
   id="namedview15"
   showgrid="true"
   inkscape:zoom="30.767578"
   inkscape:cx="12"
   inkscape:cy="12"
   inkscape:window-x="1366"
   inkscape:window-y="27"
   inkscape:window-maximized="1"
   inkscape:current-layer="svg13"><inkscape:grid
     type="xygrid"
     id="grid826"
     empspacing="4" /></sodipodi:namedview>
<g
   id="Bounding_Boxes">
	<path
   fill="none"
   d="M0,0h24v24H0V0z"
   id="path2" />
</g>
<g
   id="Outline"
   transform="matrix(1.0526316,0,0,1.0526316,-0.63157895,-0.10526316)"
   style="fill:#f5ffff;fill-opacity:1">
	<g
   id="ui_x5F_spec_x5F_header"
   style="fill:#f5ffff;fill-opacity:1">
	</g>
	<g
   id="g10"
   style="fill:#f5ffff;fill-opacity:1">
		<path
   d="m 12,14 c 1.66,0 3,-1.34 3,-3 V 5 C 15,3.34 13.66,2 12,2 10.34,2 9,3.34 9,5 v 6 c 0,1.66 1.34,3 3,3 z M 11,5 c 0,-0.55 0.45,-1 1,-1 0.55,0 1,0.45 1,1 v 6 c 0,0.55 -0.45,1 -1,1 -0.55,0 -1,-0.45 -1,-1 z"
   id="path6"
   inkscape:connector-curvature="0"
   style="fill:#f5ffff;fill-opacity:1" />
		<path
   d="m 17,11 c 0,2.76 -2.24,5 -5,5 C 9.24,16 7,13.76 7,11 H 5 c 0,3.53 2.61,6.43 6,6.92 V 21 h 2 v -3.08 c 3.39,-0.49 6,-3.39 6,-6.92 z"
   id="path8"
   inkscape:connector-curvature="0"
   style="fill:#f5ffff;fill-opacity:1" />
	</g>
</g>
</svg>