<?xml version="1.0" encoding="UTF-8" standalone="no"?>
<!-- Generator: Adobe Illustrator 19.1.0, SVG Export Plug-In . SVG Version: 6.00 Build 0)  -->

<svg
   xmlns:dc="http://purl.org/dc/elements/1.1/"
   xmlns:cc="http://creativecommons.org/ns#"
   xmlns:rdf="http://www.w3.org/1999/02/22-rdf-syntax-ns#"
   xmlns="http://www.w3.org/2000/svg"
   xmlns:sodipodi="http://sodipodi.sourceforge.net/DTD/sodipodi-0.dtd"
   xmlns:inkscape="http://www.inkscape.org/namespaces/inkscape"
   version="1.1"
   x="0px"
   y="0px"
   width="24px"
   height="24px"
   viewBox="0 0 24 24"
   enable-background="new 0 0 24 24"
   xml:space="preserve"
   id="svg33"
   sodipodi:docname="ic_home.svg"
   inkscape:version="0.92.3 (2405546, 2018-03-11)"><metadata
   id="metadata39"><rdf:RDF><cc:Work
       rdf:about=""><dc:format>image/svg+xml</dc:format><dc:type
         rdf:resource="http://purl.org/dc/dcmitype/StillImage" /><dc:title></dc:title></cc:Work></rdf:RDF></metadata><defs
   id="defs37" /><sodipodi:namedview
   pagecolor="#ffffff"
   bordercolor="#666666"
   borderopacity="1"
   objecttolerance="10"
   gridtolerance="10"
   guidetolerance="10"
   inkscape:pageopacity="0"
   inkscape:pageshadow="2"
   inkscape:window-width="1280"
   inkscape:window-height="926"
   id="namedview35"
   showgrid="true"
   inkscape:zoom="30.767578"
   inkscape:cx="12"
   inkscape:cy="12"
   inkscape:window-x="1366"
   inkscape:window-y="27"
   inkscape:window-maximized="1"
   inkscape:current-layer="svg33"><inkscape:grid
     type="xygrid"
     id="grid846"
     dotted="false"
     empspacing="4" /></sodipodi:namedview>
<g
   id="Header_x2F_BG"
   display="none">
	<rect
   x="-314"
   y="-446"
   display="inline"
   fill="#F1F1F2"
   width="520"
   height="520"
   id="rect2" />
</g>
<g
   id="Bounding_Boxes">
	<g
   id="ui_x5F_spec_x5F_header_copy_3">
	</g>
	<path
   fill="none"
   d="M0,0h24v24H0V0z"
   id="path6" />
</g>
<g
   id="Rounded"
   display="none">
	<g
   id="ui_x5F_spec_x5F_header_copy_5"
   display="inline">
	</g>
	<path
   display="inline"
   d="M10,19v-5h4v5c0,0.55,0.45,1,1,1h3c0.55,0,1-0.45,1-1v-7h1.7c0.46,0,0.68-0.57,0.33-0.87L12.67,3.6   c-0.38-0.34-0.96-0.34-1.34,0l-8.36,7.53C2.63,11.43,2.84,12,3.3,12H5v7c0,0.55,0.45,1,1,1h3C9.55,20,10,19.55,10,19z"
   id="path10" />
</g>
<g
   id="Sharp"
   display="none">
	<g
   id="ui_x5F_spec_x5F_header_copy_4"
   display="inline">
	</g>
	<path
   display="inline"
   d="M10,20v-6h4v6h5v-8h3L12,3L2,12h3v8H10z"
   id="path14" />
</g>
<g
   id="Outline"
   style="fill:#ffffff;fill-opacity:0.97549021">
	<g
   id="ui_x5F_spec_x5F_header"
   style="fill:#ffffff;fill-opacity:0.97549021">
	</g>
	<path
   id="XMLID_1_"
   d="m 12,5.69 5,4.5 V 12 18 H 15 V 14 12 H 13 11 9 v 2 4 H 7 v -6 -1.81 l 5,-4.5 M 12,3 2,12 h 3 v 8 h 6 v -6 h 2 v 6 h 6 v -8 h 3 z"
   inkscape:connector-curvature="0"
   style="fill:#ffffff;fill-opacity:0.97549021" />
</g>
<g
   id="Duotone"
   display="none">
	<g
   id="ui_x5F_spec_x5F_header_copy_2"
   display="inline">
	</g>
	<g
   display="inline"
   id="g25">
		<path
   d="M12,3L2,12h3v8h6v-6h2v6h6v-8h3L12,3z M17,18h-2v-6H9v6H7v-7.81l5-4.5l5,4.5V18z"
   id="path21" />
		<polygon
   opacity="0.3"
   points="7,10.19 7,18 9,18 9,12 15,12 15,18 17,18 17,10.19 12,5.69   "
   id="polygon23" />
	</g>
</g>
<g
   id="Fill"
   display="none">
	<g
   id="ui_x5F_spec_x5F_header_copy"
   display="inline">
	</g>
	<path
   display="inline"
   d="M10,20v-6h4v6h5v-8h3L12,3L2,12h3v8H10z"
   id="path29" />
</g>
<g
   id="nyt_x5F_exporter_x5F_info"
   display="none">
</g>
</svg>