<?xml version="1.0" encoding="UTF-8" standalone="no"?>
<!-- Generator: Adobe Illustrator 19.1.0, SVG Export Plug-In . SVG Version: 6.00 Build 0)  -->

<svg
   xmlns:dc="http://purl.org/dc/elements/1.1/"
   xmlns:cc="http://creativecommons.org/ns#"
   xmlns:rdf="http://www.w3.org/1999/02/22-rdf-syntax-ns#"
   xmlns="http://www.w3.org/2000/svg"
   xmlns:sodipodi="http://sodipodi.sourceforge.net/DTD/sodipodi-0.dtd"
   xmlns:inkscape="http://www.inkscape.org/namespaces/inkscape"
   version="1.1"
   x="0px"
   y="0px"
   width="24px"
   height="24px"
   viewBox="0 0 24 24"
   enable-background="new 0 0 24 24"
   xml:space="preserve"
   id="svg10"
   sodipodi:docname="ic_action_laugh.svg"
   inkscape:version="0.92.3 (2405546, 2018-03-11)"><metadata
   id="metadata16"><rdf:RDF><cc:Work
       rdf:about=""><dc:format>image/svg+xml</dc:format><dc:type
         rdf:resource="http://purl.org/dc/dcmitype/StillImage" /></cc:Work></rdf:RDF></metadata><defs
   id="defs14" /><sodipodi:namedview
   pagecolor="#ffffff"
   bordercolor="#666666"
   borderopacity="1"
   objecttolerance="10"
   gridtolerance="10"
   guidetolerance="10"
   inkscape:pageopacity="0"
   inkscape:pageshadow="2"
   inkscape:window-width="780"
   inkscape:window-height="480"
   id="namedview12"
   showgrid="false"
   inkscape:zoom="9.8333333"
   inkscape:cx="-5.7966102"
   inkscape:cy="12"
   inkscape:window-x="0"
   inkscape:window-y="27"
   inkscape:window-maximized="0"
   inkscape:current-layer="svg10" />

<g
   id="Outline"
   style="fill:#ffffff;fill-opacity:1">
	<g
   id="ui_x5F_spec_x5F_header"
   style="fill:#ffffff;fill-opacity:1">
	</g>
	<path
   d="M11.99,2C6.47,2,2,6.48,2,12s4.47,10,9.99,10C17.52,22,22,17.52,22,12S17.52,2,11.99,2z M12,20c-4.42,0-8-3.58-8-8   s3.58-8,8-8s8,3.58,8,8S16.42,20,12,20z M15.5,11c0.83,0,1.5-0.67,1.5-1.5S16.33,8,15.5,8S14,8.67,14,9.5S14.67,11,15.5,11z    M8.5,11c0.83,0,1.5-0.67,1.5-1.5S9.33,8,8.5,8S7,8.67,7,9.5S7.67,11,8.5,11z M12,17.5c2.33,0,4.31-1.46,5.11-3.5H6.89   C7.69,16.04,9.67,17.5,12,17.5z"
   id="path7"
   style="fill:#ffffff;fill-opacity:1" />
</g>
</svg>