<?xml version="1.0" encoding="UTF-8" standalone="no"?>
<svg xmlns:dc="http://purl.org/dc/elements/1.1/" xmlns:cc="http://creativecommons.org/ns#" xmlns:rdf="http://www.w3.org/1999/02/22-rdf-syntax-ns#"
    xmlns="http://www.w3.org/2000/svg" xmlns:sodipodi="http://sodipodi.sourceforge.net/DTD/sodipodi-0.dtd"
    xmlns:inkscape="http://www.inkscape.org/namespaces/inkscape" version="1.1" width="24" height="24"
    viewBox="0 0 24 24" id="svg4" sodipodi:docname="ic_automagic.svg" inkscape:version="0.92.3 (2405546, 2018-03-11)">
  <metadata
     id="metadata10">
    <rdf:RDF>
      <cc:Work
         rdf:about="">
        <dc:format>image/svg+xml</dc:format>
        <dc:type
           rdf:resource="http://purl.org/dc/dcmitype/StillImage" />
        <dc:title />
      </cc:Work>
    </rdf:RDF>
  </metadata>
  <defs
     id="defs8">
    <inkscape:perspective
       sodipodi:type="inkscape:persp3d"
       inkscape:vp_x="0 : 12 : 1"
       inkscape:vp_y="0 : 1000 : 0"
       inkscape:vp_z="24 : 12 : 1"
       inkscape:persp3d-origin="12 : 8 : 1"
       id="perspective812" />
  </defs>
  <sodipodi:namedview
     pagecolor="#ffffff"
     bordercolor="#666666"
     borderopacity="1"
     objecttolerance="10"
     gridtolerance="10"
     guidetolerance="10"
     inkscape:pageopacity="0"
     inkscape:pageshadow="2"
     inkscape:window-width="1920"
     inkscape:window-height="1046"
     id="namedview6"
     showgrid="true"
     inkscape:zoom="19.666666"
     inkscape:cx="6.672092"
     inkscape:cy="11.482871"
     inkscape:window-x="0"
     inkscape:window-y="34"
     inkscape:window-maximized="1"
     inkscape:current-layer="svg4"
     inkscape:pagecheckerboard="true"
     showguides="true"
     inkscape:guide-bbox="true">
    <inkscape:grid
       type="xygrid"
       id="grid830"
       empspacing="2" />
  </sodipodi:namedview>
  <path
     style="fill:#ffffff"
     d="m 5.9661025,1.084745 1.4003906,2.5 -1.4003906,2.5 2.5,-1.4003906 2.4999905,1.4003906 -1.4003811,-2.5 1.4003811,-2.5 -2.4999905,1.4003906 z m 11.9999905,0 1.400391,2.5 -1.400391,2.5 2.5,-1.4003906 2.5,1.4003906 -1.400391,-2.5 1.400391,-2.5 -2.5,1.4003906 z m 0,12.000009 1.400391,2.5 -1.400391,2.5 2.5,-1.400391 2.5,1.400391 -1.400391,-2.5 1.400391,-2.5 -2.5,1.400391 z"
     id="path2"
     inkscape:connector-curvature="0"
     sodipodi:nodetypes="ccccccccccccccccccccccccccc" />
  <path
     style="opacity:1;fill:#ffffff;fill-opacity:1;stroke:none;stroke-width:0;stroke-miterlimit:4;stroke-dasharray:none;stroke-opacity:0.52479338"
     d="m 1.3114102,18.464424 c -0.39173672,0.391737 -0.39173672,1.022477 0,1.414214 l 2.8284271,2.828427 c 0.3917371,0.391737 1.0224764,0.391737 1.4142135,0 L 18.281977,9.9791433 c 0.391738,-0.3917322 0.391738,-1.0224637 0,-1.4142012 L 15.45355,5.7365151 c -0.391737,-0.391738 -1.022476,-0.391738 -1.414213,0 z m 2.1213203,0.707107 8.4852855,-8.485281 1.414214,1.414213 -8.485286,8.485281 z M 13.33223,9.2720447 14.746443,7.8578351 16.160657,9.2720447 14.746443,10.68625 Z"
     id="rect814"
     inkscape:connector-curvature="0" />
</svg>
