<?xml version="1.0" encoding="UTF-8" standalone="no"?>
<svg xmlns:dc="http://purl.org/dc/elements/1.1/" xmlns:cc="http://creativecommons.org/ns#" xmlns:rdf="http://www.w3.org/1999/02/22-rdf-syntax-ns#"
    xmlns="http://www.w3.org/2000/svg" xmlns:sodipodi="http://sodipodi.sourceforge.net/DTD/sodipodi-0.dtd"
    xmlns:inkscape="http://www.inkscape.org/namespaces/inkscape" version="1.1" width="24" height="24"
    viewBox="0 0 24 24" id="svg4" sodipodi:docname="ic_action_sick.svg" inkscape:version="0.92.4 (5da689c313, 2019-01-14)">
  <metadata
     id="metadata10">
    <rdf:RDF>
      <cc:Work
         rdf:about="">
        <dc:format>image/svg+xml</dc:format>
        <dc:type
           rdf:resource="http://purl.org/dc/dcmitype/StillImage" />
        <dc:title></dc:title>
      </cc:Work>
    </rdf:RDF>
  </metadata>
  <defs
     id="defs8" />
  <sodipodi:namedview
     pagecolor="#ffffff"
     bordercolor="#666666"
     borderopacity="1"
     objecttolerance="10"
     gridtolerance="10"
     guidetolerance="10"
     inkscape:pageopacity="0"
     inkscape:pageshadow="2"
     inkscape:window-width="1920"
     inkscape:window-height="1045"
     id="namedview6"
     showgrid="true"
     inkscape:zoom="27.812867"
     inkscape:cx="11.9202"
     inkscape:cy="10.911438"
     inkscape:window-x="0"
     inkscape:window-y="35"
     inkscape:window-maximized="1"
     inkscape:current-layer="svg4"
     inkscape:pagecheckerboard="true">
    <inkscape:grid
       type="xygrid"
       id="grid12" />
  </sodipodi:namedview>
  <path
     style="opacity:1;fill:#f5ffff;fill-opacity:1"
     d="M 10 3 L 8 5 L 8 7 L 5 7 C 3.85 7 3.12 8 3 9 L 2 19 C 1.88 20 2.54 21 4 21 L 20 21 C 21.46 21 22.12 20 22 19 L 21 9 C 20.88 8 20.06 7 19 7 L 16 7 L 16 5 L 14 3 L 10 3 z M 10 5 L 14 5 L 14 7 L 10 7 L 10 5 z M 6 9 L 8 9 L 9 9 L 9 10 L 9 11 L 8 11 L 6 11 L 6 17 L 9 17 L 9 19 L 6 19 L 5 19 L 4 19 L 5 10 C 5 9.446 5.446 9 6 9 z M 15 9 L 16 9 L 18 9 C 18.554 9 19 9.446 19 10 L 20 19 L 19 19 L 18 19 L 15 19 L 15 17 L 18 17 L 18 11 L 16 11 L 15 11 L 15 10 L 15 9 z M 11 10 L 13 10 L 13 13 L 16 13 L 16 15 L 13 15 L 13 18 L 11 18 L 11 15 L 8 15 L 8 13 L 11 13 L 11 10 z "
     id="path2" />
</svg>
