<?xml version="1.0" encoding="UTF-8" standalone="no"?>
<!-- Created with Inkscape (http://www.inkscape.org/) -->

<svg
  xmlns:dc="http://purl.org/dc/elements/1.1/"
  xmlns:cc="http://creativecommons.org/ns#"
  xmlns:rdf="http://www.w3.org/1999/02/22-rdf-syntax-ns#"
  xmlns="http://www.w3.org/2000/svg"
  xmlns:sodipodi="http://sodipodi.sourceforge.net/DTD/sodipodi-0.dtd"
  xmlns:inkscape="http://www.inkscape.org/namespaces/inkscape"
  width="24"
  height="24"
  id="svg2995"
  version="1.1"
  inkscape:version="0.92.3 (2405546, 2018-03-11)"
  sodipodi:docname="ic_action_baby.svg"
  inkscape:export-filename="/home/petr/project/android-git/Sleep-actionbar2/res/drawable-xxhdpi/tag_baby.png"
  inkscape:export-xdpi="180"
  inkscape:export-ydpi="180">
  <defs
     id="defs2997">
    <inkscape:path-effect
       effect="spiro"
       id="path-effect3157"
       is_visible="true" />
    <inkscape:path-effect
       is_visible="true"
       id="path-effect3058"
       effect="spiro" />
  </defs>
  <sodipodi:namedview
     id="base"
     pagecolor="#737373"
     bordercolor="#666666"
     borderopacity="1.0"
     inkscape:pageopacity="0"
     inkscape:pageshadow="2"
     inkscape:zoom="11.2"
     inkscape:cx="-3.013459"
     inkscape:cy="12.166039"
     inkscape:document-units="px"
     inkscape:current-layer="layer1"
     showgrid="true"
     inkscape:window-width="1366"
     inkscape:window-height="741"
     inkscape:window-x="0"
     inkscape:window-y="27"
     inkscape:window-maximized="1"
     gridtolerance="1">
    <inkscape:grid
       type="xygrid"
       id="grid815"
       empspacing="2" />
  </sodipodi:namedview>
  <metadata
     id="metadata3000">
    <rdf:RDF>
      <cc:Work
         rdf:about="">
        <dc:format>image/svg+xml</dc:format>
        <dc:type
           rdf:resource="http://purl.org/dc/dcmitype/StillImage" />
        <dc:title />
      </cc:Work>
    </rdf:RDF>
  </metadata>
  <g
     inkscape:label="Layer 1"
     inkscape:groupmode="layer"
     id="layer1"
     transform="translate(0,-1028.3622)">
    <path
       style="fill:#ffffff;fill-opacity:1;stroke-width:1.05997562"
       d="M 18.220703 2.0742188 C 17.956434 2.0997769 17.687044 2.1548674 17.417969 2.2421875 C 14.257398 3.2673292 14.295457 7.8376234 17.470703 8.8183594 C 18.694835 9.1965533 19.91504 8.886096 20.835938 7.9648438 C 21.713543 7.0872516 21.994724 6.3084326 21.896484 5.1679688 C 21.752022 3.4899973 20.516691 2.2929355 18.998047 2.0878906 C 18.74494 2.0537579 18.484973 2.0486605 18.220703 2.0742188 z M 18.4375 4 A 1.5625 1.5625 0 0 1 20 5.5625 A 1.5625 1.5625 0 0 1 18.4375 7.125 A 1.5625 1.5625 0 0 1 16.875 5.5625 A 1.5625 1.5625 0 0 1 18.4375 4 z M 8.5898438 6.1210938 C 6.135051 6.1516019 5.553988 6.3909155 5.40625 7.0332031 C 5.3594003 7.2368396 5.5442684 7.6414545 5.7949219 7.9394531 C 6.2067506 8.4285784 6.443667 8.4826704 8.2792969 8.4824219 L 10.298828 8.4824219 L 8.953125 9.9316406 L 7.5800781 11.355469 L 10.066406 13.945312 L 12.550781 16.507812 L 14.130859 15.033203 L 15.683594 13.53125 L 15.839844 15.732422 C 16.001702 17.934894 16.054257 18.104954 16.642578 18.580078 C 17.118578 18.964734 17.558705 18.931429 17.988281 18.501953 C 18.393957 18.096171 18.42489 17.06577 18.142578 13.505859 C 17.87814 10.170711 18.084718 10.598404 15.761719 8.2753906 L 13.691406 6.2050781 L 11.722656 6.1523438 C 10.435024 6.1232854 9.4081079 6.1109244 8.5898438 6.1210938 z M 12.507812 8.0410156 C 12.533239 8.0470156 12.786969 8.0602656 12.792969 8.0722656 C 12.807896 8.0783656 12.903043 8.1692656 12.939453 8.1972656 L 13.013672 8.1972656 L 14.453125 9.6464844 L 14.533203 9.7265625 L 15.974609 11.166016 L 15.974609 11.240234 C 16.003259 11.276134 16.092709 11.372719 16.099609 11.386719 C 16.106909 11.393919 16.124959 11.644922 16.130859 11.669922 C 16.082536 11.659922 16.034788 11.660156 15.986328 11.660156 L 15.988281 11.804688 C 15.55997 11.723187 15.126337 11.795981 14.746094 11.988281 C 14.654191 12.050481 14.561799 12.110453 14.480469 12.189453 L 12.9375 13.679688 L 12.773438 13.835938 L 11.626953 12.652344 L 11.576172 12.599609 L 11.521484 12.548828 L 10.339844 11.402344 L 10.494141 11.236328 L 11.984375 9.6933594 C 12.062627 9.6120594 12.123337 9.5197344 12.185547 9.4277344 C 12.377809 9.0474344 12.452464 8.6139469 12.371094 8.1855469 L 12.513672 8.1855469 C 12.509872 8.1379469 12.515113 8.0900156 12.507812 8.0410156 z M 6.9335938 12.261719 L 4.8359375 12.314453 C 3.4731146 12.335165 2.6420838 12.461375 2.4277344 12.675781 C 2.0553339 13.048176 1.965608 18.443214 2.3242188 18.787109 C 2.4376743 18.900526 2.7265957 19.054947 2.9726562 19.123047 C 4.0744707 19.427425 4.5402939 18.87763 4.5253906 17.285156 C 4.5188458 16.585104 4.5757974 15.965174 4.6542969 15.886719 C 4.7327939 15.808015 5.2797095 15.739464 5.8710938 15.732422 L 6.9335938 15.705078 L 6.9335938 13.996094 L 6.9335938 12.261719 z M 8.4863281 17 C 8.3755277 17.026511 8.2805579 17.586292 8.2539062 18.242188 L 8.2011719 19.433594 L 6.7773438 19.433594 C 6.003732 19.425309 5.2650278 19.549455 5.1210938 19.693359 C 4.7974906 20.016958 4.7823357 21.268706 5.0957031 21.582031 C 5.2228624 21.709201 6.0791008 21.837527 7.0117188 21.867188 C 10.50074 21.978533 11.114597 21.957741 11.333984 21.738281 C 11.457708 21.614592 11.62315 20.544563 11.697266 19.355469 L 11.826172 17.181641 L 10.273438 17.078125 C 9.4084507 17.01599 8.5971253 16.974235 8.4863281 17 z "
       transform="translate(0,1028.3622)"
       id="path3307" />
  </g>
</svg>
