<?xml version="1.0" encoding="UTF-8" standalone="no"?>
<!-- Generator: Adobe Illustrator 19.1.0, SVG Export Plug-In . SVG Version: 6.00 Build 0)  -->

<svg
   xmlns:dc="http://purl.org/dc/elements/1.1/"
   xmlns:cc="http://creativecommons.org/ns#"
   xmlns:rdf="http://www.w3.org/1999/02/22-rdf-syntax-ns#"
   xmlns="http://www.w3.org/2000/svg"
   xmlns:sodipodi="http://sodipodi.sourceforge.net/DTD/sodipodi-0.dtd"
   xmlns:inkscape="http://www.inkscape.org/namespaces/inkscape"
   version="1.1"
   x="0px"
   y="0px"
   width="24px"
   height="24px"
   viewBox="0 0 24 24"
   enable-background="new 0 0 24 24"
   xml:space="preserve"
   id="svg13"
   sodipodi:docname="ic_action_hot.svg"
   inkscape:version="0.92.3 (2405546, 2018-03-11)"><metadata
   id="metadata19"><rdf:RDF><cc:Work
       rdf:about=""><dc:format>image/svg+xml</dc:format><dc:type
         rdf:resource="http://purl.org/dc/dcmitype/StillImage" /></cc:Work></rdf:RDF></metadata><defs
   id="defs17" /><sodipodi:namedview
   pagecolor="#ffffff"
   bordercolor="#666666"
   borderopacity="1"
   objecttolerance="10"
   gridtolerance="10"
   guidetolerance="10"
   inkscape:pageopacity="0"
   inkscape:pageshadow="2"
   inkscape:window-width="780"
   inkscape:window-height="480"
   id="namedview15"
   showgrid="false"
   inkscape:zoom="9.8333333"
   inkscape:cx="18.610169"
   inkscape:cy="12"
   inkscape:window-x="0"
   inkscape:window-y="27"
   inkscape:window-maximized="0"
   inkscape:current-layer="svg13" />
<g
   id="Bounding_Boxes">
	<path
   fill="none"
   d="M0,0h24v24H0V0z"
   id="path2" />
</g>
<g
   id="Outline"
   style="fill:#ffffff;fill-opacity:1">
	<g
   id="ui_x5F_spec_x5F_header"
   display="none"
   style="fill:#ffffff;fill-opacity:1">
	</g>
	<g
   id="g10"
   style="fill:#ffffff;fill-opacity:1">
		<rect
   x="16.05"
   y="12.51"
   transform="matrix(-0.7071 0.7071 -0.7071 -0.7071 41.196 17.0661)"
   width="2.02"
   height="9.11"
   id="rect6"
   style="fill:#ffffff;fill-opacity:1" />
		<path
   d="M13.12,3c-2.58,0-5.16,0.98-7.14,2.95c0,0,0,0,0,0c0,0,0,0,0,0c0,0-0.01,0.01-0.01,0.01c-3.95,3.95-3.95,10.36,0,14.31    L20.27,5.96C18.3,3.99,15.71,3,13.12,3z M6.14,17.27C5.4,16.03,5,14.61,5,13.12c0-0.93,0.16-1.82,0.46-2.67    c0.19,1.91,0.89,3.79,2.07,5.44L6.14,17.27z M8.98,14.43C7.63,12.38,7.12,9.93,7.6,7.6c0.58-0.12,1.16-0.18,1.75-0.18    c1.8,0,3.55,0.55,5.08,1.56L8.98,14.43z M10.45,5.46C11.3,5.16,12.19,5,13.12,5c1.49,0,2.91,0.4,4.15,1.14l-1.39,1.39    C14.23,6.35,12.36,5.65,10.45,5.46z"
   id="path8"
   style="fill:#ffffff;fill-opacity:1" />
	</g>
</g>
</svg>