<?xml version="1.0" encoding="UTF-8" standalone="no"?>
<!-- Generator: Adobe Illustrator 19.1.0, SVG Export Plug-In . SVG Version: 6.00 Build 0)  -->

<svg
   xmlns:dc="http://purl.org/dc/elements/1.1/"
   xmlns:cc="http://creativecommons.org/ns#"
   xmlns:rdf="http://www.w3.org/1999/02/22-rdf-syntax-ns#"
   xmlns="http://www.w3.org/2000/svg"
   xmlns:sodipodi="http://sodipodi.sourceforge.net/DTD/sodipodi-0.dtd"
   xmlns:inkscape="http://www.inkscape.org/namespaces/inkscape"
   version="1.1"
   x="0px"
   y="0px"
   width="24px"
   height="24px"
   viewBox="0 0 24 24"
   enable-background="new 0 0 24 24"
   xml:space="preserve"
   id="svg13"
   sodipodi:docname="ic_cloud_upload.svg"
   inkscape:version="0.92.3 (2405546, 2018-03-11)"><metadata
   id="metadata19"><rdf:RDF><cc:Work
       rdf:about=""><dc:format>image/svg+xml</dc:format><dc:type
         rdf:resource="http://purl.org/dc/dcmitype/StillImage" /></cc:Work></rdf:RDF></metadata><defs
   id="defs17" /><sodipodi:namedview
   pagecolor="#ffffff"
   bordercolor="#666666"
   borderopacity="1"
   objecttolerance="10"
   gridtolerance="10"
   guidetolerance="10"
   inkscape:pageopacity="0"
   inkscape:pageshadow="2"
   inkscape:window-width="780"
   inkscape:window-height="480"
   id="namedview15"
   showgrid="false"
   inkscape:zoom="9.8333333"
   inkscape:cx="12"
   inkscape:cy="12"
   inkscape:window-x="0"
   inkscape:window-y="27"
   inkscape:window-maximized="0"
   inkscape:current-layer="svg13" />
<g
   id="Bounding_Boxes">
	<path
   fill="none"
   d="M0,0h24v24H0V0z"
   id="path2" />
</g>
<g
   id="Outline"
   style="fill:#ffffff">
	<g
   id="ui_x5F_spec_x5F_header"
   style="fill:#ffffff">
	</g>
	<g
   id="g10"
   style="fill:#ffffff">
		<path
   d="M19.35,10.04C18.67,6.59,15.64,4,12,4C9.11,4,6.6,5.64,5.35,8.04C2.34,8.36,0,10.91,0,14c0,3.31,2.69,6,6,6h13    c2.76,0,5-2.24,5-5C24,12.36,21.95,10.22,19.35,10.04z M19,18H6c-2.21,0-4-1.79-4-4c0-2.05,1.53-3.76,3.56-3.97l1.07-0.11    l0.5-0.95C8.08,7.14,9.94,6,12,6c2.62,0,4.88,1.86,5.39,4.43l0.3,1.5l1.53,0.11C20.78,12.14,22,13.45,22,15    C22,16.65,20.65,18,19,18z"
   id="path6"
   style="fill:#ffffff" />
		<polygon
   points="8,13 10.55,13 10.55,16 13.45,16 13.45,13 16,13 12,9   "
   id="polygon8"
   style="fill:#ffffff" />
	</g>
</g>
</svg>