<?xml version="1.0" encoding="UTF-8" standalone="no"?>
<!-- Generator: Adobe Illustrator 19.1.0, SVG Export Plug-In . SVG Version: 6.00 Build 0)  -->

<svg
   xmlns:dc="http://purl.org/dc/elements/1.1/"
   xmlns:cc="http://creativecommons.org/ns#"
   xmlns:rdf="http://www.w3.org/1999/02/22-rdf-syntax-ns#"
   xmlns="http://www.w3.org/2000/svg"
   xmlns:sodipodi="http://sodipodi.sourceforge.net/DTD/sodipodi-0.dtd"
   xmlns:inkscape="http://www.inkscape.org/namespaces/inkscape"
   version="1.1"
   x="0px"
   y="0px"
   width="24px"
   height="24px"
   viewBox="0 0 24 24"
   enable-background="new 0 0 24 24"
   xml:space="preserve"
   id="svg1102"
   sodipodi:docname="ic_dashboard.svg"
   inkscape:version="0.92.3 (2405546, 2018-03-11)"><metadata
   id="metadata1108"><rdf:RDF><cc:Work
       rdf:about=""><dc:format>image/svg+xml</dc:format><dc:type
         rdf:resource="http://purl.org/dc/dcmitype/StillImage" /><dc:title></dc:title></cc:Work></rdf:RDF></metadata><defs
   id="defs1106" /><sodipodi:namedview
   pagecolor="#565656"
   bordercolor="#666666"
   borderopacity="1"
   objecttolerance="10"
   gridtolerance="10"
   guidetolerance="10"
   inkscape:pageopacity="0"
   inkscape:pageshadow="2"
   inkscape:window-width="1366"
   inkscape:window-height="713"
   id="namedview1104"
   showgrid="false"
   inkscape:zoom="9.8333333"
   inkscape:cx="12"
   inkscape:cy="12"
   inkscape:window-x="0"
   inkscape:window-y="27"
   inkscape:window-maximized="1"
   inkscape:current-layer="svg1102" />
<g
   id="Header_x2F_BG"
   display="none">
	<rect
   x="-182"
   y="-270"
   display="inline"
   fill="#F1F1F2"
   width="520"
   height="520"
   id="rect1054" />
</g>

<g
   id="Rounded"
   display="none">
	<g
   id="ui_x5F_spec_x5F_header_copy_5"
   display="inline">
	</g>
	<path
   display="inline"
   d="M4,13h6c0.55,0,1-0.45,1-1V4c0-0.55-0.45-1-1-1H4C3.45,3,3,3.45,3,4v8C3,12.55,3.45,13,4,13z M4,21h6   c0.55,0,1-0.45,1-1v-4c0-0.55-0.45-1-1-1H4c-0.55,0-1,0.45-1,1v4C3,20.55,3.45,21,4,21z M14,21h6c0.55,0,1-0.45,1-1v-8   c0-0.55-0.45-1-1-1h-6c-0.55,0-1,0.45-1,1v8C13,20.55,13.45,21,14,21z M13,4v4c0,0.55,0.45,1,1,1h6c0.55,0,1-0.45,1-1V4   c0-0.55-0.45-1-1-1h-6C13.45,3,13,3.45,13,4z"
   id="path1062" />
</g>
<g
   id="Sharp"
   display="none">
	<g
   id="ui_x5F_spec_x5F_header_copy_4"
   display="inline">
	</g>
	<path
   display="inline"
   d="M3,13h8V3H3V13z M3,21h8v-6H3V21z M13,21h8V11h-8V21z M13,3v6h8V3H13z"
   id="path1066" />
</g>
<g
   id="Outline"
   style="fill:#ffffff">
	<g
   id="ui_x5F_spec_x5F_header"
   style="fill:#ffffff">
	</g>
	<path
   d="M19,5v2h-4V5H19 M9,5v6H5V5H9 M19,13v6h-4v-6H19 M9,17v2H5v-2H9 M21,3h-8v6h8V3L21,3z M11,3H3v10h8V3L11,3z M21,11h-8v10h8   V11L21,11z M11,15H3v6h8V15L11,15z"
   id="path1070"
   style="fill:#ffffff" />
</g>
<g
   id="Duotone"
   display="none">
	<g
   id="ui_x5F_spec_x5F_header_copy_2"
   display="inline">
	</g>
	<g
   display="inline"
   id="g1094">
		<g
   opacity="0.3"
   id="g1082">
			<rect
   x="5"
   y="5"
   width="4"
   height="6"
   id="rect1074" />
			<rect
   x="15"
   y="13"
   width="4"
   height="6"
   id="rect1076" />
			<rect
   x="5"
   y="17"
   width="4"
   height="2"
   id="rect1078" />
			<rect
   x="15"
   y="5"
   width="4"
   height="2"
   id="rect1080" />
		</g>
		<g
   id="g1092">
			<path
   d="M3,13h8V3H3V13z M5,5h4v6H5V5z"
   id="path1084" />
			<path
   d="M13,21h8V11h-8V21z M15,13h4v6h-4V13z"
   id="path1086" />
			<path
   d="M13,3v6h8V3H13z M19,7h-4V5h4V7z"
   id="path1088" />
			<path
   d="M3,21h8v-6H3V21z M5,17h4v2H5V17z"
   id="path1090" />
		</g>
	</g>
</g>
<g
   id="Fill"
   display="none">
	<g
   id="ui_x5F_spec_x5F_header_copy"
   display="inline">
	</g>
	<path
   display="inline"
   d="M3,13h8V3H3V13z M3,21h8v-6H3V21z M13,21h8V11h-8V21z M13,3v6h8V3H13z"
   id="path1098" />
</g>
<g
   id="nyt_x5F_exporter_x5F_info"
   display="none">
</g>
</svg>