<?xml version="1.0" encoding="UTF-8" standalone="no"?>
<!-- Generator: Adobe Illustrator 19.1.0, SVG Export Plug-In . SVG Version: 6.00 Build 0)  -->

<svg
   xmlns:dc="http://purl.org/dc/elements/1.1/"
   xmlns:cc="http://creativecommons.org/ns#"
   xmlns:rdf="http://www.w3.org/1999/02/22-rdf-syntax-ns#"
   xmlns="http://www.w3.org/2000/svg"
   xmlns:sodipodi="http://sodipodi.sourceforge.net/DTD/sodipodi-0.dtd"
   xmlns:inkscape="http://www.inkscape.org/namespaces/inkscape"
   version="1.1"
   x="0px"
   y="0px"
   width="24px"
   height="24px"
   viewBox="0 0 24 24"
   enable-background="new 0 0 24 24"
   xml:space="preserve"
   id="svg46"
   sodipodi:docname="ic_information.svg"
   inkscape:version="0.92.3 (2405546, 2018-03-11)"><metadata
   id="metadata52"><rdf:RDF><cc:Work
       rdf:about=""><dc:format>image/svg+xml</dc:format><dc:type
         rdf:resource="http://purl.org/dc/dcmitype/StillImage" /><dc:title></dc:title></cc:Work></rdf:RDF></metadata><defs
   id="defs50" /><sodipodi:namedview
   pagecolor="#ffffff"
   bordercolor="#666666"
   borderopacity="1"
   objecttolerance="10"
   gridtolerance="10"
   guidetolerance="10"
   inkscape:pageopacity="0"
   inkscape:pageshadow="2"
   inkscape:window-width="780"
   inkscape:window-height="480"
   id="namedview48"
   showgrid="false"
   inkscape:zoom="9.8333333"
   inkscape:cx="12"
   inkscape:cy="12"
   inkscape:window-x="0"
   inkscape:window-y="27"
   inkscape:window-maximized="0"
   inkscape:current-layer="svg46" />
<g
   id="Bounding_Boxes">
	<g
   id="ui_x5F_spec_x5F_header_copy_3"
   display="none">
	</g>
	<path
   fill="none"
   d="M0,0h24v24H0V0z"
   id="path3" />
</g>
<g
   id="Rounded"
   display="none">
	<g
   id="ui_x5F_spec_x5F_header_copy_5">
	</g>
	<g
   display="inline"
   id="g9">
		<path
   d="M12,2C6.48,2,2,6.48,2,12c0,5.52,4.48,10,10,10s10-4.48,10-10C22,6.48,17.52,2,12,2z M12,17L12,17c-0.55,0-1-0.45-1-1v-4    c0-0.55,0.45-1,1-1h0c0.55,0,1,0.45,1,1v4C13,16.55,12.55,17,12,17z M13,9h-2V7h2V9z"
   id="path7" />
	</g>
</g>
<g
   id="Sharp"
   display="none">
	<g
   id="ui_x5F_spec_x5F_header_copy_4">
	</g>
	<g
   display="inline"
   id="g15">
		<path
   d="M12,2C6.48,2,2,6.48,2,12c0,5.52,4.48,10,10,10s10-4.48,10-10C22,6.48,17.52,2,12,2z M13,17h-2v-6h2V17z M13,9h-2V7h2V9z"
   id="path13" />
	</g>
</g>
<g
   id="Outline"
   style="fill:#ffffff;fill-opacity:1">
	<g
   id="ui_x5F_spec_x5F_header"
   display="none"
   style="fill:#ffffff;fill-opacity:1">
	</g>
	<g
   id="g25"
   style="fill:#ffffff;fill-opacity:1">
		<rect
   x="11"
   y="7"
   width="2"
   height="2"
   id="rect19"
   style="fill:#ffffff;fill-opacity:1" />
		<rect
   x="11"
   y="11"
   width="2"
   height="6"
   id="rect21"
   style="fill:#ffffff;fill-opacity:1" />
		<path
   d="M12,2C6.48,2,2,6.48,2,12c0,5.52,4.48,10,10,10s10-4.48,10-10C22,6.48,17.52,2,12,2z M12,20c-4.41,0-8-3.59-8-8    c0-4.41,3.59-8,8-8s8,3.59,8,8C20,16.41,16.41,20,12,20z"
   id="path23"
   style="fill:#ffffff;fill-opacity:1" />
	</g>
</g>
<g
   id="Duotone"
   display="none">
	<g
   id="ui_x5F_spec_x5F_header_copy_2">
	</g>
	<g
   display="inline"
   id="g37">
		<path
   opacity="0.3"
   d="M12,4c-4.41,0-8,3.59-8,8c0,4.41,3.59,8,8,8s8-3.59,8-8C20,7.59,16.41,4,12,4z M13,17h-2v-6h2V17z M13,9h-2    V7h2V9z"
   id="path29" />
		<rect
   x="11"
   y="7"
   width="2"
   height="2"
   id="rect31" />
		<rect
   x="11"
   y="11"
   width="2"
   height="6"
   id="rect33" />
		<path
   d="M12,2C6.48,2,2,6.48,2,12c0,5.52,4.48,10,10,10s10-4.48,10-10C22,6.48,17.52,2,12,2z M12,20c-4.41,0-8-3.59-8-8    c0-4.41,3.59-8,8-8s8,3.59,8,8C20,16.41,16.41,20,12,20z"
   id="path35" />
	</g>
</g>
<g
   id="Material"
   display="none">
	<g
   id="ui_x5F_spec_x5F_header_copy">
	</g>
	<g
   display="inline"
   id="g43">
		<path
   d="M12,2C6.48,2,2,6.48,2,12c0,5.52,4.48,10,10,10s10-4.48,10-10C22,6.48,17.52,2,12,2z M13,17h-2v-6h2V17z M13,9h-2V7h2V9z"
   id="path41" />
	</g>
</g>
</svg>