<?xml version="1.0" encoding="UTF-8" standalone="no"?>
<svg xmlns:dc="http://purl.org/dc/elements/1.1/" xmlns:cc="http://creativecommons.org/ns#" xmlns:rdf="http://www.w3.org/1999/02/22-rdf-syntax-ns#"
    xmlns="http://www.w3.org/2000/svg" xmlns:sodipodi="http://sodipodi.sourceforge.net/DTD/sodipodi-0.dtd"
    xmlns:inkscape="http://www.inkscape.org/namespaces/inkscape" version="1.1" width="24" height="24"
    viewBox="0 0 24 24" id="svg4" sodipodi:docname="ic_incognito.svg" inkscape:version="0.92.4 (5da689c313, 2019-01-14)">
  <metadata
     id="metadata10">
    <rdf:RDF>
      <cc:Work
         rdf:about="">
        <dc:format>image/svg+xml</dc:format>
        <dc:type
           rdf:resource="http://purl.org/dc/dcmitype/StillImage" />
        <dc:title />
      </cc:Work>
    </rdf:RDF>
  </metadata>
  <defs
     id="defs8" />
  <sodipodi:namedview
     pagecolor="#ffffff"
     bordercolor="#666666"
     borderopacity="1"
     objecttolerance="10"
     gridtolerance="10"
     guidetolerance="10"
     inkscape:pageopacity="0"
     inkscape:pageshadow="2"
     inkscape:window-width="1920"
     inkscape:window-height="1045"
     id="namedview6"
     showgrid="true"
     inkscape:pagecheckerboard="true"
     inkscape:zoom="19.666667"
     inkscape:cx="2.7114429"
     inkscape:cy="8.4925086"
     inkscape:window-x="0"
     inkscape:window-y="35"
     inkscape:window-maximized="1"
     inkscape:current-layer="svg4">
    <inkscape:grid
       type="xygrid"
       id="grid1408"
       empspacing="2" />
  </sodipodi:namedview>
  <path
     d="m 3,14 c -0.24,0 -0.45,0.09 -0.59,0.25 -0.14,0.15 -0.2,0.37 -0.17,0.61 l 0.5,2.99 C 2.82,18.5 3.4,19 4,19 h 3 c 0.64,0 1.36,-0.56 1.5,-1.18 L 9.56,14.63 C 9.6,14.5 9.57,14.31 9.5,14.19 9.39,14.07 9.22,14 9,14 H 3 m 4,7 H 4 C 2.38,21 0.96,19.74 0.76,18.14 L 0.26,15.15 C 0.15,14.3 0.39,13.5 0.91,12.92 1.43,12.34 2.19,12 3,12 h 6 c 0.83,0 1.58,0.35 2.06,0.96 0.11,0.15 0.21,0.31 0.29,0.49 0.43,-0.09 0.87,-0.09 1.29,0 0.08,-0.18 0.18,-0.34 0.3,-0.49 C 13.41,12.35 14.16,12 15,12 h 6 c 0.81,0 1.57,0.34 2.09,0.92 0.51,0.58 0.75,1.38 0.65,2.19 l -0.51,3.07 C 23.04,19.74 21.61,21 20,21 h -3 c -1.56,0 -3.08,-1.19 -3.46,-2.7 l -0.9,-2.71 c -0.38,-0.28 -0.91,-0.28 -1.29,0 l -0.92,2.78 C 10.07,19.82 8.56,21 7,21 m 8,-7 c -0.22,0 -0.39,0.07 -0.5,0.19 -0.08,0.12 -0.1,0.31 -0.05,0.51 l 1.01,3.05 C 15.64,18.44 16.36,19 17,19 h 3 c 0.59,0 1.18,-0.5 1.25,-1.11 l 0.51,-3.07 C 21.79,14.62 21.73,14.4 21.59,14.25 21.45,14.09 21.24,14 21,14 Z"
     id="path2"
     style="fill:#ffffff;fill-opacity:1"
     inkscape:connector-curvature="0" />
  <path
     style="opacity:1;fill:#ffffff;fill-opacity:1;stroke:none;stroke-width:0;stroke-miterlimit:4;stroke-dasharray:none;stroke-opacity:0.52479338"
     d="m 3,9 h 18 l 3,2 H 0 Z"
     id="rect1410"
     inkscape:connector-curvature="0"
     sodipodi:nodetypes="ccccc" />
  <path
     style="opacity:1;fill:#ffffff;fill-opacity:1;stroke:none;stroke-width:0;stroke-miterlimit:4;stroke-dasharray:none;stroke-opacity:0.52479338"
     d="M 5 2 L 3 8 L 21 8 L 19 2 L 5 2 z M 6.3144531 4.0429688 L 17.695312 4.0429688 L 18.365234 6.0507812 L 5.6445312 6.0507812 L 6.3144531 4.0429688 z "
     id="rect1413" />
</svg>
