<?xml version="1.0" encoding="UTF-8" standalone="no"?>
<svg
  xmlns:dc="http://purl.org/dc/elements/1.1/"
  xmlns:cc="http://creativecommons.org/ns#"
  xmlns:rdf="http://www.w3.org/1999/02/22-rdf-syntax-ns#"
  xmlns="http://www.w3.org/2000/svg"
  xmlns:sodipodi="http://sodipodi.sourceforge.net/DTD/sodipodi-0.dtd"
  xmlns:inkscape="http://www.inkscape.org/namespaces/inkscape"
  version="1.1"
  width="24"
  height="24"
  viewBox="0 0 24 24"
  id="svg2"
  inkscape:version="0.92.3 (2405546, 2018-03-11)"
  sodipodi:docname="ic_puzzle.svg">
  <metadata
     id="metadata10">
    <rdf:RDF>
      <cc:Work
         rdf:about="">
        <dc:format>image/svg+xml</dc:format>
        <dc:type
           rdf:resource="http://purl.org/dc/dcmitype/StillImage" />
        <dc:title />
      </cc:Work>
    </rdf:RDF>
  </metadata>
  <defs
     id="defs8">
    <inkscape:path-effect
       effect="spiro"
       id="path-effect4200"
       is_visible="true" />
    <inkscape:path-effect
       is_visible="true"
       id="path-effect4200-3"
       effect="spiro" />
  </defs>
  <sodipodi:namedview
     pagecolor="#000000"
     bordercolor="#666666"
     borderopacity="1"
     objecttolerance="10"
     gridtolerance="10"
     guidetolerance="10"
     inkscape:pageopacity="0"
     inkscape:pageshadow="2"
     inkscape:window-width="1366"
     inkscape:window-height="741"
     id="namedview6"
     showgrid="true"
     inkscape:zoom="13.906434"
     inkscape:cx="-1.5658828"
     inkscape:cy="10.505688"
     inkscape:window-x="0"
     inkscape:window-y="27"
     inkscape:window-maximized="1"
     inkscape:current-layer="svg2"
     showguides="true"
     inkscape:guide-bbox="true">
    <inkscape:grid
       type="xygrid"
       id="grid4840" />
    <sodipodi:guide
       position="9,23"
       orientation="1,0"
       id="guide953"
       inkscape:locked="false" />
  </sodipodi:namedview>
  <path
     style="fill:#ffffff"
     d="M 10 2.5 C 8.89 2.5 8 3.39 8 4.5 L 8 6.5 L 2 6.5 L 2 19.5 C 2 20.61 2.89 21.5 4 21.5 L 20 21.5 C 21.11 21.5 22 20.61 22 19.5 L 22 6.5 L 16 6.5 L 16 4.5 C 16 3.39 15.11 2.5 14 2.5 L 10 2.5 z M 10 4.5 L 14 4.5 L 14 6.5 L 10 6.5 L 10 4.5 z M 4 8 L 6 8 L 18 8 L 20 8 L 20 10 L 20 18 L 20 20 L 18 20 L 6 20 L 4 20 L 4 18 L 4 10 L 4 8 z "
     id="path6" />
  <path
     style="color:#000000;clip-rule:nonzero;display:inline;overflow:visible;visibility:visible;opacity:1;isolation:auto;mix-blend-mode:normal;color-interpolation:sRGB;color-interpolation-filters:linearRGB;solid-color:#000000;solid-opacity:1;fill:#ffffff;fill-opacity:1;fill-rule:nonzero;stroke:none;stroke-width:1;stroke-linecap:butt;stroke-linejoin:miter;stroke-miterlimit:4;stroke-dasharray:none;stroke-dashoffset:0;stroke-opacity:1;color-rendering:auto;image-rendering:auto;shape-rendering:auto;text-rendering:auto;enable-background:accumulate"
     d="m 9.0275444,9.5 v 9 l 7.5000026,-5 z"
     id="rect832"
     inkscape:connector-curvature="0" />
</svg>
