<?xml version="1.0" encoding="UTF-8" standalone="no"?>
<!-- Created with Inkscape (http://www.inkscape.org/) -->

<svg
   xmlns:dc="http://purl.org/dc/elements/1.1/"
   xmlns:cc="http://creativecommons.org/ns#"
   xmlns:rdf="http://www.w3.org/1999/02/22-rdf-syntax-ns#"
   xmlns:svg="http://www.w3.org/2000/svg"
   xmlns="http://www.w3.org/2000/svg"
   xmlns:sodipodi="http://sodipodi.sourceforge.net/DTD/sodipodi-0.dtd"
   xmlns:inkscape="http://www.inkscape.org/namespaces/inkscape"
   id="svg2"
   version="1.1"
   inkscape:version="0.48.4 r9939"
   width="32"
   height="32"
   sodipodi:docname="tag_med.svg"
   inkscape:export-filename="/home/petr/project/android-git/Sleep-actionbar2/res/drawable-xhdpi/tag_med.png"
   inkscape:export-xdpi="135"
   inkscape:export-ydpi="135">
  <metadata
     id="metadata8">
    <rdf:RDF>
      <cc:Work
         rdf:about="">
        <dc:format>image/svg+xml</dc:format>
        <dc:type
           rdf:resource="http://purl.org/dc/dcmitype/StillImage" />
        <dc:title></dc:title>
      </cc:Work>
    </rdf:RDF>
  </metadata>
  <defs
     id="defs6" />
  <sodipodi:namedview
     pagecolor="#ffffff"
     bordercolor="#666666"
     borderopacity="1"
     objecttolerance="10"
     gridtolerance="10"
     guidetolerance="10"
     inkscape:pageopacity="0"
     inkscape:pageshadow="2"
     inkscape:window-width="1317"
     inkscape:window-height="744"
     id="namedview4"
     showgrid="false"
     inkscape:zoom="9.1512545"
     inkscape:cx="32.972998"
     inkscape:cy="14.413131"
     inkscape:window-x="49"
     inkscape:window-y="24"
     inkscape:window-maximized="1"
     inkscape:current-layer="svg2" />
  <path
     sodipodi:type="inkscape:offset"
     inkscape:radius="0.52429247"
     inkscape:original="M 24.1875 0.75 C 22.339288 0.74693583 20.495141 1.5034472 19.03125 3.03125 C 15.268317 6.958465 16.968537 13.453498 22.1875 15.125 C 22.649301 15.272924 23.792531 15.35889 24.75 15.3125 C 30.773277 15.020808 33.7208 7.345799 29.4375 3.0625 C 27.904727 1.5297339 26.035712 0.75306417 24.1875 0.75 z M 20.03125 3.46875 C 20.749517 3.46875 29.149849 11.867774 28.875 12.3125 C 28.759215 12.499836 28.484534 12.65625 28.28125 12.65625 C 27.792847 12.65625 19.5 4.333605 19.5 3.84375 C 19.5 3.634948 19.733611 3.46875 20.03125 3.46875 z M 8.78125 7.0625 C 4.4341942 7.091444 1.1683742 11.639488 3.21875 15.875 C 4.1256459 17.748402 16.568661 30.004916 17.96875 30.40625 C 19.392908 30.814466 20.366613 30.829647 21.625 30.46875 C 25.394767 29.387586 27.319501 25.169429 25.59375 21.78125 C 25.205288 21.018584 22.341886 17.89922 18.59375 14.15625 C 12.91846 8.4887706 12.058189 7.750798 10.6875 7.34375 C 10.034315 7.149775 9.402258 7.0583651 8.78125 7.0625 z M 8.65625 8.6875 C 10.519517 8.6875 11.25737 9.1312276 14.375 12.28125 L 17.09375 15.03125 L 14.125 17.96875 C 12.500732 19.579867 11.000812 21.036527 10.78125 21.21875 C 10.475182 21.472764 9.756638 20.9263 7.71875 18.84375 C 5.2168802 16.287044 4.15249 14.637642 4.15625 13.375 C 4.1642803 10.810189 6.1981558 8.6875 8.65625 8.6875 z "
     style="fill:#323232;fill-opacity:1"
     id="path9835"
     d="M 24.1875,0.21875 C 22.195641,0.21544768 20.212503,1.0320525 18.65625,2.65625 15.661059,5.7822049 15.933373,10.45945 18.5625,13.375 16.094485,10.914783 14.414843,9.2706014 13.375,8.375 12.25225,7.4079926 11.583289,7.0633679 10.84375,6.84375 10.145174,6.6362952 9.4560723,6.5267568 8.78125,6.53125 4.0702779,6.5626171 0.54035298,11.529227 2.75,16.09375 c 0.1669538,0.344881 0.4669888,0.723404 0.90625,1.25 0.4392612,0.526596 0.9942903,1.192566 1.65625,1.90625 1.3239193,1.427368 3.0146372,3.133783 4.71875,4.8125 1.704113,1.678717 3.425368,3.31919 4.8125,4.5625 0.693566,0.621655 1.322351,1.142833 1.8125,1.53125 0.245075,0.194209 0.437872,0.343892 0.625,0.46875 0.187128,0.124858 0.323304,0.221643 0.53125,0.28125 1.481696,0.424709 2.637725,0.444229 3.96875,0.0625 4.071682,-1.167753 6.158428,-5.752022 4.28125,-9.4375 -0.149741,-0.293987 -0.391052,-0.594046 -0.78125,-1.0625 -0.390198,-0.468454 -0.911064,-1.074421 -1.53125,-1.75 -1.240372,-1.351157 -2.902889,-3.061727 -4.78125,-4.9375 -0.112881,-0.112725 -0.109636,-0.109883 -0.21875,-0.21875 0.871659,0.902599 1.96013,1.639379 3.28125,2.0625 0.644998,0.206605 1.741109,0.267631 2.75,0.21875 C 31.240088,15.530965 34.402269,7.2772683 29.8125,2.6875 28.191659,1.0666661 26.182007,0.22205671 24.1875,0.21875 z m -3.25,4.5625 c 0.163541,0.140487 0.280749,0.2373602 0.46875,0.40625 0.873227,0.7844609 1.989897,1.8337286 3.0625,2.90625 1.072603,1.0725214 2.09439,2.162065 2.84375,3 0.159634,0.178503 0.244859,0.284647 0.375,0.4375 -0.200907,-0.178102 -0.372087,-0.326993 -0.625,-0.5625 C 26.224094,10.188046 25.157354,9.1299064 24.09375,8.0625 23.030146,6.9950936 21.965422,5.9038861 21.1875,5.0625 21.082486,4.9489192 21.031984,4.8853641 20.9375,4.78125 z M 8.65625,9.21875 c 0.8900143,0 1.395983,0.075377 2.125,0.53125 0.729017,0.455873 1.665824,1.337189 3.21875,2.90625 l 2.34375,2.375 -2.59375,2.5625 c -0.810936,0.80437 -1.583743,1.569571 -2.1875,2.15625 -0.543185,0.52782 -0.892924,0.870808 -1,0.96875 C 10.500025,20.690053 10.401051,20.640857 10.21875,20.5 9.7918536,20.170154 9.1071833,19.504393 8.09375,18.46875 5.6187266,15.939479 4.6846215,14.341639 4.6875,13.375 4.6946653,11.086453 6.4999912,9.21875 8.65625,9.21875 z"
     transform="translate(-0.87419704,0.21854926)" />
  <path
     style="fill:#ffffff"
     d="M 17.085854,30.624126 C 15.685765,30.222792 3.2568505,17.967645 2.3499546,16.094243 0.00666776,11.253658 4.5960057,6.0168958 9.8214858,7.5686958 11.192174,7.9757438 12.02961,8.6977178 17.7049,14.365198 c 3.748136,3.74297 6.619466,6.870465 7.007928,7.633131 1.725751,3.388179 -0.20466,7.609093 -3.974427,8.690257 -1.258387,0.360897 -2.228389,0.343776 -3.652547,-0.06444 z M 13.266131,18.179064 16.219335,15.249762 13.506483,12.508729 C 10.388853,9.3587058 9.6492866,8.8909938 7.7860212,8.8909938 c -2.4580942,0 -4.5014557,2.1251242 -4.509486,4.6899352 -0.00376,1.262642 1.0780882,2.917084 3.579958,5.47379 2.037888,2.08255 2.7511534,2.638978 3.0572202,2.384964 0.2195616,-0.182223 1.7281496,-1.649502 3.3524176,-3.260619 z m 8.042811,-2.825961 C 16.089979,13.681601 14.400581,7.1855428 18.163514,3.2583278 c 2.927783,-3.05560561 7.323965,-3.04831221 10.389511,0.01722 4.2833,4.283299 1.35969,11.9704632 -4.663587,12.2621552 -0.957469,0.04639 -2.118695,-0.03669 -2.580496,-0.184614 z m 6.6914,-2.813148 c 0.274849,-0.444726 -8.121565,-8.8660972 -8.839832,-8.8660972 -0.297639,0 -0.541165,0.170839 -0.541165,0.379641 0,0.489855 8.312473,8.8270662 8.800876,8.8270662 0.203284,0 0.464336,-0.153274 0.580121,-0.34061 z"
     id="path3054"
     inkscape:connector-curvature="0"
     sodipodi:nodetypes="csssssccscsscssscssccccsssc" />
</svg>
