<?xml version="1.0" encoding="UTF-8" standalone="no"?>
<!-- Created with Inkscape (http://www.inkscape.org/) -->

<svg
   xmlns:dc="http://purl.org/dc/elements/1.1/"
   xmlns:cc="http://creativecommons.org/ns#"
   xmlns:rdf="http://www.w3.org/1999/02/22-rdf-syntax-ns#"
   xmlns:svg="http://www.w3.org/2000/svg"
   xmlns="http://www.w3.org/2000/svg"
   xmlns:sodipodi="http://sodipodi.sourceforge.net/DTD/sodipodi-0.dtd"
   xmlns:inkscape="http://www.inkscape.org/namespaces/inkscape"
   width="32"
   height="32"
   id="svg2995"
   version="1.1"
   inkscape:version="0.48.4 r9939"
   sodipodi:docname="tag_coffein.svg"
   inkscape:export-filename="/home/petr/project/android-git/Sleep-actionbar2/res/drawable-xhdpi/tag_caffeine.png"
   inkscape:export-xdpi="135"
   inkscape:export-ydpi="135">
  <defs
     id="defs2997" />
  <sodipodi:namedview
     id="base"
     pagecolor="#000000"
     bordercolor="#666666"
     borderopacity="1.0"
     inkscape:pageopacity="0"
     inkscape:pageshadow="2"
     inkscape:zoom="11.2"
     inkscape:cx="16.896148"
     inkscape:cy="17.093877"
     inkscape:document-units="px"
     inkscape:current-layer="layer1"
     showgrid="false"
     inkscape:window-width="1317"
     inkscape:window-height="744"
     inkscape:window-x="49"
     inkscape:window-y="24"
     inkscape:window-maximized="1" />
  <metadata
     id="metadata3000">
    <rdf:RDF>
      <cc:Work
         rdf:about="">
        <dc:format>image/svg+xml</dc:format>
        <dc:type
           rdf:resource="http://purl.org/dc/dcmitype/StillImage" />
        <dc:title></dc:title>
      </cc:Work>
    </rdf:RDF>
  </metadata>
  <g
     inkscape:label="Layer 1"
     inkscape:groupmode="layer"
     id="layer1"
     transform="translate(0,-1020.3622)">
    <path
       sodipodi:type="inkscape:offset"
       inkscape:radius="0.19768979"
       inkscape:original="M 13.53125 1023.0312 C 12.845501 1023.0422 12.069472 1023.3995 11.40625 1024.0625 C 10.563108 1024.9057 10.193501 1025.8973 10.4375 1026.8438 C 10.680616 1027.7867 11.458047 1028.6059 12.65625 1029.3125 C 13.246386 1029.6609 13.711034 1029.9505 14 1030.1875 C 14.287489 1030.4233 14.417775 1030.6219 14.4375 1030.6875 C 14.448798 1030.725 14.441798 1030.7362 14.4375 1030.75 C 14.433202 1030.7638 14.406905 1030.8049 14.34375 1030.875 C 14.235559 1030.995 13.968441 1031.1578 13.5625 1031.375 C 13.168462 1031.5858 12.837792 1031.8927 12.625 1032.1875 C 12.517604 1032.3364 12.440402 1032.4927 12.40625 1032.6562 C 12.373399 1032.8134 12.356215 1033.0484 12.5 1033.2812 C 12.656517 1033.5346 12.854176 1033.7116 13.09375 1033.8438 L 4.59375 1034 L 4.5625 1034 C 4.564553 1034.0002 4.5291925 1033.9999 4.53125 1034 C 4.5333075 1033.9999 4.497947 1034.0002 4.5 1034 C 4.5020575 1033.9999 4.466697 1034.0002 4.46875 1034 A 0.34241905 0.34241905 0 0 0 4.3125 1034.0625 C 4.3148802 1034.0608 4.2789425 1034.0643 4.28125 1034.0625 C 4.2835575 1034.0607 4.2790192 1034.0956 4.28125 1034.0938 C 4.2834808 1034.0918 4.2478497 1034.0956 4.25 1034.0938 C 4.2521503 1034.0917 4.2479341 1034.1271 4.25 1034.125 C 4.2522308 1034.1231 4.2165997 1034.127 4.21875 1034.125 C 4.2209003 1034.123 4.2166841 1034.1584 4.21875 1034.1562 C 4.2206366 1034.1541 4.1857081 1034.1586 4.1875 1034.1562 C 4.1892919 1034.154 4.1858059 1034.1899 4.1875 1034.1875 C 4.1893866 1034.1853 4.1544581 1034.1898 4.15625 1034.1875 C 4.1580419 1034.1852 4.1545559 1034.221 4.15625 1034.2188 A 0.34241905 0.34241905 0 0 0 4.09375 1034.375 C 4.0939327 1034.3729 4.0936281 1034.4084 4.09375 1034.4062 C 4.09375 1034.4043 4.093811 1034.4396 4.09375 1034.4375 C 4.093811 1034.4354 4.09375 1034.4707 4.09375 1034.4688 C 4.0936281 1034.4666 4.0939327 1034.5021 4.09375 1034.5 L 3.9375 1040.5938 C 3.8530501 1043.6382 3.7779934 1045.1478 4 1046.25 C 4.2225123 1047.3547 4.7778561 1047.9653 5.65625 1048.8438 C 6.5221801 1049.7093 7.1539288 1050.255 8.25 1050.5 C 9.3441173 1050.7449 10.839591 1050.7188 13.78125 1050.7188 C 16.586668 1050.7188 18.135527 1050.7045 19.21875 1050.5 C 20.303903 1050.2954 20.924137 1049.8573 21.625 1049.1562 C 22.067454 1048.714 22.440079 1048.1705 22.71875 1047.6562 C 22.997479 1047.1421 23.1875 1046.6549 23.1875 1046.1875 C 23.1875 1045.9983 23.202073 1045.8588 23.21875 1045.8125 C 23.235486 1045.766 23.203478 1045.8075 23.25 1045.7812 C 23.260101 1045.7756 23.56699 1045.7118 24.09375 1045.8125 C 25.266909 1046.0365 26.507442 1045.3899 27.46875 1044.4688 C 28.429925 1043.5473 29.15625 1042.2989 29.15625 1041.0312 C 29.15625 1039.8537 28.49041 1038.6532 27.5625 1037.7188 C 26.634641 1036.7838 25.428787 1036.0938 24.25 1036.0938 C 23.736826 1036.0938 23.479504 1035.9895 23.375 1035.9062 C 23.26226 1035.8166 23.1875 1035.7128 23.1875 1035.3438 C 23.1875 1035.0341 23.183573 1034.6208 22.875 1034.3125 C 22.583979 1034.0218 22.152027 1033.9138 21.53125 1033.8438 C 20.898608 1033.7722 20.043643 1033.7794 18.78125 1033.7812 C 17.700561 1033.7831 16.15117 1033.8145 14.40625 1033.8438 C 14.902762 1033.6313 15.391209 1033.2651 15.96875 1032.6875 C 16.354578 1032.3017 16.651861 1031.8219 16.84375 1031.375 C 17.034981 1030.9297 17.136271 1030.468 16.96875 1030.0312 C 16.882137 1029.8057 16.809623 1029.5409 16.75 1029.3125 C 16.690377 1029.0841 16.65625 1028.869 16.65625 1028.8438 C 16.65625 1028.616 16.548481 1028.394 16.40625 1028.25 C 16.277064 1028.1192 16.117879 1028.0209 15.9375 1027.9062 C 15.56398 1027.6691 15.078428 1027.4608 14.5625 1027.2812 C 13.767278 1027.004 13.218459 1026.4015 13.09375 1026.0625 C 13.029982 1025.8892 13.067132 1025.8488 13.09375 1025.8125 C 13.111887 1025.7878 13.193575 1025.7188 13.5 1025.7188 C 14.253742 1025.7188 14.875 1025.0972 14.875 1024.3438 C 14.875 1023.9559 14.744913 1023.5914 14.46875 1023.3438 C 14.196248 1023.0991 13.859984 1023.026 13.53125 1023.0312 z M 6.53125 1036.4375 L 13.5 1036.4375 L 20.46875 1036.4375 L 20.46875 1041.5938 C 20.46875 1044.0679 20.398627 1045.4805 20.25 1046.2812 C 20.175181 1046.6843 20.099082 1046.9157 20 1047.0625 C 19.900918 1047.2093 19.783715 1047.2879 19.5625 1047.4062 C 19.242468 1047.5774 18.317622 1047.8066 17.21875 1047.9062 C 16.115207 1048.0064 14.791318 1048.0333 13.46875 1048 C 12.145722 1047.9664 10.842343 1047.8729 9.78125 1047.7188 C 9.2507812 1047.6416 8.7490266 1047.5393 8.375 1047.4375 C 8.0009734 1047.3357 7.726459 1047.2274 7.625 1047.1562 C 7.0633871 1046.763 6.9121315 1046.5897 6.75 1045.8125 C 6.5897226 1045.0442 6.53125 1043.6901 6.53125 1041.2812 L 6.53125 1036.4375 z M 24.09375 1038.8125 C 25.24293 1038.8125 25.987185 1039.3671 26.28125 1040.0625 C 26.575135 1040.7575 26.437045 1041.6256 25.625 1042.4375 C 25.229415 1042.8331 24.278474 1043.25 23.875 1043.25 C 23.674906 1043.2498 23.552751 1043.2137 23.5 1043.1875 C 23.462773 1043.169 23.435044 1043.1706 23.375 1043.0312 C 23.271747 1042.7921 23.1875 1042.1384 23.1875 1041.0312 C 23.1875 1039.8453 23.285189 1039.1753 23.375 1039 C 23.422206 1038.9077 23.407075 1038.918 23.53125 1038.875 C 23.643512 1038.8361 23.821266 1038.8125 24.09375 1038.8125 z "
       style="fill:#323232;fill-opacity:1"
       id="path8692"
       d="m 13.53125,1022.8438 c -0.752,0.012 -1.557363,0.4013 -2.25,1.0937 -0.877511,0.8776 -1.2956272,1.9432 -1.03125,2.9687 0.261644,1.0148 1.088938,1.841 2.3125,2.5626 0.587956,0.3471 1.042822,0.6538 1.3125,0.875 0.134025,0.1099 0.219551,0.2053 0.28125,0.2812 0.04442,0.055 0.05373,0.08 0.0625,0.094 -0.0092,0.011 -0.01732,0.016 -0.03125,0.031 -0.05937,0.066 -0.317233,0.2227 -0.71875,0.4375 -0.423846,0.2267 -0.768433,0.5542 -1,0.875 -0.119498,0.1657 -0.208812,0.3653 -0.25,0.5625 -0.0381,0.1823 -0.05374,0.4606 0.125,0.75 0.06612,0.107 0.138026,0.1955 0.21875,0.2812 l -7.96875,0.1563 -0.03125,0 a 0.19770956,0.19770956 0 0 0 -0.03125,0 c -0.00329,0 -0.027186,0 -0.03125,0 -0.00329,0 -0.027186,0 -0.03125,0 a 0.19770956,0.19770956 0 0 0 -0.03125,0 c -0.00148,2e-4 -0.029781,-3e-4 -0.03125,0 -0.00146,3e-4 -0.029802,-4e-4 -0.03125,0 -0.00144,4e-4 -0.029828,-5e-4 -0.03125,0 -0.00142,5e-4 0.00141,0.031 0,0.031 -0.00141,5e-4 -0.02986,-6e-4 -0.03125,0 -0.00137,5e-4 -0.029897,-7e-4 -0.03125,0 -6.662e-4,3e-4 0.00337,0.029 0,0.031 -0.00337,0 -0.030595,-4e-4 -0.03125,0 -0.00129,8e-4 -0.029987,-8e-4 -0.03125,0 -0.00126,8e-4 0.00124,0.03 0,0.031 -0.00124,9e-4 -0.030039,-8e-4 -0.03125,0 a 0.19770956,0.19770956 0 0 0 -0.03125,0.031 0.19770956,0.19770956 0 0 0 -0.03125,0.094 0.19770956,0.19770956 0 0 0 0,0.031 0.19770956,0.19770956 0 0 0 0,0.062 c -0.013084,0 -0.022049,-0 -0.03125,0 0.00613,-0 0.023199,0.033 0.03125,0.031 -0.00199,-0 -0.029257,0.01 -0.03125,0 l -0.03125,0 0,-0.031 -0.03125,0 -0.03125,0 c -8.424e-4,0 -0.030446,-0 -0.03125,0 -8.036e-4,0 7.641e-4,0.03 0,0.031 -3.619e-4,7e-4 0.00179,0.028 0,0.031 -0.00179,0 -0.030909,-7e-4 -0.03125,0 -6.411e-4,0 5.989e-4,0.03 0,0.031 -5.56e-4,0 5.127e-4,0.03 0,0.031 -5.127e-4,0 -0.030781,-0 -0.03125,0 -4.688e-4,0 4.245e-4,0.03 0,0.031 -3.797e-4,0 3.347e-4,0.03 0,0.031 -2.892e-4,0 2.435e-4,0.03 0,0.031 l 0.0625,0 a 0.19770956,0.19770956 0 0 0 -0.03125,0.031 c -0.00914,5e-4 -0.031251,0 -0.03125,0 a 0.19770956,0.19770956 0 0 0 0,0.031 c 2.3e-6,1e-4 0,0.031 0,0.031 -3.8e-6,0 4.7e-6,0.028 0,0.031 a 0.19770956,0.19770956 0 0 0 0,0.031 L 3.75,1040.5938 c -0.08441,3.0429 -0.1681088,4.5425 0.0625,5.6874 0.2323002,1.1533 0.837429,1.8061 1.71875,2.6876 0.870547,0.8701 1.5462226,1.4636 2.6875,1.7187 1.1345091,0.2539 2.62201,0.2187 5.5625,0.2187 2.80609,0 4.353422,-0.01 5.46875,-0.2187 1.122167,-0.2116 1.78702,-0.693 2.5,-1.4063 0.460487,-0.4602 0.870205,-1.0033 1.15625,-1.5312 0.285728,-0.527 0.46875,-1.0415 0.46875,-1.5625 0,-0.09 0.02619,-0.1619 0.03125,-0.2187 0.02428,-0 0.03,9e-4 0.0625,0 0.129999,-0 0.344887,-0.016 0.59375,0.031 1.267218,0.242 2.541968,-0.4271 3.53125,-1.375 0.989647,-0.9488 1.75,-2.2505 1.75,-3.5938 0,-1.252 -0.702003,-2.4765 -1.65625,-3.4374 -0.953928,-0.9613 -2.181568,-1.6876 -3.4375,-1.6876 -0.486388,0 -0.706288,-0.1214 -0.75,-0.1562 -0.04392,-0.035 -0.04369,-0.046 -0.0625,-0.094 -0.01881,-0.048 -0.0625,-0.1413 -0.0625,-0.3124 0,-0.3114 -0.0045,-0.7862 -0.375,-1.1563 -0.342899,-0.3425 -0.804371,-0.4599 -1.4375,-0.5313 -0.65389,-0.074 -1.519481,-0.064 -2.78125,-0.062 -0.906106,0 -2.257964,0.038 -3.65625,0.062 0.315537,-0.2155 0.618001,-0.4929 0.96875,-0.8437 0.407875,-0.4078 0.736645,-0.9072 0.9375,-1.375 0.200794,-0.4676 0.31874,-0.9636 0.125,-1.4687 -0.08128,-0.2117 -0.159589,-0.4922 -0.21875,-0.7188 -0.02831,-0.1084 -0.04726,-0.1997 -0.0625,-0.2812 -0.0076,-0.041 -0.02756,-0.069 -0.03125,-0.094 -0.0037,-0.024 0,-0.07 0,-0.031 0,-0.2902 -0.102719,-0.538 -0.28125,-0.7188 -0.151443,-0.1533 -0.352154,-0.2611 -0.53125,-0.375 -0.394735,-0.2506 -0.881871,-0.4737 -1.40625,-0.6562 -0.368922,-0.1286 -0.671877,-0.3197 -0.90625,-0.5313 -0.234373,-0.2116 -0.394486,-0.4456 -0.4375,-0.5625 -0.01811,-0.049 -0.03029,-0.055 -0.03125,-0.062 -0.04551,0.062 -0.02675,-0.031 0.25,-0.031 0.86243,0 1.5625,-0.7004 1.5625,-1.5624 0,-0.4321 -0.143761,-0.8649 -0.46875,-1.1563 -0.318093,-0.2856 -0.702339,-0.3494 -1.0625,-0.3437 z m -9.21875,11.0624 c 0.012492,0 0.031286,1e-4 0.03125,0 0,0 -0.025565,0.02 -0.03125,0.031 0.00202,-0.01 2.13e-5,-0.031 0,-0.031 z m -0.0625,0.063 c -1.39e-4,-1e-4 0.031328,0.031 0.03125,0.031 -0.0059,0.012 0.00526,0.021 0,0.031 0.00449,0 -0.0045,0.028 0,0.031 l 0,0.031 0.03125,0 c 0.00305,-0 -0.00487,-0.027 0,-0.031 0.00609,-0.01 0.023253,0.01 0.03125,0 0,0 0.026838,-0.01 0.03125,0 a 0.19770956,0.19770956 0 0 0 0,0.031 c 0,0 -0.00279,0.018 0,0.031 -0.00552,-0.01 -0.026211,0.01 -0.03125,0 l 0,0.031 0.03125,0 0,0.031 c -0.00579,-0.01 -0.024911,0.01 -0.03125,0 0.00529,0 -0.00369,0.029 0,0.031 0.00169,-0 0.029772,0 0.03125,0 0,0 0,0.031 0,0.031 -0.00169,0 -0.029772,-0 -0.03125,0 0.00491,0 -0.00307,0.028 0,0.031 -0.00179,0 -0.029685,-0 -0.03125,0 -0.00381,-0 -0.024721,0.01 -0.03125,0 -0.00583,-0.01 -0.024868,0.01 -0.03125,0 0,0 0.03125,-0.031 0.03125,-0.031 -0.00816,-0.01 -0.022544,0.01 -0.03125,0 z m 0.03125,0.2812 c -0.00542,-0.01 0.00607,-0.02 0,-0.031 -0.0092,-0.01 -0.022045,0.01 -0.03125,0 -0.00736,-0.01 0.00672,-0.026 0,-0.031 0.00538,-0.014 -0.0049,-0.019 0,-0.031 0.00359,-0 0,-0.031 0,-0.031 -0.00636,0.01 -0.02544,-0.01 -0.03125,0 0,0 -0.00372,0.025 0,0.031 -0.00606,0.01 -0.023297,-0.01 -0.03125,0 0.00204,-0.01 -0.0033,-0.017 0,-0.031 5.506e-4,-0 0.030677,0 0.03125,0 0.00344,-0.014 -0.00377,-0.016 0,-0.031 0.011299,-0.047 6.64e-5,-0.094 0,-0.094 -1.39e-4,0 0.031328,0.031 0.03125,0.031 0.00612,-0.027 4.43e-5,-0.062 0,-0.062 z M 4.25,1034.125 c 0.00872,-0.01 0.023077,0.01 0.03125,0 0,0 -0.03125,-0.031 -0.03125,-0.031 0,0 -5.293e-4,0.022 0,0.031 z m 0.0625,0 c 0.00243,0.01 -0.034443,0.024 -0.03125,0.031 0.011577,0.01 0.019037,-0.01 0.03125,0 -0.00509,-0.01 0.00367,-0.024 0,-0.031 z m 2.40625,2.5 6.78125,0 6.78125,0 0,4.9688 c 0,2.4703 -0.0757,3.8856 -0.21875,4.6562 -0.07291,0.3928 -0.147302,0.5816 -0.21875,0.6875 -0.07695,0.114 -0.16029,0.1664 -0.375,0.2813 -0.122531,0.065 -0.444373,0.1921 -0.84375,0.2812 -0.399377,0.089 -0.896675,0.1697 -1.4375,0.2188 -1.092536,0.099 -2.402179,0.1268 -3.71875,0.094 -1.317017,-0.033 -2.606687,-0.1288 -3.65625,-0.2813 -0.5234197,-0.076 -1.0118196,-0.1824 -1.375,-0.2812 -0.3633956,-0.099 -0.6461302,-0.221 -0.6875,-0.25 -0.5529179,-0.3871 -0.6541882,-0.4599 -0.8125,-1.2188 -0.1527573,-0.7322 -0.21875,-2.0942 -0.21875,-4.5 l 0,-4.6562 z m 17.375,2.375 c 1.085576,0 1.737853,0.5051 2,1.125 0.262235,0.6202 0.176394,1.4175 -0.59375,2.1875 -0.16634,0.1663 -0.520818,0.353 -0.84375,0.5 -0.322932,0.147 -0.647602,0.25 -0.78125,0.25 -0.176397,-2e-4 -0.2726,-0.058 -0.28125,-0.062 -0.0025,-0 -0.01337,-0.021 -0.03125,-0.062 -0.03339,-0.077 -0.09199,-0.2714 -0.125,-0.5937 -0.03301,-0.3224 -0.0625,-0.764 -0.0625,-1.3126 0,-0.5875 0.02785,-1.0467 0.0625,-1.375 0.03465,-0.3282 0.113435,-0.5399 0.125,-0.5624 0.02614,-0.051 0.03118,-0.057 0,-0.031 -0.03118,0.025 -0.0331,0.022 0.03125,0 0.07464,-0.026 0.238931,-0.062 0.5,-0.062 z"
       transform="translate(0.26785713,-0.35714284)" />
    <path
       sodipodi:type="inkscape:offset"
       inkscape:radius="0"
       inkscape:original="M 13.53125 1023.5 C 13.020238 1023.5082 12.342966 1023.8133 11.75 1024.4062 C 10.215131 1025.9412 10.638625 1027.5684 12.90625 1028.9062 C 15.299486 1030.3184 15.475428 1030.9058 13.78125 1031.8125 C 13.117079 1032.1679 12.713995 1032.7202 12.90625 1033.0312 C 13.449228 1033.9099 14.277639 1033.6912 15.625 1032.3438 C 16.305319 1031.6635 16.720319 1030.7115 16.53125 1030.2188 C 16.342175 1029.7261 16.1875 1029.1125 16.1875 1028.8438 C 16.1875 1028.575 15.388752 1028.0612 14.40625 1027.7188 C 12.573754 1027.0799 11.89841 1025.25 13.5 1025.25 C 13.991251 1025.25 14.40625 1024.835 14.40625 1024.3438 C 14.40625 1023.7601 14.042262 1023.4918 13.53125 1023.5 z M 13.65625 1034.3125 L 4.5625 1034.4688 L 4.40625 1040.5938 C 4.2372836 1046.6857 4.2487302 1046.7488 6 1048.5 C 7.7198656 1050.2197 7.8968349 1050.25 13.78125 1050.25 C 19.386795 1050.25 19.921981 1050.1717 21.28125 1048.8125 C 22.085115 1048.0086 22.71875 1046.812 22.71875 1046.1875 C 22.71875 1045.3049 23.057945 1045.1279 24.1875 1045.3438 C 26.058742 1045.7015 28.6875 1043.182 28.6875 1041.0312 C 28.6875 1039.0572 26.212132 1036.5625 24.25 1036.5625 C 23.124774 1036.5625 22.71875 1036.2395 22.71875 1035.3438 C 22.71875 1034.1778 22.432976 1034.1536 13.65625 1034.3125 z M 6.0625 1035.9688 L 13.5 1035.9688 L 20.9375 1035.9688 L 20.9375 1041.5938 C 20.9375 1046.5564 20.795423 1047.3011 19.78125 1047.8438 C 17.911526 1048.8445 8.9258158 1048.6174 7.375 1047.5312 C 6.1751813 1046.6908 6.0625 1046.1092 6.0625 1041.2812 L 6.0625 1035.9688 z M 24.09375 1038.3438 C 26.711217 1038.3438 27.810541 1040.9395 25.96875 1042.7812 C 25.45411 1043.2958 24.506612 1043.7188 23.875 1043.7188 C 22.910928 1043.7187 22.71875 1043.2809 22.71875 1041.0312 C 22.71875 1038.6323 22.867553 1038.3438 24.09375 1038.3438 z "
       style="fill:#ffffff"
       id="path3023"
       d="m 13.53125,1023.5 c -0.511012,0.01 -1.188284,0.3133 -1.78125,0.9062 -1.534869,1.535 -1.111375,3.1622 1.15625,4.5 2.393236,1.4122 2.569178,1.9996 0.875,2.9063 -0.664171,0.3554 -1.067255,0.9077 -0.875,1.2187 0.542978,0.8787 1.371389,0.66 2.71875,-0.6874 0.680319,-0.6803 1.095319,-1.6323 0.90625,-2.125 -0.189075,-0.4927 -0.34375,-1.1063 -0.34375,-1.375 0,-0.2688 -0.798748,-0.7826 -1.78125,-1.125 -1.832496,-0.6389 -2.50784,-2.4688 -0.90625,-2.4688 0.491251,0 0.90625,-0.415 0.90625,-0.9062 0,-0.5837 -0.363988,-0.852 -0.875,-0.8438 z m 0.125,10.8125 -9.09375,0.1563 -0.15625,6.125 c -0.1689664,6.0919 -0.1575198,6.155 1.59375,7.9062 1.7198656,1.7197 1.8968349,1.75 7.78125,1.75 5.605545,0 6.140731,-0.078 7.5,-1.4375 0.803865,-0.8039 1.4375,-2.0005 1.4375,-2.625 0,-0.8826 0.339195,-1.0596 1.46875,-0.8437 1.871242,0.3577 4.5,-2.1618 4.5,-4.3126 0,-1.974 -2.475368,-4.4687 -4.4375,-4.4687 -1.125226,0 -1.53125,-0.323 -1.53125,-1.2187 0,-1.166 -0.285774,-1.1902 -9.0625,-1.0313 z m -7.59375,1.6563 7.4375,0 7.4375,0 0,5.625 c 0,4.9626 -0.142077,5.7073 -1.15625,6.25 -1.869724,1.0007 -10.8554342,0.7736 -12.40625,-0.3126 -1.1998187,-0.8404 -1.3125,-1.422 -1.3125,-6.25 l 0,-5.3124 z m 18.03125,2.375 c 2.617467,0 3.716791,2.5957 1.875,4.4374 -0.51464,0.5146 -1.462138,0.9376 -2.09375,0.9376 -0.964072,-1e-4 -1.15625,-0.4379 -1.15625,-2.6876 0,-2.3989 0.148803,-2.6874 1.375,-2.6874 z"
       transform="translate(0.26785713,-0.35714284)" />
  </g>
</svg>
