<?xml version="1.0" encoding="UTF-8" standalone="no"?>
<!-- Created with Inkscape (http://www.inkscape.org/) -->

<svg
   xmlns:dc="http://purl.org/dc/elements/1.1/"
   xmlns:cc="http://creativecommons.org/ns#"
   xmlns:rdf="http://www.w3.org/1999/02/22-rdf-syntax-ns#"
   xmlns:svg="http://www.w3.org/2000/svg"
   xmlns="http://www.w3.org/2000/svg"
   xmlns:sodipodi="http://sodipodi.sourceforge.net/DTD/sodipodi-0.dtd"
   xmlns:inkscape="http://www.inkscape.org/namespaces/inkscape"
   width="32"
   height="32"
   id="svg2995"
   version="1.1"
   inkscape:version="0.48.4 r9939"
   sodipodi:docname="tag_food.svg"
   inkscape:export-filename="/home/petr/project/android-git/Sleep-actionbar2/res/drawable-xhdpi/tag_food.png"
   inkscape:export-xdpi="135"
   inkscape:export-ydpi="135">
  <defs
     id="defs2997" />
  <sodipodi:namedview
     id="base"
     pagecolor="#000000"
     bordercolor="#666666"
     borderopacity="1.0"
     inkscape:pageopacity="0"
     inkscape:pageshadow="2"
     inkscape:zoom="11.2"
     inkscape:cx="21.888901"
     inkscape:cy="9.294996"
     inkscape:document-units="px"
     inkscape:current-layer="layer1"
     showgrid="false"
     inkscape:window-width="1317"
     inkscape:window-height="744"
     inkscape:window-x="49"
     inkscape:window-y="24"
     inkscape:window-maximized="1" />
  <metadata
     id="metadata3000">
    <rdf:RDF>
      <cc:Work
         rdf:about="">
        <dc:format>image/svg+xml</dc:format>
        <dc:type
           rdf:resource="http://purl.org/dc/dcmitype/StillImage" />
        <dc:title></dc:title>
      </cc:Work>
    </rdf:RDF>
  </metadata>
  <g
     inkscape:label="Layer 1"
     inkscape:groupmode="layer"
     id="layer1"
     transform="translate(0,-1020.3622)">
    <path
       sodipodi:type="inkscape:offset"
       inkscape:radius="-0.41355953"
       inkscape:original="M 29.4375 1023.25 C 28.229781 1023.5531 27.193616 1023.8825 26.40625 1024.25 C 26.012567 1024.4337 25.705057 1024.6386 25.40625 1024.875 C 25.107443 1025.1114 24.6875 1025.4052 24.6875 1026.1562 C 24.6875 1026.0439 24.654422 1026.4192 24.59375 1026.7812 C 24.533078 1027.1435 24.431397 1027.593 24.34375 1028.0312 C 24.243524 1028.5327 24.2919 1028.952 24.34375 1029.375 C 23.207597 1029.3537 22.676038 1029.2812 20.78125 1029.2812 L 12.65625 1029.2812 A 1.1320859 1.1320859 0 0 0 11.53125 1030.5938 L 11.84375 1032.5312 C 12.015586 1033.5708 12.186068 1034.9526 12.1875 1035.2188 C 12.189048 1035.4646 12.352659 1035.6498 12.4375 1035.875 C 11.518487 1035.7828 10.572848 1035.5748 9.6875 1035.5938 C 7.1038027 1035.6488 4.7565108 1036.124 2.9375 1037 C 1.1184892 1037.876 -0.3125 1039.2881 -0.3125 1041.1562 C -0.3125 1041.6619 -0.27759014 1042.0937 -0.0625 1042.5312 C -0.020016727 1042.6178 0.089515933 1042.695 0.15625 1042.7812 C -0.062701472 1042.8742 -0.29848995 1042.983 -0.5 1043.2188 C -0.7302972 1043.4879 -0.84375 1043.8955 -0.84375 1044.1875 C -0.84375 1044.4794 -0.7302574 1044.887 -0.5 1045.1562 C -0.2697426 1045.4257 0.003876051 1045.5624 0.25 1045.6562 C 0.1989498 1045.698 0.12468068 1045.7307 0.09375 1045.7812 C -0.1761807 1046.2225 -0.2886124 1046.6669 -0.3125 1047.125 C -0.35021621 1047.8483 -0.12442648 1048.6036 0.3125 1049.2812 C 0.32512592 1049.3009 0.33059965 1049.3243 0.34375 1049.3438 A 1.1320859 1.1320859 0 0 0 0.40625 1049.5 A 1.1320859 1.1320859 0 0 0 0.625 1049.8438 A 1.1320859 1.1320859 0 0 0 0.625 1049.875 C 1.1246663 1050.3746 1.5127418 1050.3747 2 1050.4688 C 2.4872582 1050.5626 3.0823835 1050.6036 3.84375 1050.6562 C 5.3664829 1050.7619 7.5271035 1050.8125 10.46875 1050.8125 C 14.975698 1050.8125 17.411443 1050.7955 19.03125 1050.3438 C 19.289041 1050.2717 19.517261 1050.1498 19.75 1050.0312 C 20.140303 1050.6322 20.670449 1050.7805 21.21875 1050.9062 C 22.211734 1051.1343 23.364005 1051.0509 24.46875 1050.875 C 25.021122 1050.7871 25.539685 1050.6851 26 1050.5312 C 26.460315 1050.3775 26.863419 1050.3403 27.3125 1049.6562 C 27.46788 1049.4197 27.474165 1049.3636 27.5 1049.2812 C 27.525835 1049.199 27.541756 1049.1168 27.5625 1049.0312 C 27.603988 1048.8605 27.639383 1048.6534 27.6875 1048.4062 C 27.783733 1047.9122 27.902218 1047.2501 28.03125 1046.4688 C 28.289315 1044.906 28.604928 1042.8639 28.90625 1040.7812 C 29.207572 1038.6988 29.502962 1036.588 29.71875 1034.875 C 29.934538 1033.162 30.065654 1031.9958 30.0625 1031.3125 C 30.060822 1030.9351 29.831247 1030.1989 29.34375 1029.875 C 28.856253 1029.5511 28.375035 1029.5066 27.75 1029.4375 C 27.90487 1029.1349 28.105912 1028.8805 28.21875 1028.5 C 28.377054 1027.9662 28.526504 1027.7213 28.6875 1027.5625 C 28.848496 1027.4037 29.086623 1027.2771 29.625 1027.125 C 30.256096 1026.9467 30.794947 1026.6719 31.21875 1026.3438 C 31.642553 1026.0154 31.980151 1025.6644 32.125 1025.0625 C 32.197425 1024.7615 32.204828 1024.3526 32.03125 1024 C 31.857672 1023.6474 31.520631 1023.4082 31.21875 1023.2812 C 30.614989 1023.0274 30.069522 1023.0913 29.4375 1023.25 z M 15.65625 1033.0938 L 20.90625 1033.0938 L 26.125 1033.0938 L 26.0625 1033.4688 C 25.884131 1034.4794 25.36033 1038.0605 24.875 1041.5625 L 24.125 1047 L 22.9375 1047.0938 C 22.187066 1047.1497 21.58211 1047.3016 21.03125 1047.5312 C 21.015973 1047.3185 21.126061 1047.0821 21.09375 1046.875 C 21.021753 1046.4134 20.87597 1046.0237 20.625 1045.6562 C 20.871051 1045.5625 21.144696 1045.4256 21.375 1045.1562 C 21.605304 1044.8871 21.71875 1044.4795 21.71875 1044.1875 C 21.71875 1043.8956 21.605271 1043.488 21.375 1043.2188 C 21.22001 1043.0374 21.045494 1042.9637 20.875 1042.875 C 20.996465 1042.7349 21.155883 1042.624 21.21875 1042.4688 C 21.428653 1041.9499 21.421359 1041.4131 21.3125 1040.8438 C 21.076906 1039.6112 20.273513 1038.5572 19.1875 1037.7812 C 18.248933 1037.1109 16.996878 1036.6971 15.625 1036.3438 C 15.692522 1036.2156 15.846741 1036.1182 15.875 1036 C 16.039727 1035.3112 15.92009 1034.7682 15.78125 1033.9062 L 15.78125 1033.875 L 15.65625 1033.0938 z M 10.4375 1039.5938 C 12.742462 1039.5938 14.501345 1039.8348 15.65625 1040.2188 C 16.811155 1040.6025 17.277308 1041.0589 17.46875 1041.5625 C 17.599712 1041.9068 17.810925 1042.1388 18 1042.4062 C 16.427552 1042.3161 14.346522 1042.2812 10.4375 1042.2812 C 6.5607612 1042.2812 4.51128 1042.3178 2.9375 1042.4062 C 3.1107199 1042.1438 3.279069 1041.897 3.40625 1041.5625 C 3.5976927 1041.0589 4.0638452 1040.6026 5.21875 1040.2188 C 6.3736548 1039.8348 8.1325382 1039.5938 10.4375 1039.5938 z M 17.8125 1045.9688 C 17.684858 1046.2271 17.553959 1046.4801 17.5 1046.7812 C 17.513051 1046.7643 17.535402 1046.8009 17.1875 1046.8438 C 16.289186 1046.954 14.248875 1046.9688 10.40625 1046.9688 C 6.5633542 1046.9688 4.5291117 1046.9548 3.65625 1046.8438 C 3.3772204 1046.8081 3.4467523 1046.8087 3.4375 1046.8125 C 3.4071722 1046.5173 3.2922804 1046.2604 3.15625 1046 C 4.7334317 1046.0819 6.6740674 1046.0938 10.4375 1046.0938 C 14.249647 1046.0938 16.236534 1046.0534 17.8125 1045.9688 z "
       style="fill:#323232;fill-opacity:1"
       id="path12192"
       d="m 30.34375,1023.5312 c -0.242341,0 -0.511029,0.049 -0.8125,0.125 -1.193272,0.2995 -2.190316,0.6201 -2.9375,0.9688 -0.361679,0.1688 -0.655776,0.3396 -0.9375,0.5625 -0.315913,0.2499 -0.5625,0.3719 -0.5625,0.9687 a 0.41360088,0.41360088 0 0 1 0,0.094 c -0.0017,0.01 -0.02481,0.014 -0.03125,0.031 -0.0014,0.011 0.0017,0.018 0,0.031 -0.0066,0.014 0.004,0.024 0,0.031 -0.01587,0.1251 -0.03034,0.3081 -0.0625,0.5 -0.0639,0.3815 -0.16375,0.85 -0.25,1.2812 -0.08653,0.433 -0.05161,0.7664 0,1.1875 a 0.41360088,0.41360088 0 0 1 -0.40625,0.4687 c -1.15132,-0.021 -1.678261,-0.094 -3.5625,-0.094 l -8.125,0 c -0.02797,-2e-4 -0.0033,-0 -0.03125,0 -0.02794,0 -0.03467,-0 -0.0625,0 -0.02783,0 -0.0036,0.027 -0.03125,0.031 -0.02763,0 -0.0039,-0.01 -0.03125,0 -0.02736,0.01 -0.0043,-0.01 -0.03125,0 -0.027,0.01 -0.0047,-0.01 -0.03125,0 -0.02656,0.01 -0.03646,0.021 -0.0625,0.031 -0.02604,0.01 -0.0058,-0.012 -0.03125,0 -0.02545,0.012 -0.0065,0.018 -0.03125,0.031 -0.02479,0.013 -0.0072,-0.014 -0.03125,0 -0.02404,0.014 -0.008,0.016 -0.03125,0.031 -0.02323,0.016 -0.0089,0.014 -0.03125,0.031 -0.02235,0.017 -0.0098,0.013 -0.03125,0.031 -0.02141,0.018 -0.01085,-0.019 -0.03125,0 -0.0204,0.019 -0.01192,0.011 -0.03125,0.031 -0.01933,0.02 -0.01304,0.01 -0.03125,0.031 -0.01821,0.021 0.01703,0.01 0,0.031 -0.01703,0.022 -0.01545,0.01 -0.03125,0.031 -0.0158,0.023 -0.01673,0.01 -0.03125,0.031 -0.01452,0.024 -0.01805,0.01 -0.03125,0.031 -0.0132,0.025 0.01184,0.01 0,0.031 -0.01184,0.025 -0.0208,0.036 -0.03125,0.062 -0.01045,0.026 0.009,0 0,0.031 -0.009,0.026 0.0076,0 0,0.031 -0.0076,0.027 -0.02515,0 -0.03125,0.031 -0.0061,0.027 0.0046,0 0,0.031 -0.0046,0.028 0.0031,0.035 0,0.063 -0.0031,0.028 0.0016,0 0,0.031 -0.0016,0.028 7.6e-5,0 0,0.031 -7.6e-5,0.028 -0.0014,0 0,0.031 0.0014,0.028 -0.003,0.035 0,0.062 0.003,0.028 -0.0045,0 0,0.031 l 0.3125,1.9376 c 0.08714,0.5271 0.185113,1.1427 0.25,1.6562 0.06489,0.5135 0.09258,0.8762 0.09375,1.0938 4.01e-4,0.064 0.09844,0.1806 0.21875,0.5 a 0.41360088,0.41360088 0 0 1 -0.40625,0.5624 c -0.952446,-0.095 -1.904446,-0.2987 -2.71875,-0.2812 -2.5383516,0.054 -4.8161196,0.534 -6.5625,1.375 -1.7388699,0.8374 -3.03125,2.1243 -3.03125,3.7812 0,0.4867 0.0433775,0.8308 0.21875,1.1876 -0.0385069,-0.079 0.0285905,0.023 0.15625,0.1874 a 0.41360088,0.41360088 0 0 1 -0.15625,0.625 c -0.21045994,0.089 -0.36118452,0.1814 -0.5,0.3438 -0.13978811,0.1633 -0.25,0.5026 -0.25,0.6875 0,0.1847 0.11014298,0.524 0.25,0.6875 0.17001611,0.199 0.37725931,0.3237 0.59375,0.4062 A 0.41360088,0.41360088 0 0 1 0.5,1045.9688 c -0.12137223,0.099 -0.14404472,0.1643 -0.0625,0.031 -0.23211616,0.3795 -0.32265224,0.7517 -0.34375,1.1562 -0.03246692,0.6227 0.16625996,1.2918 0.5625,1.9063 0.0636053,0.099 0.0741059,0.126 0.03125,0.062 a 0.41360088,0.41360088 0 0 1 0.0625,0.094 c 0.005776,0.018 -0.006451,0.013 0,0.031 0.006451,0.018 -0.007118,0.014 0,0.031 0.007118,0.018 0.023476,-0.017 0.03125,0 0.007774,0.018 -0.00842,0.014 0,0.031 a 0.41360088,0.41360088 0 0 1 0,0.031 c 0.008769,0.021 0.0215135,0.01 0.03125,0.031 0.009737,0.021 -0.0106843,0.011 0,0.031 0.0106843,0.021 0.0196398,0.011 0.03125,0.031 0.0116102,0.02 -0.0125124,0.012 0,0.031 0.0125124,0.02 0.0178611,0.012 0.03125,0.031 0.0142381,0.018 0.0161919,0.014 0.03125,0.031 0.0150581,0.018 0.0154027,0.014 0.03125,0.031 a 0.41360088,0.41360088 0 0 1 0.03125,0.062 c 0.0131258,0.012 0.0185012,0.02 0.03125,0.031 0.3578448,0.3185 0.6114368,0.3132 1.09375,0.4063 0.4478439,0.086 1.0198421,0.1349 1.78125,0.1875 1.5048686,0.1045 3.656846,0.1563 6.59375,0.1562 4.505908,0 6.918435,-0.045 8.4375,-0.4687 0.202319,-0.057 0.418816,-0.1603 0.65625,-0.2813 a 0.41360088,0.41360088 0 0 1 0.53125,0.1563 c 0.314062,0.4836 0.682911,0.5647 1.21875,0.6875 0.90351,0.2075 2.013058,0.1408 3.09375,-0.031 0.543007,-0.087 1.044902,-0.2021 1.46875,-0.3438 0.510098,-0.1703 0.703199,-0.093 1.09375,-0.6875 0.14171,-0.2157 0.08886,-0.166 0.125,-0.2813 0.01676,-0.053 0.03889,-0.1213 0.0625,-0.2187 0.03611,-0.1486 0.07587,-0.3726 0.125,-0.625 0.09515,-0.4885 0.21523,-1.128 0.34375,-1.9063 0.257461,-1.5591 0.574052,-3.6073 0.875,-5.6874 0.301136,-2.0812 0.597296,-4.1979 0.8125,-5.9063 0.215475,-1.7105 0.34665,-2.8718 0.34375,-3.5 -4.71e-4,-0.106 -0.0594,-0.3405 -0.15625,-0.5625 -0.09685,-0.222 -0.226622,-0.4327 -0.375,-0.5312 -0.397553,-0.2642 -0.777446,-0.3055 -1.40625,-0.375 A 0.41360088,0.41360088 0 0 1 27.375,1029.25 c 0.178172,-0.3481 0.348445,-0.5747 0.4375,-0.875 0.168673,-0.5688 0.372508,-0.8755 0.59375,-1.0938 0.22791,-0.2248 0.528297,-0.4027 1.09375,-0.5624 0.583378,-0.1649 1.090738,-0.3949 1.46875,-0.6876 0.395078,-0.3061 0.630795,-0.5671 0.75,-1.0624 0.054,-0.2245 0.05306,-0.5465 -0.0625,-0.7813 -0.11262,-0.2288 -0.36154,-0.4336 -0.59375,-0.5313 -0.249435,-0.1048 -0.476409,-0.1294 -0.71875,-0.125 z m -14.8125,9.1563 a 0.41360088,0.41360088 0 0 1 0.125,0 l 5.25,0 5.21875,0 a 0.41360088,0.41360088 0 0 1 0.40625,0.4687 l -0.0625,0.375 c -0.173391,0.9824 -0.702462,4.5939 -1.1875,8.0938 l -0.75,5.4375 a 0.41360088,0.41360088 0 0 1 -0.375,0.3437 l -1.1875,0.094 c -0.711507,0.053 -1.269847,0.1931 -1.78125,0.4062 a 0.41360088,0.41360088 0 0 1 -0.5625,-0.3437 c -0.01351,-0.1881 0.01058,-0.3306 0.03125,-0.4375 0.02067,-0.1069 0.03268,-0.1783 0.03125,-0.1875 -0.06436,-0.4126 -0.190004,-0.7458 -0.40625,-1.0625 a 0.41360088,0.41360088 0 0 1 0.1875,-0.5938 c 0.216153,-0.082 0.423619,-0.2072 0.59375,-0.4062 0.139789,-0.1633 0.25,-0.5026 0.25,-0.6875 0,-0.1847 -0.110141,-0.524 -0.25,-0.6875 -0.09133,-0.1069 -0.185209,-0.1513 -0.375,-0.25 a 0.41360088,0.41360088 0 0 1 -0.125,-0.6562 c 0.168027,-0.1939 0.283982,-0.288 0.28125,-0.2813 0.171473,-0.4239 0.162992,-0.8807 0.0625,-1.4063 -0.211208,-1.105 -0.948365,-2.0521 -1.96875,-2.7812 -0.862519,-0.616 -2.051046,-1.026 -3.40625,-1.375 A 0.41360088,0.41360088 0 0 1 15.25,1036.1562 c 0.07413,-0.1407 0.175131,-0.2336 0.21875,-0.2812 0.131736,-0.5818 0.04419,-1.0498 -0.09375,-1.9062 a 0.41360088,0.41360088 0 0 1 0,-0.031 0.41360088,0.41360088 0 0 1 0,-0.031 l 0,-0.031 -0.125,-0.7188 a 0.41360088,0.41360088 0 0 1 0.28125,-0.4687 z m -5.09375,6.5 c 2.333789,0 4.118712,0.2177 5.34375,0.625 1.216426,0.4041 1.821314,0.9593 2.0625,1.5937 0.100379,0.2639 0.292206,0.4562 0.5,0.75 a 0.41360088,0.41360088 0 0 1 -0.375,0.6563 c -1.557732,-0.089 -3.62469,-0.125 -7.53125,-0.125 -3.8741359,0 -5.9086609,0.037 -7.46875,0.125 a 0.41360088,0.41360088 0 0 1 -0.375,-0.625 c 0.175408,-0.2657 0.3293889,-0.4969 0.4375,-0.7813 0.2411926,-0.6344 0.8461081,-1.1895 2.0625,-1.5937 1.2250378,-0.4073 3.0099612,-0.625 5.34375,-0.625 z m 7.34375,6.375 a 0.41360088,0.41360088 0 0 1 0.40625,0.5937 c -0.124818,0.2526 -0.237442,0.4396 -0.28125,0.6563 -2e-6,0 0.0022,0.025 0,0.031 -0.01269,0.036 -0.06245,0.1561 -0.0625,0.1562 -5.4e-5,10e-5 -0.03116,0.062 -0.03125,0.062 -1.88e-4,2e-4 -0.04886,0.02 -0.0625,0.031 -0.01364,0.011 -0.02157,0.025 -0.03125,0.031 -0.01935,0.013 -0.0179,0.025 -0.03125,0.031 -0.0267,0.013 -0.04063,0.024 -0.0625,0.031 -0.08747,0.03 -0.185804,0.039 -0.375,0.062 -0.968989,0.1189 -3.000063,0.125 -6.84375,0.125 -3.8439002,0 -5.8641869,-0 -6.8125,-0.125 -0.063147,-0.01 -0.058837,-0.026 -0.09375,-0.031 -0.033326,-0 -0.07294,0 -0.09375,0 a 0.41360088,0.41360088 0 0 1 -0.03125,0 c -0.0058,-0 -0.024029,0 -0.03125,0 a 0.41360088,0.41360088 0 0 1 -0.0625,-0.031 c -8.73e-5,0 -0.031194,0 -0.03125,0 -4.17e-5,0 -0.042617,-0.018 -0.0625,-0.031 a 0.41360088,0.41360088 0 0 1 0,-0.031 c 0,0 -0.023373,0.01 -0.03125,0 a 0.41360088,0.41360088 0 0 1 -0.03125,-0.031 c 0,0 0.00665,-0.023 0,-0.031 a 0.41360088,0.41360088 0 0 1 -0.03125,0 c 0,0 0.00581,-0.022 0,-0.031 a 0.41360088,0.41360088 0 0 1 -0.03125,-0.062 0.41360088,0.41360088 0 0 1 -0.03125,-0.125 c -0.021969,-0.2139 -0.1214067,-0.4101 -0.25,-0.6563 a 0.41360088,0.41360088 0 0 1 0.40625,-0.5937 c 1.5617084,0.081 3.4874392,0.094 7.25,0.094 3.809225,0 5.779326,-0.041 7.34375,-0.125 z"
       transform="matrix(0.96383835,0,0,0.96383835,0.94900319,36.489662)" />
    <path
       sodipodi:nodetypes="cscsccccsscscsccccsssccsccsssssssscscsscsccccc"
       inkscape:connector-curvature="0"
       id="path6906"
       d="m 21.649881,1048.327 c -1.585063,-0.3639 -0.597998,-1.3731 1.495878,-1.5294 l 2.017561,-0.1505 0.848748,-6.1242 c 0.466802,-3.3683 0.978316,-6.8584 1.136678,-7.7556 l 0.287943,-1.6314 -6.336582,0 -6.33657,0 0.32108,2.008 c 0.264126,1.6517 0.176134,2.0079 -0.496048,2.0079 -0.449423,0 -0.819616,-0.3953 -0.822658,-0.8785 -0.0026,-0.4833 -0.145531,-1.7258 -0.31667,-2.761 l -0.311143,-1.8823 7.846408,0 c 7.136612,0 7.846749,0.08 7.850299,0.8785 0.0076,1.6497 -2.139718,16.5875 -2.452685,17.0642 -0.369102,0.5621 -3.438367,1.0514 -4.732239,0.7543 z m -19.3236276,-0.7261 c -0.8660509,-0.8661 -0.760249,-2.9115 0.1506021,-2.9115 0.4183137,0 0.7529725,0.4462 0.7529725,1.004 0,0.9606 0.3346585,1.0039 7.745799,1.0039 7.408862,0 7.752788,-0.045 7.906217,-1.0238 0.209701,-1.3385 1.118246,-1.3196 1.328405,0.028 0.354168,2.2703 -0.494642,2.5022 -9.160779,2.5022 -5.64689,0 -8.3043451,-0.1835 -8.7232166,-0.6023 z m -1.104352,-4.6691 c 0,-0.6436 1.4222771,-0.7529 9.7886386,-0.7529 8.366365,0 9.788654,0.1089 9.788654,0.7529 0,0.6436 -1.422289,0.7531 -9.788654,0.7531 -8.3663615,0 -9.7886386,-0.1088 -9.7886386,-0.7531 z m 0.5019817,-2.934 c 0,-3.2839 6.8901716,-5.2249 13.5084209,-3.8055 2.9893,0.641 4.853063,1.9767 5.185606,3.7164 0.315541,1.6505 -0.975796,1.7231 -1.596853,0.091 -0.660061,-1.7363 -3.231643,-2.5884 -7.810517,-2.5884 -4.578871,0 -7.1504524,0.8521 -7.8105155,2.5884 -0.5771686,1.5179 -1.4761414,1.5177 -1.4761414,-6e-4 z m 23.7813849,-12.4392 c 0.172559,-0.8627 0.313741,-1.772 0.313741,-2.0203 0,-0.4595 1.561028,-1.1736 3.786997,-1.7322 1.93312,-0.4852 1.550619,1.0703 -0.398614,1.6211 -1.22979,0.3474 -1.749697,0.8597 -2.111737,2.0804 -0.646373,2.1798 -2.02494,2.2239 -1.590387,0.05 z"
       style="fill:#ffffff" />
  </g>
</svg>
