<?xml version="1.0" encoding="UTF-8" standalone="no"?>
<!-- Created with Inkscape (http://www.inkscape.org/) -->

<svg
   xmlns:dc="http://purl.org/dc/elements/1.1/"
   xmlns:cc="http://creativecommons.org/ns#"
   xmlns:rdf="http://www.w3.org/1999/02/22-rdf-syntax-ns#"
   xmlns:svg="http://www.w3.org/2000/svg"
   xmlns="http://www.w3.org/2000/svg"
   xmlns:sodipodi="http://sodipodi.sourceforge.net/DTD/sodipodi-0.dtd"
   xmlns:inkscape="http://www.inkscape.org/namespaces/inkscape"
   id="svg2"
   version="1.1"
   inkscape:version="0.48.4 r9939"
   width="512"
   height="512"
   sodipodi:docname="tag_wind.svg"
   inkscape:export-filename="/home/petr/project/android-git/Sleep-actionbar2/res/drawable-xxhdpi/tag_wind.png"
   inkscape:export-xdpi="11.25"
   inkscape:export-ydpi="11.25">
  <metadata
     id="metadata8">
    <rdf:RDF>
      <cc:Work
         rdf:about="">
        <dc:format>image/svg+xml</dc:format>
        <dc:type
           rdf:resource="http://purl.org/dc/dcmitype/StillImage" />
        <dc:title></dc:title>
      </cc:Work>
    </rdf:RDF>
  </metadata>
  <defs
     id="defs6" />
  <sodipodi:namedview
     pagecolor="#ffffff"
     bordercolor="#666666"
     borderopacity="1"
     objecttolerance="10"
     gridtolerance="10"
     guidetolerance="10"
     inkscape:pageopacity="0"
     inkscape:pageshadow="2"
     inkscape:window-width="640"
     inkscape:window-height="480"
     id="namedview4"
     showgrid="false"
     inkscape:zoom="0.4609375"
     inkscape:cx="256"
     inkscape:cy="256"
     inkscape:window-x="59"
     inkscape:window-y="24"
     inkscape:window-maximized="0"
     inkscape:current-layer="svg2" />
  <path
     style="fill:#ffffff"
     d="m 168.40413,507.89309 c 0.0147,-1.2375 1.74264,-22.62309 3.83984,-47.52353 l 3.81311,-45.27354 15.41289,-15.72646 c 16.65097,-16.98975 22.3707,-24.41618 34.83407,-45.22815 4.44035,-7.41472 8.07336,-13.24061 8.07336,-12.94642 0,0.29419 2.69936,38.09036 5.99857,83.99149 3.29921,45.90114 5.99921,83.79411 6,84.20661 7.9e-4,0.4125 -17.54857,0.75 -38.99857,0.75 l -39,0 0.0267,-2.25 z M 59.559369,441.11268 c -2.01817,-1.23044 -4.17265,-3.87333 -5.49953,-6.74626 -3.26622,-7.07191 -2.94562,-22.88814 0.76465,-37.72333 9.837871,-39.33586 36.554991,-93.35682 77.272661,-156.24228 l 5.98427,-9.24229 0.59202,8.24229 c 1.25659,17.49449 7.51292,30.78755 20.6032,43.77637 13.76835,13.66163 28.75878,19.93917 47.60076,19.93377 8.20441,-0.002 18.99063,-1.61002 23.96532,-3.57199 2.19155,-0.86432 -1.59868,4.18137 -18.39753,24.49143 -19.01256,22.98648 -31.20726,36.40052 -51.49385,56.6427 -27.48718,27.42702 -45.33683,42.06793 -65.07394,53.37596 -15.451,8.85238 -29.04689,11.49669 -36.318031,7.06363 z M 257.8774,297.15407 c -7.15,-0.43063 -14.575,-0.8385 -16.5,-0.90636 l -3.5,-0.12339 5.34663,-3.06603 c 7.17614,-4.11516 19.02875,-16.02763 23.29757,-23.4152 15.81551,-27.37019 12.34155,-58.99861 -8.96827,-81.65108 -5.88377,-6.25448 -6.97691,-7.85321 -5.08539,-7.43739 1.3252,0.29133 7.35946,1.22818 13.40946,2.08191 37.99128,5.36098 85.99074,16.10833 117,26.19697 56.85034,18.49584 84.10388,38.59068 75.87039,55.94148 -6.99273,14.73609 -40.99823,25.87567 -94.40562,30.92554 -18.82801,1.78026 -85.84777,2.69527 -106.46477,1.45355 z M 192.97045,270.6672 c -25.9591,-10.67211 -32.85886,-44.32703 -13.07751,-63.78813 19.29801,-18.98558 51.3431,-13.29538 62.80697,11.15254 9.54503,20.35578 -0.6406,45.10043 -21.82771,53.02754 -8.07867,3.02262 -20.00353,2.85511 -27.90175,-0.39195 z M 133.48891,210.39309 C 107.29373,143.47238 92.00558,84.476497 90.66614,45.143091 90.17055,30.589649 90.34775,27.681225 92.16822,20.489834 95.66017,6.6956046 100.50296,1.6412356 110.01444,1.8639296 c 23.02971,0.5392 63.63687,46.4467124 105.65861,119.4499704 9.44223,16.40375 28.70435,52.81468 28.70435,54.25947 0,0.41787 -1.9125,-0.34632 -4.25,-1.6982 -11.07832,-6.40707 -28.6685,-9.73098 -41.44237,-7.83111 -18.2175,2.70952 -32.60633,10.63661 -44.04614,24.26589 -5.11467,6.09356 -12.46238,20.83171 -14.25013,28.58314 -0.66596,2.8875 -1.27986,5.25 -1.36422,5.25 -0.0844,0 -2.57539,-6.1875 -5.53563,-13.75 z"
     id="path2987"
     inkscape:connector-curvature="0" />
</svg>
