<?xml version="1.0" encoding="UTF-8" standalone="no"?>
<!-- Created with Inkscape (http://www.inkscape.org/) -->

<svg
   xmlns:dc="http://purl.org/dc/elements/1.1/"
   xmlns:cc="http://creativecommons.org/ns#"
   xmlns:rdf="http://www.w3.org/1999/02/22-rdf-syntax-ns#"
   xmlns:svg="http://www.w3.org/2000/svg"
   xmlns="http://www.w3.org/2000/svg"
   xmlns:sodipodi="http://sodipodi.sourceforge.net/DTD/sodipodi-0.dtd"
   xmlns:inkscape="http://www.inkscape.org/namespaces/inkscape"
   width="32"
   height="32"
   id="svg2995"
   version="1.1"
   inkscape:version="0.48.4 r9939"
   sodipodi:docname="tag_baby_new.svg"
   inkscape:export-filename="/home/petr/project/android-git/Sleep-actionbar2/res/drawable-xxhdpi/tag_baby.png"
   inkscape:export-xdpi="180"
   inkscape:export-ydpi="180">
  <defs
     id="defs2997">
    <inkscape:path-effect
       effect="spiro"
       id="path-effect3157"
       is_visible="true" />
    <inkscape:path-effect
       is_visible="true"
       id="path-effect3058"
       effect="spiro" />
  </defs>
  <sodipodi:namedview
     id="base"
     pagecolor="#000000"
     bordercolor="#666666"
     borderopacity="1.0"
     inkscape:pageopacity="0"
     inkscape:pageshadow="2"
     inkscape:zoom="11.2"
     inkscape:cx="17.968683"
     inkscape:cy="12.166039"
     inkscape:document-units="px"
     inkscape:current-layer="layer1"
     showgrid="false"
     inkscape:window-width="1307"
     inkscape:window-height="744"
     inkscape:window-x="59"
     inkscape:window-y="24"
     inkscape:window-maximized="1" />
  <metadata
     id="metadata3000">
    <rdf:RDF>
      <cc:Work
         rdf:about="">
        <dc:format>image/svg+xml</dc:format>
        <dc:type
           rdf:resource="http://purl.org/dc/dcmitype/StillImage" />
        <dc:title></dc:title>
      </cc:Work>
    </rdf:RDF>
  </metadata>
  <g
     inkscape:label="Layer 1"
     inkscape:groupmode="layer"
     id="layer1"
     transform="translate(0,-1020.3622)">
    <path
       sodipodi:type="inkscape:offset"
       inkscape:radius="0"
       inkscape:original="M 7.5625 1024.4062 C 5.729417 1024.6537 4.2368736 1026.0996 4.0625 1028.125 C 3.9439196 1029.5016 4.2844334 1030.4407 5.34375 1031.5 C 6.4553219 1032.612 7.9286581 1032.9877 9.40625 1032.5312 C 13.238939 1031.3474 13.283725 1025.8312 9.46875 1024.5938 C 8.8191749 1024.383 8.1735277 1024.3238 7.5625 1024.4062 z M 16.34375 1029.3125 L 13.96875 1029.375 L 11.46875 1031.875 C 8.6647676 1034.679 8.912941 1034.1618 8.59375 1038.1875 C 8.2529844 1042.4845 8.2915785 1043.729 8.78125 1044.2188 C 9.299771 1044.7372 9.8316926 1044.7768 10.40625 1044.3125 C 11.116385 1043.739 11.179628 1043.5335 11.375 1040.875 L 11.5625 1038.2188 L 13.4375 1040.0312 L 15.34375 1041.8125 L 18.34375 1038.7188 L 21.34375 1035.5938 L 19.6875 1033.875 L 18.0625 1032.125 L 20.5 1032.125 C 22.715702 1032.1253 23.002901 1032.0592 23.5 1031.4688 C 23.802552 1031.1091 24.0253 1030.6208 23.96875 1030.375 C 23.73098 1029.3413 22.560711 1029.1722 16.34375 1029.3125 z M 22.125 1036.6875 L 22.125 1038.7812 L 22.125 1040.8438 L 23.40625 1040.875 C 24.120082 1040.8835 24.78025 1040.9675 24.875 1041.0625 C 24.969753 1041.1572 25.03915 1041.905 25.03125 1042.75 C 25.013261 1044.6722 25.576302 1045.3362 26.90625 1044.9688 C 27.203258 1044.8866 27.550553 1044.6994 27.6875 1044.5625 C 28.120362 1044.1474 28.012007 1037.637 27.5625 1037.1875 C 27.303769 1036.9287 26.301249 1036.775 24.65625 1036.75 L 22.125 1036.6875 z M 20.25 1042.4062 C 20.116262 1042.3751 19.137834 1042.425 18.09375 1042.5 L 16.21875 1042.625 L 16.375 1045.25 C 16.464462 1046.6853 16.663159 1047.9757 16.8125 1048.125 C 17.077312 1048.3899 17.819817 1048.4156 22.03125 1048.2812 C 23.156969 1048.2454 24.190262 1048.091 24.34375 1047.9375 C 24.722001 1047.5593 24.703106 1046.0468 24.3125 1045.6562 C 24.138764 1045.4825 23.24629 1045.3338 22.3125 1045.3438 L 20.59375 1045.3438 L 20.53125 1043.9062 C 20.49908 1043.1145 20.383742 1042.4382 20.25 1042.4062 z "
       style="fill:#ffffff"
       id="path3307"
       d="m 7.5625,1024.4062 c -1.833083,0.2475 -3.3256264,1.6934 -3.5,3.7188 -0.1185804,1.3766 0.2219334,2.3157 1.28125,3.375 1.1115719,1.112 2.5849081,1.4877 4.0625,1.0312 3.832689,-1.1838 3.877475,-6.7 0.0625,-7.9374 -0.6495751,-0.2108 -1.2952223,-0.27 -1.90625,-0.1876 z m 8.78125,4.9063 -2.375,0.062 -2.5,2.5 c -2.8039824,2.804 -2.555809,2.2868 -2.875,6.3125 -0.3407656,4.297 -0.3021715,5.5415 0.1875,6.0313 0.518521,0.5184 1.0504426,0.558 1.625,0.094 0.710135,-0.5735 0.773378,-0.779 0.96875,-3.4375 l 0.1875,-2.6562 1.875,1.8124 1.90625,1.7813 3,-3.0937 3,-3.125 -1.65625,-1.7188 -1.625,-1.75 2.4375,0 c 2.215702,3e-4 2.502901,-0.066 3,-0.6562 0.302552,-0.3597 0.5253,-0.848 0.46875,-1.0938 -0.23777,-1.0337 -1.408039,-1.2028 -7.625,-1.0625 z m 5.78125,7.375 0,2.0937 0,2.0626 1.28125,0.031 c 0.713832,0.01 1.374,0.092 1.46875,0.1875 0.09475,0.095 0.16415,0.8425 0.15625,1.6875 -0.01799,1.9222 0.545052,2.5862 1.875,2.2188 0.297008,-0.082 0.644303,-0.2694 0.78125,-0.4063 0.432862,-0.4151 0.324507,-6.9255 -0.125,-7.375 -0.258731,-0.2588 -1.261251,-0.4125 -2.90625,-0.4375 l -2.53125,-0.062 z m -1.875,5.7187 c -0.133738,-0.031 -1.112166,0.019 -2.15625,0.094 l -1.875,0.125 0.15625,2.625 c 0.08946,1.4353 0.288159,2.7257 0.4375,2.875 0.264812,0.2649 1.007317,0.2906 5.21875,0.1562 1.125719,-0.036 2.159012,-0.1902 2.3125,-0.3437 0.378251,-0.3782 0.359356,-1.8907 -0.03125,-2.2813 -0.173736,-0.1737 -1.06621,-0.3224 -2,-0.3124 l -1.71875,0 -0.0625,-1.4376 c -0.03217,-0.7917 -0.147508,-1.468 -0.28125,-1.5 z"
       transform="matrix(1.2907241,0,0,1.2907241,-4.5628696,-301.29977)" />
  </g>
</svg>
