<?xml version="1.0" encoding="UTF-8" standalone="no"?>
<!-- Created with Inkscape (http://www.inkscape.org/) -->

<svg
   xmlns:dc="http://purl.org/dc/elements/1.1/"
   xmlns:cc="http://creativecommons.org/ns#"
   xmlns:rdf="http://www.w3.org/1999/02/22-rdf-syntax-ns#"
   xmlns:svg="http://www.w3.org/2000/svg"
   xmlns="http://www.w3.org/2000/svg"
   xmlns:sodipodi="http://sodipodi.sourceforge.net/DTD/sodipodi-0.dtd"
   xmlns:inkscape="http://www.inkscape.org/namespaces/inkscape"
   width="32"
   height="32"
   id="svg2995"
   version="1.1"
   inkscape:version="0.48.4 r9939"
   sodipodi:docname="tag_alcohol.svg"
   inkscape:export-filename="/home/petr/project/android-git/Sleep-actionbar2/res/drawable-ldpi/tag_alcohol.png"
   inkscape:export-xdpi="45"
   inkscape:export-ydpi="45">
  <defs
     id="defs2997" />
  <sodipodi:namedview
     id="base"
     pagecolor="#000000"
     bordercolor="#666666"
     borderopacity="1.0"
     inkscape:pageopacity="0"
     inkscape:pageshadow="2"
     inkscape:zoom="7.919596"
     inkscape:cx="16.729338"
     inkscape:cy="4.9064739"
     inkscape:document-units="px"
     inkscape:current-layer="layer1"
     showgrid="false"
     inkscape:window-width="1317"
     inkscape:window-height="744"
     inkscape:window-x="49"
     inkscape:window-y="24"
     inkscape:window-maximized="1" />
  <metadata
     id="metadata3000">
    <rdf:RDF>
      <cc:Work
         rdf:about="">
        <dc:format>image/svg+xml</dc:format>
        <dc:type
           rdf:resource="http://purl.org/dc/dcmitype/StillImage" />
        <dc:title></dc:title>
      </cc:Work>
    </rdf:RDF>
  </metadata>
  <g
     inkscape:label="Layer 1"
     inkscape:groupmode="layer"
     id="layer1"
     transform="translate(0,-1020.3622)">
    <path
       sodipodi:type="inkscape:offset"
       inkscape:radius="0.27536246"
       inkscape:original="M 24.34375 1023.25 C 23.931611 1023.2282 23.502351 1023.2236 23.0625 1023.2812 C 21.805083 1023.4461 20.501573 1024.0512 19.46875 1024.8125 C 18.435927 1025.5738 17.625 1026.4719 17.625 1027.4375 C 17.625 1027.7464 17.647244 1027.9956 17.8125 1028.25 C 17.895128 1028.3772 18.02714 1028.4908 18.1875 1028.5312 C 18.34786 1028.5719 18.486906 1028.5723 18.625 1028.5312 C 19.177377 1028.3676 19.775497 1027.8726 20.8125 1027 C 21.532227 1026.3946 22.061707 1026.0581 22.5625 1025.9062 C 23.063293 1025.7546 23.584819 1025.7749 24.40625 1025.9062 C 25.966795 1026.156 27.113531 1027.0003 27.75 1028.1875 C 28.386469 1029.3747 28.51056 1030.8938 27.90625 1032.4688 C 27.672461 1033.0779 26.840169 1033.7877 25.78125 1034.2188 C 24.722331 1034.6496 23.448426 1034.8147 22.4375 1034.625 C 21.686962 1034.4843 21.179851 1034.4391 20.75 1034.5312 C 21.698407 1033.5456 22.700952 1032.5221 23.34375 1031.7812 C 23.807981 1031.2463 24.192414 1030.7805 24.4375 1030.4375 C 24.560043 1030.266 24.652274 1030.1363 24.71875 1030 C 24.751988 1029.9319 24.764292 1029.8441 24.78125 1029.75 C 24.798208 1029.6559 24.805822 1029.4934 24.65625 1029.3438 C 24.522065 1029.2095 24.458859 1029.2107 24.375 1029.1875 C 24.291141 1029.1643 24.199346 1029.141 24.09375 1029.125 C 23.882558 1029.0931 23.614836 1029.086 23.28125 1029.0625 C 22.614079 1029.0156 21.699393 1028.9617 20.625 1028.9375 C 18.476214 1028.889 15.66914 1028.8838 12.875 1028.9062 C 10.080756 1028.9289 7.2897987 1028.9786 5.1875 1029.0625 C 4.1363506 1029.1044 3.2583095 1029.1608 2.625 1029.2188 C 2.3083453 1029.2476 2.0700395 1029.276 1.875 1029.3125 C 1.7774802 1029.3308 1.6771669 1029.345 1.59375 1029.375 C 1.5520415 1029.39 1.5229625 1029.4024 1.46875 1029.4375 C 1.4145375 1029.4726 1.3299763 1029.5413 1.28125 1029.6875 C 1.2182913 1029.8764 1.2546153 1029.9601 1.28125 1030.0312 C 1.3078847 1030.1026 1.3373191 1030.1552 1.375 1030.2188 C 1.4503618 1030.3457 1.5566272 1030.4857 1.6875 1030.6562 C 1.9492456 1030.9976 2.3412644 1031.4401 2.8125 1031.9688 C 3.7549712 1033.0258 5.0647446 1034.4153 6.53125 1035.875 L 11.71875 1041.0312 L 11.71875 1044.2812 L 11.71875 1047.2812 L 9.15625 1047.2812 C 7.7554735 1047.2812 6.8585356 1047.3338 6.28125 1047.6562 C 6.1369286 1047.737 6.0291163 1047.8506 5.9375 1048 C 5.8458837 1048.1494 5.7895716 1048.3317 5.8125 1048.5 C 5.8583568 1048.8366 6.0704115 1049.1017 6.34375 1049.375 C 6.5006705 1049.5319 6.6283753 1049.5546 6.78125 1049.5938 C 6.9341247 1049.6327 7.1037728 1049.6624 7.3125 1049.6875 C 7.7299544 1049.7377 8.2804171 1049.7631 8.90625 1049.7812 C 10.157916 1049.8178 11.7364 1049.8112 13.3125 1049.75 C 14.8886 1049.6888 16.452446 1049.5683 17.625 1049.4375 C 18.211277 1049.3721 18.698907 1049.3011 19.0625 1049.2188 C 19.244297 1049.1774 19.396443 1049.1543 19.53125 1049.0938 C 19.598653 1049.0634 19.646268 1049.0332 19.71875 1048.9688 C 19.791232 1048.9041 19.90625 1048.7672 19.90625 1048.5938 C 19.90625 1048.4217 19.830794 1048.2754 19.75 1048.1875 C 19.669206 1048.0996 19.564197 1048.0539 19.46875 1048 C 19.277857 1047.8923 19.055755 1047.7953 18.78125 1047.7188 C 18.23224 1047.5654 17.513785 1047.4569 16.71875 1047.4062 L 14.3125 1047.25 L 14.3125 1044.2812 L 14.3125 1041.0938 L 19.59375 1035.75 C 19.76969 1035.5733 19.860485 1035.4551 20.03125 1035.2812 C 20.015967 1035.3665 19.96875 1035.4458 19.96875 1035.5312 C 19.96875 1036.2696 20.582655 1036.8407 21.3125 1037.0312 C 23.746622 1037.6676 25.762597 1037.412 27.71875 1036.0938 C 30.676655 1034.1003 31.296177 1030.6429 30.28125 1027.8438 C 29.393189 1025.3943 27.228725 1023.4028 24.34375 1023.25 z M 13 1031.1875 C 15.186023 1031.1783 17.190234 1031.2193 18.625 1031.2812 C 19.342383 1031.3123 19.923789 1031.3333 20.3125 1031.375 C 20.135874 1031.5922 19.899665 1031.8806 19.59375 1032.2188 C 18.933262 1032.9486 18.014089 1033.9013 17 1034.9062 C 15.988153 1035.9092 14.990576 1036.8163 14.21875 1037.4688 C 13.832837 1037.7948 13.494916 1038.0446 13.25 1038.2188 C 13.136962 1038.299 13.066186 1038.3686 13 1038.4062 C 12.995163 1038.4034 12.973967 1038.4095 12.96875 1038.4062 C 12.903015 1038.3652 12.800701 1038.305 12.6875 1038.2188 C 12.44313 1038.0325 12.131956 1037.742 11.75 1037.4062 C 10.986088 1036.7351 10.013755 1035.8313 9.0625 1034.9062 C 8.1112446 1033.9813 7.1590112 1033.0553 6.46875 1032.3125 C 6.1358829 1031.9543 5.8783484 1031.6411 5.6875 1031.4062 C 6.0789824 1031.3688 6.656771 1031.3435 7.375 1031.3125 C 8.8114579 1031.2505 10.813061 1031.1965 13 1031.1875 z "
       style="fill:#323232;fill-opacity:1"
       id="path6852"
       d="m 24.34375,1022.9688 c -0.42017,-0.022 -0.847907,-0.03 -1.3125,0.031 -1.3192,0.173 -2.65295,0.8081 -3.71875,1.5938 -1.060668,0.7818 -1.96875,1.7239 -1.96875,2.8437 0,0.3221 0.04614,0.6549 0.25,0.9687 0.05741,0.088 0.128968,0.1803 0.21875,0.25 -1.618995,-0.012 -3.156186,-0.045 -4.9375,-0.031 -2.796019,0.023 -5.5798279,0.072 -7.6875,0.1562 -1.0548779,0.042 -1.9535666,0.098 -2.59375,0.1563 -0.320506,0.029 -0.5717328,0.054 -0.78125,0.094 -0.089255,0.017 -0.1889685,0.049 -0.3125,0.094 -0.048831,0.018 -0.1204146,0.05 -0.1875,0.094 -0.082154,0.053 -0.2104894,0.1626 -0.28125,0.375 -0.0807194,0.2421 -0.022688,0.4706 0,0.5312 0.034375,0.092 0.054186,0.152 0.09375,0.2188 a 0.27539,0.27539 0 0 0 0,0.031 c 0.087989,0.1482 0.2123838,0.2664 0.34375,0.4375 0.2726171,0.3556 0.6534572,0.8147 1.125,1.3437 0.9470319,1.0622 2.2796706,2.4428 3.75,3.9063 l 5.09375,5.0625 0,3.1562 0,2.7188 -2.28125,0 c -1.4076699,0 -2.3278375,0.031 -3,0.4062 -0.1893101,0.106 -0.3593253,0.2591 -0.46875,0.4376 -0.1175143,0.1916 -0.1909089,0.433 -0.15625,0.6874 0.058573,0.43 0.3390563,0.7454 0.625,1.0313 0.2003529,0.2003 0.4205897,0.2761 0.5625,0.3125 0.1675949,0.043 0.3457683,0.068 0.5625,0.094 0.4350116,0.052 0.9963899,0.075 1.625,0.094 1.259394,0.037 2.823794,0.03 4.40625,-0.031 1.583047,-0.061 3.162905,-0.1807 4.34375,-0.3124 0.591381,-0.066 1.086712,-0.1323 1.46875,-0.2188 0.170988,-0.039 0.349721,-0.075 0.53125,-0.1562 0.0854,-0.039 0.164709,-0.081 0.25,-0.1563 0.108478,-0.097 0.28125,-0.2986 0.28125,-0.5937 0,-0.2526 -0.123995,-0.4567 -0.25,-0.5938 -0.12906,-0.1404 -0.265572,-0.2059 -0.34375,-0.25 -0.208878,-0.1178 -0.454511,-0.1989 -0.75,-0.2812 -0.576565,-0.1611 -1.284329,-0.2922 -2.09375,-0.3438 l -2.15625,-0.125 0,-2.7188 0,-3.0937 5.1875,-5.25 c 0.184525,0.6775 0.779894,1.1952 1.46875,1.375 2.487576,0.6504 4.609819,0.358 6.625,-1 3.065487,-2.066 3.708187,-5.6613 2.65625,-8.5625 -0.920626,-2.5393 -3.183598,-4.6222 -6.1875,-4.7812 z m -0.96875,3.0937 c 0.273703,0 0.596069,0.06 1,0.125 1.485713,0.2378 2.527921,1.0113 3.125,2.125 0.597294,1.1141 0.73483,2.5546 0.15625,4.0625 -0.18109,0.4718 -0.960926,1.1835 -1.96875,1.5938 -1.010261,0.411 -2.246251,0.5516 -3.1875,0.375 -0.424963,-0.08 -0.776153,-0.1126 -1.09375,-0.125 0.782078,-0.8102 1.620629,-1.6327 2.15625,-2.25 0.466775,-0.5379 0.838035,-1.0172 1.09375,-1.375 0.122726,-0.1718 0.232205,-0.3042 0.3125,-0.4688 0.06241,-0.1279 0.07797,-0.2249 0.09375,-0.3125 0.02422,-0.1344 0.0046,-0.4328 -0.21875,-0.6563 -0.165323,-0.1654 -0.359013,-0.2056 -0.40625,-0.2187 -0.08797,-0.024 -0.191124,-0.075 -0.3125,-0.094 -0.239207,-0.036 -0.485338,-0.04 -0.8125,-0.063 -0.670011,-0.047 -1.607422,-0.1006 -2.6875,-0.125 -0.46027,-0.01 -1.142673,0.01 -1.65625,0 0.561263,-0.24 1.124749,-0.6747 2.03125,-1.4374 0.707282,-0.595 1.211961,-0.9278 1.65625,-1.0626 0.221764,-0.067 0.445047,-0.096 0.71875,-0.094 z M 13,1031.4688 c 2.181872,-0.01 4.196035,0.032 5.625,0.094 0.474467,0.021 0.76018,0.042 1.09375,0.062 -0.114214,0.1351 -0.199243,0.2465 -0.34375,0.4062 -0.655203,0.724 -1.551127,1.6853 -2.5625,2.6876 -1.006534,0.9977 -2.016177,1.8844 -2.78125,2.5312 -0.378351,0.3196 -0.696417,0.5785 -0.9375,0.75 -0.07561,0.054 -0.08551,0.062 -0.125,0.094 -0.04082,-0.027 -0.07943,-0.059 -0.125,-0.094 -0.224243,-0.171 -0.520847,-0.4737 -0.90625,-0.8125 -0.758858,-0.6667 -1.739217,-1.5465 -2.6875,-2.4687 -0.9512448,-0.9249 -1.9117699,-1.8599 -2.59375,-2.5938 -0.1666384,-0.1793 -0.2453531,-0.3163 -0.375,-0.4688 0.3345013,-0.02 0.6194943,-0.042 1.09375,-0.062 1.4323298,-0.062 3.441902,-0.1161 5.625,-0.125 z" />
    <path
       style="fill:#ffffff"
       d="m 6.6303378,1049.094 c -0.9791592,-0.9792 -0.2210817,-1.396 2.5389076,-1.396 l 2.9511626,0 0,-3.4061 0,-3.4061 -5.315186,-5.2906 c -2.9233455,-2.9098 -5.2427804,-5.5077 -5.1543097,-5.7731 0.1909169,-0.5728 22.1422497,-0.7499 22.7088737,-0.1833 0.214418,0.2145 -2.053307,2.8432 -5.039408,5.8418 l -5.42927,5.4519 0,3.3505 0,3.3504 2.803603,0.1799 c 1.541982,0.098 2.803603,0.4454 2.803603,0.7701 0,0.673 -12.2206744,1.158 -12.8679762,0.5106 z m 10.6387232,-13.9214 c 2.037665,-2.0195 3.704834,-3.8412 3.704834,-4.0482 0,-0.207 -3.585662,-0.3614 -7.968143,-0.3429 -4.3824809,0.018 -7.9681439,0.1728 -7.9681439,0.3433 0,0.5788 7.3402739,7.7198 7.9352179,7.7198 0.325272,0 2.25858,-1.6524 4.296235,-3.672 z m 4.147512,1.4944 c -0.5681,-0.1484 -1.032903,-0.6609 -1.032903,-1.1388 0,-0.6672 0.462489,-0.782 1.994106,-0.4947 2.230316,0.4185 5.297129,-0.8352 5.902515,-2.4128 1.283614,-3.3451 -0.447709,-6.5969 -3.797643,-7.1329 -1.694539,-0.2712 -2.44943,-0.04 -3.921724,1.1984 -2.058976,1.7325 -2.538191,1.8744 -2.538191,0.7517 0,-1.4002 2.781108,-3.4388 5.106525,-3.7435 6.660525,-0.8725 9.982844,8.2639 4.378455,12.0408 -1.874801,1.2634 -3.733949,1.5478 -6.09114,0.9318 z"
       id="path2993"
       inkscape:connector-curvature="0"
       sodipodi:nodetypes="cscccsscsccccsccscssccscsscsccc" />
  </g>
</svg>
