<?xml version="1.0" encoding="UTF-8" standalone="no"?>
<!-- Created with Inkscape (http://www.inkscape.org/) -->

<svg
   xmlns:dc="http://purl.org/dc/elements/1.1/"
   xmlns:cc="http://creativecommons.org/ns#"
   xmlns:rdf="http://www.w3.org/1999/02/22-rdf-syntax-ns#"
   xmlns:svg="http://www.w3.org/2000/svg"
   xmlns="http://www.w3.org/2000/svg"
   xmlns:sodipodi="http://sodipodi.sourceforge.net/DTD/sodipodi-0.dtd"
   xmlns:inkscape="http://www.inkscape.org/namespaces/inkscape"
   id="svg2"
   version="1.1"
   inkscape:version="0.48.4 r9939"
   width="32"
   height="32"
   sodipodi:docname="tag_love.svg"
   inkscape:export-filename="/home/petr/project/android-git/Sleep-actionbar2/res/drawable-xhdpi/tag_love.png"
   inkscape:export-xdpi="135"
   inkscape:export-ydpi="135">
  <metadata
     id="metadata8">
    <rdf:RDF>
      <cc:Work
         rdf:about="">
        <dc:format>image/svg+xml</dc:format>
        <dc:type
           rdf:resource="http://purl.org/dc/dcmitype/StillImage" />
        <dc:title></dc:title>
      </cc:Work>
    </rdf:RDF>
  </metadata>
  <defs
     id="defs6" />
  <sodipodi:namedview
     pagecolor="#ffffff"
     bordercolor="#666666"
     borderopacity="1"
     objecttolerance="10"
     gridtolerance="10"
     guidetolerance="10"
     inkscape:pageopacity="0"
     inkscape:pageshadow="2"
     inkscape:window-width="1317"
     inkscape:window-height="744"
     id="namedview4"
     showgrid="false"
     inkscape:zoom="9.1512545"
     inkscape:cx="26.13828"
     inkscape:cy="19.531151"
     inkscape:window-x="49"
     inkscape:window-y="24"
     inkscape:window-maximized="1"
     inkscape:current-layer="svg2" />
  <path
     sodipodi:type="inkscape:offset"
     inkscape:radius="0.6990056"
     inkscape:original="M 10 4.46875 C 8.7397992 4.4744977 7.5112164 4.8316283 6.3125 5.5625 C 3.3808791 7.3499273 2.0020766 10.001742 2.28125 13.25 C 2.571318 16.625007 4.0716431 18.485675 10.84375 23.8125 C 13.567265 25.954772 15.978439 27.687049 16.21875 27.6875 C 16.459062 27.687962 17.126628 27.248222 17.6875 26.6875 C 18.248373 26.126778 20.31491 24.419174 22.28125 22.90625 C 28.691948 17.973816 30.664444 14.583362 29.53125 10.375 C 28.178915 5.3528434 22.350245 2.8977252 18.03125 5.53125 C 16.208191 6.642736 16.153334 6.6450228 13.96875 5.53125 C 12.558555 4.812278 11.260201 4.4630023 10 4.46875 z M 21.84375 6.15625 C 24.406546 6.159924 27.010733 8.1782493 27.78125 10.75 C 28.765985 14.036788 27.447053 16.194767 21.34375 21.25 C 18.620237 23.505828 16.228352 25.3715 16.03125 25.375 C 14.70136 25.39709 5.2227456 16.783716 4.40625 14.8125 C 3.3030956 12.149261 4.2676617 9.1160604 6.71875 7.46875 C 9.2689144 5.7548469 11.328892 5.8023023 13.96875 7.59375 L 16.09375 9.03125 L 18.21875 7.59375 C 19.384905 6.8023803 21.007334 6.15509 21.84375 6.15625 z "
     style="fill:#323232;fill-opacity:1"
     id="path9273"
     d="M 10,3.78125 C 8.6098137,3.7875906 7.2310567,4.180053 5.9375,4.96875 2.8266834,6.865434 1.2949833,9.8362691 1.59375,13.3125 c 0.1529,1.779026 0.6722751,3.298343 2,4.9375 1.3277249,1.639157 3.4150773,3.452645 6.8125,6.125 1.368583,1.076505 2.671672,2.040948 3.65625,2.75 0.492289,0.354526 0.899513,0.636901 1.21875,0.84375 0.159618,0.103425 0.28565,0.18398 0.40625,0.25 0.0603,0.03301 0.120372,0.06557 0.1875,0.09375 0.06713,0.02818 0.119331,0.06208 0.34375,0.0625 0.273881,5.27e-4 0.412247,-0.05366 0.5625,-0.125 0.150253,-0.07134 0.282513,-0.176799 0.4375,-0.28125 0.309973,-0.208902 0.654865,-0.467449 0.96875,-0.78125 0.455557,-0.455434 2.578783,-2.2165 4.53125,-3.71875 3.239236,-2.49229 5.393929,-4.62468 6.625,-6.75 1.231071,-2.12532 1.480327,-4.283236 0.875,-6.53125 C 28.750169,4.7336409 22.378784,2.0579158 17.65625,4.9375 16.747199,5.4917317 16.387792,5.656104 16.125,5.65625 15.862208,5.656396 15.37126,5.4619731 14.28125,4.90625 12.797995,4.150029 11.391544,3.7749033 10,3.78125 z m 11.84375,3.0625 c 2.196476,0.00315 4.606151,1.8404766 5.28125,4.09375 0.455673,1.520916 0.385587,2.58603 -0.5,4.03125 -0.885587,1.44522 -2.685679,3.237773 -5.71875,5.75 -1.357244,1.124176 -2.639268,2.132827 -3.59375,2.875 -0.477241,0.371087 -0.875442,0.674155 -1.15625,0.875 -0.09894,0.07077 -0.153724,0.113194 -0.21875,0.15625 0.0098,-0.02071 -0.09487,-0.04747 -0.375,-0.21875 -0.352762,-0.215682 -0.842749,-0.529068 -1.375,-0.9375 C 13.122997,22.651885 11.807966,21.500988 10.5,20.3125 9.1920338,19.124012 7.8817405,17.878356 6.875,16.8125 5.8682595,15.746644 5.1525162,14.748571 5.0625,14.53125 4.0862838,12.174466 4.901901,9.5355826 7.09375,8.0625 8.2940325,7.2558195 9.324037,6.88794 10.3125,6.90625 c 0.988463,0.01831 1.997602,0.4313539 3.25,1.28125 l 2.125,1.4375 a 0.6990755,0.6990755 0 0 0 0.8125,0 l 2.125,-1.4375 c 0.531718,-0.3608312 1.172475,-0.7268852 1.78125,-0.96875 0.608775,-0.2418648 1.200235,-0.3753291 1.4375,-0.375 z"
     transform="translate(0,0.32782389)" />
  <path
     style="fill:#ffffff"
     d="M 10.842677,24.133378 C 4.0705701,18.806553 2.5640561,16.95028 2.2739881,13.575273 1.9948147,10.327015 3.3908156,7.6766898 6.3224365,5.8892628 8.7198693,4.4275194 11.151761,4.4164283 13.972151,5.8543722 c 2.184584,1.1137726 2.232466,1.1137956 4.055525,0.00231 4.318995,-2.6335248 10.14412,-0.180091 11.496455,4.8420668 1.133194,4.208362 -0.830362,7.609295 -7.24106,12.541729 -1.96634,1.512924 -4.034059,3.209532 -4.594932,3.770254 -0.560872,0.560722 -1.216376,1.019129 -1.456688,1.018667 -0.240311,-4.51e-4 -2.665259,-1.753588 -5.388774,-3.89586 z M 21.32894,21.586376 c 6.103303,-5.055233 7.440641,-7.234787 6.455906,-10.521575 -0.770517,-2.5717522 -3.374892,-4.5839692 -5.937688,-4.5876432 -0.836416,-0.0012 -2.4749,0.645315 -3.641055,1.436684 l -2.120295,1.438881 -2.120293,-1.438881 C 11.325657,6.1223944 9.2553613,6.091455 6.7051969,7.8053578 4.2541086,9.4526688 3.3051661,12.487298 4.4083205,15.150537 5.2248161,17.121753 14.68884,25.715922 16.01873,25.693832 c 0.197102,-0.0035 2.586697,-1.851628 5.31021,-4.107456 z"
     id="path2989"
     inkscape:connector-curvature="0"
     sodipodi:nodetypes="cssscssscccsscscssscs" />
</svg>
