<?xml version="1.0" encoding="UTF-8" standalone="no"?>
<!-- Created with Inkscape (http://www.inkscape.org/) -->

<svg
   xmlns:dc="http://purl.org/dc/elements/1.1/"
   xmlns:cc="http://creativecommons.org/ns#"
   xmlns:rdf="http://www.w3.org/1999/02/22-rdf-syntax-ns#"
   xmlns:svg="http://www.w3.org/2000/svg"
   xmlns="http://www.w3.org/2000/svg"
   xmlns:sodipodi="http://sodipodi.sourceforge.net/DTD/sodipodi-0.dtd"
   xmlns:inkscape="http://www.inkscape.org/namespaces/inkscape"
   id="svg2"
   version="1.1"
   inkscape:version="0.48.4 r9939"
   width="32"
   height="32"
   sodipodi:docname="tag_laugh.svg"
   inkscape:export-filename="/home/petr/project/android-git/Sleep-actionbar2/res/drawable-xhdpi/tag_laugh.png"
   inkscape:export-xdpi="135"
   inkscape:export-ydpi="135">
  <metadata
     id="metadata8">
    <rdf:RDF>
      <cc:Work
         rdf:about="">
        <dc:format>image/svg+xml</dc:format>
        <dc:type
           rdf:resource="http://purl.org/dc/dcmitype/StillImage" />
        <dc:title></dc:title>
      </cc:Work>
    </rdf:RDF>
  </metadata>
  <defs
     id="defs6" />
  <sodipodi:namedview
     pagecolor="#ffffff"
     bordercolor="#666666"
     borderopacity="1"
     objecttolerance="10"
     gridtolerance="10"
     guidetolerance="10"
     inkscape:pageopacity="0"
     inkscape:pageshadow="2"
     inkscape:window-width="1317"
     inkscape:window-height="744"
     id="namedview4"
     showgrid="false"
     inkscape:zoom="9.1512545"
     inkscape:cx="6.1118691"
     inkscape:cy="22.279059"
     inkscape:window-x="49"
     inkscape:window-y="24"
     inkscape:window-maximized="1"
     inkscape:current-layer="svg2" />
  <path
     sodipodi:type="inkscape:offset"
     inkscape:radius="0.23573571"
     inkscape:original="M 2.71875 7.84375 C 2.2152321 7.84375 1.8622773 8.1976472 1.5625 8.59375 C 1.2627227 8.9898528 1.0024376 9.490826 0.8125 10.03125 C 0.62256237 10.571674 0.50318462 11.150306 0.46875 11.6875 C 0.43431538 12.224694 0.45547731 12.710298 0.71875 13.125 C 0.76831845 13.203079 0.88309555 13.344308 1.0625 13.375 C 1.2419044 13.405692 1.3962937 13.314657 1.46875 13.25 C 1.6136627 13.120685 1.643404 13.018888 1.6875 12.90625 C 1.775692 12.680975 1.8482432 12.383884 1.90625 12.03125 C 1.9972678 11.478062 2.448226 10.373045 2.84375 9.75 C 3.2091189 9.1744876 3.3935452 8.9304443 3.46875 8.5625 C 3.4875512 8.4705139 3.5205405 8.3515679 3.46875 8.21875 C 3.4169595 8.0859321 3.286676 7.9857729 3.1875 7.9375 C 2.9891479 7.8409542 2.8596671 7.84375 2.71875 7.84375 z M 28.75 7.96875 C 28.636969 7.9449901 28.512072 7.9492778 28.34375 8.03125 C 28.175428 8.1132222 28.047491 8.2940387 28.03125 8.4375 C 27.99948 8.7181305 28.09886 8.8926629 28.21875 9.125 C 28.33864 9.3573371 28.516955 9.6286177 28.75 9.9375 C 29.119359 10.427037 29.550285 11.464063 29.625 12 C 29.675238 12.360322 29.750382 12.625909 29.84375 12.84375 C 29.890434 12.952671 29.933337 13.05838 30.03125 13.15625 C 30.129163 13.25412 30.357712 13.364228 30.5625 13.3125 C 30.767288 13.260772 30.84616 13.105647 30.90625 13 C 30.96634 12.894353 31.003158 12.805953 31.03125 12.6875 C 31.087434 12.450594 31.125 12.151741 31.125 11.78125 C 31.125 11.09454 30.917986 10.373325 30.625 9.75 C 30.332014 9.1266753 29.952141 8.5894514 29.4375 8.28125 C 29.179577 8.1267831 28.976063 8.0162699 28.75 7.96875 z M 3.34375 10.25 C 3.2475245 10.237653 3.1267997 10.242731 3 10.28125 C 2.8732003 10.319769 2.7177596 10.436995 2.65625 10.59375 C 2.4442502 11.134071 2.5273262 11.722025 2.875 12.15625 C 3.2226738 12.590475 3.7723671 12.887063 4.5 13.125 C 5.4242719 13.427243 5.9961892 13.821684 6.5625 14.6875 C 7.1288108 15.553316 7.6541889 16.918913 8.3125 19.09375 C 8.9435106 21.178423 9.4705939 22.622374 10.09375 23.65625 C 10.716906 24.690126 11.464902 25.319209 12.375 25.6875 C 14.662551 26.65674 17.134032 26.705111 19.75 25.6875 A 0.43057229 0.43057229 0 0 0 19.8125 25.65625 C 20.818477 25.099304 21.563051 24.441583 22.15625 23.46875 C 22.749449 22.495917 23.181567 21.244163 23.6875 19.375 C 24.313773 17.061205 24.768739 15.698315 25.25 14.84375 C 25.731261 13.989185 26.211393 13.589028 27.15625 13.09375 C 27.682438 12.817925 28.137 12.530429 28.46875 12.25 C 28.8005 11.969571 29.09375 11.734206 29.09375 11.28125 C 29.09375 11.028071 29.077745 10.789487 28.875 10.5625 C 28.672255 10.335513 28.317334 10.278893 28.0625 10.34375 C 27.552831 10.473464 26.990528 10.873755 26.0625 11.53125 C 25.206781 12.137522 23.347007 13.191325 22.03125 13.8125 C 19.83655 14.848615 19.428097 14.894848 16.0625 14.875 C 11.924411 14.850571 9.5343036 14.062975 5.59375 11.40625 C 4.9422138 10.966989 4.3777119 10.628428 3.9375 10.4375 C 3.7173941 10.342036 3.5362011 10.274695 3.34375 10.25 z M 22.6875 15.8125 C 22.328168 18.850108 21.539597 21.850403 18.71875 23.84375 C 18.710598 23.847564 18.695724 23.839972 18.6875 23.84375 C 18.67498 23.852546 18.668848 23.866243 18.65625 23.875 C 17.910054 24.209945 16.882869 24.390104 15.90625 24.40625 C 14.904497 24.422812 13.967762 24.23598 13.4375 23.9375 C 11.60358 22.871026 11.111735 21.65053 10.78125 20.15625 C 10.51256 18.941375 10.3526 17.541122 9.78125 16.0625 C 11.578957 17.107583 12.988834 17.405116 16.15625 17.40625 C 17.618639 17.396209 19.154422 17.133377 20.46875 16.75 C 21.348695 16.493329 22.063336 16.175385 22.6875 15.8125 z "
     style="fill:#323232;fill-opacity:1"
     id="path12244"
     d="m 2.71875,7.59375 c -0.6139757,0 -1.0310144,0.4305251 -1.34375,0.84375 -0.3178721,0.4200119 -0.58408502,0.9390122 -0.78125,1.5 -0.19714575,0.560933 -0.33903173,1.18888 -0.375,1.75 -0.0354092,0.552398 0.007662,1.082325 0.3125,1.5625 0.0688815,0.1085 0.21859134,0.295607 0.5,0.34375 C 1.3091808,13.641298 1.5104385,13.53973 1.625,13.4375 1.8038127,13.277934 1.8666131,13.101248 1.90625,13 2.004091,12.750078 2.0653253,12.425274 2.125,12.0625 c 0.022004,-0.133738 0.1171583,-0.385009 0.1875,-0.59375 0.046999,0.299105 0.1806849,0.601061 0.375,0.84375 0.390711,0.487976 1.0006988,0.786227 1.75,1.03125 0.8939886,0.29234 1.3930341,0.636332 1.9375,1.46875 0.5407147,0.826683 1.0625872,2.17601 1.71875,4.34375 0.6328115,2.090623 1.1695875,3.558346 1.8125,4.625 0.644385,1.069097 1.420008,1.738542 2.375,2.125 2.341116,0.991936 4.897426,1.036713 7.5625,0 0.0024,-9.84e-4 0.02885,0.0011 0.03125,0 0.0024,-0.0011 -0.0024,-0.03007 0,-0.03125 0.0024,-0.0012 0.02894,0.0013 0.03125,0 0.0012,-6.37e-4 0.02596,0.0031 0.03125,0 1.031659,-0.571164 1.791991,-1.273878 2.40625,-2.28125 0.613502,-1.006129 1.054657,-2.280032 1.5625,-4.15625 0.62485,-2.308537 1.102654,-3.652211 1.5625,-4.46875 0.463806,-0.82357 0.884802,-1.169966 1.8125,-1.65625 0.536401,-0.281179 0.991586,-0.577315 1.34375,-0.875 0.164554,-0.139098 0.330783,-0.287832 0.46875,-0.46875 0.07439,-0.09755 0.114085,-0.216921 0.15625,-0.34375 0.04252,0.139191 0.142844,0.310088 0.15625,0.40625 0.05249,0.376473 0.116093,0.666736 0.21875,0.90625 0.04553,0.106227 0.116412,0.24147 0.25,0.375 0.08256,0.08252 0.185008,0.142806 0.3125,0.1875 0.127492,0.04469 0.276411,0.07194 0.4375,0.03125 0.299351,-0.07561 0.445111,-0.309748 0.5,-0.40625 0.06757,-0.118799 0.09231,-0.237171 0.125,-0.375 0.06101,-0.257261 0.125,-0.582324 0.125,-0.96875 0,-0.734086 -0.22667,-1.477009 -0.53125,-2.125 C 30.539576,9.0091237 30.136866,8.4377188 29.5625,8.09375 29.300203,7.9366635 29.082694,7.8067964 28.8125,7.75 28.659671,7.7178742 28.456682,7.7118465 28.25,7.8125 28.001268,7.9336318 27.841816,8.1472895 27.8125,8.40625 27.77332,8.7523375 27.882393,8.9908363 28,9.21875 c 0.129279,0.2505323 0.324307,0.559295 0.5625,0.875 0.0042,0.0055 -0.0042,0.02554 0,0.03125 -0.184347,-0.04397 -0.393842,-0.04293 -0.5625,0 -0.581846,0.148084 -1.134647,0.561379 -2.0625,1.21875 -0.829395,0.587622 -2.69977,1.636155 -4,2.25 -2.186937,1.03245 -2.511674,1.051085 -5.875,1.03125 -4.108715,-0.02426 -6.4219255,-0.762152 -10.34375,-3.40625 -0.6573143,-0.443157 -1.2214508,-0.797866 -1.6875,-1 C 3.8049439,10.120597 3.6025846,10.060453 3.375,10.03125 3.2459944,10.014697 3.0986034,10.01356 2.9375,10.0625 2.9693261,10.006891 3.0003014,9.9237515 3.03125,9.875 3.3935423,9.3043337 3.6012487,9.04699 3.6875,8.625 c 0.015951,-0.078043 0.081406,-0.2912317 0,-0.5 C 3.6016694,7.9048854 3.4227529,7.7876251 3.28125,7.71875 3.0449891,7.6037525 2.8565491,7.59375 2.71875,7.59375 z M 22.40625,16.25 c -0.379302,2.817442 -1.205657,5.505876 -3.75,7.34375 -0.01162,0.0016 -0.01471,0.02591 -0.03125,0.03125 -0.01103,0.0036 -0.03084,-1.89e-4 -0.03125,0 a 0.23575929,0.23575929 0 0 0 -0.03125,0.03125 c -0.701272,0.31478 -1.705879,0.484288 -2.65625,0.5 -0.970026,0.01604 -1.88026,-0.176605 -2.34375,-0.4375 -1.782189,-1.036391 -2.23682,-2.152446 -2.5625,-3.625 -0.230741,-1.043287 -0.421599,-2.26739 -0.84375,-3.5625 1.614465,0.839376 3.115218,1.123967 6,1.125 1.489499,-0.01023 3.041086,-0.29841 4.375,-0.6875 0.716796,-0.209082 1.331268,-0.436834 1.875,-0.71875 z"
     transform="translate(0.43709856,0)" />
  <path
     style="fill:#ffffff"
     d="m 12.976295,25.282733 c -1.664346,-0.673514 -2.579201,-2.183309 -3.8331091,-6.325847 -1.324058,-4.374239 -2.120861,-5.588168 -4.090766,-6.23234 -1.369727,-0.447902 -1.884551,-1.108194 -1.542927,-1.978887 0.0956,-0.243633 0.995432,0.160561 2.268966,1.019169 3.9759483,2.680588 6.5222701,3.523596 10.7179631,3.548365 3.374487,0.0199 3.953761,-0.08627 6.164624,-1.130016 1.342086,-0.633605 3.178575,-1.675155 4.081055,-2.314557 1.83675,-1.301312 2.34042,-1.427991 2.34042,-0.588646 0,0.346996 -0.66167,0.920743 -1.67346,1.451119 -1.95259,1.023514 -2.44422,1.891395 -3.700442,6.532563 -1.004041,3.709419 -1.762364,4.944671 -3.69099,6.012429 -2.527139,0.983057 -4.849737,0.935184 -7.041334,0.0066 z m 6.361195,-1.067434 c 3.30185,-2.29509 4.034388,-5.864826 4.348447,-9.263448 -1.1477,1.065251 -4.251496,2.004622 -7.082481,2.02406 -3.351525,-0.0012 -4.560767,-0.275272 -6.497487,-1.471957 -0.3361238,-0.207689 -0.6453051,-0.323756 -0.6870961,-0.257928 1.9024801,3.532282 0.3543073,6.813309 4.2218271,9.062375 1.293287,0.72798 4.037314,0.683135 5.696728,-0.0931 z M 1.5302119,12.891086 c -0.72046402,-1.13486 0.498718,-4.6126062 1.617032,-4.6126062 0.50388,0 0.485335,0.09515 -0.241602,1.240188 -0.433013,0.6820992 -0.877225,1.7867392 -0.987135,2.4547502 -0.109885,0.668011 -0.284627,1.080964 -0.388295,0.917668 z m 28.9670691,-0.95676 c -0.0925,-0.663512 -0.52099,-1.673962 -0.95218,-2.2454482 -0.89094,-1.18087 -0.84152,-1.617322 0.11803,-1.04266 0.79372,0.475333 1.47427,1.9236882 1.47427,3.1374882 0,1.391825 -0.45223,1.498229 -0.64012,0.15062 z"
     id="path2996"
     inkscape:connector-curvature="0"
     sodipodi:nodetypes="csscssssssscccccsccccssccscccsc" />
</svg>
