<?xml version="1.0" encoding="UTF-8" standalone="no"?>
<!-- Created with Inkscape (http://www.inkscape.org/) -->

<svg
   xmlns:dc="http://purl.org/dc/elements/1.1/"
   xmlns:cc="http://creativecommons.org/ns#"
   xmlns:rdf="http://www.w3.org/1999/02/22-rdf-syntax-ns#"
   xmlns:svg="http://www.w3.org/2000/svg"
   xmlns="http://www.w3.org/2000/svg"
   xmlns:sodipodi="http://sodipodi.sourceforge.net/DTD/sodipodi-0.dtd"
   xmlns:inkscape="http://www.inkscape.org/namespaces/inkscape"
   id="svg2"
   version="1.1"
   inkscape:version="0.48.4 r9939"
   width="32"
   height="32"
   sodipodi:docname="tag_sick.svg"
   inkscape:export-filename="/home/petr/project/android-git/Sleep-actionbar2/res/drawable-xhdpi/tag_sick.png"
   inkscape:export-xdpi="135"
   inkscape:export-ydpi="135">
  <metadata
     id="metadata8">
    <rdf:RDF>
      <cc:Work
         rdf:about="">
        <dc:format>image/svg+xml</dc:format>
        <dc:type
           rdf:resource="http://purl.org/dc/dcmitype/StillImage" />
        <dc:title></dc:title>
      </cc:Work>
    </rdf:RDF>
  </metadata>
  <defs
     id="defs6" />
  <sodipodi:namedview
     pagecolor="#ffffff"
     bordercolor="#666666"
     borderopacity="1"
     objecttolerance="10"
     gridtolerance="10"
     guidetolerance="10"
     inkscape:pageopacity="0"
     inkscape:pageshadow="2"
     inkscape:window-width="1317"
     inkscape:window-height="744"
     id="namedview4"
     showgrid="false"
     inkscape:zoom="9.1512545"
     inkscape:cx="6.1118691"
     inkscape:cy="22.279059"
     inkscape:window-x="49"
     inkscape:window-y="24"
     inkscape:window-maximized="1"
     inkscape:current-layer="svg2" />
  <path
     sodipodi:type="inkscape:offset"
     inkscape:radius="0.26070169"
     inkscape:original="M 28.1875 0.53125 C 28.114208 0.53346932 27.985998 0.53041688 27.84375 0.59375 C 27.772565 0.62545379 27.792941 0.62438604 27.75 0.625 C 27.707059 0.62561396 27.556661 0.62520715 27.4375 0.6875 C 27.199178 0.81208571 26.93696 1.0630418 26.1875 1.8125 C 18.297837 9.7021625 13.663918 14.405532 10.96875 17.25 C 9.6211662 18.672234 8.7586506 19.632218 8.21875 20.3125 C 7.6788494 20.992782 7.426216 21.380788 7.375 21.75 C 7.3300927 22.073722 7.0852219 22.558292 6.5625 23.25 C 6.0397781 23.941708 5.2574705 24.828503 4.15625 25.9375 C 2.5145085 27.590816 1.5078158 28.755734 1.09375 29.625 C 0.88671709 30.059633 0.81169601 30.475269 1 30.8125 C 1.188304 31.149731 1.5741297 31.301266 2.03125 31.34375 C 2.5063614 31.387903 2.9787554 31.082987 3.65625 30.5625 C 4.3337446 30.042013 5.2022507 29.258796 6.3125 28.15625 C 7.4339803 27.042559 8.3111617 26.246338 9 25.71875 C 9.6888383 25.191162 10.176454 24.951132 10.5 24.90625 C 10.868999 24.855063 11.285491 24.602386 11.96875 24.0625 C 12.652009 23.522614 13.605039 22.660141 15.03125 21.3125 C 17.883671 18.617219 22.579028 13.983491 30.46875 6.09375 C 31.224904 5.3375958 31.444323 5.0177295 31.53125 4.75 C 31.574714 4.6161353 31.564328 4.4820534 31.5625 4.5 L 31.59375 4.53125 C 31.754611 4.377262 31.795353 4.1678775 31.78125 3.96875 C 31.767147 3.7696225 31.690366 3.5449806 31.59375 3.34375 C 31.400518 2.9412888 31.098616 2.536432 30.71875 2.125 C 30.338884 1.713568 29.903502 1.3212247 29.46875 1.03125 C 29.033998 0.74127529 28.613618 0.51789268 28.1875 0.53125 z M 27.9375 2.6875 C 27.942584 2.685829 27.9803 2.6816895 27.96875 2.6875 C 28.359784 2.7307593 28.890711 2.9308936 29.3125 3.15625 C 29.532182 3.2736231 29.708499 3.4050301 29.84375 3.5 C 29.911375 3.5474849 29.969255 3.5980382 30 3.625 C 30.01518 3.7575518 29.928867 4.0366483 29.6875 4.40625 C 29.419609 4.8164672 28.994076 5.2945084 28.5 5.8125 C 27.511849 6.8484832 26.276629 7.9744315 25.4375 8.90625 C 24.961652 9.4346647 24.490325 9.9500559 24.0625 10.3125 C 23.634675 10.674944 23.25778 10.86048 23.03125 10.84375 C 22.802591 10.826862 22.513469 10.631606 22.28125 10.34375 C 22.16514 10.199822 22.063253 10.04184 21.96875 9.90625 C 21.874247 9.7706599 21.813484 9.6678478 21.6875 9.5625 C 21.609166 9.4969987 21.598502 9.4591308 21.59375 9.40625 C 21.588998 9.3533692 21.616806 9.2381283 21.71875 9.0625 C 21.922639 8.7112435 22.421004 8.1321816 23.34375 7.3125 C 24.070736 6.666717 25.1663 5.495202 26.125 4.46875 C 26.60435 3.955524 27.054481 3.4908106 27.40625 3.15625 C 27.582135 2.9889697 27.733666 2.8318563 27.84375 2.75 C 27.887783 2.7172575 27.912387 2.7018831 27.9375 2.6875 z M 20.4375 10.25 C 20.491324 10.249613 20.495657 10.245653 20.5625 10.3125 C 20.623055 10.373055 20.625121 10.380503 20.625 10.4375 C 20.624879 10.494497 20.603433 10.606598 20.5 10.78125 C 20.293133 11.130553 19.808097 11.691903 19 12.5 C 18.191902 13.308097 17.630553 13.793133 17.28125 14 C 17.106598 14.103433 16.994497 14.124879 16.9375 14.125 C 16.880503 14.125121 16.873055 14.123055 16.8125 14.0625 C 16.750567 14.000567 16.749886 13.989808 16.75 13.9375 C 16.750114 13.885192 16.771767 13.764676 16.875 13.59375 C 17.081467 13.251898 17.566215 12.715036 18.375 11.90625 C 18.981583 11.299667 19.434988 10.862757 19.78125 10.59375 C 20.127512 10.324743 20.360727 10.250508 20.4375 10.25 z M 21.84375 12.1875 C 21.799771 12.256629 21.776398 12.294863 21.71875 12.375 C 21.416947 12.794543 20.94687 13.33438 20.375 13.90625 C 19.804094 14.477156 19.26223 14.956394 18.84375 15.25 C 18.76738 15.303581 18.722632 15.302535 18.65625 15.34375 C 18.700229 15.274621 18.723602 15.236387 18.78125 15.15625 C 19.083052 14.736707 19.55313 14.19687 20.125 13.625 C 20.623795 13.126206 21.101042 12.700739 21.5 12.40625 C 21.628445 12.311439 21.737768 12.254195 21.84375 12.1875 z M 15.5625 15.125 C 15.618121 15.126258 15.628486 15.128487 15.6875 15.1875 C 15.746307 15.246308 15.749168 15.25621 15.75 15.3125 C 15.750832 15.36879 15.749467 15.492285 15.65625 15.65625 C 15.469817 15.98418 15.011025 16.488972 14.28125 17.21875 C 13.551472 17.948528 13.036636 18.384633 12.71875 18.5625 C 12.559807 18.651434 12.45877 18.658207 12.40625 18.65625 C 12.35373 18.654293 12.34285 18.65535 12.28125 18.59375 C 12.221046 18.533546 12.219531 18.520374 12.21875 18.46875 C 12.217969 18.417126 12.219533 18.31644 12.3125 18.15625 C 12.498434 17.83587 12.956959 17.324289 13.6875 16.59375 C 14.235543 16.045708 14.655293 15.643209 14.96875 15.40625 C 15.282207 15.169291 15.486204 15.123227 15.5625 15.125 z M 16.875 17.21875 C 16.600875 17.597223 16.192775 18.088476 15.6875 18.59375 C 15.169964 19.111286 14.671664 19.56226 14.28125 19.84375 C 14.271681 19.850649 14.25943 19.837043 14.25 19.84375 C 14.531533 19.460723 14.981404 18.956099 15.5 18.4375 C 15.954019 17.983481 16.387445 17.595512 16.75 17.3125 C 16.798725 17.274465 16.829472 17.252491 16.875 17.21875 z M 11.125 19.4375 C 11.178626 19.437439 11.143027 19.400142 11.1875 19.5 C 11.260982 19.665 11.304018 19.849857 11.3125 19.96875 C 11.320982 20.087643 11.260968 20.094677 11.34375 20.03125 C 11.215536 20.129434 11.057951 20.310684 10.8125 20.5625 C 10.567049 20.814316 10.270432 21.113012 9.96875 21.4375 C 9.5598101 21.877368 9.2898991 22.254493 9.15625 22.5625 C 9.0894255 22.716504 9.050651 22.843115 9.0625 23 C 9.074349 23.156885 9.1881219 23.364604 9.34375 23.4375 C 9.4993781 23.510396 9.6661986 23.472952 9.8125 23.4375 C 9.3566687 23.576871 8.8090501 23.882818 8.15625 24.34375 C 7.7209166 24.651132 7.2586187 25.057994 6.8125 25.4375 C 7.2630701 24.862923 7.7080722 24.280888 8.0625 23.75 C 8.5340281 23.04371 8.8781024 22.475407 9 22.0625 C 9.1922648 21.411238 9.62598 20.722215 10.0625 20.21875 C 10.28076 19.967017 10.490401 19.76163 10.6875 19.625 C 10.884599 19.48837 11.057383 19.437578 11.125 19.4375 z M 12.6875 21.375 C 12.676092 21.408493 12.68186 21.422397 12.65625 21.46875 C 12.553812 21.654161 12.318515 21.93338 12.03125 22.1875 C 11.555893 22.60801 10.906536 23.004963 10.28125 23.25 C 10.606968 23.063387 10.984105 22.765894 11.40625 22.34375 C 11.775582 21.974416 12.150073 21.675283 12.4375 21.5 C 12.543809 21.435169 12.618074 21.402334 12.6875 21.375 z "
     style="fill:#323232;fill-opacity:1"
     id="path4375"
     d="m 28.1875,0.28125 c -0.05687,0.001722 -0.239234,-0.025774 -0.4375,0.0625 -0.04304,0.0191705 -0.08981,0.042484 -0.0625,0.03125 -0.06442,-5.7901e-4 -0.202846,0.003754 -0.375,0.09375 C 27.016376,0.62355249 26.750383,0.87461849 26,1.625 18.109796,9.5152034 13.480347,14.213885 10.78125,17.0625 9.431581,18.486935 8.5497067,19.463612 8,20.15625 c -0.5452898,0.687072 -0.8111678,1.102339 -0.875,1.5625 -0.032049,0.231033 -0.2702259,0.698771 -0.78125,1.375 -0.5119072,0.677397 -1.2792434,1.552756 -2.375,2.65625 -1.6473385,1.658952 -2.6792717,2.814263 -3.125,3.75 -0.22426774,0.470815 -0.30962696,0.994924 -0.0625,1.4375 0.2459981,0.440554 0.718212,0.609731 1.21875,0.65625 0.6010771,0.05586 1.1275854,-0.286313 1.8125,-0.8125 0.6923323,-0.531886 1.5728179,-1.330552 2.6875,-2.4375 1.1173352,-1.109575 1.9831144,-1.890689 2.65625,-2.40625 0.6719917,-0.514685 1.141447,-0.748852 1.375,-0.78125 0.458212,-0.06356 0.901101,-0.327695 1.59375,-0.875 0.696704,-0.55051 1.665758,-1.431926 3.09375,-2.78125 2.857031,-2.699637 7.547298,-7.328529 15.4375,-15.21875 0.764317,-0.7643169 1.017115,-1.1052215 1.125,-1.4375 0.01551,-0.047778 -0.0069,-0.083666 0,-0.125 0.01133,-0.010849 0.02076,-0.020023 0.03125,-0.03125 0.202711,-0.2168485 0.235401,-0.5149029 0.21875,-0.75 C 32.013412,3.6856408 31.949807,3.4396432 31.84375,3.21875 31.634186,2.7822728 31.297237,2.3609775 30.90625,1.9375 30.51507,1.5138136 30.083218,1.1181265 29.625,0.8125 29.177126,0.51377331 28.709962,0.26487263 28.1875,0.28125 z m -0.25,2.40625 0.09375,0.25 c 0.0098,-0.00645 0.02159,-0.02572 0.03125,-0.03125 L 27.9375,2.6875 z m 0.09375,0.25 c -0.01042,0 -0.05208,0 -0.0625,0 0.01016,0.0013 0.02077,0.029681 0.03125,0.03125 0.01904,-0.014156 0.02148,-0.024802 0.03125,-0.03125 z M 30,3.625 29.75,3.65625 c -5.59e-4,-0.00488 -0.0253,0.061212 -0.03125,0.09375 0.03633,0.028173 0.07197,0.043398 0.09375,0.0625 L 30,3.625 z m -9.6875,6.9375 c -0.01272,0.03489 0.0046,0.03327 -0.03125,0.09375 -0.178225,0.300939 -0.666456,0.853956 -1.46875,1.65625 -0.802295,0.802294 -1.355311,1.290525 -1.65625,1.46875 -0.06048,0.03582 -0.05886,0.01853 -0.09375,0.03125 0.01267,-0.0364 -0.0033,-0.03652 0.03125,-0.09375 0.175556,-0.290672 0.663924,-0.820173 1.46875,-1.625 0.604912,-0.604912 1.049666,-1.028502 1.375,-1.28125 0.159913,-0.124235 0.284366,-0.207409 0.375,-0.25 z m -4.84375,4.875 c -0.0079,0.03029 -0.0026,0.0434 -0.03125,0.09375 -0.152422,0.268106 -0.617848,0.774095 -1.34375,1.5 -0.723149,0.723149 -1.235906,1.164732 -1.5,1.3125 -0.06139,0.03435 -0.06744,0.02457 -0.09375,0.03125 0.006,-0.02424 -0.0037,-0.03362 0.03125,-0.09375 0.153012,-0.263652 0.617672,-0.773924 1.34375,-1.5 0.546109,-0.546108 0.96052,-0.937416 1.25,-1.15625 0.219883,-0.166221 0.300951,-0.175104 0.34375,-0.1875 z M 11,19.75 c 0.01902,0.06646 0.0558,0.14098 0.0625,0.1875 0.001,0.007 -7e-4,0.02503 0,0.03125 -0.124727,0.116796 -0.256948,0.221016 -0.4375,0.40625 -0.244099,0.250429 -0.538368,0.546532 -0.84375,0.875 -0.1751678,0.188416 -0.2462736,0.330889 -0.375,0.5 C 9.616932,21.2599 9.91954,20.75614 10.25,20.375 10.46011,20.132666 10.676051,19.96 10.84375,19.84375 10.902801,19.802815 10.952268,19.772395 11,19.75 z M 8.8125,23.03125 C 8.82564,23.205228 8.880243,23.365881 9,23.5 c -0.2374237,0.126882 -0.5130454,0.287568 -0.78125,0.46875 0.015345,-0.02269 0.04745,-0.03996 0.0625,-0.0625 0.2139058,-0.320404 0.3746566,-0.607669 0.53125,-0.875 z"
     transform="matrix(0.96868278,0,0,0.96868278,0.01977583,0.98961491)" />
  <path
     inkscape:connector-curvature="0"
     style="fill:#ffffff"
     d="m 27.322792,1.8052943 c -0.07838,0.00237 -0.144389,0.015999 -0.208979,0.044756 C 26.707211,2.031139 27.03515,1.5256889 25.591259,2.9695769 10.306806,18.25403 7.5907503,21.112067 7.4549453,22.091073 7.342537,22.901387 6.389033,24.156885 4.2456386,26.315416 1.0804541,29.502917 0.4265658,30.899043 2.021515,31.047277 2.5880919,31.09993 3.7901426,30.174332 5.9323902,28.046949 8.1139842,25.880508 9.3596225,24.935362 10.17166,24.822716 11.150667,24.686911 14.023655,21.970869 29.308084,6.6864023 30.751972,5.2425142 30.091151,5.4716401 30.412681,5.1638473 31.070348,4.5342807 28.498409,1.7684191 27.322792,1.8052706 z m -0.253759,1.4777743 c 0.922932,0.070633 2.248508,0.9175349 2.298758,1.0598171 0.377728,1.0695517 -2.918762,3.7284034 -4.507956,5.4931385 C 23.935957,10.861962 23.03222,11.844999 22.307316,11.791461 21.582418,11.737922 21.07598,10.671473 20.84447,10.477885 20.381442,10.09071 20.636686,9.4541033 22.44166,7.8507325 23.795394,6.648208 26.608081,3.2477684 27.069033,3.2830686 z m -7.254526,7.3440864 c 0.132819,-9.54e-4 0.22988,0.05075 0.328394,0.14927 0.394054,0.394055 0.06858,0.946455 -1.507628,2.522665 -1.576211,1.576211 -2.143537,1.916609 -2.53759,1.522555 -0.394054,-0.394055 -0.05365,-0.946454 1.522553,-2.522664 1.182158,-1.182158 1.795817,-1.669188 2.194271,-1.671826 z m 1.746461,1.641971 c 0.04889,-0.0047 0.08104,0.0064 0.104488,0.02985 0.187645,0.187645 -0.560888,1.232602 -1.686752,2.358466 -1.125864,1.125864 -2.170821,1.874398 -2.358468,1.686752 -0.187644,-0.187646 0.560888,-1.232602 1.686752,-2.358467 0.985131,-0.98513 1.911746,-1.68326 2.25398,-1.716606 z m -6.478322,3.074963 c 0.128472,0.0029 0.246088,0.05204 0.343321,0.14927 0.388933,0.388939 0.06773,0.9473 -1.358358,2.373395 -1.426095,1.426095 -1.969529,1.732369 -2.358467,1.34343 -0.388938,-0.388938 -0.08267,-0.932371 1.34343,-2.358466 1.069573,-1.069571 1.644656,-1.516584 2.030074,-1.507629 z m 1.806168,1.701679 c 0.04405,-0.0057 0.06924,-0.0053 0.08956,0.01491 0.16255,0.162544 -0.530685,1.12777 -1.552408,2.149489 -1.021724,1.021724 -2.001872,1.729885 -2.164416,1.567336 -0.162549,-0.162544 0.545617,-1.127765 1.567336,-2.149489 0.894011,-0.894011 1.751604,-1.542635 2.059926,-1.582262 z m -6.090219,2.477883 c 0.154299,-1.76e-4 0.271117,0.06178 0.34332,0.223905 0.1681,0.377455 0.197525,0.775102 0.05971,0.880695 -0.13785,0.105563 -0.73182,0.702768 -1.3135774,1.328503 -1.5287451,1.644363 -0.6367693,2.069757 0.9702554,0.462737 0.743068,-0.743074 1.500988,-1.200806 1.686751,-1.015037 0.496719,0.496719 -1.332706,2.119703 -2.8659838,2.537592 -0.7299045,0.198937 -2.3411614,1.319146 -3.582482,2.49281 l -2.2539778,2.134562 2.1345619,-2.582372 c 1.1768773,-1.423874 2.2929161,-3.105195 2.4778868,-3.731752 0.4042381,-1.369283 1.6749149,-2.730868 2.3435399,-2.731643 z m -7.7471171,9.657774 c 0.1902927,-0.0354 0.048121,0.220566 -0.3582475,0.626935 -0.4644235,0.464418 -0.7206663,0.564742 -0.5821538,0.238831 0.1385085,-0.325904 0.5100073,-0.697404 0.8359131,-0.835912 0.040741,-0.01729 0.077301,-0.02479 0.1044882,-0.02986 z"
     id="path2996-7" />
</svg>
