<?xml version="1.0" encoding="UTF-8" standalone="no"?>
<!-- Created with Inkscape (http://www.inkscape.org/) -->

<svg
   xmlns:dc="http://purl.org/dc/elements/1.1/"
   xmlns:cc="http://creativecommons.org/ns#"
   xmlns:rdf="http://www.w3.org/1999/02/22-rdf-syntax-ns#"
   xmlns:svg="http://www.w3.org/2000/svg"
   xmlns="http://www.w3.org/2000/svg"
   xmlns:sodipodi="http://sodipodi.sourceforge.net/DTD/sodipodi-0.dtd"
   xmlns:inkscape="http://www.inkscape.org/namespaces/inkscape"
   id="svg2"
   version="1.1"
   inkscape:version="0.48.4 r9939"
   width="256"
   height="256"
   sodipodi:docname="tag_geo_all.svg"
   inkscape:export-filename="/home/petr/project/android-git/Sleep-actionbar2/res/drawable-xxhdpi/tag_home.png"
   inkscape:export-xdpi="22.5"
   inkscape:export-ydpi="22.5">
  <metadata
     id="metadata8">
    <rdf:RDF>
      <cc:Work
         rdf:about="">
        <dc:format>image/svg+xml</dc:format>
        <dc:type
           rdf:resource="http://purl.org/dc/dcmitype/StillImage" />
        <dc:title></dc:title>
      </cc:Work>
    </rdf:RDF>
  </metadata>
  <defs
     id="defs6" />
  <sodipodi:namedview
     pagecolor="#ffffff"
     bordercolor="#666666"
     borderopacity="1"
     objecttolerance="10"
     gridtolerance="10"
     guidetolerance="10"
     inkscape:pageopacity="0"
     inkscape:pageshadow="2"
     inkscape:window-width="1307"
     inkscape:window-height="744"
     id="namedview4"
     showgrid="false"
     showguides="true"
     inkscape:guide-bbox="true"
     inkscape:zoom="0.921875"
     inkscape:cx="37.968783"
     inkscape:cy="-2.1694915"
     inkscape:window-x="59"
     inkscape:window-y="24"
     inkscape:window-maximized="1"
     inkscape:current-layer="svg2" />
  <rect
     style="fill:#000000;fill-opacity:0.50684928;stroke:none"
     id="rect3183"
     width="1127.0509"
     height="339.52542"
     x="-402.44067"
     y="278.77966"
     rx="9.7627192"
     ry="7.0508475" />
  <path
     style="fill:#ffffff"
     d="m -267.94782,323.50342 c -8.70396,0 -17.40792,0.65417 -22,1.90625 -19.10681,5.20966 -31.25952,11.99027 -44.71876,24.96875 -17.91846,17.27842 -27.57299,38.36238 -28.9375,63.1875 -0.99406,18.08558 2.79791,32.80054 14.6875,57 14.87584,30.27753 39.35081,63.91422 72.90626,100.1875 4.1666,4.50408 7.7029,8.2166 7.875,8.25 1.29164,0.25082 26.57011,-28.34611 39.28124,-44.4375 20.18665,-25.55487 31.49109,-42.80151 41.90625,-64 11.88959,-24.19946 15.68156,-38.91442 14.6875,-57 -1.36451,-24.82512 -11.05029,-45.90908 -28.96875,-63.1875 -13.45924,-12.97848 -25.61195,-19.75909 -44.71875,-24.96875 -4.59207,-1.25208 -13.29604,-1.90625 -21.99999,-1.90625 z m -1.90625,36.8125 c 12.0787,1.2e-4 21.21025,3.01705 27.37499,9.03125 6.21473,5.96431 9.31243,13.51576 9.3125,22.6875 -7e-5,6.96667 -1.77296,14.35658 -5.28125,22.125 -3.4583,7.76856 -13.70947,24.22752 -30.74999,49.4375 l 33.31249,0 0,20.75 -66.8125,0 0,-17.34375 c 19.79713,-32.37705 31.54114,-52.39417 35.25,-60.0625 3.75892,-7.71829 5.62496,-13.75215 5.625,-18.0625 -4e-5,-3.30778 -0.56605,-5.77108 -1.71875,-7.375 -1.10267,-1.65383 -2.81955,-2.46864 -5.12499,-2.46875 -2.30554,1.1e-4 -4.03479,0.91456 -5.1875,2.71875 -1.10266,1.8044 -1.65629,5.38733 -1.65625,10.75 l 0,11.5625 -27.18751,0 0,-4.4375 c 0,-6.81614 0.32957,-12.18434 1.03125,-16.09375 0.70167,-3.95932 2.43093,-7.81582 5.1875,-11.625 2.75656,-3.80895 6.33948,-6.70148 10.75001,-8.65625 4.41048,-1.95453 9.71028,-2.93738 15.875,-2.9375 z"
     id="path3074"
     inkscape:connector-curvature="0" />
  <path
     style="fill:#ffffff"
     d="m 478.3885,328.94277 c -8.70396,0 -17.40792,0.62292 -22,1.875 -19.10679,5.20966 -31.29075,12.02152 -44.74999,25 -17.91846,17.27842 -27.57299,38.36238 -28.9375,63.1875 -0.99406,18.08559 2.79791,32.7693 14.6875,56.96876 14.87584,30.27753 39.35081,63.91422 72.90624,100.1875 4.16661,4.50408 7.73415,8.2166 7.90625,8.25 1.29165,0.25082 26.57012,-28.34611 39.28125,-44.4375 20.18665,-25.55487 31.45984,-42.80151 41.875,-64 11.88959,-24.19946 15.68156,-38.88317 14.6875,-56.96876 -1.36451,-24.82512 -11.01904,-45.90908 -28.9375,-63.1875 -13.45924,-12.97848 -25.61195,-19.79034 -44.71875,-25 -4.59207,-1.25208 -13.29604,-1.875 -22,-1.875 z m 0,22.15625 c 1.0142,0.21486 6.37829,3.97975 14.4375,10.15625 l 13.84375,10.625 0.28125,-9.53125 0.3125,-9.5 9.71875,0 9.71875,0 0.28125,17.375 0.3125,17.375 13,9.9375 c 7.15153,5.46022 13.09832,10.22875 13.21875,10.59375 0.22832,0.69194 -10.37004,14.95909 -11.375,15.3125 -0.31581,0.11106 -2.14208,-1.03898 -4.0625,-2.5625 l -3.5,-2.78125 -0.15625,35.21876 -0.15625,35.1875 -55.53125,0 -55.53124,0 0,-35.21875 0,-35.21876 -3.5,2.75 c -1.91973,1.50707 -3.75989,2.70467 -4.09375,2.6875 -0.33387,-0.0172 -3.17104,-3.41945 -6.3125,-7.59375 -4.86836,-6.46898 -5.60417,-7.70997 -4.875,-8.40625 0.93537,-0.89314 72.64816,-55.64094 73.84374,-56.375 0.0286,-0.0175 0.0574,-0.0456 0.125,-0.0312 z m 0.4375,26.625 c -0.47168,0 -10.56421,7.36061 -22.4375,16.375 l -21.59374,16.40625 -0.0312,33.53126 -0.0312,33.53125 12.125,0 12.15624,0 0,-20.625 0,-20.65625 19.71875,0 19.71875,0 0,20.65625 0,20.625 12.15625,0 12.125,0 0,-33.53125 0,-33.53126 -21.53125,-16.40625 c -11.83829,-9.01439 -21.90331,-16.375 -22.375,-16.375 z"
     id="path2987-8"
     inkscape:connector-curvature="0" />
  <path
     style="fill:#ffffff"
     d="m 94.388511,333.28175 c -8.70396,0 -17.40792,0.62292 -22,1.875 -19.106805,5.20966 -31.290765,11.99027 -44.750005,24.96875 -17.9184596,17.27843 -27.57298964,38.36239 -28.9374996,63.18751 -0.99406,18.08558 2.79791,32.80054 14.6874996,57 14.87584,30.27753 39.35081,63.91422 72.906255,100.1875 4.16661,4.50408 7.73415,8.2166 7.90625,8.25 1.29165,0.25082 26.570119,-28.34611 39.281249,-44.4375 20.18665,-25.55487 31.45984,-42.80151 41.875,-64 11.88959,-24.19946 15.68156,-38.91442 14.6875,-57 -1.36451,-24.82512 -11.01904,-45.90908 -28.9375,-63.1875 -13.45924,-12.97848 -25.61195,-19.75909 -44.71875,-24.96875 -4.59207,-1.25208 -13.29604,-1.875 -21.999999,-1.875 z m -2.53125,36.46876 c 14.484439,1.2e-4 24.306399,2.83664 29.468749,8.5 5.16222,5.6636 7.74992,13.51986 7.75,23.59375 -8e-5,6.81632 -0.92691,11.7553 -2.78125,14.8125 -1.85449,3.00723 -5.12022,5.77535 -9.78125,8.28125 4.61091,1.55377 8.05706,4.09784 10.3125,7.65625 2.2553,3.50841 3.37492,11.78152 3.375,24.8125 -8e-5,9.67306 -1.10732,17.19975 -3.3125,22.5625 -2.20532,5.31266 -6.02468,9.34957 -11.4375,12.15625 -5.41295,2.75656 -12.34238,4.15625 -20.812499,4.15625 -9.62295,0 -17.20565,-1.60486 -22.71875,-4.8125 -5.46302,-3.25775 -9.058335,-7.21389 -10.812505,-11.875 -1.70406,-4.7112 -2.5625,-12.8599 -2.5625,-24.4375 l 0,-9.625 30.375005,0 0,19.78125 c -3e-5,5.26255 0.30478,8.60906 0.90625,10.0625 0.65152,1.40336 2.06358,2.09377 4.21875,2.09375 2.35557,2e-5 3.90442,-0.88319 4.65625,-2.6875 0.75174,-1.80428 1.12495,-6.53808 1.125,-14.15625 l 0,-8.40625 c -5e-5,-4.66105 -0.54129,-8.06357 -1.59375,-10.21875 -1.05255,-2.15508 -2.6014,-3.56714 -4.65625,-4.21875 -2.05493,-0.70161 -6.02345,-1.0872 -11.9375,-1.1875 l 0,-17.6875 c 7.21715,7e-5 11.6709,-0.26111 13.375,-0.8125 1.70402,-0.55124 2.93567,-1.77051 3.6875,-3.625 0.75174,-1.85433 1.12495,-4.75924 1.125,-8.71875 l 0,-6.75 c -5e-5,-4.26005 -0.44165,-7.08418 -1.34375,-8.4375 -0.85207,-1.35312 -2.20813,-2.03114 -4.0625,-2.03125 -2.10505,1.1e-4 -3.57313,0.73414 -4.375,2.1875 -0.75183,1.40344 -1.12503,4.43275 -1.125,9.09375 l 0,10 -30.375005,0 0,-10.375 c 0,-11.62758 2.65609,-19.47147 7.968755,-23.53125 5.31263,-4.10966 13.76615,-6.15613 25.34375,-6.15625 z"
     id="path3071"
     inkscape:connector-curvature="0" />
  <path
     style="fill:#ffffff"
     d="m -75.916583,323.51904 c -8.70396,0 -17.40792,0.62292 -22,1.875 -19.106797,5.20966 -31.259497,12.02152 -44.718747,25 -17.91846,17.27842 -27.60424,38.36238 -28.96875,63.1875 -0.99406,18.08558 2.79791,32.76929 14.6875,56.96875 14.87584,30.27753 39.35081,63.91422 72.906247,100.1875 4.16661,4.50408 7.73415,8.2166 7.90625,8.25 1.29165,0.25082 26.57013,-28.34611 39.28126,-44.4375 20.18665,-25.55487 31.4598396,-42.80151 41.8749996,-64 11.8895904,-24.19946 15.6815604,-38.88317 14.6875004,-56.96875 -1.36451,-24.82512 -11.0190404,-45.90908 -28.9375004,-63.1875 -13.4592396,-12.97848 -25.6119496,-19.79034 -44.7187496,-25 -4.59208,-1.25208 -13.29604,-1.875 -22.00001,-1.875 z m -2.21875,35.8125 17.87501,0 0,121.71875 -30.37501,0 0,-65.28125 c -2e-5,-9.42236 -0.20519,-15.06413 -0.65625,-16.96875 -0.45109,-1.90445 -1.69512,-3.3289 -3.75,-4.28125 -2.00478,-1.0023 -6.545797,-1.53116 -13.562497,-1.53125 l -3,0 0,-14.1875 c 14.684957,-3.15741 25.850587,-9.64525 33.468747,-19.46875 z"
     id="path3081"
     inkscape:connector-curvature="0" />
  <path
     style="fill:#ffffff"
     d="m 282.04952,321.34955 c -8.70396,0 -17.40793,0.62292 -22,1.875 -19.1068,5.20966 -31.25951,12.02152 -44.71875,25 -17.91846,17.27842 -27.60424,38.36238 -28.96875,63.1875 -0.99406,18.08559 2.79791,32.7693 14.6875,56.96876 14.87584,30.27753 39.35081,63.91422 72.90625,100.1875 4.16661,4.50408 7.73415,8.2166 7.90625,8.25 1.29165,0.25082 26.57012,-28.34611 39.28125,-44.4375 20.18665,-25.55487 31.45984,-42.80151 41.875,-64 11.88959,-24.19946 15.68156,-38.88317 14.6875,-56.96876 -1.36451,-24.82512 -11.01904,-45.90908 -28.9375,-63.1875 -13.45924,-12.97848 -25.61195,-19.79034 -44.71875,-25 -4.59208,-1.25208 -13.29604,-1.875 -22,-1.875 z m -0.40625,35.375 c 6.0766,-0.0162 12.10512,0.88052 17.8125,2.9375 13.87808,4.29219 21.95753,19.50421 19.46875,33.65625 -1.2296,14.14893 -13.87467,22.86241 -23.90625,31.18751 -5.60511,3.96044 -5.18285,11.30505 -4.84375,17.40625 l -21.46875,0 c -6.40063,1.74323 -3.34221,-6.11905 -3.9375,-10.125 0.0632,-13.17796 10.74362,-22.01632 20.3125,-29.37501 6.30086,-4.06894 10.01042,-15.39429 2.8125,-20.21875 -11.3615,-4.60821 -23.09326,2.89235 -33.28125,7.34375 -3.2952,-7.17245 -6.59814,-14.3335 -9.90625,-21.5 10.52484,-6.05225 22.08653,-10.56141 34.3125,-11.25 0.86924,-0.0392 1.75691,-0.0602 2.625,-0.0625 z m -2.96875,95.12501 c 8.96788,-0.11705 16.48339,6.20042 15.90625,15.8125 0.80474,9.00995 -7.31027,16.48976 -16.0625,15.90625 -8.89905,0.82714 -17.33418,-6.65574 -16.46875,-15.78125 -0.93043,-8.56868 6.37648,-16.09754 14.8125,-15.8125 0.60874,-0.066 1.21464,-0.1172 1.8125,-0.125 z"
     id="path3086"
     inkscape:connector-curvature="0" />
</svg>
